<svg width="471" height="239" viewBox="0 0 471 239" fill="none" xmlns="http://www.w3.org/2000/svg">
<path d="M0 49.9143C0 49.9143 105.084 0 235.104 0C365.123 0 470.208 49.9143 470.208 49.9143V188.961C470.208 188.961 365.123 238.875 235.104 238.875C115.771 238.875 0 188.961 0 188.961V49.9143Z" fill="#97A7C3"/>
<path d="M175.23 206.298C173.796 206.298 172.586 205.982 171.6 205.348C170.613 204.708 169.866 203.825 169.36 202.698C168.853 201.572 168.6 200.272 168.6 198.798C168.6 197.325 168.853 196.025 169.36 194.898C169.866 193.772 170.613 192.892 171.6 192.258C172.586 191.618 173.796 191.298 175.23 191.298C176.903 191.298 178.27 191.728 179.33 192.588C180.39 193.442 181.116 194.588 181.51 196.028L180.01 196.418C179.703 195.278 179.153 194.375 178.36 193.708C177.566 193.042 176.523 192.708 175.23 192.708C174.103 192.708 173.166 192.965 172.42 193.478C171.673 193.992 171.11 194.708 170.73 195.628C170.356 196.542 170.163 197.598 170.15 198.798C170.143 199.998 170.326 201.055 170.7 201.968C171.08 202.882 171.646 203.598 172.4 204.118C173.16 204.632 174.103 204.888 175.23 204.888C176.523 204.888 177.566 204.555 178.36 203.888C179.153 203.215 179.703 202.312 180.01 201.178L181.51 201.568C181.116 203.008 180.39 204.158 179.33 205.018C178.27 205.872 176.903 206.298 175.23 206.298Z" fill="#ECECF0"/>
<path d="M188.286 206.298C187.233 206.298 186.32 206.065 185.546 205.598C184.78 205.132 184.183 204.475 183.756 203.628C183.33 202.782 183.116 201.788 183.116 200.648C183.116 199.468 183.326 198.448 183.746 197.588C184.166 196.728 184.756 196.065 185.516 195.598C186.283 195.132 187.186 194.898 188.226 194.898C189.293 194.898 190.203 195.145 190.956 195.638C191.71 196.125 192.28 196.825 192.666 197.738C193.053 198.652 193.23 199.742 193.196 201.008H191.696V200.488C191.67 199.088 191.366 198.032 190.786 197.318C190.213 196.605 189.373 196.248 188.266 196.248C187.106 196.248 186.216 196.625 185.596 197.378C184.983 198.132 184.676 199.205 184.676 200.598C184.676 201.958 184.983 203.015 185.596 203.768C186.216 204.515 187.093 204.888 188.226 204.888C189 204.888 189.673 204.712 190.246 204.358C190.826 203.998 191.283 203.482 191.616 202.808L192.986 203.338C192.56 204.278 191.93 205.008 191.096 205.528C190.27 206.042 189.333 206.298 188.286 206.298ZM184.156 201.008V199.778H192.406V201.008H184.156Z" fill="#ECECF0"/>
<path d="M200.265 206.298C199.272 206.298 198.432 206.048 197.745 205.548C197.059 205.042 196.539 204.358 196.185 203.498C195.832 202.632 195.655 201.662 195.655 200.588C195.655 199.495 195.832 198.522 196.185 197.668C196.545 196.808 197.072 196.132 197.765 195.638C198.459 195.145 199.312 194.898 200.325 194.898C201.312 194.898 202.159 195.148 202.865 195.648C203.572 196.148 204.112 196.828 204.485 197.688C204.865 198.548 205.055 199.515 205.055 200.588C205.055 201.668 204.865 202.638 204.485 203.498C204.105 204.358 203.559 205.042 202.845 205.548C202.132 206.048 201.272 206.298 200.265 206.298ZM195.405 210.798V195.198H196.725V203.328H196.885V210.798H195.405ZM200.115 204.928C200.869 204.928 201.495 204.738 201.995 204.358C202.495 203.978 202.869 203.462 203.115 202.808C203.369 202.148 203.495 201.408 203.495 200.588C203.495 199.775 203.372 199.042 203.125 198.388C202.879 197.735 202.502 197.218 201.995 196.838C201.495 196.458 200.859 196.268 200.085 196.268C199.332 196.268 198.705 196.452 198.205 196.818C197.712 197.185 197.342 197.695 197.095 198.348C196.849 198.995 196.725 199.742 196.725 200.588C196.725 201.422 196.849 202.168 197.095 202.828C197.342 203.482 197.715 203.995 198.215 204.368C198.715 204.742 199.349 204.928 200.115 204.928Z" fill="#ECECF0"/>
<path d="M211.821 206.298C210.768 206.298 209.855 206.065 209.081 205.598C208.315 205.132 207.718 204.475 207.291 203.628C206.865 202.782 206.651 201.788 206.651 200.648C206.651 199.468 206.861 198.448 207.281 197.588C207.701 196.728 208.291 196.065 209.051 195.598C209.818 195.132 210.721 194.898 211.761 194.898C212.828 194.898 213.738 195.145 214.491 195.638C215.245 196.125 215.815 196.825 216.201 197.738C216.588 198.652 216.765 199.742 216.731 201.008H215.231V200.488C215.205 199.088 214.901 198.032 214.321 197.318C213.748 196.605 212.908 196.248 211.801 196.248C210.641 196.248 209.751 196.625 209.131 197.378C208.518 198.132 208.211 199.205 208.211 200.598C208.211 201.958 208.518 203.015 209.131 203.768C209.751 204.515 210.628 204.888 211.761 204.888C212.535 204.888 213.208 204.712 213.781 204.358C214.361 203.998 214.818 203.482 215.151 202.808L216.521 203.338C216.095 204.278 215.465 205.008 214.631 205.528C213.805 206.042 212.868 206.298 211.821 206.298ZM207.691 201.008V199.778H215.941V201.008H207.691Z" fill="#ECECF0"/>
<path d="M223.281 206.308C222.274 206.302 221.411 206.082 220.691 205.648C219.971 205.215 219.411 204.568 219.011 203.708C218.617 202.848 218.404 201.775 218.371 200.488C218.351 199.922 218.364 199.305 218.411 198.638C218.457 197.965 218.531 197.325 218.631 196.718C218.731 196.112 218.851 195.618 218.991 195.238C219.164 194.745 219.411 194.285 219.731 193.858C220.057 193.425 220.434 193.072 220.861 192.798C221.274 192.518 221.741 192.302 222.261 192.148C222.787 191.988 223.334 191.865 223.901 191.778C224.474 191.692 225.041 191.615 225.601 191.548C226.167 191.482 226.691 191.398 227.171 191.298L227.331 192.628C226.964 192.702 226.531 192.768 226.031 192.828C225.531 192.888 225.007 192.962 224.461 193.048C223.914 193.128 223.391 193.238 222.891 193.378C222.391 193.518 221.964 193.702 221.611 193.928C221.071 194.255 220.654 194.748 220.361 195.408C220.074 196.068 219.897 196.825 219.831 197.678C220.244 197.032 220.791 196.545 221.471 196.218C222.157 195.892 222.901 195.728 223.701 195.728C224.674 195.728 225.511 195.952 226.211 196.398C226.917 196.845 227.461 197.465 227.841 198.258C228.221 199.052 228.411 199.962 228.411 200.988C228.411 202.062 228.201 202.998 227.781 203.798C227.367 204.598 226.777 205.218 226.011 205.658C225.244 206.092 224.334 206.308 223.281 206.308ZM223.391 204.898C224.524 204.898 225.384 204.545 225.971 203.838C226.564 203.132 226.861 202.192 226.861 201.018C226.861 199.818 226.554 198.872 225.941 198.178C225.334 197.485 224.477 197.138 223.371 197.138C222.264 197.138 221.414 197.485 220.821 198.178C220.227 198.872 219.931 199.818 219.931 201.018C219.931 202.218 220.227 203.165 220.821 203.858C221.414 204.552 222.271 204.898 223.391 204.898Z" fill="#ECECF0"/>
<path d="M235.461 206.298C234.467 206.298 233.627 206.048 232.941 205.548C232.254 205.042 231.734 204.358 231.381 203.498C231.027 202.632 230.851 201.662 230.851 200.588C230.851 199.495 231.027 198.522 231.381 197.668C231.741 196.808 232.267 196.132 232.961 195.638C233.654 195.145 234.507 194.898 235.521 194.898C236.507 194.898 237.354 195.148 238.061 195.648C238.767 196.148 239.307 196.828 239.681 197.688C240.061 198.548 240.251 199.515 240.251 200.588C240.251 201.668 240.061 202.638 239.681 203.498C239.301 204.358 238.754 205.042 238.041 205.548C237.327 206.048 236.467 206.298 235.461 206.298ZM230.601 210.798V195.198H231.921V203.328H232.081V210.798H230.601ZM235.311 204.928C236.064 204.928 236.691 204.738 237.191 204.358C237.691 203.978 238.064 203.462 238.311 202.808C238.564 202.148 238.691 201.408 238.691 200.588C238.691 199.775 238.567 199.042 238.321 198.388C238.074 197.735 237.697 197.218 237.191 196.838C236.691 196.458 236.054 196.268 235.281 196.268C234.527 196.268 233.901 196.452 233.401 196.818C232.907 197.185 232.537 197.695 232.291 198.348C232.044 198.995 231.921 199.742 231.921 200.588C231.921 201.422 232.044 202.168 232.291 202.828C232.537 203.482 232.911 203.995 233.411 204.368C233.911 204.742 234.544 204.928 235.311 204.928Z" fill="#ECECF0"/>
<path d="M246.957 206.298C245.883 206.298 244.967 206.055 244.207 205.568C243.447 205.082 242.863 204.408 242.457 203.548C242.05 202.688 241.847 201.702 241.847 200.588C241.847 199.455 242.053 198.462 242.467 197.608C242.88 196.755 243.467 196.092 244.227 195.618C244.993 195.138 245.903 194.898 246.957 194.898C248.037 194.898 248.957 195.142 249.717 195.628C250.483 196.108 251.067 196.778 251.467 197.638C251.873 198.492 252.077 199.475 252.077 200.588C252.077 201.722 251.873 202.718 251.467 203.578C251.06 204.432 250.473 205.098 249.707 205.578C248.94 206.058 248.023 206.298 246.957 206.298ZM246.957 204.888C248.157 204.888 249.05 204.492 249.637 203.698C250.223 202.898 250.517 201.862 250.517 200.588C250.517 199.282 250.22 198.242 249.627 197.468C249.04 196.695 248.15 196.308 246.957 196.308C246.15 196.308 245.483 196.492 244.957 196.858C244.437 197.218 244.047 197.722 243.787 198.368C243.533 199.008 243.407 199.748 243.407 200.588C243.407 201.888 243.707 202.932 244.307 203.718C244.907 204.498 245.79 204.888 246.957 204.888Z" fill="#ECECF0"/>
<path d="M39.3198 172.998H47.9598V172.358L44.5998 170.998L47.5598 163.598H57.2798L60.2798 170.998L56.7598 172.358V172.998H66.6798V172.358L63.9998 170.918L53.9198 146.398H52.1198L41.8798 171.038L39.3198 172.358V172.998ZM48.4798 161.398L52.4398 151.558L56.3998 161.398H48.4798Z" fill="#ECECF0"/>
<path d="M70.0798 172.998H78.6398V172.358L75.7998 171.078V159.598C76.5998 158.438 77.5198 157.878 78.6398 157.878C79.1598 157.878 79.7198 157.918 80.3198 158.158L81.8398 158.758H82.1198L82.9198 156.798C83.0398 156.518 83.0798 156.278 83.0798 156.078C83.0798 155.598 82.4798 155.198 81.8798 154.958C81.5198 154.798 80.8798 154.598 80.4398 154.598C79.0798 154.598 77.7598 154.998 75.9198 157.998H75.7598L75.3998 154.598H75.1598L70.1998 156.798V157.078L72.5998 159.158V171.078L70.0798 172.358V172.998Z" fill="#ECECF0"/>
<path d="M94.2183 167.318C98.2983 167.318 101.338 164.598 101.338 160.958C101.338 159.518 100.738 158.038 99.8583 157.078L100.018 156.918L103.738 157.158V154.998L97.7383 155.318C96.7783 154.918 95.3383 154.598 94.2183 154.598C90.1383 154.598 87.0983 157.358 87.0983 160.958C87.0983 163.118 88.1783 164.958 89.8983 166.078V166.318L87.7383 167.438C87.0183 168.158 86.6983 168.958 86.6983 169.998C86.6983 171.678 87.8183 172.878 89.8183 173.278V173.438L87.0583 175.278C86.5783 175.998 86.3383 176.838 86.3383 177.838C86.3383 180.518 88.3783 182.598 93.4583 182.598C99.2183 182.598 102.818 179.158 102.818 175.718C102.818 172.358 101.018 170.638 97.1383 170.638H92.3383C90.3783 170.638 89.4983 170.038 89.4983 168.638C89.4983 167.838 89.8983 167.078 90.9783 166.678C91.9383 167.078 93.0183 167.318 94.2183 167.318ZM94.6183 165.678C92.1383 165.678 90.3783 163.638 90.3783 160.838C90.3783 158.318 91.6583 156.198 93.9383 156.198C96.2583 156.198 98.0583 158.158 98.0583 161.078C98.0583 163.558 96.7383 165.678 94.6183 165.678ZM89.1783 177.398C89.1783 175.558 89.6583 174.278 91.0983 173.398C91.1783 173.398 91.2183 173.398 91.2983 173.398H95.5783C98.8183 173.398 99.8983 174.158 99.8983 176.518C99.8983 179.078 97.4983 181.478 93.9383 181.478C91.2583 181.478 89.1783 179.758 89.1783 177.398Z" fill="#ECECF0"/>
<path d="M115.704 173.398C118.944 173.398 121.464 171.518 122.704 169.198V168.798H122.584C120.584 169.878 118.904 170.398 117.424 170.398C112.344 170.398 110.624 167.038 110.504 163.318H122.464L122.664 163.118C122.664 157.638 120.064 154.598 115.864 154.598C111.344 154.598 107.344 158.838 107.344 164.798C107.344 169.998 110.544 173.398 115.704 173.398ZM115.224 156.358C117.544 156.358 119.024 157.878 119.624 161.478H110.584C110.984 158.238 112.664 156.358 115.224 156.358Z" fill="#ECECF0"/>
<path d="M126.639 172.998H135.199V172.358L132.359 171.078V158.958C133.399 158.038 135.359 157.558 136.799 157.558C139.119 157.558 140.759 158.798 140.759 161.158V171.078L137.919 172.358V172.998H146.479V172.358L143.959 171.078V159.278C143.959 156.198 141.719 154.598 138.599 154.598C136.319 154.598 134.559 155.518 132.519 157.558H132.319L131.959 154.598H131.719L126.759 156.798V157.078L129.159 159.158V171.078L126.639 172.358V172.998Z" fill="#ECECF0"/>
<path d="M156.32 173.398C158.84 173.398 160.4 172.078 160.96 170.878V170.478H160.84C160.2 170.638 159.28 170.758 158.28 170.758C156.6 170.758 155.2 170.118 155.2 168.758V156.878H160.48V154.998H155.2V150.598H154.96L152.12 154.998L148.72 156.638V156.878H152V169.438C152 171.958 153.96 173.398 156.32 173.398Z" fill="#ECECF0"/>
<path d="M171.14 173.398C173.38 173.398 175.14 172.518 177.18 170.478H177.38V172.998H183.42V172.358L180.58 171.198V154.998H174.54V155.638L177.38 156.878V169.038C176.34 169.958 174.38 170.438 172.94 170.438C170.62 170.438 168.98 169.198 168.98 166.838V154.998H163.26V155.638L165.78 156.878V168.718C165.78 171.798 168.02 173.398 171.14 173.398Z" fill="#ECECF0"/>
<path d="M186.482 172.998H194.802V172.358L192.202 171.078V158.958C193.202 158.038 195.082 157.558 196.442 157.558C198.642 157.558 200.202 158.798 200.202 161.158V171.078L197.522 172.358V172.998H206.162V172.358L203.402 171.078V159.318C204.442 158.158 206.122 157.558 207.962 157.558C210.162 157.558 211.722 158.798 211.722 161.158V171.078L208.882 172.358V172.998H217.442V172.358L214.922 171.078V159.278C214.922 156.198 212.762 154.598 209.762 154.598C207.402 154.598 205.642 155.678 203.402 158.038H203.282C202.762 155.758 200.802 154.598 198.242 154.598C196.042 154.598 194.362 155.518 192.362 157.558H192.162L191.802 154.598H191.562L186.602 156.798V157.078L189.002 159.158V171.078L186.482 172.358V172.998Z" fill="#ECECF0"/>
</svg>
