<svg width="571" height="277" viewBox="0 0 571 277" fill="none" xmlns="http://www.w3.org/2000/svg">
<path fill-rule="evenodd" clip-rule="evenodd" d="M0 41.9805V237.16L39.8398 277H295.78L330.79 230.055H537.487L570.253 197.289V75.4575L541.748 46.9531H330.796L295.78 0H41.9805L0 41.9805Z" fill="#D7CBB5"/>
<path d="M43.6499 221H54.4499V220.2L50.2499 218.5L53.9499 209.25H66.0999L69.8499 218.5L65.4499 220.2V221H77.8499V220.2L74.4999 218.4L61.8999 187.75H59.6499L46.8499 218.55L43.6499 220.2V221ZM55.0999 206.5L60.0499 194.2L64.9999 206.5H55.0999Z" fill="#6F685C"/>
<path d="M89.7733 221.5C92.5733 221.5 94.7733 220.4 97.3233 217.85H97.5733V221H105.123V220.2L101.573 218.75V198.5H94.0233V199.3L97.5733 200.85V216.05C96.2733 217.2 93.8233 217.8 92.0233 217.8C89.1233 217.8 87.0733 216.25 87.0733 213.3V198.5H79.9233V199.3L83.0733 200.85V215.65C83.0733 219.5 85.8733 221.5 89.7733 221.5Z" fill="#6F685C"/>
<path d="M109.151 221H119.851V220.2L116.301 218.6V204.25C117.301 202.8 118.451 202.1 119.851 202.1C120.501 202.1 121.201 202.15 121.951 202.45L123.851 203.2H124.201L125.201 200.75C125.351 200.4 125.401 200.1 125.401 199.85C125.401 199.25 124.651 198.75 123.901 198.45C123.451 198.25 122.651 198 122.101 198C120.401 198 118.751 198.5 116.451 202.25H116.251L115.801 198H115.501L109.301 200.75V201.1L112.301 203.7V218.6L109.151 220.2V221Z" fill="#6F685C"/>
<path d="M137.674 221.5C140.474 221.5 142.674 220.4 145.224 217.85H145.474V221H153.024V220.2L149.474 218.75V198.5H141.924V199.3L145.474 200.85V216.05C144.174 217.2 141.724 217.8 139.924 217.8C137.024 217.8 134.974 216.25 134.974 213.3V198.5H127.824V199.3L130.974 200.85V215.65C130.974 219.5 133.774 221.5 137.674 221.5Z" fill="#6F685C"/>
<path d="M156.851 221H167.251V220.2L164.001 218.6V203.45C165.251 202.3 167.601 201.7 169.301 201.7C172.051 201.7 174.001 203.25 174.001 206.2V218.6L170.651 220.2V221H181.451V220.2L178.001 218.6V203.9C179.301 202.45 181.401 201.7 183.701 201.7C186.451 201.7 188.401 203.25 188.401 206.2V218.6L184.851 220.2V221H195.551V220.2L192.401 218.6V203.85C192.401 200 189.701 198 185.951 198C183.001 198 180.801 199.35 178.001 202.3H177.851C177.201 199.45 174.751 198 171.551 198C168.801 198 166.701 199.15 164.201 201.7H163.951L163.501 198H163.201L157.001 200.75V201.1L160.001 203.7V218.6L156.851 220.2V221Z" fill="#6F685C"/>
<path d="M163.409 253.27C162.527 253.27 161.762 253.141 161.114 252.883C160.472 252.625 159.944 252.286 159.53 251.866C159.116 251.44 158.807 250.981 158.603 250.489L159.809 249.787C159.953 250.195 160.181 250.567 160.493 250.903C160.805 251.239 161.207 251.506 161.699 251.704C162.191 251.902 162.776 252.001 163.454 252.001C164.156 252.001 164.75 251.89 165.236 251.668C165.728 251.446 166.1 251.134 166.352 250.732C166.604 250.33 166.73 249.862 166.73 249.328C166.73 248.74 166.589 248.284 166.307 247.96C166.025 247.636 165.647 247.408 165.173 247.276C164.699 247.138 164.171 247.06 163.589 247.042C163.151 247.024 162.839 247.012 162.653 247.006C162.467 247 162.344 246.997 162.284 246.997C162.224 246.997 162.167 246.997 162.113 246.997V245.719C162.155 245.719 162.266 245.719 162.446 245.719C162.626 245.719 162.818 245.719 163.022 245.719C163.226 245.713 163.388 245.707 163.508 245.701C164.366 245.659 165.041 245.434 165.533 245.026C166.025 244.618 166.271 244.066 166.271 243.37C166.271 242.632 166.01 242.059 165.488 241.651C164.972 241.243 164.303 241.039 163.481 241.039C162.707 241.039 162.053 241.225 161.519 241.597C160.991 241.963 160.559 242.455 160.223 243.073L159.143 242.272C159.551 241.54 160.127 240.94 160.871 240.472C161.615 240.004 162.497 239.77 163.517 239.77C164.063 239.77 164.585 239.845 165.083 239.995C165.587 240.145 166.031 240.367 166.415 240.661C166.805 240.955 167.111 241.327 167.333 241.777C167.561 242.221 167.675 242.743 167.675 243.343C167.675 244.045 167.519 244.657 167.207 245.179C166.901 245.701 166.505 246.094 166.019 246.358C166.679 246.556 167.195 246.904 167.567 247.402C167.945 247.9 168.134 248.551 168.134 249.355C168.134 250.147 167.939 250.837 167.549 251.425C167.159 252.013 166.607 252.469 165.893 252.793C165.185 253.111 164.357 253.27 163.409 253.27Z" fill="#6F685C"/>
<path d="M174.059 253.27C173.093 253.27 172.268 253.051 171.584 252.613C170.9 252.175 170.375 251.569 170.009 250.795C169.643 250.021 169.46 249.133 169.46 248.131C169.46 247.111 169.646 246.217 170.018 245.449C170.39 244.681 170.918 244.084 171.602 243.658C172.292 243.226 173.111 243.01 174.059 243.01C175.031 243.01 175.859 243.229 176.543 243.667C177.233 244.099 177.758 244.702 178.118 245.476C178.484 246.244 178.667 247.129 178.667 248.131C178.667 249.151 178.484 250.048 178.118 250.822C177.752 251.59 177.224 252.19 176.534 252.622C175.844 253.054 175.019 253.27 174.059 253.27ZM174.059 252.001C175.139 252.001 175.943 251.644 176.471 250.93C176.999 250.21 177.263 249.277 177.263 248.131C177.263 246.955 176.996 246.019 176.462 245.323C175.934 244.627 175.133 244.279 174.059 244.279C173.333 244.279 172.733 244.444 172.259 244.774C171.791 245.098 171.44 245.551 171.206 246.133C170.978 246.709 170.864 247.375 170.864 248.131C170.864 249.301 171.134 250.24 171.674 250.948C172.214 251.65 173.009 252.001 174.059 252.001Z" fill="#6F685C"/>
<path d="M179.752 253V251.839C180.112 251.905 180.385 251.89 180.571 251.794C180.763 251.692 180.904 251.524 180.994 251.29C181.084 251.05 181.159 250.753 181.219 250.399C181.315 249.811 181.402 249.163 181.48 248.455C181.558 247.747 181.627 246.967 181.687 246.115C181.753 245.257 181.819 244.312 181.885 243.28H188.491V253H187.177V244.549H183.109C183.067 245.185 183.019 245.818 182.965 246.448C182.911 247.078 182.854 247.684 182.794 248.266C182.74 248.842 182.68 249.373 182.614 249.859C182.548 250.345 182.479 250.765 182.407 251.119C182.299 251.653 182.155 252.079 181.975 252.397C181.801 252.715 181.54 252.925 181.192 253.027C180.844 253.129 180.364 253.12 179.752 253Z" fill="#6F685C"/>
<path d="M195.065 253.27C194.099 253.27 193.274 253.051 192.59 252.613C191.906 252.175 191.381 251.569 191.015 250.795C190.649 250.021 190.466 249.133 190.466 248.131C190.466 247.111 190.652 246.217 191.024 245.449C191.396 244.681 191.924 244.084 192.608 243.658C193.298 243.226 194.117 243.01 195.065 243.01C196.037 243.01 196.865 243.229 197.549 243.667C198.239 244.099 198.764 244.702 199.124 245.476C199.49 246.244 199.673 247.129 199.673 248.131C199.673 249.151 199.49 250.048 199.124 250.822C198.758 251.59 198.23 252.19 197.54 252.622C196.85 253.054 196.025 253.27 195.065 253.27ZM195.065 252.001C196.145 252.001 196.949 251.644 197.477 250.93C198.005 250.21 198.269 249.277 198.269 248.131C198.269 246.955 198.002 246.019 197.468 245.323C196.94 244.627 196.139 244.279 195.065 244.279C194.339 244.279 193.739 244.444 193.265 244.774C192.797 245.098 192.446 245.551 192.212 246.133C191.984 246.709 191.87 247.375 191.87 248.131C191.87 249.301 192.14 250.24 192.68 250.948C193.22 251.65 194.015 252.001 195.065 252.001Z" fill="#6F685C"/>
<path d="M204.049 253V244.504H200.602V243.28H208.819V244.504H205.372V253H204.049Z" fill="#6F685C"/>
<path d="M214.419 253.27C213.453 253.27 212.628 253.051 211.944 252.613C211.26 252.175 210.735 251.569 210.369 250.795C210.003 250.021 209.82 249.133 209.82 248.131C209.82 247.111 210.006 246.217 210.378 245.449C210.75 244.681 211.278 244.084 211.962 243.658C212.652 243.226 213.471 243.01 214.419 243.01C215.391 243.01 216.219 243.229 216.903 243.667C217.593 244.099 218.118 244.702 218.478 245.476C218.844 246.244 219.027 247.129 219.027 248.131C219.027 249.151 218.844 250.048 218.478 250.822C218.112 251.59 217.584 252.19 216.894 252.622C216.204 253.054 215.379 253.27 214.419 253.27ZM214.419 252.001C215.499 252.001 216.303 251.644 216.831 250.93C217.359 250.21 217.623 249.277 217.623 248.131C217.623 246.955 217.356 246.019 216.822 245.323C216.294 244.627 215.493 244.279 214.419 244.279C213.693 244.279 213.093 244.444 212.619 244.774C212.151 245.098 211.8 245.551 211.566 246.133C211.338 246.709 211.224 247.375 211.224 248.131C211.224 249.301 211.494 250.24 212.034 250.948C212.574 251.65 213.369 252.001 214.419 252.001Z" fill="#6F685C"/>
</svg>
