<svg width="291" height="169" viewBox="0 0 291 169" fill="none" xmlns="http://www.w3.org/2000/svg">
<path d="M0 84.127C0 39.513 34.9023 2.97772 79.0113 0.181252C80.8059 0.0776796 82.3403 0 84.473 0C98.9852 0 291 38.5032 291 38.5032V132.211C291 132.211 93.4716 167.374 86.2415 167.969C79.0114 168.565 74.304 167.762 69.5185 166.933C30.0129 159.916 0 125.504 0 84.127Z" fill="#153270"/>
<path d="M33.9502 116H41.7502V115.52L39.0502 114.32V107.27H41.0302C45.9202 107.27 49.5802 104.84 49.5802 101.57C49.5802 97.85 46.4602 96.2 41.7502 96.2H33.9502V96.68L36.3502 97.88V114.32L33.9502 115.52V116ZM41.3902 97.85C44.7802 97.85 46.6702 99.02 46.6702 101.81C46.6702 104.06 44.7502 105.62 41.6002 105.62H39.0502V97.85H41.3902Z" fill="#97A7C3"/>
<path d="M55.2251 116.3C56.9051 116.3 58.5251 115.52 59.5751 114.5H59.7551C60.0851 115.58 60.8651 116.3 62.0951 116.3C63.4451 116.3 64.4051 115.52 64.8851 114.65V114.56L64.7951 114.5H63.6551C62.7551 114.5 62.2451 114.29 61.9751 113.99V105.47C61.9751 102.95 59.7851 102.2 57.6551 102.2C56.2751 102.2 55.0451 102.74 53.9351 103.46C52.8551 104.15 52.3451 105.14 52.3451 106.01C52.3451 106.73 52.5251 106.85 53.1251 106.85H54.6851L54.8351 106.7V105.86C54.8351 104.48 55.3451 103.61 56.8751 103.61C58.2551 103.61 59.5751 104.72 59.5751 106.1V108.29L56.7251 108.95C53.2751 109.76 51.9551 111.23 51.9551 113.18C51.9551 115.13 53.3351 116.3 55.2251 116.3ZM54.2951 112.58C54.2951 111.23 54.8051 110.21 59.5751 109.31V113.75C58.3751 114.26 57.5051 114.44 56.5451 114.44C55.1051 114.44 54.2951 113.81 54.2951 112.58Z" fill="#97A7C3"/>
<path d="M66.3964 116H72.5764V115.52L70.6864 114.56V93.5H70.5064L66.4864 95.15V95.36L68.2864 96.92V114.56L66.3964 115.52V116Z" fill="#97A7C3"/>
<path d="M75.2147 116H81.3947V115.52L79.5047 114.56V93.5H79.3247L75.3047 95.15V95.36L77.1047 96.92V114.56L75.2147 115.52V116Z" fill="#97A7C3"/>
<path d="M87.3931 116.3C89.0731 116.3 90.6931 115.52 91.7431 114.5H91.9231C92.2531 115.58 93.0331 116.3 94.2631 116.3C95.6131 116.3 96.5731 115.52 97.0531 114.65V114.56L96.9631 114.5H95.8231C94.9231 114.5 94.4131 114.29 94.1431 113.99V105.47C94.1431 102.95 91.9531 102.2 89.8231 102.2C88.4431 102.2 87.2131 102.74 86.1031 103.46C85.0231 104.15 84.5131 105.14 84.5131 106.01C84.5131 106.73 84.6931 106.85 85.2931 106.85H86.8531L87.0031 106.7V105.86C87.0031 104.48 87.5131 103.61 89.0431 103.61C90.4231 103.61 91.7431 104.72 91.7431 106.1V108.29L88.8931 108.95C85.4431 109.76 84.1231 111.23 84.1231 113.18C84.1231 115.13 85.5031 116.3 87.3931 116.3ZM86.4631 112.58C86.4631 111.23 86.9731 110.21 91.7431 109.31V113.75C90.5431 114.26 89.6731 114.44 88.7131 114.44C87.2731 114.44 86.4631 113.81 86.4631 112.58Z" fill="#97A7C3"/>
<path d="M103.931 116.3C105.551 116.3 106.871 115.76 108.401 114.47H108.611L108.851 116H113.081V115.52L110.951 114.65V93.5H110.771L106.601 95.15V95.36L108.551 96.92V102.47C107.861 102.29 107.051 102.2 105.941 102.2C102.041 102.2 98.7108 105.08 98.7108 110.18C98.7108 113.96 100.901 116.3 103.931 116.3ZM101.111 109.49C101.111 105.29 103.151 103.67 105.551 103.67C106.721 103.67 107.561 104.12 108.551 104.93V113.33C107.591 113.93 106.571 114.23 105.581 114.23C103.121 114.23 101.111 112.79 101.111 109.49Z" fill="#97A7C3"/>
<path d="M118.769 98.57C119.789 98.57 120.569 97.79 120.569 96.77C120.569 95.72 119.789 94.97 118.769 94.97C117.719 94.97 116.969 95.72 116.969 96.77C116.969 97.79 117.719 98.57 118.769 98.57ZM115.769 116H121.949V115.52L120.059 114.56V102.2H119.879L115.859 103.85V104.06L117.659 105.62V114.56L115.769 115.52V116Z" fill="#97A7C3"/>
<path d="M130.303 116.3C131.983 116.3 133.303 115.64 134.833 114.11H134.983V116H139.513V115.52L137.383 114.65V102.5H132.853V102.98L134.983 103.91V113.03C134.203 113.72 132.733 114.08 131.653 114.08C129.913 114.08 128.683 113.15 128.683 111.38V102.5H124.393V102.98L126.283 103.91V112.79C126.283 115.1 127.963 116.3 130.303 116.3Z" fill="#97A7C3"/>
<path d="M141.809 116H148.049V115.52L146.099 114.56V105.47C146.849 104.78 148.259 104.42 149.279 104.42C150.929 104.42 152.099 105.35 152.099 107.12V114.56L150.089 115.52V116H156.569V115.52L154.499 114.56V105.74C155.279 104.87 156.539 104.42 157.919 104.42C159.569 104.42 160.739 105.35 160.739 107.12V114.56L158.609 115.52V116H165.029V115.52L163.139 114.56V105.71C163.139 103.4 161.519 102.2 159.269 102.2C157.499 102.2 156.179 103.01 154.499 104.78H154.409C154.019 103.07 152.549 102.2 150.629 102.2C148.979 102.2 147.719 102.89 146.219 104.42H146.069L145.799 102.2H145.619L141.899 103.85V104.06L143.699 105.62V114.56L141.809 115.52V116Z" fill="#97A7C3"/>
<path d="M120.98 137V126.92H128.701V137H127.672V127.907H122.009V137H120.98Z" fill="#97A7C3"/>
<path d="M132.823 137.21C132.254 137.21 131.775 137.107 131.388 136.902C131.005 136.697 130.718 136.424 130.527 136.083C130.336 135.742 130.24 135.371 130.24 134.97C130.24 134.559 130.322 134.209 130.485 133.92C130.653 133.626 130.879 133.386 131.164 133.199C131.453 133.012 131.787 132.87 132.165 132.772C132.548 132.679 132.97 132.597 133.432 132.527C133.899 132.452 134.354 132.389 134.797 132.338C135.245 132.282 135.637 132.228 135.973 132.177L135.609 132.401C135.623 131.654 135.478 131.101 135.175 130.742C134.872 130.383 134.344 130.203 133.593 130.203C133.075 130.203 132.636 130.32 132.277 130.553C131.922 130.786 131.673 131.155 131.528 131.659L130.527 131.365C130.7 130.688 131.047 130.163 131.57 129.79C132.093 129.417 132.772 129.23 133.607 129.23C134.298 129.23 134.883 129.361 135.364 129.622C135.849 129.879 136.192 130.252 136.393 130.742C136.486 130.961 136.547 131.206 136.575 131.477C136.603 131.748 136.617 132.023 136.617 132.303V137H135.7V135.103L135.966 135.215C135.709 135.864 135.31 136.358 134.769 136.699C134.228 137.04 133.579 137.21 132.823 137.21ZM132.942 136.321C133.423 136.321 133.843 136.235 134.202 136.062C134.561 135.889 134.851 135.654 135.07 135.355C135.289 135.052 135.432 134.711 135.497 134.333C135.553 134.09 135.583 133.824 135.588 133.535C135.593 133.241 135.595 133.022 135.595 132.877L135.987 133.08C135.637 133.127 135.257 133.173 134.846 133.22C134.44 133.267 134.039 133.32 133.642 133.381C133.25 133.442 132.895 133.514 132.578 133.598C132.363 133.659 132.156 133.745 131.955 133.857C131.754 133.964 131.589 134.109 131.458 134.291C131.332 134.473 131.269 134.699 131.269 134.97C131.269 135.189 131.323 135.402 131.43 135.607C131.542 135.812 131.719 135.983 131.962 136.118C132.209 136.253 132.536 136.321 132.942 136.321Z" fill="#97A7C3"/>
<path d="M137.739 137V136.097C138.019 136.148 138.232 136.137 138.376 136.062C138.526 135.983 138.635 135.852 138.705 135.67C138.775 135.483 138.834 135.252 138.88 134.977C138.955 134.52 139.023 134.016 139.083 133.465C139.144 132.914 139.198 132.308 139.244 131.645C139.296 130.978 139.347 130.243 139.398 129.44H144.536V137H143.514V130.427H140.35C140.318 130.922 140.28 131.414 140.238 131.904C140.196 132.394 140.152 132.865 140.105 133.318C140.063 133.766 140.017 134.179 139.965 134.557C139.914 134.935 139.86 135.262 139.804 135.537C139.72 135.952 139.608 136.284 139.468 136.531C139.333 136.778 139.13 136.942 138.859 137.021C138.589 137.1 138.215 137.093 137.739 137Z" fill="#97A7C3"/>
<path d="M145.792 137V136.097C146.072 136.148 146.284 136.137 146.429 136.062C146.578 135.983 146.688 135.852 146.758 135.67C146.828 135.483 146.886 135.252 146.933 134.977C147.008 134.52 147.075 134.016 147.136 133.465C147.197 132.914 147.25 132.308 147.297 131.645C147.348 130.978 147.4 130.243 147.451 129.44H152.589V137H151.567V130.427H148.403C148.37 130.922 148.333 131.414 148.291 131.904C148.249 132.394 148.205 132.865 148.158 133.318C148.116 133.766 148.069 134.179 148.018 134.557C147.967 134.935 147.913 135.262 147.857 135.537C147.773 135.952 147.661 136.284 147.521 136.531C147.386 136.778 147.183 136.942 146.912 137.021C146.641 137.1 146.268 137.093 145.792 137Z" fill="#97A7C3"/>
<path d="M156.708 137.21C156.138 137.21 155.66 137.107 155.273 136.902C154.89 136.697 154.603 136.424 154.412 136.083C154.22 135.742 154.125 135.371 154.125 134.97C154.125 134.559 154.206 134.209 154.37 133.92C154.538 133.626 154.764 133.386 155.049 133.199C155.338 133.012 155.672 132.87 156.05 132.772C156.432 132.679 156.855 132.597 157.317 132.527C157.783 132.452 158.238 132.389 158.682 132.338C159.13 132.282 159.522 132.228 159.858 132.177L159.494 132.401C159.508 131.654 159.363 131.101 159.06 130.742C158.756 130.383 158.229 130.203 157.478 130.203C156.96 130.203 156.521 130.32 156.162 130.553C155.807 130.786 155.557 131.155 155.413 131.659L154.412 131.365C154.584 130.688 154.932 130.163 155.455 129.79C155.977 129.417 156.656 129.23 157.492 129.23C158.182 129.23 158.768 129.361 159.249 129.622C159.734 129.879 160.077 130.252 160.278 130.742C160.371 130.961 160.432 131.206 160.46 131.477C160.488 131.748 160.502 132.023 160.502 132.303V137H159.585V135.103L159.851 135.215C159.594 135.864 159.195 136.358 158.654 136.699C158.112 137.04 157.464 137.21 156.708 137.21ZM156.827 136.321C157.307 136.321 157.727 136.235 158.087 136.062C158.446 135.889 158.735 135.654 158.955 135.355C159.174 135.052 159.316 134.711 159.382 134.333C159.438 134.09 159.468 133.824 159.473 133.535C159.477 133.241 159.48 133.022 159.48 132.877L159.872 133.08C159.522 133.127 159.141 133.173 158.731 133.22C158.325 133.267 157.923 133.32 157.527 133.381C157.135 133.442 156.78 133.514 156.463 133.598C156.248 133.659 156.04 133.745 155.84 133.857C155.639 133.964 155.473 134.109 155.343 134.291C155.217 134.473 155.154 134.699 155.154 134.97C155.154 135.189 155.207 135.402 155.315 135.607C155.427 135.812 155.604 135.983 155.847 136.118C156.094 136.253 156.421 136.321 156.827 136.321Z" fill="#97A7C3"/>
<path d="M161.764 138.68V136.118C162.193 136.118 162.501 135.98 162.688 135.705C162.875 135.425 163.026 134.979 163.143 134.368C163.222 133.971 163.288 133.544 163.339 133.087C163.39 132.63 163.435 132.107 163.472 131.519C163.509 130.926 163.544 130.233 163.577 129.44H168.575V136.118H169.303V138.68H168.309V137H162.751V138.68H161.764ZM163.507 136.118H167.553V130.322H164.529C164.515 130.677 164.494 131.052 164.466 131.449C164.443 131.846 164.412 132.242 164.375 132.639C164.342 133.036 164.303 133.409 164.256 133.759C164.214 134.104 164.163 134.408 164.102 134.669C164.032 135.005 163.955 135.292 163.871 135.53C163.792 135.768 163.67 135.964 163.507 136.118Z" fill="#97A7C3"/>
<path d="M176.711 129.44V137H175.71V131.113L171.566 137H170.698V129.44H171.699V135.278L175.85 129.44H176.711Z" fill="#97A7C3"/>
<path d="M181.812 128.544C181.48 128.544 181.177 128.462 180.902 128.299C180.626 128.136 180.407 127.919 180.244 127.648C180.085 127.373 180.006 127.069 180.006 126.738H180.86C180.86 126.999 180.953 127.223 181.14 127.41C181.326 127.597 181.55 127.69 181.812 127.69C182.078 127.69 182.302 127.597 182.484 127.41C182.67 127.223 182.764 126.999 182.764 126.738H183.618C183.618 127.069 183.536 127.373 183.373 127.648C183.214 127.919 182.997 128.136 182.722 128.299C182.446 128.462 182.143 128.544 181.812 128.544ZM184.682 129.44V137H183.681V131.113L179.537 137H178.669V129.44H179.67V135.278L183.821 129.44H184.682Z" fill="#97A7C3"/>
</svg>
