<svg width="206" height="111" viewBox="0 0 206 111" fill="none" xmlns="http://www.w3.org/2000/svg">
<path fill-rule="evenodd" clip-rule="evenodd" d="M42.3186 0L0 21.2681V88.0405L44.0481 110.178H161.085L206 87.6046V21.704L162.814 0H42.3186Z" fill="#273045"/>
<path d="M22.2998 78H27.4998V77.68L25.6998 76.88V72.18H27.0198C30.2798 72.18 32.7198 70.56 32.7198 68.38C32.7198 65.9 30.6398 64.8 27.4998 64.8H22.2998V65.12L23.8998 65.92V76.88L22.2998 77.68V78ZM27.2598 65.9C29.5198 65.9 30.7798 66.68 30.7798 68.54C30.7798 70.04 29.4998 71.08 27.3998 71.08H25.6998V65.9H27.2598Z" fill="#ADB4C1"/>
<path d="M34.6337 78H38.7537V77.68L37.4937 77.04V63H37.3737L34.6937 64.1V64.24L35.8937 65.28V77.04L34.6337 77.68V78Z" fill="#ADB4C1"/>
<path d="M42.7526 78.2C43.8726 78.2 44.9526 77.68 45.6526 77H45.7726C45.9926 77.72 46.5126 78.2 47.3326 78.2C48.2326 78.2 48.8726 77.68 49.1926 77.1V77.04L49.1326 77H48.3726C47.7726 77 47.4326 76.86 47.2526 76.66V70.98C47.2526 69.3 45.7926 68.8 44.3726 68.8C43.4526 68.8 42.6326 69.16 41.8926 69.64C41.1726 70.1 40.8326 70.76 40.8326 71.34C40.8326 71.82 40.9526 71.9 41.3526 71.9H42.3926L42.4926 71.8V71.24C42.4926 70.32 42.8326 69.74 43.8526 69.74C44.7726 69.74 45.6526 70.48 45.6526 71.4V72.86L43.7526 73.3C41.4526 73.84 40.5726 74.82 40.5726 76.12C40.5726 77.42 41.4926 78.2 42.7526 78.2ZM42.1326 75.72C42.1326 74.82 42.4726 74.14 45.6526 73.54V76.5C44.8526 76.84 44.2726 76.96 43.6326 76.96C42.6726 76.96 42.1326 76.54 42.1326 75.72Z" fill="#ADB4C1"/>
<path d="M53.5778 78.2C54.8378 78.2 55.6178 77.54 55.8978 76.94V76.74H55.8378C55.5178 76.82 55.0578 76.88 54.5578 76.88C53.7178 76.88 53.0178 76.56 53.0178 75.88V69.94H55.6578V69H53.0178V66.8H52.8978L51.4778 69L49.7778 69.82V69.94H51.4178V76.22C51.4178 77.48 52.3978 78.2 53.5778 78.2Z" fill="#ADB4C1"/>
<path d="M59.5681 66.38C60.2481 66.38 60.7681 65.86 60.7681 65.18C60.7681 64.48 60.2481 63.98 59.5681 63.98C58.8681 63.98 58.3681 64.48 58.3681 65.18C58.3681 65.86 58.8681 66.38 59.5681 66.38ZM57.5681 78H61.6881V77.68L60.4281 77.04V68.8H60.3081L57.6281 69.9V70.04L58.8281 71.08V77.04L57.5681 77.68V78Z" fill="#ADB4C1"/>
<path d="M63.7176 78H67.9976V77.68L66.5776 77.04V70.98C67.0976 70.52 68.0776 70.28 68.7976 70.28C69.9576 70.28 70.7776 70.9 70.7776 72.08V77.04L69.3576 77.68V78H73.6376V77.68L72.3776 77.04V71.14C72.3776 69.6 71.2576 68.8 69.6976 68.8C68.5576 68.8 67.6776 69.26 66.6576 70.28H66.5576L66.3776 68.8H66.2576L63.7776 69.9V70.04L64.9776 71.08V77.04L63.7176 77.68V78Z" fill="#ADB4C1"/>
<path d="M78.8982 78.2C80.0182 78.2 80.8982 77.76 81.9182 76.74H82.0182V78H85.0382V77.68L83.6182 77.1V69H80.5982V69.32L82.0182 69.94V76.02C81.4982 76.48 80.5182 76.72 79.7982 76.72C78.6382 76.72 77.8182 76.1 77.8182 74.92V69H74.9582V69.32L76.2182 69.94V75.86C76.2182 77.4 77.3382 78.2 78.8982 78.2Z" fill="#ADB4C1"/>
<path d="M86.5692 78H90.7292V77.68L89.4292 77.04V70.98C89.9292 70.52 90.8692 70.28 91.5492 70.28C92.6492 70.28 93.4292 70.9 93.4292 72.08V77.04L92.0892 77.68V78H96.4092V77.68L95.0292 77.04V71.16C95.5492 70.58 96.3892 70.28 97.3092 70.28C98.4092 70.28 99.1892 70.9 99.1892 72.08V77.04L97.7692 77.68V78H102.049V77.68L100.789 77.04V71.14C100.789 69.6 99.7092 68.8 98.2092 68.8C97.0292 68.8 96.1492 69.34 95.0292 70.52H94.9692C94.7092 69.38 93.7292 68.8 92.4492 68.8C91.3492 68.8 90.5092 69.26 89.5092 70.28H89.4092L89.2292 68.8H89.1092L86.6292 69.9V70.04L87.8292 71.08V77.04L86.5692 77.68V78Z" fill="#ADB4C1"/>
<path d="M79.8398 97V88.36H86.4578V97H85.5758V89.206H80.7218V97H79.8398Z" fill="#ADB4C1"/>
<path d="M87.5367 97V96.226C87.7767 96.27 87.9587 96.26 88.0827 96.196C88.2107 96.128 88.3047 96.016 88.3647 95.86C88.4247 95.7 88.4747 95.502 88.5147 95.266C88.5787 94.874 88.6367 94.442 88.6887 93.97C88.7407 93.498 88.7867 92.978 88.8267 92.41C88.8707 91.838 88.9147 91.208 88.9587 90.52H93.3627V97H92.4867V91.366H89.7747C89.7467 91.79 89.7147 92.212 89.6787 92.632C89.6427 93.052 89.6047 93.456 89.5647 93.844C89.5287 94.228 89.4887 94.582 89.4447 94.906C89.4007 95.23 89.3547 95.51 89.3067 95.746C89.2347 96.102 89.1387 96.386 89.0187 96.598C88.9027 96.81 88.7287 96.95 88.4967 97.018C88.2647 97.086 87.9447 97.08 87.5367 97Z" fill="#ADB4C1"/>
<path d="M96.893 97.18C96.405 97.18 95.995 97.092 95.663 96.916C95.335 96.74 95.089 96.506 94.925 96.214C94.761 95.922 94.679 95.604 94.679 95.26C94.679 94.908 94.749 94.608 94.889 94.36C95.033 94.108 95.227 93.902 95.471 93.742C95.719 93.582 96.005 93.46 96.329 93.376C96.657 93.296 97.019 93.226 97.415 93.166C97.815 93.102 98.205 93.048 98.585 93.004C98.969 92.956 99.305 92.91 99.593 92.866L99.281 93.058C99.293 92.418 99.169 91.944 98.909 91.636C98.649 91.328 98.197 91.174 97.553 91.174C97.109 91.174 96.733 91.274 96.425 91.474C96.121 91.674 95.907 91.99 95.783 92.422L94.925 92.17C95.073 91.59 95.371 91.14 95.819 90.82C96.267 90.5 96.849 90.34 97.565 90.34C98.157 90.34 98.659 90.452 99.071 90.676C99.487 90.896 99.781 91.216 99.953 91.636C100.033 91.824 100.085 92.034 100.109 92.266C100.133 92.498 100.145 92.734 100.145 92.974V97H99.359V95.374L99.587 95.47C99.367 96.026 99.025 96.45 98.561 96.742C98.097 97.034 97.541 97.18 96.893 97.18ZM96.995 96.418C97.407 96.418 97.767 96.344 98.075 96.196C98.383 96.048 98.631 95.846 98.819 95.59C99.007 95.33 99.129 95.038 99.185 94.714C99.233 94.506 99.259 94.278 99.263 94.03C99.267 93.778 99.269 93.59 99.269 93.466L99.605 93.64C99.305 93.68 98.979 93.72 98.627 93.76C98.279 93.8 97.935 93.846 97.595 93.898C97.259 93.95 96.955 94.012 96.683 94.084C96.499 94.136 96.321 94.21 96.149 94.306C95.977 94.398 95.835 94.522 95.723 94.678C95.615 94.834 95.561 95.028 95.561 95.26C95.561 95.448 95.607 95.63 95.699 95.806C95.795 95.982 95.947 96.128 96.155 96.244C96.367 96.36 96.647 96.418 96.995 96.418Z" fill="#ADB4C1"/>
<path d="M103.465 97V91.336H101.167V90.52H106.645V91.336H104.347V97H103.465Z" fill="#ADB4C1"/>
<path d="M112.937 90.52V97H112.079V91.954L108.527 97H107.783V90.52H108.641V95.524L112.199 90.52H112.937Z" fill="#ADB4C1"/>
<path d="M114.615 97V90.52H115.497V93.334H119.151V90.52H120.033V97H119.151V94.18H115.497V97H114.615Z" fill="#ADB4C1"/>
<path d="M123.565 97.18C123.077 97.18 122.667 97.092 122.335 96.916C122.007 96.74 121.761 96.506 121.597 96.214C121.433 95.922 121.351 95.604 121.351 95.26C121.351 94.908 121.421 94.608 121.561 94.36C121.705 94.108 121.899 93.902 122.143 93.742C122.391 93.582 122.677 93.46 123.001 93.376C123.329 93.296 123.691 93.226 124.087 93.166C124.487 93.102 124.877 93.048 125.257 93.004C125.641 92.956 125.977 92.91 126.265 92.866L125.953 93.058C125.965 92.418 125.841 91.944 125.581 91.636C125.321 91.328 124.869 91.174 124.225 91.174C123.781 91.174 123.405 91.274 123.097 91.474C122.793 91.674 122.579 91.99 122.455 92.422L121.597 92.17C121.745 91.59 122.043 91.14 122.491 90.82C122.939 90.5 123.521 90.34 124.237 90.34C124.829 90.34 125.331 90.452 125.743 90.676C126.159 90.896 126.453 91.216 126.625 91.636C126.705 91.824 126.757 92.034 126.781 92.266C126.805 92.498 126.817 92.734 126.817 92.974V97H126.031V95.374L126.259 95.47C126.039 96.026 125.697 96.45 125.233 96.742C124.769 97.034 124.213 97.18 123.565 97.18ZM123.667 96.418C124.079 96.418 124.439 96.344 124.747 96.196C125.055 96.048 125.303 95.846 125.491 95.59C125.679 95.33 125.801 95.038 125.857 94.714C125.905 94.506 125.931 94.278 125.935 94.03C125.939 93.778 125.941 93.59 125.941 93.466L126.277 93.64C125.977 93.68 125.651 93.72 125.299 93.76C124.951 93.8 124.607 93.846 124.267 93.898C123.931 93.95 123.627 94.012 123.355 94.084C123.171 94.136 122.993 94.21 122.821 94.306C122.649 94.398 122.507 94.522 122.395 94.678C122.287 94.834 122.233 95.028 122.233 95.26C122.233 95.448 122.279 95.63 122.371 95.806C122.467 95.982 122.619 96.128 122.827 96.244C123.039 96.36 123.319 96.418 123.667 96.418Z" fill="#ADB4C1"/>
</svg>
