<svg width="70" height="79" viewBox="0 0 70 79" fill="none" xmlns="http://www.w3.org/2000/svg">
<path d="M46.5665 46.5967C44.6363 46.8933 43.3054 48.7102 43.5964 50.6316C43.6131 50.7511 43.6075 50.9672 43.5988 51.125L25.6881 51.1139C25.669 50.9505 25.6603 50.7672 25.677 50.6366C25.8212 49.6994 25.591 48.7622 25.0282 47.9994C24.468 47.2368 23.6416 46.7379 22.7099 46.5961C20.7463 46.2773 18.9468 47.6806 18.6695 49.5638C18.6082 49.9551 18.1427 53.4328 20.3111 55.956C21.2013 56.9904 22.8405 58.2192 25.5885 58.2192H43.6893C46.4434 58.2192 48.0795 56.9904 48.9666 55.956C51.1295 53.4377 50.6666 49.96 50.6082 49.5694C50.3204 47.6758 48.5208 46.3002 46.5653 46.5967L46.5665 46.5967ZM47.0549 54.3125C46.5114 54.9476 45.4881 55.6992 43.691 55.6992H25.5901C24.1509 55.6992 23.0168 55.233 22.2232 54.3125C20.7697 52.6238 21.1442 50.0665 21.164 49.947C21.2358 49.4537 21.6685 49.0791 22.165 49.0791L22.3259 49.0903C22.5977 49.1349 22.836 49.2791 22.997 49.5007C23.1604 49.7167 23.2242 49.9885 23.1802 50.2856C23.1691 50.3605 22.9666 52.058 23.7819 52.984C24.1732 53.4334 24.7637 53.6494 25.5871 53.6494H43.6879C43.9875 53.6494 44.9136 53.6494 45.4961 52.9784C46.3201 52.0245 46.0922 50.2856 46.0898 50.2633C46.0068 49.7005 46.3894 49.1731 47.1075 49.0766C47.6039 49.0766 48.0367 49.4511 48.1115 49.9531C48.1307 50.0633 48.5053 52.6205 47.0548 54.3124L47.0549 54.3125Z" fill="#153270"/>
<path d="M65.6849 26.6581H63.9515V10.0469C63.9515 7.60354 61.9601 5.61518 59.5142 5.61518H35.4865L34.8179 3.9623C33.2153 0.00235948 30.7138 -0.039795 28.8053 0.00790558H16.531C14.0877 0.00790558 12.0993 1.99627 12.0993 4.43962V6.76902H9.76991C7.32402 6.76902 5.33265 8.75739 5.33265 11.2007V26.6594L3.6018 26.6587C1.64687 26.6587 0.0546875 28.2454 0.0546875 30.2058V74.5784C0.0546875 76.5334 1.64687 78.12 3.6018 78.12H65.687C67.6419 78.12 69.2341 76.5334 69.2341 74.5784V30.2058C69.2341 28.2454 67.6395 26.6587 65.6846 26.6587L65.6849 26.6581ZM14.6231 4.43851C14.6231 3.38181 15.4799 2.53065 16.531 2.53065H28.9166C30.5695 2.5585 31.5178 2.52508 32.4829 4.91266L33.7866 8.13538H59.5164C60.57 8.13538 61.4274 8.99212 61.4274 10.0432V26.6544H57.187V16.8037C57.187 14.3604 55.1986 12.372 52.7553 12.372H28.7244L28.0589 10.7191C26.4531 6.76474 23.9435 6.72813 22.0462 6.76474L14.6221 6.76412L14.6231 4.43851ZM7.85884 11.1996C7.85884 10.1485 8.71869 9.29176 9.76987 9.29176H22.1555C23.7613 9.28619 24.7542 9.29176 25.7163 11.6682L27.028 14.8965H52.7562C53.8073 14.8965 54.664 15.7588 54.664 16.8044V26.6576H7.85889L7.85884 11.1996ZM66.7112 74.5779C66.7112 75.1406 66.2537 75.6012 65.6879 75.6012H3.60272C3.03692 75.6012 2.57945 75.1406 2.57945 74.5779V30.2054C2.57945 29.6426 3.03692 29.1765 3.60272 29.1765H65.6879C66.2537 29.1765 66.7112 29.6426 66.7112 30.2054V74.5779Z" fill="#153270"/>
</svg>
