<svg width="81" height="75" viewBox="0 0 81 75" fill="none" xmlns="http://www.w3.org/2000/svg">
<path d="M51.8404 0H19.0842L0 17.6799V68.2067C0 71.9488 3.04851 75 6.79329 75H51.8406C55.586 75 58.6339 71.9515 58.6339 68.2067V6.79816C58.6339 3.05019 55.5858 0.00151163 51.8406 0.00151163L51.8404 0ZM18.2729 4.40092V12.8085C18.2729 15.0749 16.4271 16.924 14.1574 16.924L4.75048 16.9234L18.2729 4.40092ZM55.9559 68.2032C55.9559 70.4696 54.1101 72.3187 51.8404 72.3187H6.79312C4.52337 72.3187 2.67761 70.4696 2.67761 68.2032V19.6014H14.1567C17.9022 19.6014 20.95 16.5529 20.95 12.8082L20.9507 2.67492H51.8439C54.1137 2.67492 55.9594 4.52068 55.9594 6.79312V68.2034L55.9559 68.2032Z" fill="#153270"/>
<path d="M77.3197 58.6991C77.2901 58.6079 77.2665 58.5259 77.2462 58.4373H78.5073L80.8972 16.7933C80.8972 11.9488 76.9523 8.00391 72.1078 8.00391C67.2574 8.00391 63.3125 11.9488 63.3125 16.8728L65.7024 58.4395H66.9635C66.9399 58.5274 66.9136 58.6101 66.89 58.7013C66.4963 60.0563 65.764 62.5786 65.3611 63.0577C64.7758 63.7191 64.7141 64.372 64.7673 64.8038C64.9169 66.006 66.0285 66.7645 67.3073 67.6437C67.9569 68.0873 68.6859 68.5847 69.333 69.1667C69.7064 70.1956 70.562 71.8944 72.102 71.8944C73.6427 71.8944 74.4977 70.1956 74.871 69.1633C75.5206 68.5839 76.2496 68.0872 76.8966 67.6404C78.1814 66.7611 79.2865 66.0032 79.4335 64.8037C79.4893 64.3745 79.4276 63.719 78.8429 63.0575C78.4453 62.5759 77.7104 60.0535 77.32 58.6986L77.3197 58.6991ZM75.3912 65.4308C74.615 65.9596 73.657 66.6151 72.7954 67.4386L72.5454 67.6794L72.4424 68.0029C72.3571 68.2733 72.2305 68.5672 72.1045 68.8113C71.9752 68.5672 71.8486 68.2706 71.7633 68.0029L71.6603 67.6768L71.4135 67.4419C70.552 66.6217 69.594 65.9636 68.8177 65.434C68.4089 65.1545 67.8886 64.7962 67.5887 64.5377C68.218 63.6178 68.7324 61.9451 69.4582 59.4432C69.5579 59.0961 69.655 58.7614 69.7521 58.438H70.7692V62.8914H73.4445V58.438H74.4615C74.5554 58.7582 74.6525 59.0968 74.7529 59.4432C75.476 61.9392 75.9937 63.6086 76.6255 64.5345C76.3198 64.7957 75.7968 65.1513 75.3913 65.4309L75.3912 65.4308ZM75.9792 55.762H68.2272L65.987 16.7939C65.987 13.4219 68.7325 10.6764 72.1072 10.6764C75.4761 10.6764 78.2214 13.4219 78.2247 16.7171L75.9792 55.762Z" fill="#153270"/>
<path d="M11.7422 60.6465H46.8921V63.3217H11.7422V60.6465Z" fill="#153270"/>
<path d="M11.7422 47.9219H46.8921V50.5971H11.7422V47.9219Z" fill="#153270"/>
<path d="M11.7422 35.1992H46.8921V37.8745H11.7422V35.1992Z" fill="#153270"/>
<path d="M11.7422 22.4766H46.8921V25.1518H11.7422V22.4766Z" fill="#153270"/>
</svg>
