<svg width="98" height="74" viewBox="0 0 98 74" fill="none" xmlns="http://www.w3.org/2000/svg">
<path d="M82.1946 73.0085C81.7422 73.0085 81.3033 72.8253 80.9841 72.4911L70.7476 61.7849H43.6996C40.279 61.7849 37.4961 59.002 37.4961 55.5813V29.0981C37.4961 25.6774 40.279 22.8945 43.6996 22.8945H91.3507C94.7714 22.8945 97.5543 25.6774 97.5543 29.0981V55.5813C97.5543 59.002 94.7714 61.7849 91.3507 61.7849H87.1428L83.7834 71.8629C83.598 72.42 83.1337 72.8387 82.561 72.9673C82.4391 72.9949 82.3165 73.0084 82.1946 73.0084V73.0085ZM43.6985 26.2436C42.1254 26.2436 40.8446 27.5237 40.8446 29.0975V55.5808C40.8446 57.1547 42.1247 58.4347 43.6985 58.4347H71.4623C71.9191 58.4347 72.3565 58.6216 72.6728 58.9521L81.4835 68.1674L84.3457 59.5803C84.5737 58.8962 85.2137 58.4348 85.9345 58.4348H91.3493C92.9231 58.4348 94.2032 57.154 94.2032 55.5809V29.0977C94.2032 27.5245 92.9231 26.2438 91.3493 26.2438L43.6985 26.2436Z" fill="#153270"/>
<path d="M18.6332 61.299C18.5113 61.299 18.3887 61.2855 18.2668 61.2586C17.6941 61.13 17.2298 60.7113 17.0443 60.1543L12.7907 47.3919H7.28692C3.26887 47.3919 0 44.1231 0 40.105V7.28615C0 3.26887 3.26887 0 7.28692 0H66.3326C70.3499 0 73.6187 3.26811 73.6187 7.28615V24.5667C73.6187 25.4916 72.8688 26.2415 71.9439 26.2415C71.019 26.2415 70.2691 25.4916 70.2691 24.5667V7.28615C70.2691 5.11558 68.503 3.34965 66.3326 3.34965L7.28692 3.35039C5.11558 3.35039 3.34965 5.11644 3.34965 7.2869V40.1039C3.34965 42.2752 5.11644 44.0411 7.28692 44.0411H13.9975C14.7183 44.0411 15.3583 44.5025 15.5863 45.1866L19.3435 56.4573L30.7204 44.5586C31.0367 44.2281 31.4741 44.0412 31.9309 44.0412H39.1754C40.1003 44.0412 40.8502 44.7911 40.8502 45.716C40.8502 46.6409 40.1003 47.3908 39.1754 47.3908H32.6466L19.8439 60.7804C19.5239 61.1147 19.085 61.2978 18.6334 61.2978L18.6332 61.299Z" fill="#153270"/>
<path d="M59.1128 14.3301H14.5147C13.5898 14.3301 12.8398 13.5802 12.8398 12.6553C12.8398 11.7304 13.5898 10.9805 14.5147 10.9805H59.1128C60.0377 10.9805 60.7876 11.7304 60.7876 12.6553C60.7876 13.5802 60.0377 14.3301 59.1128 14.3301Z" fill="#153270"/>
<path d="M30.8943 24.8653H14.5147C13.5898 24.8653 12.8398 24.1153 12.8398 23.1904C12.8398 22.2656 13.5898 21.5156 14.5147 21.5156H30.8943C31.8191 21.5156 32.5691 22.2656 32.5691 23.1904C32.5691 24.1153 31.8191 24.8653 30.8943 24.8653Z" fill="#153270"/>
<path d="M30.8943 35.3965H14.5147C13.5898 35.3965 12.8398 34.6466 12.8398 33.7217C12.8398 32.7968 13.5898 32.0469 14.5147 32.0469H30.8943C31.8191 32.0469 32.5691 32.7968 32.5691 33.7217C32.5691 34.6466 31.8191 35.3965 30.8943 35.3965Z" fill="#153270"/>
</svg>
