<svg width="85" height="73" viewBox="0 0 85 73" fill="none" xmlns="http://www.w3.org/2000/svg">
<path d="M14.7088 34.6646C13.2789 34.6664 11.9079 35.2351 10.8966 36.2461C9.88528 37.2571 9.3161 38.6279 9.31384 40.0579V54.557H20.1039V40.0579C20.1016 38.6279 19.5324 37.2571 18.5211 36.2461C17.5098 35.2351 16.1388 34.6664 14.7088 34.6646ZM17.547 52.0019H11.8707V40.0579C11.8707 39.3051 12.1697 38.5832 12.702 38.051C13.2342 37.5187 13.9561 37.2197 14.7088 37.2197C15.4616 37.2197 16.1835 37.5187 16.7157 38.051C17.248 38.5832 17.547 39.3051 17.547 40.0579V52.0019Z" fill="#153270"/>
<path d="M74.7255 54.5585V40.0576C74.7255 38.6268 74.1571 37.2545 73.1454 36.2428C72.1336 35.231 70.7614 34.6626 69.3305 34.6626C67.8997 34.6626 66.5274 35.231 65.5157 36.2428C64.5039 37.2545 63.9355 38.6268 63.9355 40.0576V54.5568L74.7255 54.5585ZM66.4924 40.0576C66.4924 39.3049 66.7914 38.583 67.3237 38.0507C67.8559 37.5185 68.5778 37.2195 69.3305 37.2195C70.0832 37.2195 70.8051 37.5185 71.3374 38.0507C71.8696 38.583 72.1687 39.3049 72.1687 40.0576V51.9999H66.4924V40.0576Z" fill="#153270"/>
<path d="M84.1143 12.273H61.8763V3.92054L42.064 0L22.3079 3.92054V12.273H0L4.84783 19.855V69.2879C4.84874 70.0742 5.16151 70.8281 5.71754 71.3841C6.27358 71.9402 7.02746 72.2529 7.81381 72.2538H76.3653C77.1516 72.2529 77.9055 71.9402 78.4616 71.3841C79.0176 70.8281 79.3304 70.0742 79.3313 69.2879V19.8226L84.1143 12.273ZM24.8647 6.01888L42.0657 2.60972L59.3195 6.01888V12.273H24.8647V6.01888ZM22.3079 14.8299H79.4728L77.3557 18.1794H6.81833L4.67056 14.8299H22.3079ZM59.3195 61.9735H50.6977V39.86C50.6977 37.5769 49.7908 35.3874 48.1764 33.7731C46.5621 32.1587 44.3726 31.2518 42.0896 31.2518C39.8065 31.2518 37.617 32.1587 36.0027 33.7731C34.3883 35.3874 33.4814 37.5769 33.4814 39.86V61.9735H24.8647V20.7311H59.3195V61.9735ZM48.1391 61.9735H36.0366V39.86C36.0366 38.2551 36.6741 36.7159 37.809 35.5811C38.9438 34.4462 40.483 33.8087 42.0878 33.8087C43.6927 33.8087 45.2319 34.4462 46.3667 35.5811C47.5016 36.7159 48.1391 38.2551 48.1391 39.86V61.9735ZM7.39959 69.2776V20.7311H22.3028V69.6867H7.81381C7.70531 69.6867 7.60125 69.6436 7.52453 69.5669C7.44781 69.4902 7.40471 69.3861 7.40471 69.2776H7.39959ZM24.8596 69.6867V64.5304H59.3195V69.6867H24.8596ZM76.7761 69.2776C76.7761 69.3861 76.733 69.4902 76.6563 69.5669C76.5796 69.6436 76.4755 69.6867 76.367 69.6867H61.8763V20.7311H76.7795L76.7761 69.2776Z" fill="#153270"/>
</svg>
