<svg width="80" height="85" viewBox="0 0 80 85" fill="none" xmlns="http://www.w3.org/2000/svg">
<path d="M23.706 40.1114C25.011 38.916 25.8417 37.2149 25.8417 35.3091C25.8417 31.7023 22.9058 28.7695 19.2989 28.7695C15.6921 28.7695 12.7593 31.7029 12.7593 35.3091C12.7593 37.2289 13.6039 38.9386 14.9233 40.134C13.9014 40.5575 12.8488 41.1784 11.9197 42.1408C9.90982 44.2209 8.96127 47.2608 9.09905 51.1759L9.14416 52.4083H29.4657L29.5108 51.1759C29.6486 47.2602 28.6994 44.2209 26.6871 42.1408C25.7573 41.1753 24.716 40.5356 23.7061 40.1116L23.706 40.1114ZM19.2989 31.3231C21.4993 31.3231 23.2874 33.1111 23.2874 35.3091C23.2874 37.507 21.4993 39.2976 19.2989 39.2976C17.1011 39.2976 15.3129 37.507 15.3129 35.3091C15.3129 33.1113 17.1009 31.3231 19.2989 31.3231ZM11.6478 49.8514C11.7374 47.2632 12.4448 45.2678 13.7555 43.9094C15.5994 41.9979 18.2715 41.9278 19.1982 41.8576L19.5378 41.8601L19.6361 41.8488C20.3911 41.8488 22.9962 42.0004 24.8426 43.9119C26.1533 45.2677 26.8606 47.2633 26.9503 49.8513L11.6478 49.8514Z" fill="#153270"/>
<path d="M66.7779 65.1188C67.9733 63.9791 68.7315 62.3764 68.7315 60.6028C68.7315 57.1587 65.9302 54.3633 62.4887 54.3633C59.0447 54.3633 56.2434 57.1589 56.2434 60.6028C56.2434 62.3966 57.0097 63.996 58.2195 65.1358C57.279 65.5374 56.3167 66.1125 55.4659 66.994C53.5575 68.9726 52.6565 71.8553 52.7856 75.5743L52.8307 76.8067H72.1449L72.1844 75.5743C72.3166 71.8577 71.4182 68.9726 69.5067 66.994C68.6534 66.1094 67.7016 65.5173 66.7781 65.1189L66.7779 65.1188ZM62.4918 56.9112C64.5243 56.9112 66.1771 58.5671 66.1771 60.5996C66.1771 62.6321 64.5212 64.2879 62.4918 64.2879C60.4567 64.2879 58.8034 62.6321 58.8034 60.5996C58.8034 58.5671 60.4569 56.9112 62.4918 56.9112ZM55.3432 74.2511C55.4415 71.8597 56.1013 70.0182 57.308 68.7696C59.0285 66.9815 61.4399 66.7966 62.3909 66.8499H62.7111L62.8063 66.8442C63.5105 66.8442 65.9445 66.9821 67.665 68.7695C68.8773 70.0188 69.5345 71.8627 69.6272 74.2511L55.3432 74.2511Z" fill="#153270"/>
<path d="M72.1395 27.7318L72.1846 26.4994C72.3168 22.7829 71.4127 19.8978 69.5043 17.9192C68.6504 17.0383 67.6993 16.4456 66.7727 16.0445C67.9681 14.9049 68.7263 13.308 68.7263 11.5286C68.7263 8.08451 65.9276 5.28906 62.4835 5.28906C59.0395 5.28906 56.2382 8.08467 56.2382 11.5286C56.2382 13.3224 57.0045 14.9218 58.2168 16.0615C57.2764 16.4688 56.3165 17.0439 55.4664 17.9198C53.5523 19.8984 52.654 22.7811 52.7862 26.5001L52.8281 27.7325L72.1395 27.7318ZM62.4865 7.84659C64.519 7.84659 66.1749 9.49685 66.1749 11.5319C66.1749 13.5669 64.5158 15.2202 62.4865 15.2202C60.4515 15.2202 58.7982 13.5644 58.7982 11.5319C58.7988 9.49941 60.4517 7.84659 62.4865 7.84659ZM57.3051 19.6967C59.0287 17.9087 61.4985 17.777 62.3857 17.777H62.7058L62.801 17.7714C63.5109 17.7714 65.945 17.9092 67.6654 19.6967C68.8752 20.946 69.5318 22.7898 69.6276 25.1782H55.341C55.4356 22.7898 56.0953 20.9486 57.3051 19.6967L57.3051 19.6967Z" fill="#153270"/>
<path d="M62.4883 49.5541C55.6253 49.5541 49.689 53.5287 46.8265 59.2965L36.287 51.676C37.7581 48.9507 38.597 45.8323 38.597 42.5256C38.597 39.2194 37.7574 36.1005 36.287 33.3751L46.8265 25.7603C49.6922 31.5225 55.626 35.4971 62.4883 35.4971C72.138 35.4971 79.9949 27.6405 79.9949 17.9937C79.9949 8.34649 72.1384 0.490234 62.4883 0.490234C52.8353 0.490234 44.9849 8.34681 44.9849 17.9937C44.9849 19.8576 45.2825 21.6451 45.8244 23.3267L34.9084 31.2222C31.3998 26.3861 25.7185 23.2227 19.2998 23.2227C8.6558 23.2227 0 31.8845 0 42.5257C0 53.167 8.65612 61.8223 19.2998 61.8223C25.7161 61.8223 31.3942 58.659 34.9084 53.8285L45.8244 61.724C45.2856 63.4081 44.9849 65.1987 44.9849 67.057C44.9849 76.7067 52.8358 84.5604 62.4883 84.5604C72.138 84.5604 79.9949 76.7039 79.9949 67.057C79.9956 57.4098 72.139 49.5536 62.4899 49.5536L62.4883 49.5541ZM62.4883 3.04397C70.7321 3.04397 77.4404 9.74975 77.4404 17.9929C77.4404 26.2366 70.729 32.9418 62.4883 32.9418C54.242 32.9418 47.5394 26.236 47.5394 17.9929C47.5394 9.74975 54.242 3.04397 62.4883 3.04397ZM19.2999 59.2673C10.068 59.2673 2.55352 51.7565 2.55352 42.5241C2.55352 33.2917 10.0675 25.7761 19.2999 25.7761C28.5323 25.7761 36.0431 33.2925 36.0431 42.5241C36.0437 51.7561 28.5323 59.2673 19.2999 59.2673ZM62.4883 82.0059C54.242 82.0059 47.5394 75.3001 47.5394 67.057C47.5394 58.8132 54.2452 52.1081 62.4883 52.1081C70.7321 52.1081 77.4404 58.8139 77.4404 67.057C77.4404 75.3001 70.7296 82.0059 62.4883 82.0059Z" fill="#153270"/>
</svg>
