<svg width="66" height="95" viewBox="0 0 66 95" fill="none" xmlns="http://www.w3.org/2000/svg">
<path d="M48.1568 48.5078C40.0803 48.5078 33.5117 55.0771 33.5117 63.1593C33.5117 67.7699 35.6948 71.8415 39.0332 74.5261V94.7125L48.1566 87.4739L57.28 94.7125V74.5261C60.6213 71.8415 62.8079 67.7699 62.8079 63.1593C62.8079 55.0771 56.233 48.5078 48.1565 48.5078H48.1568ZM54.3924 88.7337L48.1568 83.7859L41.9212 88.733V76.3604C43.8252 77.2649 45.9199 77.8075 48.1568 77.8075C50.3938 77.8075 52.4947 77.2649 54.3924 76.3639V88.7337ZM48.1568 74.9195C41.6733 74.9195 36.3997 69.6422 36.3997 63.1589C36.3997 56.669 41.674 51.3954 48.1568 51.3954C54.6467 51.3954 59.9203 56.6698 59.9203 63.1589C59.921 69.6424 54.6467 74.9195 48.1568 74.9195Z" fill="#153270"/>
<path d="M48.1564 55.9883C44.2024 55.9883 40.9844 59.2063 40.9844 63.1603C40.9844 67.1144 44.2024 70.3324 48.1564 70.3324C52.1105 70.3324 55.3285 67.1144 55.3285 63.1603C55.3285 59.2056 52.1105 55.9883 48.1564 55.9883ZM48.1564 67.4437C45.7954 67.4437 43.8723 65.524 43.8723 63.1596C43.8723 60.7951 45.792 58.8726 48.1564 58.8726C50.5209 58.8726 52.4405 60.7922 52.4405 63.1596C52.4377 65.5211 50.5174 67.4437 48.1564 67.4437Z" fill="#153270"/>
<path d="M10.5898 18.1484H46.6867V21.0364H10.5898V18.1484Z" fill="#153270"/>
<path d="M10.5898 26.5293H46.6867V29.4173H10.5898V26.5293Z" fill="#153270"/>
<path d="M10.5898 34.9141H46.6867V37.802H10.5898V34.9141Z" fill="#153270"/>
<path d="M10.5898 43.2949H46.6867V46.1829H10.5898V43.2949Z" fill="#153270"/>
<path d="M2.88709 71.4074V17.1461C2.88709 7.68611 7.0154 2.88776 15.1585 2.88776L59.488 2.88847C57.0953 5.31602 54.395 9.50508 54.395 16.0609V46.7848C55.4044 47.1751 56.3719 47.6511 57.283 48.21L57.2822 18.2024C60.0781 16.9302 67.5512 12.3918 65.1236 1.13901L64.8764 0H15.1594C9.49478 0 0 2.22772 0 17.1455V74.2956H34.7096C33.9545 73.3945 33.2908 72.4262 32.739 71.4076L2.88709 71.4074ZM62.6139 3.95021C63.1912 10.3226 59.7196 13.5213 57.3841 14.9203C57.7454 8.97668 60.646 5.55522 62.6139 3.95021Z" fill="#153270"/>
<path d="M34.9361 51.6758H10.5898V54.5637H32.8888C33.4725 53.5324 34.161 52.5676 34.9359 51.6758H34.9361Z" fill="#153270"/>
<path d="M10.59 62.9446H30.6331C30.6395 61.9579 30.738 60.9994 30.9122 60.0566H10.5898L10.59 62.9446Z" fill="#153270"/>
</svg>
