<svg width="70" height="76" viewBox="0 0 70 76" fill="none" xmlns="http://www.w3.org/2000/svg">
<path d="M17.0602 0.921875L4.50417 24.371C0.746052 31.3884 -0.461704 39.4918 1.08681 47.3001C2.63577 55.1081 6.84516 62.1368 12.9967 67.189C19.1489 72.2405 26.8626 75.0019 34.8222 75.0019C42.7826 75.0019 50.4963 72.2405 56.6492 67.189C62.8008 62.137 67.0102 55.1084 68.5585 47.3001C70.1075 39.4921 68.8998 31.3887 65.1416 24.371L52.5856 0.921875H17.0602ZM18.647 3.56748H50.999L62.8115 25.6152C66.2797 32.0929 67.3935 39.5725 65.9633 46.7801C64.5336 53.987 60.6479 60.4746 54.9692 65.1375C49.2907 69.7999 42.1705 72.3486 34.8233 72.3486C27.476 72.3486 20.3563 69.7999 14.6774 65.1375C8.99883 60.4746 5.11297 53.987 3.68268 46.7801C2.25299 39.5731 3.36674 32.0935 6.83503 25.6152L18.647 3.56748Z" fill="#153270"/>
<path d="M34.0202 15.4664C26.7897 15.6725 19.9247 18.6901 14.8842 23.8787C9.84452 29.0677 7.02702 36.0172 7.03125 43.2506C7.03007 48.1273 8.31273 52.9188 10.7505 57.1431C13.1883 61.3671 16.6954 64.875 20.919 67.3138C25.142 69.7528 29.9336 71.0366 34.8103 71.0366C39.6876 71.0366 44.4785 69.7527 48.7021 67.3138C52.9257 64.8749 56.4323 61.3671 58.87 57.1431C61.3078 52.919 62.5903 48.1273 62.5893 43.2506C62.5922 38.2831 61.2629 33.4058 58.7408 29.1267C56.2179 24.847 52.5939 21.3228 48.2457 18.9204C43.8982 16.5174 38.9855 15.3252 34.0202 15.4663V15.4664ZM34.0923 18.112C38.5851 17.9839 43.03 19.0622 46.9647 21.236C50.8988 23.4098 54.1782 26.5987 56.4611 30.4708C58.7436 34.3423 59.9465 38.7561 59.9435 43.2506C59.9458 47.6636 58.786 51.9994 56.5804 55.8225C54.3753 59.645 51.2024 62.8198 47.3805 65.0267C43.5591 67.2341 39.2234 68.3962 34.8104 68.3962C30.3973 68.3962 26.0622 67.2341 22.2402 65.0267C18.4189 62.8198 15.2459 59.645 13.0403 55.8225C10.8353 51.9994 9.67543 47.6636 9.67725 43.2506C9.67311 36.7063 12.2219 30.4188 16.7814 25.7246C21.3403 21.0298 27.551 18.2992 34.0927 18.112H34.0923Z" fill="#153270"/>
<path d="M14.4062 19.5721L21.56 6.21484H24.5611L19.0661 16.4742C17.4209 17.3612 15.8613 18.3982 14.4062 19.5721Z" fill="#153270"/>
<path d="M27.6619 6.21484H30.3883L28.612 13.3391V13.3385C27.6359 13.5198 26.6686 13.7489 25.7148 14.0247L27.6619 6.21484Z" fill="#153270"/>
<path d="M36.1417 12.8577C35.26 12.8193 34.3778 12.8193 33.4961 12.8577V6.21484H36.1417V12.8577Z" fill="#153270"/>
<path d="M55.2486 19.5721L48.0949 6.21484H45.0938L50.5887 16.4742C52.234 17.3618 53.7936 18.3987 55.2486 19.5721Z" fill="#153270"/>
<path d="M41.9843 6.21484H39.2578L41.0341 13.3391V13.3385C42.0103 13.5198 42.9775 13.7489 43.9313 14.0247L41.9843 6.21484Z" fill="#153270"/>
</svg>
