<svg width="77" height="77" viewBox="0 0 77 77" fill="none" xmlns="http://www.w3.org/2000/svg">
<path d="M75.1613 66.3973L54.6215 45.8622C57.652 41.2043 59.4256 35.6677 59.4256 29.7097C59.4256 13.3301 46.0925 0 29.7159 0C13.3301 0 0 13.3331 0 29.7097C0 46.1001 13.3331 59.4256 29.7159 59.4256C35.6609 59.4256 41.1945 57.6521 45.8467 54.6271L66.3926 75.173C67.5657 76.3461 69.1232 76.99 70.7802 76.99C72.4373 76.99 73.9948 76.3467 75.1623 75.173C76.3354 73.9945 76.9793 72.4424 76.9793 70.7854C76.9787 69.1283 76.3355 67.5709 75.1623 66.3979L75.1613 66.3973ZM2.46118 29.7112C2.46118 14.6832 14.6886 2.46088 29.7162 2.46088C44.7437 2.46088 56.9665 14.6829 56.9665 29.7112C56.9665 44.7396 44.7445 56.9662 29.7162 56.9662C14.6882 56.9668 2.46118 44.7394 2.46118 29.7112ZM73.4264 73.4308C72.018 74.8501 69.5499 74.8501 68.1307 73.4308L47.8768 53.1768C49.8555 51.6411 51.6374 49.8651 53.1725 47.8865L73.4264 68.1404C74.1349 68.8489 74.5241 69.7812 74.5241 70.7871C74.5235 71.7816 74.1343 72.7223 73.4264 73.4308Z" fill="#153270"/>
<path d="M29.7122 6.77734C17.0605 6.77734 6.76562 17.069 6.76562 29.7131C6.76562 42.3703 17.0627 52.6596 29.7122 52.6596C42.3615 52.6596 52.6525 42.368 52.6525 29.7131C52.6525 17.0668 42.3634 6.77734 29.7122 6.77734ZM50.1669 30.2105H40.8589L48.8315 22.4273C49.6968 24.698 50.194 27.1475 50.194 29.7132C50.1934 29.8804 50.1723 30.0457 50.1669 30.2105L50.1669 30.2105ZM47.755 20.0401L37.3361 30.2105H29.9071L44.6866 15.7907C45.879 17.0663 46.9199 18.4887 47.755 20.0401ZM29.2158 20.2024L38.4292 11.2112C40.0512 11.9764 41.5599 12.9389 42.9116 14.0849L29.216 27.448L29.2158 20.2024ZM35.9333 10.2077L29.2158 16.7665V9.25904C29.3806 9.25904 29.5429 9.23732 29.7131 9.23732C31.8837 9.23732 33.9679 9.58068 35.9334 10.2076L35.9333 10.2077ZM29.7129 50.1996C18.413 50.1996 9.22727 41.008 9.22727 29.714C9.22727 19.4331 16.862 10.9121 26.7562 9.47701V32.6723H49.9561C48.5151 42.5663 39.9993 50.2012 29.7129 50.2012V50.1996Z" fill="#153270"/>
</svg>
