<?xml version="1.0" encoding="utf-8"?>
<!-- Generator: Adobe Illustrator 25.4.0, SVG Export Plug-In . SVG Version: 6.00 Build 0)  -->
<svg version="1.1" id="Слой_1" xmlns="http://www.w3.org/2000/svg" xmlns:xlink="http://www.w3.org/1999/xlink" x="0px" y="0px"
	 viewBox="0 0 20 21" style="enable-background:new 0 0 20 21;" xml:space="preserve">
<style type="text/css">
	.st0{fill:#273045;}
</style>
<path class="st0" d="M17,2.3h-2.2V1c0-0.4-0.3-0.8-0.8-0.8S13.2,0.6,13.2,1v1.2H6.8V1c0-0.4-0.3-0.8-0.8-0.8S5.2,0.6,5.2,1v1.2H3
	C1.5,2.3,0.2,3.5,0.2,5v13c0,1.5,1.2,2.8,2.8,2.8h14c1.5,0,2.8-1.2,2.8-2.8V5C19.8,3.5,18.5,2.3,17,2.3z M3,3.8h2.2V5
	c0,0.4,0.3,0.8,0.8,0.8S6.8,5.4,6.8,5V3.8h6.5V5c0,0.4,0.3,0.8,0.8,0.8s0.8-0.3,0.8-0.8V3.8H17c0.7,0,1.2,0.6,1.2,1.2v2.2H1.8V5
	C1.8,4.3,2.3,3.8,3,3.8z M17,19.3H3c-0.7,0-1.2-0.6-1.2-1.2V8.8h16.5V18C18.2,18.7,17.7,19.3,17,19.3z"/>
<path class="st0" d="M4.8,11c-0.6,0-1,0.4-1,1c0,0.6,0.4,1,1,1s1-0.4,1-1S5.3,11,4.8,11z"/>
<path class="st0" d="M4.8,15c-0.6,0-1,0.4-1,1c0,0.6,0.4,1,1,1s1-0.4,1-1S5.3,15,4.8,15z"/>
<path class="st0" d="M10,11c-0.6,0-1,0.4-1,1c0,0.6,0.4,1,1,1s1-0.4,1-1S10.6,11,10,11z"/>
<path class="st0" d="M10,15c-0.6,0-1,0.4-1,1c0,0.6,0.4,1,1,1s1-0.4,1-1S10.6,15,10,15z"/>
<path class="st0" d="M15,11c-0.6,0-1,0.4-1,1c0,0.6,0.4,1,1,1s1-0.4,1-1S15.6,11,15,11z"/>
<path class="st0" d="M15,15c-0.6,0-1,0.4-1,1c0,0.6,0.4,1,1,1s1-0.4,1-1S15.6,15,15,15z"/>
</svg>
