<svg version="1.1" id="Слой_1" xmlns="http://www.w3.org/2000/svg" xmlns:xlink="http://www.w3.org/1999/xlink" x="0px" y="0px"
	 viewBox="0 0 57.3 67.9" style="enable-background:new 0 0 57.3 67.9;" xml:space="preserve">
<style type="text/css">
	.st0{fill:#ffffff;}
</style>
<path id="logo-1-gJm9hU_3_" class="st0" d="M57.3,46c-0.1,2-0.6,5.3-2.5,8.1c-1.2,1.8-2.8,3.2-4.8,4.3c-1.6,0.9-3.2,1.5-5,2.1
	c-1.9,0.6-3.9,1.1-5.8,1.6c-1.6,0.4-3.3,0.9-4.9,1.5c-1.2,0.5-2.3,1-3.4,1.8c-0.9,0.7-1.7,1.5-2.3,2.5h-0.1c0-0.1-0.1-0.2-0.1-0.2
	c-0.7-1.2-1.8-2.1-3-2.8c-1.3-0.8-2.6-1.3-4-1.8c-1.8-0.6-3.6-1-5.4-1.5c-1.9-0.5-3.8-1-5.6-1.7c-1.7-0.7-3.3-1.5-4.8-2.5
	c-2.2-1.6-3.7-3.7-4.6-6.2c-0.4-1.2-0.8-2.5-0.9-3.8c0-0.6-0.1-0.9-0.1-1.9C0.1,29.6,0.1,0,0.1,0h57.2V46z M28.8,64.9
	c0.1-0.1,0.2-0.1,0.2-0.2c0.4-0.5,0.9-1,1.4-1.4c1.1-0.9,2.4-1.6,3.8-2.1c1.7-0.7,3.4-1.2,5.2-1.6c1.8-0.5,3.7-0.9,5.5-1.5
	c1.7-0.6,3.4-1.2,5-2.1c2.4-1.4,4.2-3.2,5.4-5.5c0.9-1.9,1.4-4,1.5-6.1c0.1-1.2,0.1-2.4,0.1-3.6V0.6H0.7v41.3c0,1.1,0.1,2.2,0.2,3.3
	c0.1,1.2,0.4,2.4,0.8,3.6c0.8,2.6,2.4,4.7,4.6,6.4c1.4,1,2.9,1.7,4.5,2.3c1.7,0.7,3.4,1.1,5.2,1.6c1.7,0.5,3.4,0.9,5.2,1.4
	c1.5,0.4,2.9,0.9,4.2,1.7C26.7,62.8,27.8,63.7,28.8,64.9C28.7,64.9,28.8,64.9,28.8,64.9z"/>
<path class="st0" d="M49.9,37.3c-0.9,5.9-3.9,10-3.9,10h1.2c0,0-4.3,4.9-7.1,4.6c-0.4,0,5.9-5.2,7.9-15.9c0.9-5-0.2-10.4-0.2-10.4
	C49,26.5,50.7,31.9,49.9,37.3z M43.6,22.7c0,0,0.5,3.5,0.3,7.8C43.6,38.4,41.5,43,38,47.1c-0.9,1.1-8.7,8.1-8.7,8.1
	c6.6,0.1,12.7-7,12.7-7h-1.6c0-0.1,3.9-4,5.4-11.6c1.2-6.4-1.1-12.2-1.1-12.2S43.6,22.7,43.6,22.7z M35.8,48.2h-2.7
	c0,0,8.1-5.6,8.1-17.5c0-6.4-1-11.2-1-11.2L38.1,16v2.4c0,2.4-1,5.6-2.5,7.1C34,27,31.9,28,29.5,28c3.5,1.2,7.3-0.6,9.2-3.7
	c0.5,4.1,0.8,8.8-0.7,12.8c-1.2,3.2-3.1,5.9-5.1,8.1V42l-2.2-1.5c0,0,0,3.2-0.1,3.1c0,0-1.1-0.6-1.5-1.1c-1.1-1-2-2.5-2-2.5
	s0.1,3.6-0.1,3.5c-2.3-1.4-2.7-3.8-2.7-3.8v2.5c0,0-0.9-0.5-1.6-1.2s-1.2-1.9-1.2-1.9l-5.8,1.1L15,42.5l1.1-1l4.2-0.8
	c0,0,0.5,0.8,1.3,1.7s2.2,1.8,2.2,1.8v-0.7c1.5,1.7,1.8,2.1,2.5,2.5c1.5,1,2.6,1.5,2.6,1.5s0-2.9,0.1-2.9c0,0,0.8,1.3,2.2,2.1
	c-2.9,2.7-5.6,4.3-6.2,4.7c-0.1,0.1-3.8,2.3-3.6,2.3C28.2,55.8,35.8,48.2,35.8,48.2z M49.6,44.3c1.1-4.2,4-10,0.6-19.7
	c1.4,1.6,2.3,4.1,2.7,6.4c0-0.7,0-1.4-0.1-2.1c-0.9-8.8-5.8-15.4-10.9-18.7c-3.2-2.1-5.8-2.7-6.4-1.6c-0.6,0.9,0.1,3.9,0.2,4.8
	c0.1,1.9,0.5,5.7-1.3,7.2c-2.3,1.9-8.7-3.2-8.7-3.2s0.9,0.3,1.9-1.5c0.1-0.1,0.1-0.3,0.2-0.4c0.6-2,0.7-3.9-0.5-7.8
	c0.4-0.2,1.2-0.5,1.8-0.7c-3.7,0.1-7,0-7.1,0c0,1.8-2,1.6-2,0.7c-1.9,0-3-0.2-2.8,2.5c0,0,1.3-0.2,1.7-0.3c3.3-0.2,3.8,2.8,3.6,4.9
	c-0.3,2-1.3,1.6-2.4,5.1c-1,4.4,0.8,6.7,3,10.1c-1.9-1-2.1-1.1-3.4-2.5c0.7,3.3,2.8,7.1,3.3,8c3.4-0.9,4.2-1.8,4.2-2.1v2.3
	c-0.5,0.8-2.8,1.2-6.6,2c-5.3,0.9-5.2,1-6,0.5c-0.6-0.4-0.8-1.1-1-1.4c-0.1,0-2.7,0.3-3.3,0.4c-0.3,0.1-0.7,0.5-0.6,1.1
	c0.1,0.7,0.5,0.9,1.3,0.9v0.2c0,0-1,0.1-0.9,1.1s1.2,1,1.2,1v0.1c0,0-0.9,0.3-0.7,1.3s1.2,0.8,1.5,0.8l2.4-0.3l0.7,5.6l-2.4,0.3
	l-0.5-4.8c-0.2,0-0.6,0.1-0.9,0.1c-0.4,0-1.8,0-2.1-1.3c-0.2-1,0.4-1.4,0.4-1.4c-0.1-0.1-0.9-0.2-1-1c-0.2-0.9,0.5-1.3,0.6-1.4
	c0,0-0.7-0.2-0.8-1.1C8.3,37.5,8.8,37,9,36.9c0.2-0.2,0.4-0.3,0.7-0.4h0.1L5.3,37c0,0,1.7-4.3,6.6-4.6c5.1-0.4,7.3,3.2,7.3,3.2
	L14.9,36c0.1,0.3,0.4,0.7,0.7,0.9c0.8,0.4,3.9-0.4,5.1-0.6h0.1c-0.5-1.1-2.6-5.7-3.3-10c-1.6,0.1-4.5,0.1-4.8-0.3
	c-0.6-1-0.3-1.1-0.6-2.1s-1.9-1.4-2.6-0.5c-0.9,1.1-0.6,2.6,1.4,2.9c-0.1,0,0,0,0-0.4h0.6c0,0.7,0.1,1.1,0.5,1.4
	c-1.6,0.2-2.7-0.4-3.2-1.2c-0.4,0.1-0.7,0-1.1,0c-0.2,0.2-0.4,0.5-0.3,0.9c0.1,0.8,0.7,1,1.1,1c0.7,0,1.1-0.9,1.1-0.9v1.6h8.1
	c0,0-1.4,2.3-3.8,3.2c-0.9,0.4-2.1,0.6-3.4,0.6c-2.3-0.1-3.9-0.9-4.8-1.8s-1.6-1.9-1.6-1.9h3.6c-0.4-0.2-0.9-0.5-1.2-1.1
	c-0.4-0.9-0.1-1.5,0.3-1.8c-0.2-0.1-0.4-0.2-0.5-0.4c-0.2-0.2-0.4-0.5-0.5-0.8c-0.2-0.6-0.2-1.2,0-1.7c0.2-0.6,0.9-1.3,1.7-1.4
	c0.8-0.1,1.4,0.1,2,0.4v-5.1h2.4l0.1,4.8c0.5,0,1,0.2,1.3,0.8c0.3,0.6,0.3,1.5,0.3,1.5s-0.1,0.8,0.8,1h2.8c-0.1-1-0.1-1.9,0-2.8
	c0.3-1.8,0.9-3.1,1.4-4c0.2-0.2,0.3-0.5,0.5-0.6l1-1.2c0.9-1.1,1.3-1.9,1.2-3.3c-0.2-2.1-4.4-2.3-4.9-1c-0.4-0.6-0.4-1.3-0.4-2
	s0.3-1.1,0.4-1.5c0.1-1.5,1.7-1.6,2.9-1.7c0-3,8.2-1.8,11.1,0.3C30.1,7.3,28.9,8,28.9,8c0.8,1.6,1.5,7.4,1.6,10.7
	c2.6,1.3,2.4-2.2,1.9-6.7c-0.2-2.2,0.4-3.6,1.3-4.6c0.9-1,2.2-1,3.2-0.9c4.3,0.3,16.7,7.3,17.2,22.3C54.4,35.1,51.4,43.4,49.6,44.3z
	 M8.6,22.4c-0.4-0.3-2.3-0.2-2.3,1.1c0,0.8,0.3,1.1,0.7,1.3C7.2,24.9,7.5,25,7.7,25C7.6,24.1,7.9,23.1,8.6,22.4z"/>
</svg>
