<svg width="40" height="40" viewBox="0 0 40 40" fill="none" xmlns="http://www.w3.org/2000/svg">
<path fill-rule="evenodd" clip-rule="evenodd" d="M27.264 13.432C26.6415 12.8863 25.7463 12.8987 25.2326 13.0573C25.5692 12.6441 26.3528 12.3053 26.5838 12.2642C26.7597 12.3301 27.2639 12.8484 27.2639 13.4319L27.264 13.432ZM29.2515 11.1722C28.8421 8.98236 23.753 10.4333 21.1901 9.50315C21.1409 10.1415 21.979 11.1644 22.7807 11.5429C21.4103 12.7322 20.18 15.1284 19.9318 18.0558C19.6843 15.1284 18.454 12.7322 17.0836 11.5429C17.8853 11.1644 18.7241 10.1415 18.6743 9.50315C16.1114 10.4333 11.0222 8.98236 10.6121 11.1722C10.5258 11.6356 10.7488 12.3419 10.9897 12.5449C11.0328 12.398 11.2578 11.9176 11.9672 11.8099C15.5527 11.2681 18.5462 16.7942 15.8441 19.0284C15.8029 19.0624 15.826 19.1251 15.8818 19.1251H23.983C24.0382 19.1251 24.0614 19.0624 24.021 19.0284C21.318 16.7942 24.3116 11.2681 27.897 11.8099C28.6071 11.9176 28.8313 12.398 28.8746 12.5449C29.1154 12.3419 29.3384 11.6356 29.2515 11.1721V11.1722ZM30.1235 6.14616C30.0592 5.93928 32.1614 5.9341 32.1614 7.24992C32.1614 8.13182 30.904 8.54951 30.904 9.46467C30.904 9.8909 31.3625 10.2036 31.5032 10.2036C31.1793 8.73425 32.5186 9.50315 32.8802 9.77795C32.1615 7.80208 33.7794 7.81455 33.6202 6.90857C33.5093 6.27539 32.1031 6.46668 31.5941 6.14616C30.691 5.57766 29.6226 3.36553 28.9185 5.57766C30.2311 6.79637 29.4673 8.58999 27.801 8.58999C27.801 8.58999 27.7916 8.85301 27.8069 8.8739C29.7945 8.7766 30.4873 7.3159 30.1236 6.14616H30.1235ZM6.93571 9.77795C7.29745 9.50315 8.63653 8.73425 8.31346 10.2036C8.45341 10.2036 8.91196 9.8909 8.91196 9.46467C8.91196 8.54951 7.6544 8.13182 7.6544 7.24992C7.6544 5.93404 9.75675 5.93928 9.69233 6.14616C9.32934 7.31584 10.0223 8.77666 12.0097 8.8739C12.0243 8.85301 12.015 8.58999 12.015 8.58999C10.3493 8.58999 9.58549 6.79624 10.8975 5.57766C10.1933 3.36553 9.12495 5.57766 8.22184 6.14616C7.7129 6.46674 6.30665 6.27539 6.19582 6.90857C6.03715 7.81455 7.65433 7.80214 6.93565 9.77795H6.93571ZM12.579 13.4319C13.2021 12.8862 14.0974 12.8987 14.6104 13.0572C14.2753 12.644 13.4903 12.3052 13.2599 12.2641C13.0841 12.3301 12.5791 12.8483 12.5791 13.4319L12.579 13.4319ZM20.8775 1.18209L19.9079 0L18.9384 1.18209L19.908 2.42618L20.8776 1.18209H20.8775ZM26.412 4.7565L25.7225 3.91638L25.0337 4.7565L25.7225 5.5776L26.412 4.75644V4.7565ZM32.0042 29.0393L31.1302 28.1143L30.2562 29.0393L31.1302 29.8506L32.0042 29.0391V29.0393ZM14.7829 4.75638L14.0933 3.91626L13.4045 4.75638L14.0933 5.57754L14.7828 4.75638H14.7829ZM12.8079 8.87378H15.3794C17.5414 8.87378 18.5143 7.5468 18.8083 6.39601H21.0082C21.3022 7.54686 22.2743 8.87384 24.4371 8.87384H27.0086C27.0086 8.87384 27.4584 8.26355 27.5712 7.96137C27.9774 6.87389 27.4584 6.3667 26.7012 6.3667L25.7224 7.25378L24.7436 6.3667C23.9864 6.3667 23.4675 6.87389 23.8736 7.96137C23.9254 8.10045 24.0495 8.30465 24.1669 8.48415C23.2544 8.35879 22.0898 7.73422 21.8343 6.39601C21.8343 6.39601 22.5085 5.32494 22.6778 4.89153C23.2857 3.33291 22.5092 2.69574 21.3738 2.69574L19.9079 4.41902L18.442 2.69574C17.3066 2.69574 16.5302 3.33285 17.1387 4.89153C17.3074 5.325 17.9822 6.39608 17.9822 6.39608C17.726 7.73428 16.5614 8.35885 15.6489 8.48421C15.7671 8.30471 15.8905 8.10045 15.9423 7.96143C16.3477 6.87395 15.8301 6.36676 15.0722 6.36676L14.0934 7.25385L13.1147 6.36676C12.3569 6.36676 11.8392 6.87395 12.2447 7.96143C12.3575 8.26361 12.8081 8.8739 12.8081 8.8739L12.8079 8.87378ZM39.3941 16.8449C38.8976 17.0963 35.9858 18.4604 32.2556 17.9559C32.2943 17.7779 32.327 17.5988 32.3539 17.4187C34.8364 17.1217 36.8545 16.7007 38.1405 15.9853C39.6065 15.1694 40.2475 13.2217 39.5075 11.7726C39.4884 11.736 39.4353 11.7296 39.4087 11.7601C39.0033 12.2269 36.4537 15.0004 32.4369 15.8626C32.4266 15.6545 32.4076 15.447 32.3798 15.2405C34.3307 14.1341 36.2354 12.8593 37.1425 11.6936C38.5136 9.93113 38.3874 7.6832 37.0829 6.53697C37.0693 6.52535 37.0514 6.52013 37.0337 6.52263C37.0161 6.52514 37.0003 6.53514 36.9906 6.55007C36.5779 7.23083 32.7144 13.4755 28.4725 16.1712C28.4208 16.2043 28.3686 16.2368 28.316 16.2685C28.1945 16.3423 28.1813 16.5002 28.2848 16.5942C28.7738 17.0374 29.0778 17.6542 29.0778 18.339C29.0778 19.5295 28.16 20.5197 26.9469 20.7344C26.3304 20.8539 25.4404 20.8193 24.5857 20.5367C24.5472 20.5243 24.5074 20.5497 24.5074 20.5882V24.3591C24.5074 24.4197 24.5997 24.4348 24.6216 24.3766C25.1411 23.0001 26.6966 22.7076 27.3769 22.7076C27.6217 24.1789 28.059 25.3976 28.6271 26.0535C29.552 27.1194 31.0625 27.1044 31.7175 26.3675C31.7283 26.3553 31.7329 26.3388 31.7301 26.3228C31.7272 26.3067 31.7172 26.2929 31.7028 26.2852C31.318 26.064 29.1161 24.7122 28.6754 22.4968C28.8494 22.4368 29.0192 22.3688 29.1819 22.2885C29.8926 23.4648 30.9271 24.5124 31.7599 24.9125C33.1589 25.5836 34.4396 25.2572 35.0076 24.2749C35.0282 24.2402 35.003 24.1971 34.9612 24.1933C34.0958 24.124 31.4401 23.3629 30.3093 21.5086C30.4387 21.3897 30.5655 21.2657 30.6836 21.1339C31.8668 22.0346 33.5398 22.8309 34.7376 22.9935C36.1391 23.1841 37.7271 22.7369 37.7657 21.1071C37.7663 21.0744 37.7371 21.0477 37.7027 21.0497C37.2042 21.0797 33.9054 21.2233 31.5549 19.874C31.6366 19.7188 31.7127 19.5608 31.7832 19.4002C31.7832 19.4002 35.3349 20.2397 37.0177 19.9615C38.6901 19.6854 39.6696 18.4387 39.4804 16.8879C39.4751 16.8492 39.43 16.8265 39.3942 16.8447L39.3941 16.8449ZM8.03261 19.4003C8.1033 19.561 8.17965 19.719 8.2615 19.8742C5.91172 21.2228 2.61424 21.0805 2.11391 21.0499C2.07873 21.0478 2.04954 21.0759 2.05017 21.1079C2.08946 22.7371 3.67677 23.1842 5.07822 22.9937C6.27547 22.8311 7.94909 22.0348 9.13225 21.134C9.25106 21.2659 9.37717 21.3899 9.50646 21.5087C8.37508 23.3629 5.72 24.1241 4.85462 24.1933C4.81283 24.1972 4.78826 24.2403 4.80822 24.2749C5.37628 25.2572 6.65704 25.5836 8.05662 24.9126C8.88882 24.5125 9.92334 23.4649 10.6341 22.2887C10.7973 22.3689 10.9672 22.4368 11.1404 22.4969C10.6997 24.7122 8.49788 26.0641 8.11294 26.2852C8.09873 26.2931 8.08882 26.3069 8.08599 26.3229C8.08316 26.3389 8.0877 26.3553 8.09834 26.3675C8.75335 27.1045 10.2644 27.1195 11.1894 26.0536C11.7576 25.3976 12.1942 24.1789 12.439 22.7077C13.1199 22.7077 14.6747 23.0002 15.1943 24.3767C15.2168 24.4348 15.309 24.4197 15.309 24.3591V20.5882C15.309 20.5498 15.2686 20.5243 15.2301 20.5367C14.3754 20.8193 13.4855 20.8539 12.8697 20.7344C11.656 20.5198 10.7382 19.5296 10.7382 18.339C10.7382 17.6542 11.0428 17.0367 11.5312 16.5935C11.6353 16.5002 11.6214 16.3422 11.5006 16.2685C11.4476 16.2367 11.3949 16.2042 11.3427 16.1712C7.10355 13.4768 3.24199 7.2367 2.82592 6.55125C2.80659 6.51926 2.76018 6.51277 2.73162 6.53753C1.42896 7.68438 1.30223 9.93169 2.67324 11.6934C3.58041 12.8591 5.48487 14.134 7.43529 15.2404C7.40778 15.4468 7.38897 15.6543 7.37891 15.8624C3.36542 15.0008 0.817804 12.2318 0.408347 11.7619C0.381153 11.7299 0.326642 11.7365 0.308118 11.773C-0.430339 13.2228 0.210634 15.1692 1.67526 15.9851C2.96133 16.7005 4.97936 17.1215 7.46192 17.4185C7.48874 17.5986 7.52148 17.7777 7.56009 17.9557C3.83394 18.4596 0.923333 17.0987 0.423003 16.8454C0.385831 16.8265 0.340675 16.85 0.33606 16.8892C0.147703 18.44 1.12641 19.6854 2.79873 19.9615C4.48096 20.2397 8.03261 19.4002 8.03261 19.4002V19.4003ZM31.1302 31.0418L29.8361 30.0235C29.3198 30.331 28.9402 30.8194 28.7929 31.3917C28.0146 31.5008 25.8922 31.0295 26.0986 30.7169C28.4246 27.4454 26.6454 25.4976 24.5073 25.6059V27.8031C24.5073 28.5087 23.8915 29.0804 23.1329 29.0804H21.6565C20.5974 29.0804 19.9079 30.1451 19.9079 30.1451C19.9079 30.1451 19.2185 29.0804 18.1593 29.0804H16.6828C15.9237 29.0804 15.3092 28.5087 15.3092 27.8031V25.606C13.1711 25.4977 11.3905 27.4455 13.7172 30.717C13.9216 31.0263 11.7403 31.5218 10.7171 31.3964C10.4476 31.117 10.0587 30.9408 9.62335 30.9408C9.43828 30.9409 9.2547 30.9738 9.08117 31.0381C9.08117 31.0381 5.06044 27.2314 4.98678 27.1941L5.01996 27.1171C5.24886 26.6889 4.89853 26.2222 4.67693 26.2549C4.93433 25.9462 4.94637 24.5943 3.51822 24.2816C3.56001 24.5532 3.58122 25.1074 3.58122 25.1074C3.58122 25.1074 2.47902 24.5114 1.92555 25.0257C1.43919 25.6015 2.1141 26.6458 2.1141 26.6458C2.1141 26.6458 1.55002 26.6596 1.27198 26.636C1.68081 28.0185 3.05182 27.9206 3.34845 27.6478C3.32912 27.8678 3.82496 28.1811 4.24496 27.9297L4.42945 27.8403C4.462 27.884 8.37795 31.5838 8.37795 31.5838C8.19807 31.8507 8.1125 32.1784 8.1715 32.5276C8.26443 33.0733 8.71911 33.5257 9.29977 33.6431C9.70979 33.7254 10.0954 33.6457 10.4046 33.4649L11.4412 34.4271C11.5335 34.5107 11.6582 34.5628 11.7975 34.5531C12.051 34.536 12.2408 34.3304 12.2216 34.0948C12.2136 33.9884 12.1592 33.8971 12.0842 33.8279C12.0676 33.8096 11.0284 32.8448 11.0284 32.8448C11.8857 32.2436 13.483 31.8201 14.8089 31.8201C15.0418 31.8201 15.1513 31.623 15.071 31.4297C14.4704 29.9852 15.7618 28.9389 17.0977 29.7907C17.6804 30.1621 18.2723 30.8938 18.7183 32.1144C16.5264 32.6452 13.7744 34.1071 13.2177 35.7032C13.0033 36.3194 13.7114 37.1594 14.5714 37.3285C14.5866 37.3319 14.6025 37.329 14.6156 37.3205C14.6287 37.3121 14.6379 37.2987 14.6411 37.2834C15.0904 34.9009 17.6525 33.1254 18.9857 32.8239C19.0528 33.0034 19.0308 32.9453 19.0979 33.1241C17.6459 33.8108 16.2377 35.2592 15.8356 36.9811C15.6511 37.7696 16.5304 38.4804 17.2563 38.675C17.2928 38.6847 17.3287 38.6593 17.3307 38.6241C17.4687 36.4465 18.4303 34.5973 19.2916 33.756C19.3152 33.9204 19.3329 34.0857 19.3447 34.2514C19.3447 34.2514 18.4628 36.7089 18.4628 38.502C18.4628 39.3361 19.7024 39.9184 19.8856 40C20.1145 39.9184 21.3535 39.3361 21.3535 38.502C21.3535 36.7089 20.4716 34.2514 20.4716 34.2514C20.4836 34.0857 20.5015 33.9204 20.5253 33.756C21.386 34.5973 22.3482 36.4459 22.4856 38.6233C22.4876 38.6586 22.5241 38.6847 22.5598 38.675C23.2866 38.4805 24.1652 37.7697 23.9813 36.9812C23.5784 35.2593 22.171 33.8109 20.719 33.1242C20.7853 32.9454 20.7634 33.0034 20.8305 32.8239C22.1644 33.1255 24.7259 34.9008 25.1752 37.2834C25.1784 37.2986 25.1876 37.3119 25.2007 37.3204C25.2138 37.3288 25.2297 37.3317 25.2449 37.3285C26.1042 37.1594 26.8136 36.3193 26.5979 35.7032C26.0425 34.1072 23.2899 32.6452 21.098 32.1145C21.5446 30.8939 22.1365 30.1622 22.7191 29.7908C24.0543 28.939 25.3457 29.9854 24.7451 31.4298C24.6648 31.623 24.7736 31.8201 25.0073 31.8201C26.5069 31.8201 28.3544 32.3619 29.0856 33.0884C29.5529 33.7894 30.4162 34.2378 31.3904 34.1418C32.4973 34.0335 33.3999 33.2019 33.5246 32.1739C33.6334 31.2731 33.1676 30.4644 32.425 30.0238L31.1302 31.0421L31.1302 31.0418ZM21.5921 24.4799C22.0533 24.309 22.776 24.4473 22.7514 25.113C22.7455 25.2638 22.9572 25.2638 22.9725 25.1097C23.1105 24.1131 22.4369 23.8258 21.7322 23.9427C21.6446 23.5999 21.5729 23.3004 21.4913 23.0034C21.4263 22.7633 21.4024 22.3121 21.6805 22.3121C21.8305 22.3121 21.7701 22.7319 21.7562 22.9126C21.7435 23.0712 21.8006 23.1672 21.9294 23.1718C22.0097 23.175 22.1099 23.0726 22.1696 23.0046C22.5732 22.5484 22.6667 21.8422 22.1942 21.5015C21.7988 21.2156 20.8086 21.4284 20.5364 21.8356C20.4954 21.6822 20.2989 21.429 20.2046 21.3186C20.1131 21.211 20.0892 21.1372 20.216 21.0426C20.2757 20.9969 20.4562 20.8174 20.4562 20.632C20.4562 20.5224 20.3713 20.32 20.1012 20.32C19.8882 20.32 19.6513 20.4676 19.6513 20.7965C19.6513 20.8697 19.6692 20.9481 19.7163 21.0323C19.5815 21.01 19.2159 21.0192 19.0281 21.0655L21.6248 28.1914C22.3681 27.8245 22.9129 27.2436 22.9129 26.6203C22.9129 26.0889 22.1304 26.2651 21.7502 26.6796C21.6281 26.006 21.5192 25.384 21.4005 24.7638C21.3681 24.5928 21.4549 24.5315 21.5923 24.4799L21.5921 24.4799ZM17.9204 19.6393L18.4659 21.1549C17.9987 21.2659 17.2475 21.6066 17.2475 22.0576C17.2475 22.6582 18.3099 23.0492 18.9245 23.0021C18.8939 23.1392 18.9292 23.2613 19.0247 23.3729C18.8017 23.3729 18.3811 23.4766 18.243 23.6255C17.9171 23.322 17.4075 23.2116 17.1652 23.3964C16.9217 23.5824 16.9145 23.8977 17.1686 24.2541C17.3457 24.5008 17.4121 24.7443 17.2131 25.0301C17.9536 25.0301 17.6808 24.0674 17.9708 24.0674C17.933 24.2541 17.9563 24.4701 18.0406 24.7097C18.0963 24.8689 18.0963 24.9819 18.0008 25.1352C17.7619 25.5171 17.3903 26.3944 17.4407 27.1875C17.1978 27.1861 17.0744 27.1266 17.16 26.7951C17.1918 26.6717 17.1156 26.5836 17.0147 26.7357C16.9032 26.9035 16.8494 27.19 16.8494 27.3126C16.8494 28.019 17.6908 28.1612 18.012 28.0118C18.9411 28.9109 20.7661 28.671 21.3772 28.3695L18.1641 19.553C18.0983 19.3866 17.8628 19.4662 17.9205 19.6392L17.9204 19.6393ZM17.8089 26.9016C17.7425 26.5386 18.2475 25.8898 18.8899 25.2638C18.7532 25.6717 18.8382 26.3748 19.1062 26.617C18.6403 26.617 18.0869 26.7044 17.8089 26.9016H17.8089Z" fill="white"/>
</svg>
