<svg width="37" height="39" viewBox="0 0 37 39" fill="none" xmlns="http://www.w3.org/2000/svg">
<path d="M18.0268 39C16.5466 39.0025 15.0915 38.6167 13.8069 37.8812L4.24827 32.3514C2.9605 31.6079 1.89041 30.5395 1.14491 29.2529C0.399413 27.9663 0.00462679 26.5066 0 25.0196L0 13.9847C0.00400779 12.4971 0.398501 11.0367 1.14403 9.74942C1.88956 8.46214 2.95999 7.39316 4.24827 6.64937L13.8069 1.13016C15.0951 0.389683 16.5551 0 18.041 0C19.5269 0 20.9868 0.389683 22.2751 1.13016L31.8337 6.64937C33.122 7.39316 34.1924 8.46214 34.938 9.74942C35.6835 11.0367 36.078 12.4971 36.082 13.9847V25.0196C36.078 26.5072 35.6835 27.9676 34.938 29.2549C34.1924 30.5422 33.122 31.6112 31.8337 32.3549L22.2609 37.8812C20.9721 38.619 19.5119 39.0048 18.0268 39ZM18.0268 1.77094C16.8512 1.77043 15.6962 2.07933 14.6778 2.66662L5.11917 8.18583C4.10312 8.77574 3.2593 9.62149 2.67172 10.6389C2.08414 11.6563 1.77329 12.8098 1.77011 13.9847V25.0196C1.77267 26.1951 2.08323 27.3494 2.67084 28.3674C3.25845 29.3855 4.1026 30.2318 5.11917 30.822L14.6778 36.3412C15.6969 36.9264 16.8516 37.2343 18.0268 37.2343C19.202 37.2343 20.3567 36.9264 21.3759 36.3412L30.9345 30.822C31.9511 30.2318 32.7952 29.3855 33.3828 28.3674C33.9704 27.3494 34.281 26.1951 34.2835 25.0196V13.9847C34.281 12.8092 33.9704 11.655 33.3828 10.6369C32.7952 9.61881 31.9511 8.7725 30.9345 8.18229L21.3759 2.66308C20.3571 2.07703 19.2021 1.76935 18.0268 1.77094Z" fill="white"/>
<path d="M31.3629 18.2366C31.1752 18.0439 30.9452 17.8975 30.6912 17.8091C30.4371 17.7206 30.166 17.6924 29.8992 17.7267C29.6323 17.7611 29.3772 17.857 29.1538 18.0069C28.9305 18.1568 28.745 18.3567 28.6122 18.5906H26.1694C26.0002 17.0337 25.3856 15.5587 24.3993 14.3423L26.1376 12.6041C26.5139 12.7046 26.9129 12.6782 27.2727 12.5289C27.6326 12.3797 27.9331 12.1159 28.1277 11.7784C28.3224 11.441 28.4003 11.0488 28.3494 10.6626C28.2985 10.2763 28.1216 9.91772 27.8461 9.64226C27.5707 9.36681 27.212 9.18991 26.8258 9.139C26.4396 9.08808 26.0474 9.16598 25.71 9.36064C25.3725 9.55529 25.1087 9.85582 24.9594 10.2156C24.8102 10.5755 24.7838 10.9745 24.8843 11.3508L23.1461 13.0997C21.9297 12.1134 20.4546 11.4988 18.8978 11.3296V8.85142C19.2353 8.65658 19.499 8.35585 19.6481 7.99585C19.7972 7.63584 19.8234 7.2367 19.7225 6.86031C19.6217 6.48393 19.3995 6.15134 19.0903 5.91413C18.7812 5.67692 18.4024 5.54834 18.0127 5.54834C17.6231 5.54834 17.2443 5.67692 16.9352 5.91413C16.626 6.15134 16.4038 6.48393 16.3029 6.86031C16.2021 7.2367 16.2283 7.63584 16.3774 7.99585C16.5265 8.35585 16.7902 8.65658 17.1277 8.85142V11.3296C15.5708 11.4988 14.0958 12.1134 12.8794 13.0997L11.1659 11.365C11.2665 10.9886 11.2401 10.5896 11.0908 10.2298C10.9415 9.86998 10.6777 9.56945 10.3403 9.3748C10.0029 9.18015 9.61066 9.10224 9.22445 9.15316C8.83824 9.20407 8.47961 9.38097 8.20415 9.65642C7.9287 9.93188 7.7518 10.2905 7.70088 10.6767C7.64997 11.0629 7.72787 11.4551 7.92253 11.7926C8.11718 12.13 8.41771 12.3938 8.77752 12.5431C9.13734 12.6924 9.53635 12.7188 9.9127 12.6182L11.651 14.3565C10.6647 15.5729 10.0501 17.0479 9.88084 18.6047H7.43455C7.23971 18.2673 6.93898 18.0035 6.57898 17.8544C6.21897 17.7053 5.81983 17.6791 5.44344 17.78C5.06706 17.8808 4.73447 18.1031 4.49726 18.4122C4.26005 18.7214 4.13147 19.1001 4.13147 19.4898C4.13147 19.8795 4.26005 20.2582 4.49726 20.5674C4.73447 20.8765 5.06706 21.0987 5.44344 21.1996C5.81983 21.3004 6.21897 21.2743 6.57898 21.1252C6.93898 20.976 7.23971 20.7123 7.43455 20.3748H9.87022C10.0395 21.9317 10.654 23.4067 11.6403 24.6231L9.9127 26.3366C9.53635 26.236 9.13734 26.2624 8.77752 26.4117C8.41771 26.561 8.11718 26.8248 7.92253 27.1622C7.72787 27.4997 7.64997 27.8919 7.70088 28.2781C7.7518 28.6643 7.9287 29.0229 8.20415 29.2984C8.47961 29.5738 8.83824 29.7507 9.22445 29.8016C9.61066 29.8526 10.0029 29.7747 10.3403 29.58C10.6777 29.3854 10.9415 29.0848 11.0908 28.725C11.2401 28.3652 11.2665 27.9662 11.1659 27.5898L12.6847 26.0711L12.8794 25.8764C14.0958 26.8626 15.5708 27.4772 17.1277 27.6465V30.0609C16.7902 30.2557 16.5265 30.5565 16.3774 30.9165C16.2283 31.2765 16.2021 31.6756 16.3029 32.052C16.4038 32.4284 16.626 32.761 16.9352 32.9982C17.2443 33.2354 17.6231 33.364 18.0127 33.364C18.4024 33.364 18.7812 33.2354 19.0903 32.9982C19.3995 32.761 19.6217 32.4284 19.7225 32.052C19.8234 31.6756 19.7972 31.2765 19.6481 30.9165C19.499 30.5565 19.2353 30.2557 18.8978 30.0609V27.65C20.4546 27.4808 21.9297 26.8662 23.1461 25.8799L24.8595 27.5934C24.759 27.9697 24.7854 28.3687 24.9347 28.7285C25.0839 29.0884 25.3477 29.3889 25.6852 29.5835C26.0226 29.7782 26.4148 29.8561 26.801 29.8052C27.1872 29.7543 27.5459 29.5774 27.8213 29.3019C28.0968 29.0265 28.2737 28.6678 28.3246 28.2816C28.3755 27.8954 28.2976 27.5032 28.103 27.1658C27.9083 26.8283 27.6078 26.5645 27.248 26.4153C26.8881 26.266 26.4891 26.2396 26.1128 26.3401L24.4276 24.6196C25.4139 23.4032 26.0285 21.9282 26.1977 20.3713H28.6334C28.7507 20.6045 28.9181 20.8089 29.1236 20.9698C29.3291 21.1307 29.5677 21.2442 29.8222 21.3021C30.0768 21.36 30.341 21.3609 30.5959 21.3047C30.8508 21.2485 31.0901 21.1366 31.2967 20.9771C31.5033 20.8175 31.6721 20.6143 31.7909 20.3819C31.9097 20.1495 31.9757 19.8936 31.984 19.6328C31.9924 19.3719 31.943 19.1123 31.8392 18.8728C31.7355 18.6333 31.5801 18.4196 31.3842 18.2472L31.3629 18.2366ZM18.0269 13.0749C19.4178 13.0749 20.7706 13.5299 21.8787 14.3706L12.8971 23.3663C12.1816 22.4134 11.7457 21.2801 11.6382 20.0933C11.5307 18.9066 11.7558 17.7133 12.2885 16.6473C12.8211 15.5814 13.6401 14.6848 14.6536 14.0582C15.6672 13.4316 16.8353 13.0997 18.0269 13.0997V13.0749ZM18.0269 25.9259C16.619 25.9292 15.2496 25.4661 14.1327 24.609L23.1248 15.6168C23.851 16.5673 24.2969 17.702 24.4122 18.8926C24.5275 20.0832 24.3077 21.2823 23.7774 22.3546C23.2472 23.4268 22.4278 24.3294 21.4116 24.9605C20.3954 25.5916 19.2231 25.926 18.0269 25.9259Z" fill="white"/>
</svg>
