<svg width="150" height="110" viewBox="0 0 150 110" fill="none" xmlns="http://www.w3.org/2000/svg">
<mask id="mask0_312_5370" style="mask-type:alpha" maskUnits="userSpaceOnUse" x="0" y="0" width="150" height="110">
<rect width="150" height="110" fill="#C4C4C4"/>
</mask>
<g mask="url(#mask0_312_5370)">
<path d="M74.8815 18.7188C105.501 18.7188 132.451 25.2702 148.75 35.1767V78.7505C132.451 88.6639 105.502 95.2081 74.8815 95.2081C44.4078 95.2081 17.571 88.7252 1.25 78.9006V35.0263C17.571 25.2016 44.4078 18.7188 74.8815 18.7188Z" stroke="black" stroke-width="2.5"/>
<path d="M18.4835 75.1316C17.2235 75.1316 16.1791 74.7089 15.35 73.8635C15.1046 73.618 14.9055 73.3562 14.7528 73.0781C14.6055 72.7944 14.4882 72.489 14.401 72.1617C14.3192 71.829 14.2646 71.4745 14.2374 71.0982C14.2101 70.7164 14.191 70.291 14.1801 69.8219H12.0366V75.0334H10.2285V63.105H12.0366V68.1938H14.1964C14.2074 67.7466 14.2292 67.3375 14.2619 66.9666C14.2946 66.5903 14.3492 66.2439 14.4255 65.9276C14.5073 65.6112 14.6192 65.3194 14.761 65.0522C14.9082 64.7795 15.1046 64.5204 15.35 64.275C15.7536 63.8495 16.22 63.5332 16.749 63.3259C17.2835 63.1132 17.8617 63.0069 18.4835 63.0069C19.0998 63.0069 19.6725 63.1132 20.2015 63.3259C20.7306 63.5332 21.2024 63.8495 21.6169 64.275C22.086 64.744 22.3968 65.2867 22.5496 65.903C22.7023 66.5139 22.7786 67.2175 22.7786 68.0138V69.0692C22.7786 69.6583 22.7677 70.1846 22.7459 70.6482C22.7296 71.1118 22.6859 71.5345 22.615 71.9163C22.5441 72.2981 22.4296 72.6444 22.2714 72.9553C22.1132 73.2662 21.8951 73.5689 21.6169 73.8635C20.7933 74.7089 19.7488 75.1316 18.4835 75.1316ZM18.4835 73.3235C18.8325 73.3235 19.1598 73.2608 19.4652 73.1353C19.7706 73.0044 20.0352 72.8272 20.2588 72.6035C20.4279 72.4345 20.5561 72.249 20.6433 72.0472C20.736 71.8399 20.8042 71.6027 20.8479 71.3354C20.8915 71.0627 20.9188 70.76 20.9297 70.4273C20.9406 70.0891 20.946 69.7101 20.946 69.2901V68.7011C20.946 68.2429 20.9351 67.8475 20.9133 67.5148C20.8915 67.1766 20.856 66.8848 20.8069 66.6394C20.7579 66.3939 20.687 66.1812 20.5942 66.0012C20.507 65.8212 20.3952 65.6603 20.2588 65.5185C19.7897 65.0495 19.198 64.8149 18.4835 64.8149C18.1289 64.8149 17.799 64.8777 17.4935 65.0031C17.1935 65.1231 16.9317 65.2949 16.7081 65.5185C16.4081 65.8294 16.2145 66.2412 16.1272 66.7539C16.0454 67.2666 16.0045 67.9647 16.0045 68.8483V69.4865C16.0045 69.9555 16.0154 70.3564 16.0372 70.6891C16.0591 71.0164 16.0945 71.3 16.1436 71.54C16.1981 71.7799 16.2718 71.9845 16.3645 72.1536C16.4627 72.3172 16.5772 72.4672 16.7081 72.6035C16.9317 72.8272 17.1935 73.0044 17.4935 73.1353C17.799 73.2608 18.1289 73.3235 18.4835 73.3235Z" fill="#071228"/>
<path d="M91.3899 58.8461C90.5173 58.5266 89.8706 58.0708 89.4498 57.4786C89.0291 56.8865 88.8187 56.1774 88.8187 55.3515C88.8187 54.1048 89.2667 53.0568 90.1627 52.2075C91.0588 51.3582 92.2509 50.9336 93.7391 50.9336C95.2352 50.9336 96.439 51.3699 97.3506 52.2426C98.2622 53.1075 98.7181 54.1633 98.7181 55.4099C98.7181 56.2047 98.5077 56.8982 98.0869 57.4903C97.674 58.0747 97.0428 58.5266 96.1935 58.8461C97.2454 59.1889 98.0441 59.7421 98.5895 60.5057C99.1427 61.2693 99.4193 62.1809 99.4193 63.2406C99.4193 64.7055 98.9012 65.9366 97.8649 66.9339C96.8286 67.9312 95.465 68.4299 93.7742 68.4299C92.0834 68.4299 90.7199 67.9312 89.6836 66.9339C88.6473 65.9288 88.1291 64.6782 88.1291 63.1822C88.1291 62.068 88.4096 61.1369 88.9706 60.3888C89.5394 59.6331 90.3458 59.1188 91.3899 58.8461ZM90.9692 55.2814C90.9692 56.0917 91.2302 56.754 91.7523 57.2683C92.2743 57.7825 92.9522 58.0396 93.7859 58.0396C94.5962 58.0396 95.2585 57.7864 95.7728 57.28C96.2948 56.7657 96.5558 56.1385 96.5558 55.3983C96.5558 54.6269 96.287 53.9802 95.7494 53.4581C95.2196 52.9283 94.5573 52.6634 93.7625 52.6634C92.96 52.6634 92.2938 52.9205 91.7639 53.4347C91.2341 53.949 90.9692 54.5645 90.9692 55.2814ZM90.2913 63.1939C90.2913 63.7938 90.4316 64.3743 90.7121 64.9353C91.0004 65.4963 91.425 65.9327 91.986 66.2443C92.547 66.5482 93.1509 66.7001 93.7976 66.7001C94.8027 66.7001 95.6325 66.3768 96.287 65.7301C96.9415 65.0834 97.2688 64.2613 97.2688 63.264C97.2688 62.2511 96.9299 61.4135 96.252 60.7512C95.5819 60.0889 94.7404 59.7577 93.7275 59.7577C92.7379 59.7577 91.9159 60.085 91.2614 60.7395C90.6147 61.394 90.2913 62.2121 90.2913 63.1939Z" fill="#071228"/>
<path d="M101.476 59.6876C101.476 57.6617 101.683 56.0333 102.096 54.8022C102.517 53.5633 103.136 52.6088 103.954 51.9387C104.78 51.2686 105.816 50.9336 107.063 50.9336C107.982 50.9336 108.789 51.1206 109.482 51.4946C110.176 51.8608 110.748 52.3945 111.2 53.0958C111.652 53.7893 112.007 54.6386 112.264 55.6437C112.521 56.641 112.65 57.989 112.65 59.6876C112.65 61.6979 112.443 63.3224 112.03 64.5613C111.617 65.7924 110.998 66.7469 110.172 67.4248C109.354 68.0949 108.317 68.4299 107.063 68.4299C105.411 68.4299 104.114 67.8377 103.171 66.6534C102.041 65.2275 101.476 62.9056 101.476 59.6876ZM103.639 59.6876C103.639 62.5004 103.966 64.3743 104.62 65.3093C105.283 66.2365 106.097 66.7001 107.063 66.7001C108.029 66.7001 108.84 66.2326 109.494 65.2976C110.156 64.3626 110.487 62.4926 110.487 59.6876C110.487 56.867 110.156 54.9931 109.494 54.0659C108.84 53.1387 108.021 52.675 107.04 52.675C106.073 52.675 105.302 53.0841 104.725 53.9022C104.001 54.9463 103.639 56.8748 103.639 59.6876Z" fill="#071228"/>
<path d="M114.8 59.6876C114.8 57.6617 115.007 56.0333 115.42 54.8022C115.84 53.5633 116.46 52.6088 117.278 51.9387C118.104 51.2686 119.14 50.9336 120.387 50.9336C121.306 50.9336 122.113 51.1206 122.806 51.4946C123.5 51.8608 124.072 52.3945 124.524 53.0958C124.976 53.7893 125.331 54.6386 125.588 55.6437C125.845 56.641 125.973 57.989 125.973 59.6876C125.973 61.6979 125.767 63.3224 125.354 64.5613C124.941 65.7924 124.322 66.7469 123.496 67.4248C122.678 68.0949 121.641 68.4299 120.387 68.4299C118.735 68.4299 117.438 67.8377 116.495 66.6534C115.365 65.2275 114.8 62.9056 114.8 59.6876ZM116.962 59.6876C116.962 62.5004 117.29 64.3743 117.944 65.3093C118.606 66.2365 119.421 66.7001 120.387 66.7001C121.353 66.7001 122.163 66.2326 122.818 65.2976C123.48 64.3626 123.811 62.4926 123.811 59.6876C123.811 56.867 123.48 54.9931 122.818 54.0659C122.163 53.1387 121.345 52.675 120.363 52.675C119.397 52.675 118.626 53.0841 118.049 53.9022C117.325 54.9463 116.962 56.8748 116.962 59.6876Z" fill="#071228"/>
<path d="M78.6266 48.4329C79.6304 46.624 78.6266 45.8188 77.9103 45.2438C77.4135 44.7916 76.9777 44.2767 76.6138 43.712C74.967 27.5521 74.3187 27.1652 74.0207 26.977C73.7227 26.7888 73.1319 26.4228 67.6791 30.5268C65.8284 31.9175 64.0613 33.35 62.5347 34.7093C60.0019 33.8556 57.3169 33.5484 54.6567 33.8079C51.9966 34.0675 49.4216 34.8878 47.1015 36.2149C40.8697 39.7073 36.1227 45.6254 35.077 51.2926C34.8761 52.2753 34.7693 53.2749 34.7581 54.2778C34.0277 54.3752 33.3393 54.6759 32.7715 55.1457C31.7625 55.9717 31.1926 57.2787 31.0515 59.0249C30.8005 62.6427 33.9112 66.0775 34.9307 67.1231C34.6849 67.8289 34.4079 69.3241 35.2287 71.7395C35.928 73.6943 37.3293 75.3193 39.1601 76.2983C38.9116 77.628 39.0326 79.0005 39.5101 80.2662C39.9876 81.5318 40.8033 82.6422 41.8683 83.4764C44.1791 85.2644 47.4675 85.8238 49.3653 85.8238C49.8631 85.8711 50.3648 85.792 50.8239 85.5938C51.2683 85.2121 51.4251 84.1822 51.2055 83.032C50.85 81.1604 48.5915 79.3724 47.7864 78.7973C47.7953 77.1077 47.5844 75.4241 47.159 73.7888C46.9363 72.9151 46.5407 72.0948 45.9957 71.3764C45.4506 70.6581 44.7671 70.0562 43.9856 69.6064C44.2119 67.8346 44.0331 66.0345 43.4628 64.3418C42.893 62.8466 41.5807 61.9055 40.326 60.9906C39.4621 60.4477 38.6922 59.7679 38.0466 58.9778C37.8479 58.6955 37.6492 58.455 37.4558 58.1832C36.6616 57.3298 36.1488 56.253 35.9867 55.0986C36.0333 55.0036 36.0539 54.898 36.0466 54.7924C36.0392 54.6868 36.0042 54.5851 35.9449 54.4974C35.9356 53.4927 36.0355 52.49 36.2429 51.507C37.2467 46.2789 41.8474 40.5281 47.6923 37.2501C49.7703 36.0782 52.0595 35.3289 54.4283 35.0454C56.797 34.7618 59.1985 34.9497 61.4943 35.598C60.6997 36.3247 59.9886 37.0148 59.4031 37.6317C53.9503 43.4558 48.8268 51.507 48.7745 51.5854C48.6986 51.7196 48.6772 51.8779 48.7147 52.0274C48.7522 52.177 48.8457 52.3064 48.9759 52.389C49.1062 52.4716 49.2631 52.501 49.4144 52.4711C49.5657 52.4412 49.6997 52.3543 49.7887 52.2284C49.841 52.15 54.9018 44.1929 60.2866 38.463C63.9933 34.5158 71.4903 28.995 73.3567 28.1638C73.8168 29.8681 74.7212 37.0201 75.4113 43.5969L58.943 52.035C58.8583 52.0606 58.7803 52.1047 58.7145 52.164C58.6488 52.2234 58.5969 52.2965 58.5627 52.3781C58.5285 52.4598 58.5128 52.548 58.5166 52.6365C58.5205 52.725 58.5438 52.8115 58.585 52.8899C58.6261 52.9683 58.6841 53.0366 58.7547 53.09C58.8254 53.1434 58.9069 53.1805 58.9936 53.1988C59.0802 53.217 59.1698 53.2158 59.256 53.1954C59.3421 53.175 59.4227 53.1358 59.492 53.0806L75.8557 44.7C76.2309 45.2577 76.6753 45.7654 77.1784 46.211C77.8947 46.7338 78.1038 46.9272 77.581 47.8526C77.1376 48.4774 76.5539 48.9895 75.8766 49.3478C75.0993 49.797 74.3943 50.361 73.7854 51.0207C72.5621 52.4846 71.3596 53.5302 70.5074 53.8177C70.3245 53.8753 69.4618 53.9432 68.6306 54.0112C64.4847 54.3458 56.7682 54.9679 56.1879 58.4289C55.8376 60.5201 56.8675 61.3984 57.6988 62.0885C58.2948 62.6113 58.8071 63.0295 58.9221 63.8922C58.9377 64.4509 58.8833 65.0095 58.7601 65.5547C58.744 65.6323 58.7435 65.7123 58.7585 65.7901C58.7735 65.8679 58.8038 65.942 58.8475 66.008C58.8912 66.0741 58.9476 66.1309 59.0133 66.1751C59.0791 66.2193 59.1529 66.2501 59.2306 66.2657H59.3508C59.4897 66.2661 59.6244 66.2184 59.7321 66.1307C59.8398 66.043 59.9138 65.9208 59.9416 65.7847C60.0879 65.0979 60.1407 64.3945 60.0984 63.6935C60.0108 63.1788 59.8208 62.6869 59.5397 62.2469C59.2586 61.8069 58.8922 61.4277 58.4621 61.1318C57.6831 60.4678 57.1184 59.9921 57.3589 58.5753C57.7824 56.0344 65.7238 55.3966 68.709 55.1561C69.4422 55.1357 70.1719 55.0482 70.8891 54.8947C72.3268 54.3719 73.8952 52.6937 74.7056 51.7579C75.0257 51.3939 75.3912 51.0724 75.793 50.8012C75.913 52.4379 75.8956 54.0818 75.7407 55.7155C75.6896 56.1557 75.611 56.5922 75.5055 57.0225C75.0025 56.6755 74.4356 56.4321 73.8377 56.3063C72.5255 56.0553 69.7076 57.1637 69.3939 57.2944C69.3168 57.3211 69.246 57.3631 69.1858 57.418C69.1255 57.4728 69.077 57.5394 69.0433 57.6136C69.0095 57.6878 68.9912 57.7681 68.9894 57.8496C68.9877 57.9311 69.0025 58.0121 69.033 58.0876C69.0635 58.1632 69.1091 58.2318 69.167 58.2892C69.2248 58.3467 69.2937 58.3917 69.3695 58.4217C69.4453 58.4516 69.5264 58.4659 69.6079 58.4635C69.6894 58.4612 69.7695 58.4423 69.8435 58.408C70.8891 57.9793 72.881 57.3624 73.6129 57.4878C74.1739 57.6153 74.6969 57.8732 75.1395 58.2407L74.967 58.8628C74.7944 59.3386 74.6324 59.8091 74.4964 60.3005L67.9771 63.0139L68.4999 63.6412C68.8985 64.049 69.3656 64.3834 69.8801 64.6293C70.293 64.8355 70.7304 64.9884 71.1819 65.0842H71.3021C71.4526 65.0864 71.5985 65.0321 71.711 64.932C71.8234 64.8318 71.8941 64.6931 71.9093 64.5434C71.9244 64.3936 71.8827 64.2435 71.7926 64.123C71.7024 64.0024 71.5703 63.92 71.4224 63.8922C71.0838 63.8191 70.7555 63.705 70.4447 63.5524L70.1519 63.3903L74.2298 61.6859C74.1873 62.1415 74.1873 62.6001 74.2298 63.0557C74.4554 65.2728 75.2495 67.3941 76.5354 69.2143C76.7173 69.4701 76.8765 69.7412 77.0111 70.0247C76.7607 70.1885 76.4826 70.3054 76.1903 70.3697C75.4532 70.5945 74.4389 70.8925 74.0311 72.0061C73.7648 72.7726 73.7356 73.6015 73.9475 74.3848C73.9475 74.4789 73.9893 74.5992 74.005 74.6881C73.6054 74.7575 73.2022 74.8046 72.7973 74.8292C71.6628 74.9233 70.9152 74.9861 70.6538 75.5141C70.3454 76.131 70.9152 76.6434 71.574 77.2394C71.874 77.4973 72.1456 77.7865 72.3843 78.102C72.2377 78.3454 72.0622 78.5701 71.8615 78.7712C71.4982 79.1051 71.2111 79.5135 71.0198 79.9684C70.9179 80.3512 70.9646 80.7583 71.1505 81.1081C71.2514 81.2726 71.2914 81.4673 71.2637 81.6583C71.236 81.8493 71.1423 82.0246 70.9989 82.1537C70.5127 82.6765 66.2937 82.2792 63.8312 81.1552C61.5675 80.1095 58.1588 78.1386 58.1275 78.1177C57.9888 78.0372 57.8239 78.0152 57.669 78.0564C57.5141 78.0976 57.3818 78.1986 57.3014 78.3372C57.221 78.4759 57.199 78.6408 57.2401 78.7957C57.2813 78.9506 57.3824 79.0828 57.521 79.1633C57.6256 79.226 59.5547 80.3553 61.4891 81.3538C60.9178 81.6974 60.391 82.11 59.9207 82.5824C59.3822 83.2481 58.9421 83.9875 58.6137 84.7782C58.5527 84.9258 58.5528 85.0917 58.6141 85.2393C58.6754 85.3868 58.7927 85.504 58.9404 85.565C59.0881 85.626 59.2539 85.6259 59.4015 85.5646C59.5491 85.5033 59.6662 85.3859 59.7272 85.2383C60.0036 84.5762 60.3695 83.9553 60.8147 83.3928C61.4038 82.8478 62.0589 82.3788 62.7647 81.9969L63.3398 82.2635C65.3372 83.0698 67.4607 83.5192 69.6135 83.5914C70.6591 83.5914 71.5531 83.4032 71.9399 82.917C72.2258 82.6177 72.4108 82.2365 72.4689 81.8267C72.527 81.417 72.4554 80.9993 72.2641 80.6323C72.2169 80.5383 72.1835 80.4379 72.1647 80.3343C72.3126 80.0514 72.5091 79.7966 72.745 79.5815C73.1084 79.2475 73.3955 78.8392 73.5868 78.3843C73.8325 77.6524 73.111 76.9989 72.4105 76.3663L72.1438 76.1206C72.4052 76.0892 72.7085 76.063 72.928 76.0421C74.1357 75.9428 74.7788 75.8696 75.0768 75.4252C75.1764 75.2302 75.2347 75.0168 75.2482 74.7982C75.2617 74.5796 75.23 74.3606 75.1552 74.1548C74.9906 73.5934 75.0016 72.9951 75.1865 72.44C75.3748 71.9172 75.8348 71.7604 76.5667 71.5408C77.1659 71.4382 77.7069 71.1202 78.0881 70.6468C78.4959 70.0037 78.0881 69.3764 77.5653 68.5556C76.3893 66.8912 75.6684 64.9484 75.4741 62.9198C75.3768 61.6667 75.5924 60.4092 76.1014 59.2601C76.1903 59.0092 76.2792 58.7373 76.3733 58.4812C76.4655 58.368 76.5122 58.2244 76.504 58.0786C76.7273 57.3643 76.8848 56.6311 76.9745 55.888C77.1512 53.9507 77.1512 52.0013 76.9745 50.064C77.6463 49.6584 78.2125 49.0995 78.6266 48.4329V48.4329ZM36.4677 58.9308C36.6507 59.1713 36.8389 59.417 37.0271 59.6836C37.7488 60.5878 38.6164 61.3653 39.5941 61.9839C40.7704 62.8309 41.8839 63.6255 42.3283 64.7862C42.8597 66.4212 43.0011 68.1579 42.7413 69.8574L42.6577 70.3279L43.0969 70.5161C43.8072 70.8691 44.4335 71.3705 44.9332 71.9866C45.4329 72.6027 45.7944 73.3189 45.9932 74.0868C46.4207 75.7102 46.616 77.3858 46.5735 79.0639V79.409L46.861 79.6024C47.6557 80.1252 49.7731 81.8243 50.0449 83.2621C50.1395 83.7014 50.1395 84.1558 50.0449 84.5952C49.0777 84.6579 45.2299 84.5586 42.6054 82.504C41.6592 81.7669 40.9482 80.7703 40.5592 79.6357C40.1702 78.5012 40.12 77.2779 40.4149 76.1153L40.5613 75.5925L40.075 75.3834C38.3638 74.5606 37.036 73.1092 36.3684 71.3317C35.443 68.5556 36.154 67.2799 36.1592 67.2799L36.4259 66.8565L36.0547 66.5166C36.0129 66.4801 31.9977 62.7629 32.2644 59.1033C32.3689 57.7022 32.7872 56.6827 33.5034 56.071C33.8804 55.7556 34.3356 55.5479 34.8209 55.4698C35.0264 56.7576 35.5981 57.959 36.4677 58.9308V58.9308Z" fill="#071228"/>
<path d="M54.5809 67.8257C53.2477 67.078 49.839 64.7254 50.1004 62.859C50.2259 61.9755 50.5344 61.4004 51.0206 61.139C51.7577 60.7469 52.8451 61.139 53.2059 61.2906C53.3461 61.3431 53.5008 61.3414 53.6398 61.2858C53.7788 61.2302 53.8921 61.1248 53.9575 60.9901C54.0229 60.8554 54.0357 60.7012 53.9933 60.5576C53.951 60.414 53.8566 60.2913 53.7287 60.2136C53.6555 60.177 51.8884 59.3144 50.4559 60.0725C49.609 60.5221 49.0862 61.4004 48.8875 62.6865C48.4641 65.6926 53.4045 68.5524 53.9692 68.8713C54.1065 68.934 54.2623 68.9427 54.4057 68.8958C54.5492 68.8489 54.6697 68.7498 54.7435 68.6181C54.8172 68.4864 54.8387 68.3319 54.8038 68.1851C54.7688 68.0382 54.6799 67.91 54.5547 67.8257H54.5809Z" fill="#071228"/>
</g>
</svg>
