<svg width="150" height="110" viewBox="0 0 150 110" fill="none" xmlns="http://www.w3.org/2000/svg">
<mask id="mask0_312_5376" style="mask-type:alpha" maskUnits="userSpaceOnUse" x="0" y="0" width="150" height="110">
<path d="M0 0H150V110H0V0Z" fill="#C4C4C4"/>
</mask>
<g mask="url(#mask0_312_5376)">
<path d="M43.3912 14.2871L43.4413 14.2874L43.4913 14.2837C45.1424 14.1611 48.0402 14.3734 51.945 14.8787C55.8166 15.3796 60.5821 16.1549 65.9148 17.1183C76.5787 19.0447 89.4645 21.7145 101.913 24.4201C114.36 27.1252 126.36 29.8638 135.249 31.9263C139.693 32.9575 143.36 33.8196 145.914 34.4238C147.192 34.7259 148.191 34.9636 148.871 35.1257C148.899 35.1323 148.926 35.1388 148.953 35.1451V78.1567C148.953 78.1569 148.952 78.157 148.952 78.1571C148.329 78.3104 147.414 78.5353 146.24 78.8213C143.892 79.3933 140.511 80.21 136.383 81.1881C128.126 83.1444 116.881 85.7459 104.922 88.3276C92.9622 90.9097 80.2994 93.4698 69.2055 95.3447C58.0768 97.2254 48.6325 98.3974 43.0542 98.2447L43.0371 98.2442H43.02H42.888C31.8358 98.1766 21.2612 93.692 13.4902 85.7742C5.71818 77.8551 1.38761 67.1502 1.45387 56.0141C1.52014 44.878 5.97778 34.2262 13.8435 26.4015C21.7089 18.5771 32.3377 14.2204 43.3912 14.2871Z" stroke="black" stroke-width="2.5"/>
<path d="M21.9525 74.3317C20.6992 74.3317 19.6603 73.9112 18.8356 73.0703C18.5915 72.8261 18.3934 72.5657 18.2415 72.289C18.0951 72.0069 17.9784 71.7031 17.8916 71.3776C17.8102 71.0466 17.756 70.694 17.7288 70.3196C17.7017 69.9398 17.6827 69.5167 17.6719 69.0501H15.5397V74.234H13.7412V62.3688H15.5397V67.4306H17.6882C17.699 66.9857 17.7207 66.5788 17.7533 66.2099C17.7858 65.8356 17.8401 65.491 17.916 65.1764C17.9974 64.8617 18.1086 64.5715 18.2497 64.3056C18.3962 64.0343 18.5915 63.7766 18.8356 63.5325C19.2371 63.1093 19.701 62.7947 20.2272 62.5885C20.7589 62.3769 21.334 62.2711 21.9525 62.2711C22.5655 62.2711 23.1352 62.3769 23.6615 62.5885C24.1877 62.7947 24.657 63.1093 25.0693 63.5325C25.5359 63.9991 25.8452 64.5389 25.9971 65.152C26.149 65.7596 26.2249 66.4595 26.2249 67.2516V68.3014C26.2249 68.8873 26.2141 69.4109 26.1924 69.872C26.1761 70.3332 26.1327 70.7536 26.0622 71.1334C25.9916 71.5132 25.8777 71.8577 25.7204 72.1669C25.563 72.4762 25.346 72.7773 25.0693 73.0703C24.2501 73.9112 23.2112 74.3317 21.9525 74.3317ZM21.9525 72.5331C22.2997 72.5331 22.6252 72.4708 22.929 72.346C23.2329 72.2158 23.496 72.0394 23.7184 71.817C23.8866 71.6488 24.0141 71.4644 24.1009 71.2636C24.1931 71.0575 24.261 70.8215 24.3044 70.5556C24.3478 70.2843 24.3749 69.9832 24.3857 69.6523C24.3966 69.3159 24.402 68.9389 24.402 68.5211V67.9352C24.402 67.4794 24.3912 67.0861 24.3695 66.7552C24.3478 66.4188 24.3125 66.1285 24.2637 65.8844C24.2148 65.6402 24.1443 65.4287 24.0521 65.2496C23.9653 65.0706 23.8541 64.9105 23.7184 64.7695C23.2518 64.3029 22.6632 64.0696 21.9525 64.0696C21.5998 64.0696 21.2716 64.132 20.9678 64.2568C20.6694 64.3761 20.409 64.547 20.1865 64.7695C19.8881 65.0787 19.6955 65.4883 19.6087 65.9983C19.5273 66.5083 19.4867 67.2027 19.4867 68.0817V68.7164C19.4867 69.183 19.4975 69.5818 19.5192 69.9127C19.5409 70.2382 19.5762 70.5203 19.625 70.7591C19.6793 70.9978 19.7525 71.2012 19.8447 71.3694C19.9424 71.5322 20.0563 71.6814 20.1865 71.817C20.409 72.0394 20.6694 72.2158 20.9678 72.346C21.2716 72.4708 21.5998 72.5331 21.9525 72.5331Z" fill="#071228"/>
<path d="M88.587 62.9105L90.7842 62.7245C90.947 63.7941 91.3229 64.6001 91.9119 65.1427C92.5087 65.6775 93.2256 65.9448 94.0627 65.9448C95.0702 65.9448 95.9228 65.5651 96.6203 64.8055C97.3179 64.046 97.6667 63.0384 97.6667 61.7828C97.6667 60.5893 97.3295 59.6476 96.6552 58.9578C95.9887 58.268 95.1129 57.9231 94.0278 57.9231C93.3535 57.9231 92.7451 58.0781 92.2026 58.3881C91.66 58.6904 91.2338 59.0857 90.9237 59.5739L88.959 59.3182L90.6098 50.564H99.085V52.5636H92.2839L91.3655 57.1442C92.3886 56.4311 93.462 56.0746 94.5858 56.0746C96.0739 56.0746 97.3295 56.59 98.3526 57.6208C99.3756 58.6516 99.8872 59.977 99.8872 61.5968C99.8872 63.1392 99.4377 64.4723 98.5386 65.5961C97.4458 66.9757 95.9538 67.6655 94.0627 67.6655C92.5126 67.6655 91.2454 67.2314 90.2611 66.3634C89.2845 65.4953 88.7265 64.3444 88.587 62.9105Z" fill="#071228"/>
<path d="M101.84 58.9694C101.84 56.9543 102.046 55.3344 102.456 54.1098C102.875 52.8775 103.491 51.9281 104.305 51.2615C105.127 50.595 106.157 50.2617 107.397 50.2617C108.312 50.2617 109.114 50.4477 109.804 50.8198C110.494 51.184 111.063 51.7149 111.513 52.4125C111.962 53.1023 112.315 53.9471 112.571 54.9469C112.827 55.939 112.955 57.2798 112.955 58.9694C112.955 60.969 112.749 62.585 112.338 63.8173C111.928 65.0419 111.311 65.9913 110.49 66.6656C109.676 67.3322 108.645 67.6655 107.397 67.6655C105.754 67.6655 104.464 67.0764 103.526 65.8983C102.402 64.48 101.84 62.1704 101.84 58.9694ZM103.991 58.9694C103.991 61.7673 104.317 63.6313 104.968 64.5614C105.626 65.4837 106.436 65.9448 107.397 65.9448C108.358 65.9448 109.165 65.4798 109.816 64.5498C110.474 63.6197 110.804 61.7596 110.804 58.9694C110.804 56.1637 110.474 54.2997 109.816 53.3774C109.165 52.4551 108.351 51.994 107.374 51.994C106.413 51.994 105.646 52.4009 105.072 53.2147C104.351 54.2532 103.991 56.1715 103.991 58.9694Z" fill="#071228"/>
<path d="M115.094 58.9694C115.094 56.9543 115.299 55.3344 115.71 54.1098C116.128 52.8775 116.745 51.9281 117.558 51.2615C118.38 50.595 119.411 50.2617 120.651 50.2617C121.565 50.2617 122.367 50.4477 123.057 50.8198C123.747 51.184 124.317 51.7149 124.766 52.4125C125.216 53.1023 125.568 53.9471 125.824 54.9469C126.08 55.939 126.208 57.2798 126.208 58.9694C126.208 60.969 126.002 62.585 125.592 63.8173C125.181 65.0419 124.565 65.9913 123.743 66.6656C122.929 67.3322 121.899 67.6655 120.651 67.6655C119.008 67.6655 117.717 67.0764 116.779 65.8983C115.656 64.48 115.094 62.1704 115.094 58.9694ZM117.244 58.9694C117.244 61.7673 117.57 63.6313 118.221 64.5614C118.88 65.4837 119.69 65.9448 120.651 65.9448C121.612 65.9448 122.418 65.4798 123.069 64.5498C123.728 63.6197 124.057 61.7596 124.057 58.9694C124.057 56.1637 123.728 54.2997 123.069 53.3774C122.418 52.4551 121.604 51.994 120.628 51.994C119.666 51.994 118.899 52.4009 118.326 53.2147C117.605 54.2532 117.244 56.1715 117.244 58.9694Z" fill="#071228"/>
<path d="M80.24 47.7758C81.2385 45.9765 80.24 45.1757 79.5276 44.6036C79.0334 44.1538 78.5998 43.6416 78.2379 43.0799C76.5998 27.0055 75.9549 26.6207 75.6585 26.4335C75.3621 26.2463 74.7744 25.8823 69.3504 29.9646C67.5095 31.3479 65.7518 32.7728 64.2333 34.1249C61.7139 33.2757 59.0431 32.9701 56.397 33.2283C53.7509 33.4864 51.1895 34.3025 48.8818 35.6226C42.6829 39.0964 37.961 44.9832 36.9209 50.6204C36.721 51.5979 36.6148 52.5922 36.6037 53.5899C35.8771 53.6867 35.1923 53.9858 34.6275 54.4531C33.6239 55.2748 33.057 56.5749 32.9166 58.3118C32.667 61.9105 35.7612 65.3271 36.7753 66.3672C36.5309 67.0692 36.2553 68.5565 37.0717 70.9591C37.7673 72.9036 39.1612 74.52 40.9824 75.4938C40.7351 76.8165 40.8556 78.1817 41.3305 79.4407C41.8055 80.6997 42.6169 81.8042 43.6762 82.634C45.9748 84.4125 49.2458 84.9689 51.1335 84.9689C51.6287 85.016 52.1278 84.9373 52.5844 84.7401C53.0265 84.3605 53.1825 83.336 52.9641 82.1919C52.6104 80.3302 50.3639 78.5517 49.563 77.9796C49.5718 76.2989 49.3621 74.6242 48.939 72.9977C48.7174 72.1285 48.3239 71.3126 47.7818 70.598C47.2396 69.8835 46.5597 69.2848 45.7823 68.8374C46.0074 67.0749 45.8296 65.2843 45.2623 63.6006C44.6955 62.1133 43.3902 61.1772 42.1421 60.2671C41.2827 59.7271 40.517 59.0509 39.8747 58.265C39.6771 57.9842 39.4795 57.745 39.2871 57.4745C38.4971 56.6257 37.987 55.5546 37.8258 54.4063C37.8721 54.3118 37.8926 54.2067 37.8853 54.1017C37.878 53.9967 37.8431 53.8955 37.7842 53.8083C37.7749 52.8089 37.8743 51.8115 38.0806 50.8337C39.0791 45.6333 43.6554 39.9129 49.4694 36.6522C51.5364 35.4865 53.8135 34.7412 56.1698 34.4592C58.526 34.1771 60.9147 34.364 63.1984 35.0089C62.4079 35.7318 61.7007 36.4182 61.1183 37.0319C55.6943 42.8251 50.5979 50.8337 50.5459 50.9117C50.4704 51.0452 50.4491 51.2026 50.4864 51.3514C50.5237 51.5002 50.6167 51.6289 50.7463 51.7111C50.8758 51.7932 51.0319 51.8224 51.1824 51.7927C51.3329 51.7629 51.4662 51.6765 51.5548 51.5513C51.6068 51.4733 56.6407 43.5583 61.9971 37.8587C65.6842 33.9324 73.1415 28.4408 74.9981 27.614C75.4557 29.3093 76.3553 36.4234 77.0418 42.9655L60.6606 51.3589C60.5763 51.3844 60.4987 51.4283 60.4333 51.4873C60.3679 51.5463 60.3164 51.619 60.2823 51.7002C60.2483 51.7815 60.2326 51.8692 60.2365 51.9572C60.2403 52.0452 60.2635 52.1313 60.3044 52.2093C60.3454 52.2872 60.403 52.3552 60.4733 52.4083C60.5436 52.4615 60.6247 52.4984 60.7109 52.5165C60.7971 52.5346 60.8862 52.5335 60.9719 52.5132C61.0576 52.4929 61.1378 52.4539 61.2067 52.399L77.4838 44.0628C77.857 44.6174 78.2991 45.1224 78.7995 45.5657C79.512 46.0857 79.72 46.2781 79.2 47.1986C78.7589 47.8201 78.1783 48.3295 77.5046 48.6859C76.7314 49.1328 76.0302 49.6938 75.4245 50.35C74.2076 51.8061 73.0115 52.8462 72.1638 53.1322C71.9818 53.1894 71.1238 53.257 70.2969 53.3246C66.173 53.6575 58.4973 54.2763 57.92 57.719C57.5716 59.7991 58.5961 60.6728 59.4229 61.3592C60.0158 61.8793 60.5254 62.2953 60.6398 63.1533C60.6554 63.7092 60.6012 64.2647 60.4786 64.8071C60.4627 64.8843 60.4622 64.9638 60.4771 65.0412C60.492 65.1186 60.5221 65.1923 60.5656 65.258C60.6091 65.3237 60.6651 65.3802 60.7305 65.4242C60.7959 65.4682 60.8694 65.4988 60.9466 65.5143H61.0662C61.2044 65.5147 61.3384 65.4673 61.4455 65.3801C61.5526 65.2928 61.6263 65.1712 61.6539 65.0359C61.7995 64.3527 61.852 63.653 61.8099 62.9557C61.7227 62.4438 61.5337 61.9545 61.2541 61.5168C60.9746 61.0791 60.6101 60.7019 60.1822 60.4076C59.4073 59.7471 58.8457 59.2739 59.0849 57.8646C59.5061 55.3372 67.4055 54.7027 70.3749 54.4635C71.1042 54.4432 71.8301 54.3561 72.5435 54.2035C73.9736 53.6835 75.5337 52.0141 76.3397 51.0833C76.6582 50.7212 77.0218 50.4014 77.4214 50.1316C77.5408 51.7596 77.5234 53.3948 77.3694 55.02C77.3186 55.4578 77.2404 55.892 77.1354 56.3201C76.6352 55.9749 76.0712 55.7327 75.4765 55.6076C74.1712 55.358 71.3682 56.4605 71.0562 56.5905C70.9795 56.617 70.9091 56.6588 70.8492 56.7134C70.7892 56.768 70.741 56.8342 70.7074 56.908C70.6738 56.9818 70.6556 57.0617 70.6539 57.1427C70.6521 57.2238 70.6669 57.3043 70.6972 57.3795C70.7276 57.4547 70.7729 57.5229 70.8304 57.5801C70.888 57.6372 70.9565 57.682 71.032 57.7118C71.1074 57.7416 71.188 57.7558 71.2691 57.7534C71.3501 57.7511 71.4298 57.7323 71.5034 57.6982C72.5435 57.2717 74.5248 56.6581 75.2529 56.7829C75.8109 56.9097 76.3311 57.1662 76.7714 57.5317L76.5998 58.1506C76.4282 58.6238 76.2669 59.0919 76.1317 59.5807L69.6469 62.2797L70.1669 62.9037C70.5634 63.3093 71.0281 63.642 71.5398 63.8866C71.9505 64.0917 72.3856 64.2437 72.8347 64.339H72.9543C73.104 64.3413 73.2492 64.2872 73.361 64.1876C73.4728 64.088 73.5432 63.9501 73.5582 63.8011C73.5733 63.6521 73.5319 63.5029 73.4422 63.3829C73.3525 63.263 73.2211 63.1811 73.0739 63.1533C72.7372 63.0807 72.4106 62.9672 72.1014 62.8153L71.8102 62.6541L75.8665 60.9588C75.8242 61.412 75.8242 61.8681 75.8665 62.3213C76.0909 64.5267 76.8808 66.6368 78.1599 68.4473C78.3408 68.7017 78.4992 68.9714 78.6331 69.2534C78.384 69.4164 78.1074 69.5327 77.8167 69.5966C77.0834 69.8202 76.0745 70.1167 75.6689 71.2243C75.4039 71.9868 75.3749 72.8113 75.5857 73.5905C75.5857 73.6841 75.6273 73.8037 75.6429 73.8921C75.2454 73.9612 74.8443 74.0081 74.4416 74.0325C73.3131 74.1261 72.5695 74.1885 72.3095 74.7138C72.0026 75.3274 72.5695 75.8371 73.2247 76.4299C73.5231 76.6865 73.7933 76.9741 74.0308 77.288C73.885 77.5301 73.7104 77.7536 73.5107 77.9536C73.1493 78.2858 72.8638 78.692 72.6735 79.1445C72.5721 79.5253 72.6186 79.9303 72.8035 80.2782C72.9038 80.4419 72.9437 80.6355 72.9161 80.8255C72.8886 81.0155 72.7954 81.1898 72.6527 81.3183C72.169 81.8383 67.9723 81.4431 65.523 80.325C63.2712 79.2849 59.8806 77.3244 59.8494 77.3036C59.7114 77.2236 59.5474 77.2016 59.3933 77.2426C59.2392 77.2836 59.1077 77.3841 59.0277 77.522C58.9477 77.6599 58.9258 77.824 58.9667 77.9781C59.0077 78.1321 59.1082 78.2637 59.2461 78.3436C59.3501 78.4061 61.2691 79.5293 63.1932 80.5226C62.6249 80.8643 62.1009 81.2748 61.6331 81.7447C61.0975 82.4068 60.6597 83.1424 60.333 83.9288C60.2723 84.0757 60.2725 84.2407 60.3334 84.3875C60.3944 84.5343 60.5111 84.6508 60.658 84.7115C60.8049 84.7722 60.9699 84.772 61.1167 84.7111C61.2634 84.6501 61.38 84.5334 61.4407 84.3865C61.7156 83.728 62.0795 83.1103 62.5224 82.5508C63.1083 82.0086 63.76 81.5422 64.4621 81.1622L65.0341 81.4275C67.021 82.2295 69.1332 82.6766 71.2746 82.7484C72.3147 82.7484 73.2039 82.5612 73.5887 82.0775C73.8731 81.7798 74.0571 81.4006 74.1149 80.993C74.1727 80.5854 74.1015 80.17 73.9112 79.805C73.8643 79.7114 73.831 79.6115 73.8124 79.5085C73.9595 79.2271 74.1549 78.9736 74.3896 78.7597C74.751 78.4275 75.0366 78.0213 75.2269 77.5688C75.4713 76.8407 74.7536 76.1907 74.0568 75.5614L73.7916 75.317C74.0516 75.2858 74.3532 75.2598 74.5716 75.239C75.7729 75.1402 76.4126 75.0674 76.709 74.6254C76.8081 74.4314 76.8661 74.2191 76.8795 74.0017C76.893 73.7842 76.8615 73.5664 76.787 73.3617C76.6233 72.8032 76.6342 72.2081 76.8182 71.656C77.0054 71.1359 77.463 70.9799 78.1911 70.7615C78.787 70.6594 79.3252 70.3432 79.7044 69.8722C80.11 69.2326 79.7044 68.6085 79.1844 67.7921C78.0146 66.1365 77.2975 64.204 77.1042 62.1861C77.0075 60.9397 77.2219 59.6888 77.7282 58.5458C77.8167 58.2962 77.9051 58.0258 77.9987 57.771C78.0904 57.6584 78.1368 57.5155 78.1287 57.3705C78.3508 56.66 78.5075 55.9306 78.5967 55.1916C78.7724 53.2645 78.7724 51.3254 78.5967 49.3984C79.265 48.9949 79.8281 48.4389 80.24 47.7758V47.7758ZM38.3042 58.2182C38.4862 58.4574 38.6734 58.7018 38.8606 58.967C39.5786 59.8665 40.4415 60.6398 41.414 61.2552C42.5841 62.0977 43.6918 62.8881 44.1338 64.0426C44.6623 65.669 44.803 67.3965 44.5447 69.087L44.4614 69.555L44.8983 69.7422C45.6049 70.0933 46.2279 70.5922 46.7249 71.205C47.222 71.8178 47.5815 72.5302 47.7793 73.2941C48.2045 74.9088 48.3988 76.5756 48.3565 78.2448V78.5881L48.6425 78.7805C49.433 79.3005 51.5392 80.9906 51.8096 82.4207C51.9036 82.8578 51.9036 83.3098 51.8096 83.7468C50.8475 83.8092 47.02 83.7104 44.4094 81.6667C43.4683 80.9335 42.761 79.9421 42.3741 78.8136C41.9871 77.6851 41.9372 76.4682 42.2305 75.3118L42.3761 74.7918L41.8925 74.5838C40.1902 73.7654 38.8695 72.3216 38.2054 70.5535C37.2849 67.7921 37.9922 66.5232 37.9974 66.5232L38.2626 66.102L37.8934 65.7639C37.8518 65.7275 33.8579 62.0301 34.1231 58.3898C34.2271 56.9961 34.6431 55.982 35.3556 55.3736C35.7306 55.0599 36.1834 54.8532 36.6661 54.7755C36.8705 56.0565 37.4392 57.2516 38.3042 58.2182V58.2182Z" fill="#071228"/>
<path d="M56.3216 67.0681C54.9955 66.3245 51.6049 63.9843 51.8649 62.1278C51.9897 61.2489 52.2965 60.6769 52.7801 60.4169C53.5134 60.0268 54.5951 60.4169 54.9539 60.5677C55.0934 60.6199 55.2473 60.6182 55.3856 60.5629C55.5238 60.5076 55.6365 60.4027 55.7015 60.2687C55.7666 60.1348 55.7793 59.9814 55.7372 59.8385C55.6951 59.6957 55.6012 59.5737 55.4739 59.4964C55.4011 59.46 53.6434 58.6019 52.2185 59.356C51.376 59.8032 50.856 60.6769 50.6584 61.9562C50.2372 64.9464 55.1515 67.791 55.7132 68.1082C55.8497 68.1706 56.0047 68.1793 56.1474 68.1327C56.2901 68.086 56.41 67.9874 56.4834 67.8564C56.5567 67.7254 56.5781 67.5717 56.5433 67.4256C56.5085 67.2796 56.4201 67.152 56.2956 67.0681H56.3216Z" fill="#071228"/>
</g>
</svg>
