<svg width="150" height="110" viewBox="0 0 150 110" fill="none" xmlns="http://www.w3.org/2000/svg">
<mask id="mask0_312_5373" style="mask-type:alpha" maskUnits="userSpaceOnUse" x="0" y="0" width="150" height="110">
<path d="M0 0H150V110H0V0Z" fill="#C4C4C4"/>
</mask>
<g mask="url(#mask0_312_5373)">
<path d="M1.25 30.4328L11.627 20.0781H137.89L148.75 30.9145V82.8603L137.852 93.7349H12.1403L1.25 82.8679V30.4328Z" stroke="black" stroke-width="2.5"/>
<path d="M77.5511 48.4204C78.5495 46.621 77.5511 45.8202 76.8386 45.2481C76.3444 44.7984 75.9109 44.2862 75.5489 43.7244C73.9108 27.6501 73.266 27.2652 72.9695 27.078C72.6731 26.8908 72.0855 26.5268 66.6615 30.6091C64.8205 31.9924 63.0628 33.4173 61.5443 34.7694C59.0249 33.9202 56.3541 33.6147 53.708 33.8728C51.0619 34.131 48.5006 34.947 46.1928 36.2671C39.994 39.7409 35.272 45.6278 34.2319 51.265C34.032 52.2424 33.9258 53.2367 33.9147 54.2344C33.1881 54.3312 32.5034 54.6304 31.9386 55.0977C30.9349 55.9193 30.3681 57.2194 30.2277 58.9563C29.978 62.555 33.0723 65.9716 34.0863 67.0117C33.8419 67.7138 33.5663 69.2011 34.3828 71.6036C35.0784 73.5482 36.4723 75.1645 38.2934 76.1384C38.0462 77.4611 38.1666 78.8262 38.6416 80.0852C39.1166 81.3442 39.9279 82.4487 40.9872 83.2785C43.2858 85.057 46.5568 85.6135 48.4446 85.6135C48.9398 85.6606 49.4388 85.5819 49.8955 85.3846C50.3375 85.005 50.4935 83.9805 50.2751 82.8365C49.9215 80.9747 47.6749 79.1962 46.8741 78.6242C46.8829 76.9435 46.6731 75.2688 46.25 73.6422C46.0284 72.773 45.635 71.9571 45.0928 71.2425C44.5506 70.528 43.8708 69.9293 43.0934 69.4819C43.3185 67.7194 43.1406 65.9289 42.5733 64.2451C42.0065 62.7578 40.7012 61.8217 39.4531 60.9117C38.5938 60.3716 37.828 59.6954 37.1858 58.9095C36.9881 58.6287 36.7905 58.3895 36.5981 58.1191C35.8081 57.2702 35.298 56.1992 35.1368 55.0508C35.1831 54.9563 35.2037 54.8512 35.1963 54.7462C35.189 54.6412 35.1542 54.54 35.0952 54.4528C35.0859 53.4535 35.1853 52.4561 35.3916 51.4782C36.3901 46.2778 40.9664 40.5574 46.7804 37.2968C48.8474 36.1311 51.1246 35.3857 53.4808 35.1037C55.837 34.8217 58.2257 35.0085 60.5094 35.6534C59.719 36.3763 59.0117 37.0627 58.4293 37.6764C53.0053 43.4696 47.9089 51.4782 47.8569 51.5562C47.7814 51.6897 47.7601 51.8471 47.7974 51.9959C47.8347 52.1447 47.9278 52.2735 48.0573 52.3556C48.1868 52.4377 48.343 52.4669 48.4935 52.4372C48.6439 52.4075 48.7772 52.3211 48.8658 52.1958C48.9178 52.1178 53.9518 44.2029 59.3081 38.5033C62.9952 34.577 70.4526 29.0854 72.3091 28.2585C72.7667 29.9538 73.6664 37.0679 74.3528 43.61L57.9717 52.0034C57.8874 52.029 57.8097 52.0728 57.7443 52.1318C57.679 52.1908 57.6274 52.2635 57.5934 52.3448C57.5593 52.426 57.5437 52.5138 57.5475 52.6017C57.5513 52.6897 57.5745 52.7758 57.6155 52.8538C57.6564 52.9318 57.7141 52.9998 57.7843 53.0529C57.8546 53.106 57.9357 53.1429 58.0219 53.161C58.1081 53.1792 58.1972 53.178 58.283 53.1577C58.3687 53.1374 58.4488 53.0984 58.5177 53.0435L74.7949 44.7073C75.168 45.262 75.6101 45.767 76.1106 46.2102C76.823 46.7302 77.031 46.9227 76.511 47.8431C76.07 48.4646 75.4893 48.9741 74.8157 49.3304C74.0425 49.7773 73.3412 50.3383 72.7355 50.9946C71.5186 52.4507 70.3225 53.4907 69.4749 53.7768C69.2929 53.834 68.4348 53.9016 67.6079 53.9692C63.484 54.302 55.8083 54.9208 55.2311 58.3635C54.8826 60.4436 55.9071 61.3173 56.734 62.0038C57.3268 62.5238 57.8364 62.9398 57.9509 63.7979C57.9664 64.3537 57.9122 64.9093 57.7896 65.4516C57.7737 65.5288 57.7732 65.6084 57.7881 65.6857C57.803 65.7631 57.8331 65.8368 57.8766 65.9025C57.9201 65.9683 57.9762 66.0247 58.0416 66.0687C58.107 66.1127 58.1804 66.1433 58.2577 66.1589H58.3773C58.5154 66.1592 58.6494 66.1118 58.7565 66.0246C58.8637 65.9374 58.9373 65.8158 58.9649 65.6804C59.1105 64.9972 59.163 64.2975 59.1209 63.6003C59.0337 63.0883 58.8448 62.599 58.5652 62.1613C58.2856 61.7236 57.9211 61.3464 57.4932 61.0521C56.7184 60.3916 56.1567 59.9184 56.3959 58.5091C56.8172 55.9817 64.7165 55.3473 67.686 55.1081C68.4152 55.0877 69.1411 55.0007 69.8545 54.848C71.2846 54.328 72.8447 52.6587 73.6508 51.7278C73.9693 51.3657 74.3328 51.0459 74.7325 50.7761C74.8519 52.4042 74.8345 54.0394 74.6805 55.6645C74.6296 56.1023 74.5515 56.5365 74.4464 56.9646C73.9462 56.6194 73.3823 56.3772 72.7875 56.2521C71.4822 56.0025 68.6792 57.105 68.3672 57.235C68.2906 57.2615 68.2202 57.3033 68.1602 57.3579C68.1002 57.4125 68.052 57.4787 68.0184 57.5525C67.9849 57.6263 67.9667 57.7062 67.9649 57.7872C67.9632 57.8683 67.9779 57.9489 68.0083 58.0241C68.0386 58.0992 68.0839 58.1675 68.1415 58.2246C68.199 58.2817 68.2676 58.3265 68.343 58.3563C68.4184 58.3861 68.4991 58.4003 68.5801 58.3979C68.6612 58.3956 68.7409 58.3768 68.8144 58.3427C69.8545 57.9163 71.8359 57.3026 72.5639 57.4274C73.1219 57.5542 73.6421 57.8108 74.0824 58.1763L73.9108 58.7951C73.7392 59.2684 73.578 59.7364 73.4428 60.2252L66.9579 62.9242L67.4779 63.5483C67.8744 63.9539 68.3391 64.2865 68.8508 64.5311C69.2615 64.7362 69.6967 64.8883 70.1457 64.9836H70.2653C70.4151 64.9858 70.5602 64.9318 70.672 64.8322C70.7839 64.7325 70.8542 64.5946 70.8693 64.4456C70.8843 64.2966 70.8429 64.1474 70.7532 64.0275C70.6635 63.9075 70.5321 63.8256 70.3849 63.7979C70.0482 63.7252 69.7217 63.6117 69.4125 63.4599L69.1213 63.2986L73.1775 61.6033C73.1353 62.0565 73.1353 62.5126 73.1775 62.9658C73.4019 65.1712 74.1919 67.2813 75.4709 69.0919C75.6518 69.3462 75.8102 69.616 75.9442 69.8979C75.6951 70.0609 75.4184 70.1772 75.1277 70.2411C74.3944 70.4648 73.3856 70.7612 72.9799 71.8689C72.715 72.6313 72.686 73.4559 72.8967 74.235C72.8967 74.3286 72.9383 74.4483 72.9539 74.5367C72.5564 74.6057 72.1554 74.6526 71.7526 74.6771C70.6242 74.7707 69.8805 74.8331 69.6205 75.3583C69.3137 75.972 69.8805 76.4816 70.5358 77.0744C70.8342 77.331 71.1044 77.6187 71.3418 77.9325C71.196 78.1746 71.0214 78.3981 70.8218 78.5981C70.4604 78.9304 70.1748 79.3365 69.9845 79.789C69.8831 80.1698 69.9296 80.5748 70.1145 80.9227C70.2149 81.0864 70.2547 81.28 70.2272 81.47C70.1996 81.66 70.1064 81.8344 69.9637 81.9628C69.4801 82.4828 65.2834 82.0876 62.834 80.9695C60.5822 79.9294 57.1916 77.9689 57.1604 77.9481C57.0225 77.8681 56.8584 77.8462 56.7043 77.8871C56.5502 77.9281 56.4187 78.0286 56.3387 78.1665C56.2587 78.3044 56.2368 78.4685 56.2778 78.6226C56.3187 78.7767 56.4192 78.9082 56.5572 78.9882C56.6612 79.0506 58.5801 80.1739 60.5042 81.1671C59.936 81.5089 59.412 81.9193 58.9441 82.3892C58.4085 83.0513 57.9707 83.7869 57.644 84.5734C57.5833 84.7203 57.5835 84.8852 57.6444 85.032C57.7054 85.1788 57.8222 85.2954 57.9691 85.356C58.1159 85.4167 58.2809 85.4166 58.4277 85.3556C58.5745 85.2947 58.691 85.1779 58.7517 85.031C59.0266 84.3725 59.3906 83.7548 59.8334 83.1953C60.4194 82.6532 61.071 82.1867 61.7731 81.8068L62.3452 82.072C64.332 82.874 66.4442 83.3211 68.5856 83.3929C69.6257 83.3929 70.515 83.2057 70.8998 82.722C71.1841 82.4244 71.3681 82.0451 71.4259 81.6375C71.4838 81.23 71.4125 80.8145 71.2222 80.4495C71.1753 80.3559 71.142 80.2561 71.1234 80.1531C71.2705 79.8716 71.4659 79.6181 71.7006 79.4042C72.062 79.072 72.3476 78.6658 72.5379 78.2133C72.7823 77.4853 72.0647 76.8352 71.3678 76.206L71.1026 75.9616C71.3626 75.9304 71.6642 75.9044 71.8827 75.8836C73.0839 75.7847 73.7236 75.7119 74.02 75.2699C74.1191 75.0759 74.1772 74.8636 74.1906 74.6462C74.204 74.4288 74.1725 74.2109 74.098 74.0062C73.9343 73.4478 73.9452 72.8526 74.1292 72.3005C74.3164 71.7805 74.7741 71.6244 75.5021 71.406C76.0981 71.3039 76.6362 70.9877 77.0154 70.5168C77.4211 69.8771 77.0154 69.2531 76.4954 68.4366C75.3256 66.781 74.6086 64.8485 74.4152 62.8306C74.3185 61.5842 74.5329 60.3333 75.0393 59.1903C75.1277 58.9407 75.2161 58.6703 75.3097 58.4155C75.4015 58.3029 75.4478 58.1601 75.4397 58.0151C75.6619 57.3045 75.8185 56.5752 75.9077 55.8361C76.0835 53.909 76.0835 51.97 75.9077 50.0429C76.576 49.6395 77.1392 49.0834 77.5511 48.4204V48.4204ZM35.6152 58.8627C35.7973 59.1019 35.9845 59.3464 36.1717 59.6116C36.8896 60.511 37.7526 61.2844 38.7251 61.8997C39.8951 62.7422 41.0028 63.5327 41.4449 64.6871C41.9734 66.3135 42.1141 68.041 41.8557 69.7315L41.7725 70.1995L42.2093 70.3868C42.9159 70.7378 43.5389 71.2367 44.0359 71.8495C44.533 72.4623 44.8926 73.1747 45.0903 73.9386C45.5155 75.5533 45.7099 77.2201 45.6676 78.8894V79.2326L45.9536 79.425C46.744 79.945 48.8502 81.6352 49.1206 83.0653C49.2147 83.5023 49.2147 83.9543 49.1206 84.3914C48.1585 84.4538 44.3311 84.355 41.7205 82.3112C40.7793 81.5781 40.072 80.5867 39.6851 79.4581C39.2981 78.3296 39.2482 77.1128 39.5415 75.9564L39.6871 75.4363L39.2035 75.2283C37.5013 74.4099 36.1805 72.9662 35.5164 71.198C34.596 68.4366 35.3032 67.1677 35.3084 67.1677L35.5736 66.7465L35.2044 66.4085C35.1628 66.3721 31.1689 62.6746 31.4341 59.0343C31.5381 57.6406 31.9542 56.6266 32.6666 56.0181C33.0416 55.7044 33.4944 55.4978 33.9771 55.4201C34.1816 56.701 34.7502 57.8961 35.6152 58.8627V58.8627Z" fill="#071228"/>
<path d="M53.6326 67.7127C52.3065 66.969 48.9159 64.6289 49.1759 62.7723C49.3007 61.8935 49.6075 61.3214 50.0912 61.0614C50.8244 60.6714 51.9061 61.0614 52.2649 61.2122C52.4044 61.2644 52.5583 61.2627 52.6966 61.2074C52.8349 61.1521 52.9475 61.0472 53.0126 60.9133C53.0776 60.7793 53.0903 60.6259 53.0482 60.4831C53.0061 60.3402 52.9123 60.2182 52.785 60.1409C52.7122 60.1045 50.9544 59.2465 49.5295 60.0005C48.6871 60.4478 48.167 61.3214 47.9694 62.6007C47.5482 65.5909 52.4625 68.4355 53.0242 68.7528C53.1607 68.8151 53.3157 68.8238 53.4584 68.7772C53.6011 68.7305 53.721 68.6319 53.7944 68.501C53.8677 68.37 53.8892 68.2162 53.8544 68.0702C53.8196 67.9241 53.7311 67.7965 53.6066 67.7127H53.6326Z" fill="#071228"/>
<path d="M91.0487 59.9624C90.0718 59.6048 89.3479 59.0946 88.8769 58.4317C88.406 57.7689 88.1705 56.9752 88.1705 56.0507C88.1705 54.6552 88.672 53.4821 89.675 52.5315C90.678 51.5808 92.0124 51.1055 93.6783 51.1055C95.3528 51.1055 96.7004 51.5939 97.7208 52.5707C98.7413 53.5388 99.2515 54.7206 99.2515 56.1161C99.2515 57.0057 99.016 57.782 98.545 58.4448C98.0828 59.099 97.3763 59.6048 96.4256 59.9624C97.6031 60.3462 98.497 60.9654 99.1076 61.8202C99.7268 62.6749 100.036 63.6953 100.036 64.8815C100.036 66.5212 99.4564 67.8992 98.2964 69.0156C97.1364 70.132 95.6101 70.6902 93.7175 70.6902C91.8249 70.6902 90.2986 70.132 89.1386 69.0156C87.9786 67.8905 87.3986 66.4907 87.3986 64.8161C87.3986 63.5689 87.7126 62.5266 88.3406 61.6893C88.9772 60.8433 89.8799 60.2677 91.0487 59.9624ZM90.5777 55.9722C90.5777 56.8793 90.8699 57.6206 91.4542 58.1963C92.0386 58.7719 92.7974 59.0597 93.7306 59.0597C94.6377 59.0597 95.379 58.7763 95.9547 58.2093C96.539 57.6337 96.8312 56.9316 96.8312 56.103C96.8312 55.2396 96.5303 54.5157 95.9285 53.9313C95.3354 53.3382 94.5941 53.0417 93.7044 53.0417C92.8061 53.0417 92.0604 53.3295 91.4673 53.9052C90.8742 54.4808 90.5777 55.1698 90.5777 55.9722ZM89.8189 64.8292C89.8189 65.5007 89.9759 66.1505 90.2899 66.7785C90.6126 67.4064 91.0879 67.8949 91.7159 68.2437C92.3438 68.5839 93.0198 68.754 93.7437 68.754C94.8688 68.754 95.7977 68.392 96.5303 67.6681C97.2629 66.9442 97.6292 66.024 97.6292 64.9077C97.6292 63.7738 97.2498 62.8362 96.491 62.0949C95.741 61.3535 94.799 60.9829 93.6652 60.9829C92.5575 60.9829 91.6374 61.3492 90.9047 62.0818C90.1808 62.8144 89.8189 63.7302 89.8189 64.8292Z" fill="#071228"/>
<path d="M102.339 65.3394L104.812 65.1301C104.995 66.3337 105.418 67.2407 106.081 67.8512C106.752 68.4531 107.559 68.754 108.501 68.754C109.635 68.754 110.594 68.3266 111.379 67.4719C112.164 66.6171 112.557 65.4833 112.557 64.0704C112.557 62.7272 112.177 61.6675 111.418 60.8913C110.668 60.115 109.683 59.7269 108.462 59.7269C107.703 59.7269 107.018 59.9014 106.408 60.2502C105.797 60.5904 105.317 61.0352 104.969 61.5847L102.758 61.2968L104.615 51.4456H114.153V53.6958H106.499L105.466 58.8504C106.617 58.048 107.825 57.6468 109.09 57.6468C110.764 57.6468 112.177 58.2268 113.328 59.3868C114.48 60.5468 115.055 62.0382 115.055 63.861C115.055 65.5967 114.549 67.0968 113.538 68.3615C112.308 69.9139 110.629 70.6902 108.501 70.6902C106.757 70.6902 105.331 70.2018 104.223 69.2249C103.124 68.2481 102.496 66.9529 102.339 65.3394Z" fill="#071228"/>
<path d="M117.253 60.9044C117.253 58.6367 117.484 56.8139 117.947 55.4358C118.418 54.0491 119.111 52.9806 120.027 52.2306C120.951 51.4805 122.111 51.1055 123.507 51.1055C124.536 51.1055 125.439 51.3148 126.215 51.7334C126.991 52.1434 127.632 52.7408 128.138 53.5258C128.644 54.302 129.041 55.2527 129.328 56.3778C129.616 57.4942 129.76 59.003 129.76 60.9044C129.76 63.1546 129.529 64.9731 129.067 66.3598C128.605 67.7379 127.911 68.8063 126.987 69.5651C126.071 70.3151 124.911 70.6902 123.507 70.6902C121.658 70.6902 120.206 70.0273 119.15 68.7016C117.886 67.1055 117.253 64.5065 117.253 60.9044ZM119.673 60.9044C119.673 64.0529 120.04 66.1505 120.772 67.1971C121.514 68.235 122.425 68.754 123.507 68.754C124.588 68.754 125.495 68.2306 126.228 67.184C126.969 66.1374 127.34 64.0442 127.34 60.9044C127.34 57.7471 126.969 55.6495 126.228 54.6116C125.495 53.5737 124.579 53.0548 123.481 53.0548C122.399 53.0548 121.536 53.5127 120.89 54.4285C120.079 55.5972 119.673 57.7558 119.673 60.9044Z" fill="#071228"/>
<path d="M20.0752 76.9981C18.6649 76.9981 17.4958 76.525 16.5678 75.5786C16.293 75.3039 16.0702 75.0109 15.8993 74.6995C15.7344 74.382 15.6031 74.0401 15.5055 73.6738C15.4139 73.3014 15.3528 72.9045 15.3223 72.4833C15.2918 72.0559 15.2704 71.5797 15.2582 71.0547H12.8588V76.8882H10.835V63.5361H12.8588V69.2323H15.2765C15.2887 68.7316 15.3131 68.2737 15.3498 67.8586C15.3864 67.4373 15.4475 67.0496 15.5329 66.6955C15.6245 66.3414 15.7497 66.0148 15.9084 65.7156C16.0733 65.4104 16.293 65.1204 16.5678 64.8456C17.0196 64.3694 17.5416 64.0153 18.1338 63.7833C18.7321 63.5452 19.3792 63.4262 20.0752 63.4262C20.7651 63.4262 21.4062 63.5452 21.9984 63.7833C22.5906 64.0153 23.1187 64.3694 23.5827 64.8456C24.1077 65.3707 24.4557 65.9782 24.6267 66.6681C24.7976 67.3518 24.8831 68.1394 24.8831 69.0308V70.2121C24.8831 70.8715 24.8709 71.4607 24.8465 71.9796C24.8282 72.4986 24.7793 72.9717 24.6999 73.3991C24.6206 73.8264 24.4924 74.2141 24.3153 74.5621C24.1383 74.9101 23.8941 75.249 23.5827 75.5786C22.6608 76.525 21.4916 76.9981 20.0752 76.9981ZM20.0752 74.9742C20.466 74.9742 20.8323 74.904 21.1742 74.7636C21.5161 74.6171 21.8122 74.4186 22.0625 74.1683C22.2517 73.9791 22.3952 73.7715 22.4929 73.5456C22.5967 73.3136 22.673 73.048 22.7218 72.7489C22.7707 72.4436 22.8012 72.1048 22.8134 71.7323C22.8256 71.3538 22.8317 70.9295 22.8317 70.4594V69.8C22.8317 69.2872 22.8195 68.8446 22.7951 68.4722C22.7707 68.0936 22.731 67.767 22.6761 67.4923C22.6211 67.2175 22.5417 66.9794 22.438 66.7779C22.3403 66.5765 22.2151 66.3964 22.0625 66.2376C21.5374 65.7126 20.875 65.4501 20.0752 65.4501C19.6784 65.4501 19.309 65.5203 18.9671 65.6607C18.6313 65.795 18.3383 65.9873 18.088 66.2376C17.7522 66.5856 17.5355 67.0466 17.4378 67.6205C17.3462 68.1944 17.3004 68.9758 17.3004 69.9649V70.6792C17.3004 71.2042 17.3126 71.653 17.337 72.0254C17.3615 72.3917 17.4011 72.7092 17.4561 72.9778C17.5171 73.2464 17.5996 73.4754 17.7033 73.6646C17.8132 73.8478 17.9415 74.0157 18.088 74.1683C18.3383 74.4186 18.6313 74.6171 18.9671 74.7636C19.309 74.904 19.6784 74.9742 20.0752 74.9742Z" fill="#071228"/>
</g>
</svg>
