<?xml version="1.0" encoding="utf-8"?>
<!-- Generator: Adobe Illustrator 25.4.0, SVG Export Plug-In . SVG Version: 6.00 Build 0)  -->
<svg version="1.1" id="Слой_1" xmlns="http://www.w3.org/2000/svg" xmlns:xlink="http://www.w3.org/1999/xlink" x="0px" y="0px"
	 viewBox="0 0 315 211" style="enable-background:new 0 0 315 211;" xml:space="preserve">
<style type="text/css">
	.st0{fill:#071228;}
</style>
<g>
	<path class="st0" d="M252.3,84.2c-0.2-0.4-0.4-0.8-0.8-1.2c-0.3-0.3-0.7-0.6-1.2-0.8c-0.4-0.2-0.9-0.3-1.4-0.3l0,1v-1h-66.8
		c-1.3,0-2.5-0.3-3.6-1c-1.1-0.6-2-1.6-2.7-2.7l-10.3-17.8c-0.9-1.6-2.2-2.9-3.8-3.8c-1.6-0.9-3.3-1.4-5.2-1.4H65.5
		c-0.6,0-1.2,0.1-1.7,0.3c-0.5,0.2-1,0.6-1.5,1c-0.4,0.4-0.7,0.9-1,1.5c-0.2,0.5-0.3,1.1-0.3,1.7v91.5c0,1.2,0.5,2.3,1.3,3.2
		c0.8,0.8,2,1.3,3.2,1.3H156c1.8,0,3.6-0.5,5.2-1.4c1.6-0.9,2.9-2.2,3.8-3.8l10.3-17.8l-0.9-0.5l0.9,0.5c0.6-1.1,1.6-2,2.7-2.7
		c1.1-0.6,2.4-1,3.6-1H249c1,0,1.8-0.4,2.5-1c0.7-0.7,1-1.6,1-2.5v-40C252.6,85.1,252.5,84.6,252.3,84.2z M249.6,125.5
		c0,0.2-0.1,0.3-0.2,0.4c-0.1,0.1-0.2,0.2-0.4,0.2h-66.7l0-0.1c-0.3,0.1-0.7,0.1-1.1,0.1c-0.3,0-0.6,0-0.9-0.1l0,0.1
		c-1.4,0.2-2.8,0.6-4,1.3c-1.3,0.7-2.4,1.7-3.2,2.9l0,0l-10.8,18.7c-0.6,1.1-1.6,2-2.7,2.7c-1.1,0.6-2.4,1-3.7,1H65.5
		c-0.4,0-0.8-0.2-1-0.4c-0.3-0.3-0.4-0.7-0.4-1V59.8c0-0.2,0-0.4,0.1-0.6c0.1-0.2,0.2-0.3,0.3-0.5c0.1-0.1,0.3-0.2,0.5-0.3
		c0.2-0.1,0.4-0.1,0.6-0.1h91.2c1.3,0,2.5,0.3,3.7,1s2,1.6,2.7,2.7l10.2,17.7l0,0.1c1.1,0.6,1.9,1.6,2.2,2.8
		c0.1,0.1,0.2,0.1,0.2,0.2l0-0.1c0.4,0.4,0.9,0.7,1.4,1c1.3,0.7,2.7,1.2,4.1,1.3l1,0c0,0,0,0,0,0h66.8c0.1,0,0.1,0,0.2,0
		c0.1,0,0.1,0.1,0.2,0.1c0.1,0.1,0.1,0.1,0.1,0.2c0,0.1,0,0.1,0,0.2V125.5z"/>
</g>
<path class="st0" d="M72,134.5l-5.3,2.2l4.6,3.5L72,134.5z M68.8,137.7l-26.7,34.4l0.8,0.6l26.7-34.4L68.8,137.7z"/>
<path class="st0" d="M211,93l2.9-5h-5.8L211,93z M211.5,88.5V53h-1v35.5H211.5z"/>
<path class="st0" d="M92,81l0.6-5.7l-5.3,2.4L92,81z M90.6,76.7L72,35.3L71,35.7l18.7,41.4L90.6,76.7z"/>
<path class="st0" d="M1.8,191v-7.9h0.8v7.1h3v-7.1h0.8v7.1h3v-7.1h0.8v7.9H1.8z"/>
<path class="st0" d="M16.5,185.1v5.9h-0.8v-4.6l-3.3,4.6h-0.7v-5.9h0.8v4.6l3.3-4.6H16.5z"/>
<path class="st0" d="M20.8,193.5v-2.4c-0.6,0.1-1.1,0-1.6-0.2c-0.5-0.2-0.9-0.6-1.1-1.1c-0.3-0.5-0.4-1.1-0.4-1.8s0.1-1.3,0.4-1.8
	c0.3-0.5,0.7-0.9,1.1-1.1c0.5-0.2,1-0.3,1.6-0.2v-1.8h0.7v1.8c0.6-0.1,1.1,0,1.6,0.2c0.5,0.2,0.9,0.6,1.1,1.1
	c0.3,0.5,0.4,1.1,0.4,1.8s-0.1,1.3-0.4,1.8c-0.3,0.5-0.7,0.8-1.1,1.1c-0.5,0.2-1,0.3-1.6,0.2v2.4H20.8z M20.8,190.4v-4.7
	c-0.3-0.1-0.6,0-0.9,0c-0.3,0.1-0.5,0.2-0.7,0.4c-0.2,0.2-0.4,0.4-0.5,0.8c-0.1,0.3-0.2,0.7-0.2,1.2c0,0.5,0.1,0.8,0.2,1.2
	c0.1,0.3,0.3,0.6,0.5,0.8c0.2,0.2,0.5,0.3,0.7,0.4S20.5,190.4,20.8,190.4z M21.6,190.4c0.3,0,0.6,0,0.9,0c0.3-0.1,0.5-0.2,0.7-0.4
	c0.2-0.2,0.4-0.4,0.5-0.8c0.1-0.3,0.2-0.7,0.2-1.2c0-0.5-0.1-0.8-0.2-1.2c-0.1-0.3-0.3-0.6-0.5-0.8c-0.2-0.2-0.5-0.3-0.7-0.4
	c-0.3-0.1-0.6-0.1-0.9,0V190.4z"/>
<path class="st0" d="M28.6,191.2c-0.5,0-1-0.1-1.4-0.4c-0.4-0.3-0.7-0.7-0.9-1.1c-0.2-0.5-0.3-1-0.3-1.6c0-0.6,0.1-1.1,0.3-1.6
	c0.2-0.5,0.5-0.8,0.9-1.1c0.4-0.3,0.9-0.4,1.4-0.4c0.5,0,1,0.1,1.4,0.4c0.4,0.3,0.7,0.6,0.9,1.1c0.2,0.5,0.3,1,0.3,1.6
	c0,0.6-0.1,1.1-0.3,1.6c-0.2,0.5-0.5,0.8-0.9,1.1C29.6,191,29.1,191.2,28.6,191.2z M25.9,193.6v-8.6h0.7v4.5h0.1v4.1H25.9z
	 M28.5,190.4c0.4,0,0.8-0.1,1-0.3s0.5-0.5,0.6-0.9c0.1-0.4,0.2-0.8,0.2-1.2c0-0.4-0.1-0.9-0.2-1.2c-0.1-0.4-0.3-0.6-0.6-0.9
	c-0.3-0.2-0.6-0.3-1.1-0.3c-0.4,0-0.8,0.1-1,0.3c-0.3,0.2-0.5,0.5-0.6,0.8c-0.1,0.4-0.2,0.8-0.2,1.2c0,0.5,0.1,0.9,0.2,1.2
	c0.1,0.4,0.3,0.6,0.6,0.8C27.7,190.3,28.1,190.4,28.5,190.4z"/>
<path class="st0" d="M34.6,191v-7.9h5v0.8h-4.1v7.1H34.6z"/>
<path class="st0" d="M42.1,191.2c-0.6,0-1.1-0.1-1.5-0.4c-0.4-0.3-0.7-0.6-1-1.1c-0.2-0.5-0.3-1-0.3-1.6c0-0.6,0.1-1.2,0.3-1.6
	c0.2-0.5,0.5-0.8,1-1.1c0.4-0.3,0.9-0.4,1.5-0.4c0.6,0,1.1,0.1,1.5,0.4c0.4,0.3,0.7,0.6,1,1.1c0.2,0.5,0.3,1,0.3,1.6
	c0,0.6-0.1,1.2-0.3,1.6c-0.2,0.5-0.5,0.8-1,1.1C43.2,191,42.6,191.2,42.1,191.2z M42.1,190.4c0.7,0,1.2-0.2,1.5-0.7
	c0.3-0.4,0.5-1,0.5-1.7c0-0.7-0.2-1.3-0.5-1.7c-0.3-0.4-0.8-0.6-1.5-0.6c-0.4,0-0.8,0.1-1.1,0.3c-0.3,0.2-0.5,0.5-0.6,0.8
	c-0.1,0.4-0.2,0.8-0.2,1.2c0,0.7,0.2,1.3,0.5,1.7C40.9,190.2,41.4,190.4,42.1,190.4z"/>
<path class="st0" d="M48.6,191.2c-0.6,0-1.1-0.1-1.5-0.4c-0.4-0.3-0.7-0.6-0.9-1.1c-0.2-0.5-0.3-1-0.3-1.6c0-0.6,0.1-1.2,0.3-1.6
	c0.2-0.5,0.5-0.8,1-1.1c0.4-0.3,0.9-0.4,1.5-0.4c0.6,0,1.1,0.1,1.6,0.4c0.4,0.3,0.8,0.7,0.9,1.2l-0.8,0.3c-0.1-0.4-0.4-0.6-0.7-0.8
	c-0.3-0.2-0.6-0.3-1-0.3c-0.4,0-0.8,0.1-1.1,0.3c-0.3,0.2-0.5,0.5-0.6,0.8c-0.1,0.4-0.2,0.8-0.2,1.2c0,0.7,0.2,1.3,0.5,1.7
	c0.3,0.4,0.8,0.6,1.4,0.6c0.4,0,0.7-0.1,1-0.3c0.3-0.2,0.5-0.5,0.6-0.8l0.8,0.2c-0.2,0.5-0.5,0.9-1,1.2
	C49.7,191,49.1,191.2,48.6,191.2z"/>
<path class="st0" d="M52.8,193.6l1.1-3.1l0,0.9l-2.6-6.4h0.9l2.1,5.3H54l2-5.3h0.8l-3.2,8.6H52.8z"/>
<path class="st0" d="M57.1,192.3v-2c0.3,0,0.6-0.1,0.7-0.3c0.1-0.2,0.3-0.6,0.4-1.1c0.1-0.3,0.1-0.6,0.2-1c0-0.4,0.1-0.8,0.1-1.2
	c0-0.5,0.1-1,0.1-1.6h3.9v5.2H63v2h-0.8V191h-4.4v1.3H57.1z M58.5,190.3h3.2v-4.6h-2.4c0,0.3,0,0.6,0,0.9c0,0.3,0,0.6-0.1,0.9
	c0,0.3-0.1,0.6-0.1,0.9c0,0.3-0.1,0.5-0.1,0.7c-0.1,0.3-0.1,0.5-0.2,0.7C58.7,190,58.6,190.2,58.5,190.3z"/>
<path class="st0" d="M65.5,191.2c-0.4,0-0.8-0.1-1.1-0.2c-0.3-0.2-0.5-0.4-0.7-0.6c-0.2-0.3-0.2-0.6-0.2-0.9c0-0.3,0.1-0.6,0.2-0.8
	c0.1-0.2,0.3-0.4,0.5-0.6c0.2-0.1,0.5-0.3,0.8-0.3c0.3-0.1,0.6-0.1,1-0.2c0.4-0.1,0.7-0.1,1.1-0.1c0.4,0,0.7-0.1,0.9-0.1l-0.3,0.2
	c0-0.6-0.1-1-0.3-1.3c-0.2-0.3-0.7-0.4-1.2-0.4c-0.4,0-0.8,0.1-1,0.3c-0.3,0.2-0.5,0.5-0.6,0.9l-0.8-0.2c0.1-0.5,0.4-0.9,0.8-1.2
	c0.4-0.3,0.9-0.4,1.6-0.4c0.5,0,1,0.1,1.4,0.3c0.4,0.2,0.7,0.5,0.8,0.9c0.1,0.2,0.1,0.4,0.1,0.6c0,0.2,0,0.4,0,0.6v3.7h-0.7v-1.5
	l0.2,0.1c-0.2,0.5-0.5,0.9-0.9,1.2C66.6,191,66.1,191.2,65.5,191.2z M65.6,190.5c0.4,0,0.7-0.1,1-0.2c0.3-0.1,0.5-0.3,0.7-0.6
	c0.2-0.2,0.3-0.5,0.3-0.8c0-0.2,0.1-0.4,0.1-0.6c0-0.2,0-0.4,0-0.5l0.3,0.2c-0.3,0-0.6,0.1-0.9,0.1c-0.3,0-0.6,0.1-0.9,0.1
	c-0.3,0-0.6,0.1-0.8,0.2c-0.2,0-0.3,0.1-0.5,0.2c-0.2,0.1-0.3,0.2-0.4,0.3c-0.1,0.1-0.1,0.3-0.1,0.5c0,0.2,0,0.3,0.1,0.5
	c0.1,0.2,0.2,0.3,0.4,0.4C65,190.4,65.3,190.5,65.6,190.5z"/>
<path class="st0" d="M72.6,191.2c-0.5,0-1-0.1-1.4-0.4c-0.4-0.3-0.7-0.7-0.9-1.1c-0.2-0.5-0.3-1-0.3-1.6c0-0.6,0.1-1.1,0.3-1.6
	c0.2-0.5,0.5-0.8,0.9-1.1c0.4-0.3,0.9-0.4,1.4-0.4c0.5,0,1,0.1,1.4,0.4c0.4,0.3,0.7,0.6,0.9,1.1c0.2,0.5,0.3,1,0.3,1.6
	c0,0.6-0.1,1.1-0.3,1.6c-0.2,0.5-0.5,0.8-0.9,1.1C73.6,191,73.1,191.2,72.6,191.2z M69.9,193.6v-8.6h0.7v4.5h0.1v4.1H69.9z
	 M72.5,190.4c0.4,0,0.8-0.1,1-0.3s0.5-0.5,0.6-0.9c0.1-0.4,0.2-0.8,0.2-1.2c0-0.4-0.1-0.9-0.2-1.2c-0.1-0.4-0.3-0.6-0.6-0.9
	c-0.3-0.2-0.6-0.3-1.1-0.3c-0.4,0-0.8,0.1-1,0.3c-0.3,0.2-0.5,0.5-0.6,0.8c-0.1,0.4-0.2,0.8-0.2,1.2c0,0.5,0.1,0.9,0.2,1.2
	c0.1,0.4,0.3,0.6,0.6,0.8C71.7,190.3,72.1,190.4,72.5,190.4z"/>
<path class="st0" d="M78.9,191.2c-0.6,0-1.1-0.1-1.5-0.4c-0.4-0.3-0.7-0.6-0.9-1.1c-0.2-0.5-0.3-1-0.3-1.6c0-0.6,0.1-1.2,0.3-1.6
	c0.2-0.5,0.5-0.8,1-1.1c0.4-0.3,0.9-0.4,1.5-0.4c0.6,0,1.1,0.1,1.6,0.4c0.4,0.3,0.8,0.7,0.9,1.2l-0.8,0.3c-0.1-0.4-0.4-0.6-0.7-0.8
	c-0.3-0.2-0.6-0.3-1-0.3c-0.4,0-0.8,0.1-1.1,0.3c-0.3,0.2-0.5,0.5-0.6,0.8c-0.1,0.4-0.2,0.8-0.2,1.2c0,0.7,0.2,1.3,0.5,1.7
	c0.3,0.4,0.8,0.6,1.4,0.6c0.4,0,0.7-0.1,1-0.3c0.3-0.2,0.5-0.5,0.6-0.8l0.8,0.2c-0.2,0.5-0.5,0.9-1,1.2
	C80,191,79.5,191.2,78.9,191.2z"/>
<path class="st0" d="M84,191v-5.2h-2.1v-0.7h5v0.7h-2.1v5.2H84z"/>
<path class="st0" d="M87.9,191v-5.9h2.4c0.1,0,0.3,0,0.5,0c0.2,0,0.3,0,0.5,0.1c0.3,0.1,0.6,0.3,0.8,0.5c0.2,0.3,0.3,0.6,0.3,1
	c0,0.2,0,0.4-0.1,0.6c-0.1,0.2-0.2,0.3-0.3,0.4c-0.1,0.1-0.1,0.1-0.2,0.2c-0.1,0-0.1,0.1-0.2,0.1c0.1,0,0.2,0.1,0.4,0.2
	c0.2,0.1,0.4,0.3,0.5,0.5c0.1,0.2,0.2,0.5,0.2,0.8c0,0.4-0.1,0.7-0.3,1c-0.2,0.3-0.5,0.4-0.8,0.5c-0.1,0-0.3,0.1-0.5,0.1
	c-0.2,0-0.3,0-0.5,0H87.9z M88.8,190.3h1.9c0.1,0,0.2,0,0.3,0c0.1,0,0.2,0,0.3-0.1c0.2-0.1,0.4-0.2,0.5-0.3c0.1-0.2,0.2-0.4,0.2-0.6
	c0-0.3-0.1-0.5-0.2-0.6c-0.2-0.2-0.4-0.3-0.6-0.3c-0.1,0-0.2,0-0.3,0c-0.1,0-0.2,0-0.2,0h-1.8V190.3z M88.8,187.7h1.7
	c0.1,0,0.2,0,0.3,0c0.1,0,0.2,0,0.3-0.1c0.2-0.1,0.3-0.2,0.4-0.3c0.1-0.2,0.1-0.3,0.1-0.5c0-0.2,0-0.4-0.1-0.6
	c-0.1-0.2-0.2-0.3-0.4-0.3c-0.1,0-0.3-0.1-0.4-0.1c-0.2,0-0.2,0-0.3,0h-1.6V187.7z"/>
<path class="st0" d="M96.3,191.2c-0.6,0-1.1-0.1-1.5-0.4c-0.4-0.3-0.7-0.6-1-1.1c-0.2-0.5-0.4-1-0.4-1.6c0-0.6,0.1-1.2,0.3-1.7
	c0.2-0.5,0.6-0.8,1-1.1c0.4-0.3,0.9-0.4,1.5-0.4c0.6,0,1.1,0.1,1.5,0.4c0.4,0.3,0.7,0.7,0.9,1.2c0.2,0.5,0.3,1.1,0.3,1.8h-0.8V188
	c0-0.8-0.2-1.4-0.5-1.7c-0.3-0.4-0.8-0.6-1.4-0.6c-0.6,0-1.1,0.2-1.5,0.6c-0.3,0.4-0.5,1-0.5,1.8c0,0.7,0.2,1.3,0.5,1.7
	c0.3,0.4,0.8,0.6,1.4,0.6c0.4,0,0.8-0.1,1.1-0.3c0.3-0.2,0.6-0.5,0.8-0.9l0.8,0.3c-0.2,0.5-0.6,0.9-1,1.2
	C97.4,191,96.9,191.2,96.3,191.2z M94.1,188.3v-0.7h4.5v0.7H94.1z"/>
<path class="st0" d="M100.3,191v-5.9h0.8v2.6h3.3v-2.6h0.8v5.9h-0.8v-2.6h-3.3v2.6H100.3z"/>
<path class="st0" d="M106.8,191v-5.9h0.8v2.6h3.3v-2.6h0.8v5.9h-0.8v-2.6h-3.3v2.6H106.8z"/>
<path class="st0" d="M115.7,191.2c-0.6,0-1.1-0.1-1.5-0.4c-0.4-0.3-0.7-0.6-1-1.1c-0.2-0.5-0.3-1-0.3-1.6c0-0.6,0.1-1.2,0.3-1.6
	c0.2-0.5,0.5-0.8,1-1.1c0.4-0.3,0.9-0.4,1.5-0.4c0.6,0,1.1,0.1,1.5,0.4c0.4,0.3,0.7,0.6,1,1.1c0.2,0.5,0.3,1,0.3,1.6
	c0,0.6-0.1,1.2-0.3,1.6c-0.2,0.5-0.5,0.8-1,1.1C116.8,191,116.3,191.2,115.7,191.2z M115.7,190.4c0.7,0,1.2-0.2,1.5-0.7
	c0.3-0.4,0.5-1,0.5-1.7c0-0.7-0.2-1.3-0.5-1.7c-0.3-0.4-0.8-0.6-1.5-0.6c-0.4,0-0.8,0.1-1.1,0.3c-0.3,0.2-0.5,0.5-0.6,0.8
	c-0.1,0.4-0.2,0.8-0.2,1.2c0,0.7,0.2,1.3,0.5,1.7C114.6,190.2,115.1,190.4,115.7,190.4z"/>
<path class="st0" d="M122.2,184.4c-0.3,0-0.5-0.1-0.7-0.2c-0.2-0.1-0.4-0.3-0.5-0.5c-0.1-0.2-0.2-0.5-0.2-0.7h0.7
	c0,0.2,0.1,0.4,0.2,0.5c0.1,0.1,0.3,0.2,0.5,0.2c0.2,0,0.4-0.1,0.5-0.2c0.1-0.1,0.2-0.3,0.2-0.5h0.7c0,0.3-0.1,0.5-0.2,0.7
	c-0.1,0.2-0.3,0.4-0.5,0.5C122.7,184.3,122.5,184.4,122.2,184.4z M124.5,185.1v5.9h-0.8v-4.6l-3.3,4.6h-0.7v-5.9h0.8v4.6l3.3-4.6
	H124.5z"/>
<path class="st0" d="M6.5,202.1v5.9H5.7v-4.6L2.4,208H1.8v-5.9h0.8v4.6l3.3-4.6H6.5z"/>
<path class="st0" d="M8,208v-5.9h0.8v2.6h3.3v-2.6H13v5.9h-0.8v-2.6H8.8v2.6H8z"/>
<path class="st0" d="M17,208.2c-0.6,0-1.1-0.1-1.5-0.4c-0.4-0.3-0.7-0.6-0.9-1.1c-0.2-0.5-0.3-1-0.3-1.6c0-0.6,0.1-1.2,0.3-1.6
	c0.2-0.5,0.5-0.8,1-1.1c0.4-0.3,0.9-0.4,1.5-0.4c0.6,0,1.1,0.1,1.6,0.4c0.4,0.3,0.8,0.7,0.9,1.2l-0.8,0.3c-0.1-0.4-0.4-0.6-0.7-0.8
	c-0.3-0.2-0.6-0.3-1-0.3c-0.4,0-0.8,0.1-1.1,0.3c-0.3,0.2-0.5,0.5-0.6,0.8c-0.1,0.4-0.2,0.8-0.2,1.2c0,0.7,0.2,1.3,0.5,1.7
	c0.3,0.4,0.8,0.6,1.4,0.6c0.4,0,0.7-0.1,1-0.3c0.3-0.2,0.5-0.5,0.6-0.8l0.8,0.2c-0.2,0.5-0.5,0.9-1,1.2
	C18.1,208,17.6,208.2,17,208.2z"/>
<path class="st0" d="M20.6,208v-5.9h4.7v5.9h-0.8v-5.2h-3.1v5.2H20.6z"/>
<path class="st0" d="M29.4,208.2c-0.6,0-1.1-0.1-1.5-0.4c-0.4-0.3-0.7-0.6-1-1.1c-0.2-0.5-0.4-1-0.4-1.6c0-0.6,0.1-1.2,0.3-1.7
	c0.2-0.5,0.6-0.8,1-1.1c0.4-0.3,0.9-0.4,1.5-0.4c0.6,0,1.1,0.1,1.5,0.4c0.4,0.3,0.7,0.7,0.9,1.2c0.2,0.5,0.3,1.1,0.3,1.8h-0.8V205
	c0-0.8-0.2-1.4-0.5-1.7c-0.3-0.4-0.8-0.6-1.4-0.6c-0.6,0-1.1,0.2-1.5,0.6c-0.3,0.4-0.5,1-0.5,1.8c0,0.7,0.2,1.3,0.5,1.7
	c0.3,0.4,0.8,0.6,1.4,0.6c0.4,0,0.8-0.1,1.1-0.3c0.3-0.2,0.6-0.5,0.8-0.9l0.8,0.3c-0.2,0.5-0.6,0.9-1,1.2
	C30.5,208,30,208.2,29.4,208.2z M27.1,205.3v-0.7h4.5v0.7H27.1z"/>
<path class="st0" d="M33.3,208l0-5.9h0.8v2.9l2.7-2.9h1.1l-2.8,3l3.1,3H37l-2.9-2.9v2.9H33.3z"/>
<path class="st0" d="M43.9,209v-1h-5.1v-5.9h0.8v5.2h3.1v-5.2h0.8v5.2h1.2v1.8H43.9z"/>
<path class="st0" d="M50.3,202.1v5.9h-0.8v-4.6l-3.3,4.6h-0.7v-5.9h0.8v4.6l3.3-4.6H50.3z"/>
<path class="st0" d="M56.5,202.1v5.9h-0.8v-4.6l-3.3,4.6h-0.7v-5.9h0.8v4.6l3.3-4.6H56.5z"/>
<path class="st0" d="M60.3,208v-5.9H65v5.9h-0.8v-5.2h-3.1v5.2H60.3z"/>
<path class="st0" d="M69.2,208.2c-0.5,0-1-0.1-1.4-0.4c-0.4-0.3-0.7-0.7-0.9-1.1c-0.2-0.5-0.3-1-0.3-1.6c0-0.6,0.1-1.1,0.3-1.6
	c0.2-0.5,0.5-0.8,0.9-1.1c0.4-0.3,0.9-0.4,1.4-0.4c0.5,0,1,0.1,1.4,0.4c0.4,0.3,0.7,0.6,0.9,1.1c0.2,0.5,0.3,1,0.3,1.6
	c0,0.6-0.1,1.1-0.3,1.6c-0.2,0.5-0.5,0.8-0.9,1.1C70.3,208,69.8,208.2,69.2,208.2z M66.6,210.6v-8.6h0.7v4.5h0.1v4.1H66.6z
	 M69.1,207.4c0.4,0,0.8-0.1,1-0.3c0.3-0.2,0.5-0.5,0.6-0.9c0.1-0.4,0.2-0.8,0.2-1.2c0-0.4-0.1-0.9-0.2-1.2c-0.1-0.4-0.3-0.6-0.6-0.9
	c-0.3-0.2-0.6-0.3-1.1-0.3c-0.4,0-0.8,0.1-1,0.3c-0.3,0.2-0.5,0.5-0.6,0.8c-0.1,0.4-0.2,0.8-0.2,1.2c0,0.5,0.1,0.9,0.2,1.2
	c0.1,0.4,0.3,0.6,0.6,0.8C68.4,207.3,68.7,207.4,69.1,207.4z"/>
<path class="st0" d="M75.5,208.2c-0.6,0-1.1-0.1-1.5-0.4c-0.4-0.3-0.7-0.6-1-1.1c-0.2-0.5-0.3-1-0.3-1.6c0-0.6,0.1-1.2,0.3-1.6
	c0.2-0.5,0.6-0.8,1-1.1c0.4-0.3,0.9-0.4,1.5-0.4c0.6,0,1.1,0.1,1.5,0.4c0.4,0.3,0.7,0.6,1,1.1c0.2,0.5,0.3,1,0.3,1.6
	c0,0.6-0.1,1.2-0.3,1.6c-0.2,0.5-0.5,0.8-1,1.1C76.6,208,76.1,208.2,75.5,208.2z M75.5,207.4c0.7,0,1.2-0.2,1.5-0.7
	c0.3-0.4,0.5-1,0.5-1.7c0-0.7-0.2-1.3-0.5-1.7c-0.3-0.4-0.8-0.6-1.5-0.6c-0.4,0-0.8,0.1-1.1,0.3c-0.3,0.2-0.5,0.5-0.6,0.8
	c-0.1,0.4-0.2,0.8-0.2,1.2c0,0.7,0.2,1.3,0.5,1.7C74.4,207.2,74.9,207.4,75.5,207.4z"/>
<path class="st0" d="M82,208.2c-0.6,0-1-0.1-1.4-0.4c-0.4-0.2-0.7-0.6-0.9-1.1c-0.2-0.5-0.3-1.1-0.4-1.8c0-0.3,0-0.7,0-1
	c0-0.4,0.1-0.7,0.1-1.1s0.1-0.6,0.2-0.8c0.1-0.3,0.2-0.5,0.4-0.8c0.2-0.2,0.4-0.4,0.6-0.6c0.2-0.2,0.5-0.3,0.8-0.4
	c0.3-0.1,0.6-0.2,0.9-0.2c0.3,0,0.6-0.1,0.9-0.1c0.3,0,0.6-0.1,0.9-0.1l0.1,0.7c-0.2,0-0.4,0.1-0.7,0.1c-0.3,0-0.6,0.1-0.9,0.1
	c-0.3,0-0.6,0.1-0.9,0.2s-0.5,0.2-0.7,0.3c-0.3,0.2-0.5,0.5-0.7,0.8c-0.2,0.4-0.3,0.8-0.3,1.2c0.2-0.4,0.5-0.6,0.9-0.8
	c0.4-0.2,0.8-0.3,1.2-0.3c0.5,0,1,0.1,1.4,0.4c0.4,0.2,0.7,0.6,0.9,1c0.2,0.4,0.3,0.9,0.3,1.5c0,0.6-0.1,1.1-0.3,1.5
	c-0.2,0.4-0.6,0.8-1,1C83,208.1,82.5,208.2,82,208.2z M82,207.4c0.6,0,1.1-0.2,1.4-0.6c0.3-0.4,0.5-0.9,0.5-1.6
	c0-0.7-0.2-1.2-0.5-1.6c-0.3-0.4-0.8-0.6-1.4-0.6c-0.6,0-1.1,0.2-1.4,0.6c-0.3,0.4-0.5,0.9-0.5,1.6c0,0.7,0.2,1.2,0.5,1.6
	C80.9,207.2,81.4,207.4,82,207.4z"/>
<path class="st0" d="M90.7,202.1v5.9h-0.8v-4.6l-3.3,4.6H86v-5.9h0.8v4.6l3.3-4.6H90.7z"/>
<path class="st0" d="M94.9,208.2c-0.5,0-1-0.1-1.4-0.4c-0.4-0.3-0.7-0.7-0.9-1.1c-0.2-0.5-0.3-1-0.3-1.6c0-0.6,0.1-1.1,0.3-1.6
	c0.2-0.5,0.5-0.8,0.9-1.1c0.4-0.3,0.9-0.4,1.4-0.4c0.5,0,1,0.1,1.4,0.4c0.4,0.3,0.7,0.6,0.9,1.1c0.2,0.5,0.3,1,0.3,1.6
	c0,0.6-0.1,1.1-0.3,1.6c-0.2,0.5-0.5,0.8-0.9,1.1C95.9,208,95.5,208.2,94.9,208.2z M92.2,210.6v-8.6H93v4.5h0.1v4.1H92.2z
	 M94.8,207.4c0.4,0,0.8-0.1,1-0.3s0.5-0.5,0.6-0.9c0.1-0.4,0.2-0.8,0.2-1.2c0-0.4-0.1-0.9-0.2-1.2c-0.1-0.4-0.3-0.6-0.6-0.9
	c-0.3-0.2-0.6-0.3-1.1-0.3c-0.4,0-0.8,0.1-1,0.3c-0.3,0.2-0.5,0.5-0.6,0.8c-0.1,0.4-0.2,0.8-0.2,1.2c0,0.5,0.1,0.9,0.2,1.2
	c0.1,0.4,0.3,0.6,0.6,0.8C94.1,207.3,94.4,207.4,94.8,207.4z"/>
<path class="st0" d="M98.8,208v-5.9h0.8v2.6h3.3v-2.6h0.8v5.9h-0.8v-2.6h-3.3v2.6H98.8z"/>
<path class="st0" d="M107.7,208.2c-0.6,0-1.1-0.1-1.5-0.4c-0.4-0.3-0.7-0.6-1-1.1c-0.2-0.5-0.3-1-0.3-1.6c0-0.6,0.1-1.2,0.3-1.6
	c0.2-0.5,0.5-0.8,1-1.1c0.4-0.3,0.9-0.4,1.5-0.4c0.6,0,1.1,0.1,1.5,0.4c0.4,0.3,0.7,0.6,1,1.1c0.2,0.5,0.3,1,0.3,1.6
	c0,0.6-0.1,1.2-0.3,1.6c-0.2,0.5-0.5,0.8-1,1.1C108.8,208,108.3,208.2,107.7,208.2z M107.7,207.4c0.7,0,1.2-0.2,1.5-0.7
	c0.3-0.4,0.5-1,0.5-1.7c0-0.7-0.2-1.3-0.5-1.7c-0.3-0.4-0.8-0.6-1.5-0.6c-0.4,0-0.8,0.1-1.1,0.3c-0.3,0.2-0.5,0.5-0.6,0.8
	c-0.1,0.4-0.2,0.8-0.2,1.2c0,0.7,0.2,1.3,0.5,1.7C106.6,207.2,107.1,207.4,107.7,207.4z"/>
<path class="st0" d="M111.8,208v-5.9h4.1v0.8h-3.3v5.2H111.8z"/>
<path class="st0" d="M119.3,208.2c-0.6,0-1.1-0.1-1.5-0.4c-0.4-0.3-0.7-0.6-1-1.1c-0.2-0.5-0.3-1-0.3-1.6c0-0.6,0.1-1.2,0.3-1.6
	c0.2-0.5,0.5-0.8,1-1.1c0.4-0.3,0.9-0.4,1.5-0.4c0.6,0,1.1,0.1,1.5,0.4c0.4,0.3,0.7,0.6,1,1.1c0.2,0.5,0.3,1,0.3,1.6
	c0,0.6-0.1,1.2-0.3,1.6c-0.2,0.5-0.5,0.8-1,1.1C120.3,208,119.8,208.2,119.3,208.2z M119.3,207.4c0.7,0,1.2-0.2,1.5-0.7
	c0.3-0.4,0.5-1,0.5-1.7c0-0.7-0.2-1.3-0.5-1.7c-0.3-0.4-0.8-0.6-1.5-0.6c-0.4,0-0.8,0.1-1.1,0.3c-0.3,0.2-0.5,0.5-0.6,0.8
	c-0.1,0.4-0.2,0.8-0.2,1.2c0,0.7,0.2,1.3,0.5,1.7C118.1,207.2,118.6,207.4,119.3,207.4z"/>
<path class="st0" d="M125.5,208v-5.9h0.8v2.6h3.3v-2.6h0.8v5.9h-0.8v-2.6h-3.3v2.6H125.5z"/>
<path class="st0" d="M133.7,208.2c-0.4,0-0.8-0.1-1.1-0.2c-0.3-0.2-0.5-0.4-0.7-0.6c-0.2-0.3-0.2-0.6-0.2-0.9c0-0.3,0.1-0.6,0.2-0.8
	c0.1-0.2,0.3-0.4,0.5-0.6c0.2-0.1,0.5-0.3,0.8-0.3c0.3-0.1,0.6-0.1,1-0.2c0.4-0.1,0.7-0.1,1.1-0.1c0.4,0,0.7-0.1,0.9-0.1l-0.3,0.2
	c0-0.6-0.1-1-0.3-1.3c-0.2-0.3-0.7-0.4-1.2-0.4c-0.4,0-0.8,0.1-1,0.3c-0.3,0.2-0.5,0.5-0.6,0.9l-0.8-0.2c0.1-0.5,0.4-0.9,0.8-1.2
	c0.4-0.3,0.9-0.4,1.6-0.4c0.5,0,1,0.1,1.4,0.3c0.4,0.2,0.7,0.5,0.8,0.9c0.1,0.2,0.1,0.4,0.1,0.6c0,0.2,0,0.4,0,0.6v3.7h-0.7v-1.5
	l0.2,0.1c-0.2,0.5-0.5,0.9-0.9,1.2C134.8,208,134.3,208.2,133.7,208.2z M133.8,207.5c0.4,0,0.7-0.1,1-0.2c0.3-0.1,0.5-0.3,0.7-0.6
	c0.2-0.2,0.3-0.5,0.3-0.8c0-0.2,0.1-0.4,0.1-0.6c0-0.2,0-0.4,0-0.5l0.3,0.2c-0.3,0-0.6,0.1-0.9,0.1c-0.3,0-0.6,0.1-0.9,0.1
	c-0.3,0-0.6,0.1-0.8,0.2c-0.2,0-0.3,0.1-0.5,0.2c-0.2,0.1-0.3,0.2-0.4,0.3c-0.1,0.1-0.1,0.3-0.1,0.5c0,0.2,0,0.3,0.1,0.5
	c0.1,0.2,0.2,0.3,0.4,0.4C133.2,207.4,133.5,207.5,133.8,207.5z"/>
<path class="st0" d="M137.7,209.3v-2c0.3,0,0.6-0.1,0.7-0.3c0.1-0.2,0.3-0.6,0.4-1.1c0.1-0.3,0.1-0.6,0.2-1c0-0.4,0.1-0.8,0.1-1.2
	c0-0.5,0.1-1,0.1-1.6h3.9v5.2h0.6v2h-0.8V208h-4.4v1.3H137.7z M139,207.3h3.2v-4.6h-2.4c0,0.3,0,0.6,0,0.9c0,0.3,0,0.6-0.1,0.9
	c0,0.3-0.1,0.6-0.1,0.9c0,0.3-0.1,0.5-0.1,0.7c-0.1,0.3-0.1,0.5-0.2,0.7C139.3,207,139.2,207.2,139,207.3z"/>
<path class="st0" d="M146.8,208.2c-0.6,0-1.1-0.1-1.6-0.4c-0.4-0.3-0.8-0.6-1.1-1.1l0.6-0.4c0.2,0.4,0.5,0.6,0.8,0.8
	c0.3,0.2,0.7,0.3,1.1,0.3c0.4,0,0.8-0.1,1.1-0.3c0.3-0.2,0.4-0.5,0.4-0.8c0-0.2-0.1-0.4-0.2-0.6c-0.1-0.1-0.3-0.2-0.5-0.3
	c-0.2-0.1-0.5-0.1-0.8-0.1H146v-0.7h0.7c0.4,0,0.7-0.1,1-0.2c0.3-0.2,0.4-0.4,0.4-0.7c0-0.3-0.1-0.6-0.4-0.7
	c-0.2-0.2-0.5-0.2-0.9-0.2c-0.4,0-0.7,0.1-1,0.2c-0.3,0.1-0.6,0.3-0.8,0.6l-0.5-0.5c0.3-0.3,0.6-0.6,1-0.7c0.4-0.2,0.8-0.3,1.3-0.3
	c0.4,0,0.7,0.1,1,0.2c0.3,0.1,0.6,0.3,0.7,0.6c0.2,0.3,0.3,0.6,0.3,0.9c0,0.3-0.1,0.6-0.2,0.9c-0.2,0.2-0.4,0.4-0.7,0.6l0-0.3
	c0.3,0,0.5,0.1,0.6,0.3c0.2,0.2,0.3,0.3,0.4,0.6c0.1,0.2,0.1,0.4,0.1,0.7c0,0.4-0.1,0.7-0.3,1c-0.2,0.3-0.5,0.5-0.8,0.6
	C147.6,208.1,147.2,208.2,146.8,208.2z"/>
<path class="st0" d="M152.7,208.2c-0.6,0-1.1-0.1-1.5-0.4c-0.4-0.3-0.7-0.6-1-1.1c-0.2-0.5-0.3-1-0.3-1.6c0-0.6,0.1-1.2,0.3-1.6
	c0.2-0.5,0.6-0.8,1-1.1c0.4-0.3,0.9-0.4,1.5-0.4c0.6,0,1.1,0.1,1.5,0.4c0.4,0.3,0.7,0.6,1,1.1c0.2,0.5,0.3,1,0.3,1.6
	c0,0.6-0.1,1.2-0.3,1.6c-0.2,0.5-0.5,0.8-1,1.1C153.8,208,153.3,208.2,152.7,208.2z M152.7,207.4c0.7,0,1.2-0.2,1.5-0.7
	c0.3-0.4,0.5-1,0.5-1.7c0-0.7-0.2-1.3-0.5-1.7c-0.3-0.4-0.8-0.6-1.5-0.6c-0.4,0-0.8,0.1-1.1,0.3c-0.3,0.2-0.5,0.5-0.6,0.8
	c-0.1,0.4-0.2,0.8-0.2,1.2c0,0.7,0.2,1.3,0.5,1.7C151.6,207.2,152.1,207.4,152.7,207.4z"/>
<path class="st0" d="M159.4,208.2c-0.5,0-1-0.1-1.4-0.4c-0.4-0.3-0.7-0.7-0.9-1.1c-0.2-0.5-0.3-1-0.3-1.6c0-0.6,0.1-1.1,0.3-1.6
	c0.2-0.5,0.5-0.8,0.9-1.1c0.4-0.3,0.9-0.4,1.4-0.4c0.5,0,1,0.1,1.4,0.4c0.4,0.3,0.7,0.6,0.9,1.1c0.2,0.5,0.3,1,0.3,1.6
	c0,0.6-0.1,1.1-0.3,1.6c-0.2,0.5-0.5,0.8-0.9,1.1C160.5,208,160,208.2,159.4,208.2z M156.8,210.6v-8.6h0.7v4.5h0.1v4.1H156.8z
	 M159.4,207.4c0.4,0,0.8-0.1,1-0.3s0.5-0.5,0.6-0.9c0.1-0.4,0.2-0.8,0.2-1.2c0-0.4-0.1-0.9-0.2-1.2c-0.1-0.4-0.3-0.6-0.6-0.9
	c-0.3-0.2-0.6-0.3-1.1-0.3c-0.4,0-0.8,0.1-1,0.3c-0.3,0.2-0.5,0.5-0.6,0.8c-0.1,0.4-0.2,0.8-0.2,1.2c0,0.5,0.1,0.9,0.2,1.2
	c0.1,0.4,0.3,0.6,0.6,0.8C158.6,207.3,158.9,207.4,159.4,207.4z"/>
<path class="st0" d="M165,208.2c-0.4,0-0.8-0.1-1.1-0.2c-0.3-0.2-0.5-0.4-0.7-0.6c-0.1-0.3-0.2-0.6-0.2-0.9c0-0.3,0.1-0.6,0.2-0.8
	c0.1-0.2,0.3-0.4,0.5-0.6c0.2-0.1,0.5-0.3,0.8-0.3c0.3-0.1,0.6-0.1,1-0.2c0.4-0.1,0.7-0.1,1.1-0.1c0.4,0,0.7-0.1,0.9-0.1l-0.3,0.2
	c0-0.6-0.1-1-0.3-1.3c-0.2-0.3-0.7-0.4-1.2-0.4c-0.4,0-0.8,0.1-1,0.3c-0.3,0.2-0.5,0.5-0.6,0.9l-0.8-0.2c0.1-0.5,0.4-0.9,0.8-1.2
	c0.4-0.3,0.9-0.4,1.6-0.4c0.5,0,1,0.1,1.4,0.3c0.4,0.2,0.7,0.5,0.8,0.9c0.1,0.2,0.1,0.4,0.1,0.6c0,0.2,0,0.4,0,0.6v3.7h-0.7v-1.5
	l0.2,0.1c-0.2,0.5-0.5,0.9-0.9,1.2C166.1,208,165.6,208.2,165,208.2z M165.1,207.5c0.4,0,0.7-0.1,1-0.2c0.3-0.1,0.5-0.3,0.7-0.6
	c0.2-0.2,0.3-0.5,0.3-0.8c0-0.2,0.1-0.4,0.1-0.6c0-0.2,0-0.4,0-0.5l0.3,0.2c-0.3,0-0.6,0.1-0.9,0.1c-0.3,0-0.6,0.1-0.9,0.1
	c-0.3,0-0.6,0.1-0.8,0.2c-0.2,0-0.3,0.1-0.5,0.2c-0.2,0.1-0.3,0.2-0.4,0.3c-0.1,0.1-0.1,0.3-0.1,0.5c0,0.2,0,0.3,0.1,0.5
	c0.1,0.2,0.2,0.3,0.4,0.4C164.5,207.4,164.8,207.5,165.1,207.5z"/>
<path class="st0" d="M201,10V9h-6.2V1.1h0.8v7.2h4.5V1.2h0.8v7.1h0.8V10H201z"/>
<path class="st0" d="M207.4,3.1V9h-0.8V4.4L203.3,9h-0.7V3.1h0.8v4.6l3.3-4.6H207.4z"/>
<path class="st0" d="M211.7,11.5V9.1c-0.6,0.1-1.1,0-1.6-0.2c-0.5-0.2-0.9-0.6-1.1-1.1c-0.3-0.5-0.4-1.1-0.4-1.8s0.1-1.3,0.4-1.8
	c0.3-0.5,0.7-0.9,1.1-1.1c0.5-0.2,1-0.3,1.6-0.2V1.1h0.7v1.8c0.6-0.1,1.1,0,1.6,0.2c0.5,0.2,0.9,0.6,1.1,1.1
	c0.3,0.5,0.4,1.1,0.4,1.8s-0.1,1.3-0.4,1.8c-0.3,0.5-0.7,0.8-1.1,1.1c-0.5,0.2-1,0.3-1.6,0.2v2.4H211.7z M211.7,8.4V3.7
	c-0.3-0.1-0.6,0-0.9,0c-0.3,0.1-0.5,0.2-0.7,0.4c-0.2,0.2-0.4,0.4-0.5,0.8c-0.1,0.3-0.2,0.7-0.2,1.1c0,0.5,0.1,0.8,0.2,1.2
	c0.1,0.3,0.3,0.6,0.5,0.8c0.2,0.2,0.5,0.3,0.7,0.4C211.2,8.4,211.4,8.4,211.7,8.4z M212.5,8.4c0.3,0,0.6,0,0.9,0s0.5-0.2,0.7-0.4
	c0.2-0.2,0.4-0.4,0.5-0.8c0.1-0.3,0.2-0.7,0.2-1.2c0-0.5-0.1-0.8-0.2-1.2c-0.1-0.3-0.3-0.6-0.5-0.8c-0.2-0.2-0.5-0.3-0.7-0.4
	c-0.3-0.1-0.6-0.1-0.9,0V8.4z"/>
<path class="st0" d="M219.5,9.2c-0.5,0-1-0.1-1.4-0.4c-0.4-0.3-0.7-0.7-0.9-1.1c-0.2-0.5-0.3-1-0.3-1.6c0-0.6,0.1-1.1,0.3-1.6
	c0.2-0.5,0.5-0.8,0.9-1.1c0.4-0.3,0.9-0.4,1.4-0.4c0.5,0,1,0.1,1.4,0.4c0.4,0.3,0.7,0.6,0.9,1.1c0.2,0.5,0.3,1,0.3,1.6
	c0,0.6-0.1,1.1-0.3,1.6s-0.5,0.8-0.9,1.1C220.5,9,220.1,9.2,219.5,9.2z M216.8,11.6V3.1h0.7v4.5h0.1v4.1H216.8z M219.4,8.4
	c0.4,0,0.8-0.1,1-0.3c0.3-0.2,0.5-0.5,0.6-0.9c0.1-0.4,0.2-0.8,0.2-1.2c0-0.4-0.1-0.9-0.2-1.2c-0.1-0.4-0.3-0.6-0.6-0.9
	c-0.3-0.2-0.6-0.3-1.1-0.3c-0.4,0-0.8,0.1-1,0.3c-0.3,0.2-0.5,0.5-0.6,0.8c-0.1,0.4-0.2,0.8-0.2,1.2c0,0.5,0.1,0.9,0.2,1.2
	c0.1,0.4,0.3,0.6,0.6,0.8C218.6,8.3,219,8.4,219.4,8.4z"/>
<path class="st0" d="M225.8,9.2c-0.6,0-1.1-0.1-1.5-0.4c-0.4-0.3-0.7-0.6-1-1.1c-0.2-0.5-0.3-1-0.3-1.6c0-0.6,0.1-1.2,0.3-1.6
	c0.2-0.5,0.6-0.8,1-1.1c0.4-0.3,0.9-0.4,1.5-0.4c0.6,0,1.1,0.1,1.5,0.4c0.4,0.3,0.7,0.6,1,1.1c0.2,0.5,0.3,1,0.3,1.6
	c0,0.6-0.1,1.2-0.3,1.6c-0.2,0.5-0.5,0.8-1,1.1C226.9,9,226.4,9.2,225.8,9.2z M225.8,8.4c0.7,0,1.2-0.2,1.5-0.7
	c0.3-0.4,0.5-1,0.5-1.7c0-0.7-0.2-1.3-0.5-1.7c-0.3-0.4-0.8-0.6-1.5-0.6c-0.4,0-0.8,0.1-1.1,0.3c-0.3,0.2-0.5,0.5-0.6,0.8
	c-0.1,0.4-0.2,0.8-0.2,1.2c0,0.7,0.2,1.3,0.5,1.7C224.7,8.2,225.2,8.4,225.8,8.4z"/>
<path class="st0" d="M229.8,9V3.1h2.4c0.1,0,0.3,0,0.5,0c0.2,0,0.3,0,0.5,0.1c0.3,0.1,0.6,0.3,0.8,0.5c0.2,0.3,0.3,0.6,0.3,1
	c0,0.2,0,0.4-0.1,0.6c-0.1,0.2-0.2,0.3-0.3,0.4c-0.1,0.1-0.1,0.1-0.2,0.2c-0.1,0-0.1,0.1-0.2,0.1c0.1,0,0.2,0.1,0.4,0.2
	c0.2,0.1,0.4,0.3,0.5,0.5c0.1,0.2,0.2,0.5,0.2,0.8c0,0.4-0.1,0.7-0.3,1c-0.2,0.3-0.5,0.4-0.8,0.5c-0.1,0-0.3,0.1-0.5,0.1
	c-0.2,0-0.3,0-0.5,0H229.8z M230.7,8.3h1.9c0.1,0,0.2,0,0.3,0c0.1,0,0.2,0,0.3-0.1c0.2-0.1,0.4-0.2,0.5-0.3c0.1-0.2,0.2-0.4,0.2-0.5
	c0-0.3-0.1-0.5-0.2-0.6c-0.1-0.2-0.4-0.3-0.6-0.3c-0.1,0-0.2,0-0.3,0c-0.1,0-0.2,0-0.2,0h-1.8V8.3z M230.7,5.7h1.7
	c0.1,0,0.2,0,0.3,0c0.1,0,0.2,0,0.3-0.1c0.2-0.1,0.3-0.2,0.4-0.3c0.1-0.2,0.1-0.3,0.1-0.5c0-0.2,0-0.4-0.1-0.6
	c-0.1-0.2-0.2-0.3-0.4-0.3c-0.1,0-0.3-0.1-0.4-0.1c-0.1,0-0.2,0-0.3,0h-1.6V5.7z"/>
<path class="st0" d="M238.2,9.2c-0.6,0-1.1-0.1-1.5-0.4c-0.4-0.3-0.7-0.6-1-1.1c-0.2-0.5-0.3-1-0.3-1.6c0-0.6,0.1-1.2,0.3-1.6
	c0.2-0.5,0.6-0.8,1-1.1c0.4-0.3,0.9-0.4,1.5-0.4c0.6,0,1.1,0.1,1.5,0.4c0.4,0.3,0.7,0.6,1,1.1c0.2,0.5,0.3,1,0.3,1.6
	c0,0.6-0.1,1.2-0.3,1.6c-0.2,0.5-0.5,0.8-1,1.1C239.3,9,238.8,9.2,238.2,9.2z M238.2,8.4c0.7,0,1.2-0.2,1.5-0.7
	c0.3-0.4,0.5-1,0.5-1.7c0-0.7-0.2-1.3-0.5-1.7c-0.3-0.4-0.8-0.6-1.5-0.6c-0.4,0-0.8,0.1-1.1,0.3c-0.3,0.2-0.5,0.5-0.6,0.8
	c-0.1,0.4-0.2,0.8-0.2,1.2c0,0.7,0.2,1.3,0.5,1.7C237.1,8.2,237.6,8.4,238.2,8.4z"/>
<path class="st0" d="M244.8,9.2c-0.6,0-1.1-0.1-1.5-0.4c-0.4-0.3-0.8-0.6-1-1.1c-0.2-0.5-0.4-1-0.4-1.6c0-0.6,0.1-1.2,0.3-1.7
	s0.6-0.8,1-1.1c0.4-0.3,0.9-0.4,1.5-0.4c0.6,0,1.1,0.1,1.5,0.4c0.4,0.3,0.7,0.7,0.9,1.2c0.2,0.5,0.3,1.1,0.3,1.8h-0.8V6
	c0-0.8-0.2-1.4-0.5-1.7c-0.3-0.4-0.8-0.6-1.4-0.6c-0.6,0-1.1,0.2-1.5,0.6c-0.3,0.4-0.5,1-0.5,1.8c0,0.7,0.2,1.3,0.5,1.7
	c0.3,0.4,0.8,0.6,1.4,0.6c0.4,0,0.8-0.1,1.1-0.3c0.3-0.2,0.6-0.5,0.8-0.9l0.8,0.3c-0.2,0.5-0.6,0.9-1,1.2
	C245.9,9,245.3,9.2,244.8,9.2z M242.5,6.3V5.6h4.5v0.7H242.5z"/>
<path class="st0" d="M197.2,26.2c-0.6,0-1.1-0.1-1.5-0.4c-0.4-0.3-0.7-0.6-1-1.1c-0.2-0.5-0.3-1-0.3-1.6c0-0.6,0.1-1.2,0.3-1.6
	c0.2-0.5,0.5-0.8,1-1.1c0.4-0.3,0.9-0.4,1.5-0.4c0.6,0,1.1,0.1,1.5,0.4c0.4,0.3,0.7,0.6,1,1.1c0.2,0.5,0.3,1,0.3,1.6
	c0,0.6-0.1,1.2-0.3,1.6c-0.2,0.5-0.5,0.8-1,1.1S197.8,26.2,197.2,26.2z M197.2,25.4c0.7,0,1.2-0.2,1.5-0.7c0.3-0.4,0.5-1,0.5-1.7
	c0-0.7-0.2-1.3-0.5-1.7c-0.3-0.4-0.8-0.6-1.5-0.6c-0.4,0-0.8,0.1-1.1,0.3c-0.3,0.2-0.5,0.5-0.6,0.8c-0.1,0.4-0.2,0.8-0.2,1.2
	c0,0.7,0.2,1.3,0.5,1.7C196.1,25.2,196.6,25.4,197.2,25.4z"/>
<path class="st0" d="M203.7,26.2c-0.6,0-1-0.1-1.4-0.4c-0.4-0.2-0.7-0.6-0.9-1.1c-0.2-0.5-0.3-1.1-0.4-1.8c0-0.3,0-0.7,0-1
	c0-0.4,0.1-0.7,0.1-1.1c0.1-0.3,0.1-0.6,0.2-0.8c0.1-0.3,0.2-0.5,0.4-0.8c0.2-0.2,0.4-0.4,0.6-0.6c0.2-0.2,0.5-0.3,0.8-0.4
	c0.3-0.1,0.6-0.2,0.9-0.2c0.3,0,0.6-0.1,0.9-0.1c0.3,0,0.6-0.1,0.9-0.1l0.1,0.7c-0.2,0-0.4,0.1-0.7,0.1c-0.3,0-0.6,0.1-0.9,0.1
	c-0.3,0-0.6,0.1-0.9,0.2c-0.3,0.1-0.5,0.2-0.7,0.3c-0.3,0.2-0.5,0.5-0.7,0.8c-0.2,0.4-0.3,0.8-0.3,1.2c0.2-0.4,0.5-0.6,0.9-0.8
	c0.4-0.2,0.8-0.3,1.2-0.3c0.5,0,1,0.1,1.4,0.4c0.4,0.2,0.7,0.6,0.9,1c0.2,0.4,0.3,0.9,0.3,1.5c0,0.6-0.1,1.1-0.3,1.5
	c-0.2,0.4-0.6,0.8-1,1C204.7,26.1,204.2,26.2,203.7,26.2z M203.7,25.4c0.6,0,1.1-0.2,1.4-0.6c0.3-0.4,0.5-0.9,0.5-1.6
	c0-0.7-0.2-1.2-0.5-1.6c-0.3-0.4-0.8-0.6-1.4-0.6c-0.6,0-1.1,0.2-1.4,0.6c-0.3,0.4-0.5,0.9-0.5,1.6s0.2,1.2,0.5,1.6
	C202.6,25.2,203.1,25.4,203.7,25.4z"/>
<path class="st0" d="M210.2,26.2c-0.6,0-1.1-0.1-1.5-0.4c-0.4-0.3-0.7-0.6-1-1.1c-0.2-0.5-0.3-1-0.3-1.6c0-0.6,0.1-1.2,0.3-1.6
	c0.2-0.5,0.6-0.8,1-1.1c0.4-0.3,0.9-0.4,1.5-0.4c0.6,0,1.1,0.1,1.5,0.4c0.4,0.3,0.7,0.6,1,1.1c0.2,0.5,0.3,1,0.3,1.6
	c0,0.6-0.1,1.2-0.3,1.6c-0.2,0.5-0.5,0.8-1,1.1C211.3,26,210.8,26.2,210.2,26.2z M210.2,25.4c0.7,0,1.2-0.2,1.5-0.7
	c0.3-0.4,0.5-1,0.5-1.7c0-0.7-0.2-1.3-0.5-1.7c-0.3-0.4-0.8-0.6-1.5-0.6c-0.4,0-0.8,0.1-1.1,0.3c-0.3,0.2-0.5,0.5-0.6,0.8
	c-0.1,0.4-0.2,0.8-0.2,1.2c0,0.7,0.2,1.3,0.5,1.7C209,25.2,209.5,25.4,210.2,25.4z"/>
<path class="st0" d="M216.2,26.2c-0.6,0-1.1-0.1-1.6-0.4c-0.4-0.3-0.8-0.6-1.1-1.1l0.6-0.4c0.2,0.4,0.5,0.6,0.8,0.8
	c0.3,0.2,0.7,0.3,1.1,0.3c0.4,0,0.8-0.1,1.1-0.3c0.3-0.2,0.4-0.5,0.4-0.8c0-0.2-0.1-0.4-0.2-0.6c-0.1-0.1-0.3-0.2-0.5-0.3
	c-0.2-0.1-0.5-0.1-0.8-0.1h-0.7v-0.7h0.7c0.4,0,0.7-0.1,1-0.2c0.3-0.2,0.4-0.4,0.4-0.7c0-0.3-0.1-0.6-0.4-0.7
	c-0.2-0.2-0.5-0.2-0.9-0.2c-0.4,0-0.7,0.1-1,0.2c-0.3,0.1-0.6,0.3-0.8,0.6l-0.5-0.5c0.3-0.3,0.6-0.6,1-0.7c0.4-0.2,0.8-0.3,1.3-0.3
	c0.4,0,0.7,0.1,1,0.2c0.3,0.1,0.6,0.3,0.7,0.6c0.2,0.3,0.3,0.6,0.3,0.9c0,0.3-0.1,0.6-0.2,0.9c-0.2,0.2-0.4,0.4-0.7,0.6l0-0.3
	c0.3,0,0.5,0.2,0.6,0.3c0.2,0.2,0.3,0.3,0.4,0.6c0.1,0.2,0.1,0.4,0.1,0.7c0,0.4-0.1,0.7-0.3,1c-0.2,0.3-0.5,0.5-0.8,0.6
	C217,26.1,216.7,26.2,216.2,26.2z"/>
<path class="st0" d="M219.7,26v-5.9h0.8v2.6h3.3v-2.6h0.8V26h-0.8v-2.6h-3.3V26H219.7z"/>
<path class="st0" d="M227.9,26.2c-0.4,0-0.8-0.1-1.1-0.2c-0.3-0.2-0.5-0.4-0.7-0.6c-0.2-0.3-0.2-0.6-0.2-0.9c0-0.3,0.1-0.6,0.2-0.8
	c0.1-0.2,0.3-0.4,0.5-0.6c0.2-0.1,0.5-0.3,0.8-0.3c0.3-0.1,0.6-0.1,1-0.2c0.4-0.1,0.7-0.1,1.1-0.1c0.4,0,0.7-0.1,0.9-0.1l-0.3,0.2
	c0-0.6-0.1-1-0.3-1.3c-0.2-0.3-0.7-0.4-1.2-0.4c-0.4,0-0.8,0.1-1,0.3c-0.3,0.2-0.5,0.5-0.6,0.9l-0.8-0.2c0.1-0.5,0.4-0.9,0.8-1.2
	c0.4-0.3,0.9-0.4,1.6-0.4c0.5,0,1,0.1,1.4,0.3c0.4,0.2,0.7,0.5,0.8,0.9c0.1,0.2,0.1,0.4,0.1,0.6c0,0.2,0,0.4,0,0.6V26h-0.7v-1.5
	l0.2,0.1c-0.2,0.5-0.5,0.9-0.9,1.2C229,26,228.5,26.2,227.9,26.2z M228,25.5c0.4,0,0.7-0.1,1-0.2c0.3-0.1,0.5-0.3,0.7-0.6
	c0.2-0.2,0.3-0.5,0.3-0.8c0-0.2,0.1-0.4,0.1-0.6c0-0.2,0-0.4,0-0.5l0.3,0.2c-0.3,0-0.6,0.1-0.9,0.1c-0.3,0-0.6,0.1-0.9,0.1
	c-0.3,0-0.6,0.1-0.8,0.2c-0.2,0-0.3,0.1-0.5,0.2c-0.2,0.1-0.3,0.2-0.4,0.3c-0.1,0.1-0.1,0.3-0.1,0.5c0,0.2,0,0.3,0.1,0.5
	c0.1,0.2,0.2,0.3,0.4,0.4C227.4,25.4,227.6,25.5,228,25.5z"/>
<path class="st0" d="M235.9,26v-2.2c-0.2,0.1-0.4,0.2-0.7,0.3c-0.3,0.1-0.6,0.1-0.9,0.1c-0.6,0-1.1-0.1-1.5-0.4
	c-0.4-0.3-0.6-0.7-0.7-1.2c0-0.2-0.1-0.3-0.1-0.5c0-0.2,0-0.3,0-0.5c0-0.1,0-0.2,0-0.3v-1.3h0.8v1.3c0,0.1,0,0.3,0,0.4
	c0,0.2,0,0.3,0,0.5c0.1,0.4,0.2,0.7,0.5,0.9c0.3,0.2,0.6,0.3,1.1,0.3c0.3,0,0.6,0,0.8-0.1c0.3-0.1,0.5-0.2,0.7-0.3v-3h0.8V26H235.9z
	"/>
<path class="st0" d="M240.8,26.2c-0.6,0-1.1-0.1-1.5-0.4c-0.4-0.3-0.8-0.6-1-1.1c-0.2-0.5-0.4-1-0.4-1.6c0-0.6,0.1-1.2,0.3-1.7
	s0.6-0.8,1-1.1c0.4-0.3,0.9-0.4,1.5-0.4c0.6,0,1.1,0.1,1.5,0.4c0.4,0.3,0.7,0.7,0.9,1.2c0.2,0.5,0.3,1.1,0.3,1.8h-0.8V23
	c0-0.8-0.2-1.4-0.5-1.7c-0.3-0.4-0.8-0.6-1.4-0.6c-0.6,0-1.1,0.2-1.5,0.6c-0.3,0.4-0.5,1-0.5,1.8c0,0.7,0.2,1.3,0.5,1.7
	c0.3,0.4,0.8,0.6,1.4,0.6c0.4,0,0.8-0.1,1.1-0.3c0.3-0.2,0.6-0.5,0.8-0.9l0.8,0.3c-0.2,0.5-0.6,0.9-1,1.2
	C241.9,26,241.4,26.2,240.8,26.2z M238.5,23.3v-0.7h4.5v0.7H238.5z"/>
<path class="st0" d="M244.7,26v-5.9h0.8v2.6h3.3v-2.6h0.8V26h-0.8v-2.6h-3.3V26H244.7z"/>
<path class="st0" d="M255.9,20.1V26h-0.8v-4.6l-3.3,4.6h-0.7v-5.9h0.8v4.6l3.3-4.6H255.9z"/>
<path class="st0" d="M260,26.2c-0.6,0-1.1-0.1-1.5-0.4c-0.4-0.3-0.8-0.6-1-1.1c-0.2-0.5-0.4-1-0.4-1.6c0-0.6,0.1-1.2,0.3-1.7
	c0.2-0.5,0.6-0.8,1-1.1c0.4-0.3,0.9-0.4,1.5-0.4c0.6,0,1.1,0.1,1.5,0.4c0.4,0.3,0.7,0.7,0.9,1.2c0.2,0.5,0.3,1.1,0.3,1.8h-0.8V23
	c0-0.8-0.2-1.4-0.5-1.7c-0.3-0.4-0.8-0.6-1.4-0.6c-0.6,0-1.1,0.2-1.5,0.6c-0.3,0.4-0.5,1-0.5,1.8c0,0.7,0.2,1.3,0.5,1.7
	c0.3,0.4,0.8,0.6,1.4,0.6c0.4,0,0.8-0.1,1.1-0.3c0.3-0.2,0.6-0.5,0.8-0.9l0.8,0.3c-0.2,0.5-0.6,0.9-1,1.2
	C261.1,26,260.5,26.2,260,26.2z M257.7,23.3v-0.7h4.5v0.7H257.7z"/>
<path class="st0" d="M266.1,26v-5.9h4.7V26H270v-5.2h-3.1V26H266.1z"/>
<path class="st0" d="M275,26.2c-0.5,0-1-0.1-1.4-0.4c-0.4-0.3-0.7-0.7-0.9-1.1c-0.2-0.5-0.3-1-0.3-1.6c0-0.6,0.1-1.1,0.3-1.6
	c0.2-0.5,0.5-0.8,0.9-1.1c0.4-0.3,0.9-0.4,1.4-0.4c0.5,0,1,0.1,1.4,0.4c0.4,0.3,0.7,0.6,0.9,1.1c0.2,0.5,0.3,1,0.3,1.6
	c0,0.6-0.1,1.1-0.3,1.6c-0.2,0.5-0.5,0.8-0.9,1.1C276.1,26,275.6,26.2,275,26.2z M272.4,28.6v-8.6h0.7v4.5h0.1v4.1H272.4z
	 M274.9,25.4c0.4,0,0.8-0.1,1-0.3c0.3-0.2,0.5-0.5,0.6-0.9c0.1-0.4,0.2-0.8,0.2-1.2c0-0.4-0.1-0.9-0.2-1.2c-0.1-0.4-0.3-0.6-0.6-0.9
	c-0.3-0.2-0.6-0.3-1.1-0.3c-0.4,0-0.8,0.1-1,0.3c-0.3,0.2-0.5,0.5-0.6,0.8c-0.1,0.4-0.2,0.8-0.2,1.2c0,0.5,0.1,0.9,0.2,1.2
	c0.1,0.4,0.3,0.6,0.6,0.8C274.2,25.3,274.5,25.4,274.9,25.4z"/>
<path class="st0" d="M281.4,26.2c-0.6,0-1.1-0.1-1.5-0.4c-0.4-0.3-0.7-0.6-1-1.1s-0.3-1-0.3-1.6c0-0.6,0.1-1.2,0.3-1.6
	c0.2-0.5,0.5-0.8,1-1.1c0.4-0.3,0.9-0.4,1.5-0.4c0.6,0,1.1,0.1,1.5,0.4c0.4,0.3,0.7,0.6,1,1.1c0.2,0.5,0.3,1,0.3,1.6
	c0,0.6-0.1,1.2-0.3,1.6c-0.2,0.5-0.5,0.8-1,1.1C282.4,26,281.9,26.2,281.4,26.2z M281.4,25.4c0.7,0,1.2-0.2,1.5-0.7
	c0.3-0.4,0.5-1,0.5-1.7c0-0.7-0.2-1.3-0.5-1.7c-0.3-0.4-0.8-0.6-1.5-0.6c-0.4,0-0.8,0.1-1.1,0.3c-0.3,0.2-0.5,0.5-0.6,0.8
	c-0.1,0.4-0.2,0.8-0.2,1.2c0,0.7,0.2,1.3,0.5,1.7C280.2,25.2,280.7,25.4,281.4,25.4z"/>
<path class="st0" d="M287.8,26.2c-0.6,0-1-0.1-1.4-0.4c-0.4-0.2-0.7-0.6-0.9-1.1c-0.2-0.5-0.3-1.1-0.4-1.8c0-0.3,0-0.7,0-1
	c0-0.4,0.1-0.7,0.1-1.1c0.1-0.3,0.1-0.6,0.2-0.8c0.1-0.3,0.2-0.5,0.4-0.8c0.2-0.2,0.4-0.4,0.6-0.6c0.2-0.2,0.5-0.3,0.8-0.4
	c0.3-0.1,0.6-0.2,0.9-0.2c0.3,0,0.6-0.1,0.9-0.1c0.3,0,0.6-0.1,0.9-0.1l0.1,0.7c-0.2,0-0.4,0.1-0.7,0.1c-0.3,0-0.6,0.1-0.9,0.1
	c-0.3,0-0.6,0.1-0.9,0.2s-0.5,0.2-0.7,0.3c-0.3,0.2-0.5,0.5-0.7,0.8c-0.2,0.4-0.3,0.8-0.3,1.2c0.2-0.4,0.5-0.6,0.9-0.8
	c0.4-0.2,0.8-0.3,1.2-0.3c0.5,0,1,0.1,1.4,0.4c0.4,0.2,0.7,0.6,0.9,1c0.2,0.4,0.3,0.9,0.3,1.5c0,0.6-0.1,1.1-0.3,1.5
	c-0.2,0.4-0.6,0.8-1,1C288.8,26.1,288.3,26.2,287.8,26.2z M287.8,25.4c0.6,0,1.1-0.2,1.4-0.6c0.3-0.4,0.5-0.9,0.5-1.6
	c0-0.7-0.2-1.2-0.5-1.6c-0.3-0.4-0.8-0.6-1.4-0.6c-0.6,0-1.1,0.2-1.4,0.6c-0.3,0.4-0.5,0.9-0.5,1.6s0.2,1.2,0.5,1.6
	C286.7,25.2,287.2,25.4,287.8,25.4z"/>
<path class="st0" d="M291.8,26l0-5.9h0.8v2.2h1c0.2,0,0.3,0,0.5,0c0.2,0,0.3,0,0.4,0c0.3,0.1,0.6,0.2,0.8,0.3
	c0.2,0.1,0.4,0.3,0.5,0.6c0.1,0.2,0.2,0.5,0.2,0.9c0,0.5-0.1,0.9-0.4,1.2c-0.3,0.3-0.6,0.5-1,0.6c-0.1,0-0.3,0.1-0.5,0.1
	c-0.2,0-0.3,0-0.5,0H291.8z M292.6,25.3h1.1c0.1,0,0.3,0,0.4,0c0.2,0,0.3,0,0.4-0.1c0.2-0.1,0.4-0.2,0.5-0.3
	c0.2-0.2,0.2-0.4,0.2-0.8c0-0.3-0.1-0.6-0.2-0.8c-0.2-0.2-0.4-0.3-0.6-0.3c-0.1,0-0.2,0-0.4,0c-0.1,0-0.3,0-0.4,0h-1.1V25.3z
	 M296.8,26v-5.9h0.8V26H296.8z"/>
<path class="st0" d="M194.3,44.3v-2c0.3,0,0.6-0.1,0.7-0.3c0.1-0.2,0.3-0.6,0.4-1.1c0.1-0.3,0.1-0.6,0.2-1c0-0.4,0.1-0.8,0.1-1.2
	c0-0.5,0.1-1,0.1-1.6h3.9v5.2h0.6v2h-0.8V43h-4.4v1.3H194.3z M195.7,42.3h3.2v-4.6h-2.4c0,0.3,0,0.6,0,0.9c0,0.3,0,0.6-0.1,0.9
	c0,0.3-0.1,0.6-0.1,0.9c0,0.3-0.1,0.5-0.1,0.7c-0.1,0.3-0.1,0.5-0.2,0.7C195.9,42,195.8,42.2,195.7,42.3z"/>
<path class="st0" d="M204,43.2c-0.5,0-1-0.1-1.4-0.4c-0.4-0.3-0.7-0.7-0.9-1.1c-0.2-0.5-0.3-1-0.3-1.6c0-0.6,0.1-1.1,0.3-1.6
	c0.2-0.5,0.5-0.8,0.9-1.1c0.4-0.3,0.9-0.4,1.4-0.4c0.5,0,1,0.1,1.4,0.4c0.4,0.3,0.7,0.6,0.9,1.1c0.2,0.5,0.3,1,0.3,1.6
	c0,0.6-0.1,1.1-0.3,1.6s-0.5,0.8-0.9,1.1C205,43,204.6,43.2,204,43.2z M201.3,45.6v-8.6h0.7v4.5h0.1v4.1H201.3z M203.9,42.4
	c0.4,0,0.8-0.1,1-0.3s0.5-0.5,0.6-0.9c0.1-0.4,0.2-0.8,0.2-1.2c0-0.4-0.1-0.9-0.2-1.2c-0.1-0.4-0.3-0.6-0.6-0.9
	c-0.3-0.2-0.6-0.3-1.1-0.3c-0.4,0-0.8,0.1-1,0.3c-0.3,0.2-0.5,0.5-0.6,0.8c-0.1,0.4-0.2,0.8-0.2,1.2c0,0.5,0.1,0.9,0.2,1.2
	c0.1,0.4,0.3,0.6,0.6,0.8C203.2,42.3,203.5,42.4,203.9,42.4z"/>
<path class="st0" d="M209.6,43.2c-0.4,0-0.8-0.1-1.1-0.2c-0.3-0.2-0.5-0.4-0.7-0.6c-0.1-0.3-0.2-0.6-0.2-0.9c0-0.3,0.1-0.6,0.2-0.8
	c0.1-0.2,0.3-0.4,0.5-0.6c0.2-0.1,0.5-0.3,0.8-0.3c0.3-0.1,0.6-0.1,1-0.2c0.4-0.1,0.7-0.1,1.1-0.1c0.4,0,0.7-0.1,0.9-0.1l-0.3,0.2
	c0-0.6-0.1-1-0.3-1.3c-0.2-0.3-0.7-0.4-1.2-0.4c-0.4,0-0.8,0.1-1,0.3c-0.3,0.2-0.5,0.5-0.6,0.9l-0.8-0.2c0.1-0.5,0.4-0.9,0.8-1.2
	c0.4-0.3,0.9-0.4,1.6-0.4c0.5,0,1,0.1,1.4,0.3c0.4,0.2,0.6,0.5,0.8,0.9c0.1,0.2,0.1,0.4,0.1,0.6c0,0.2,0,0.4,0,0.6V43h-0.7v-1.5
	l0.2,0.1c-0.2,0.5-0.5,0.9-0.9,1.2C210.7,43,210.2,43.2,209.6,43.2z M209.7,42.5c0.4,0,0.7-0.1,1-0.2c0.3-0.1,0.5-0.3,0.7-0.6
	c0.2-0.2,0.3-0.5,0.3-0.8c0-0.2,0.1-0.4,0.1-0.6c0-0.2,0-0.4,0-0.5l0.3,0.2c-0.3,0-0.6,0.1-0.9,0.1c-0.3,0-0.6,0.1-0.9,0.1
	c-0.3,0-0.6,0.1-0.8,0.2c-0.2,0-0.3,0.1-0.5,0.2c-0.2,0.1-0.3,0.2-0.4,0.3c-0.1,0.1-0.1,0.3-0.1,0.5c0,0.2,0,0.3,0.1,0.5
	c0.1,0.2,0.2,0.3,0.4,0.4C209.1,42.4,209.3,42.5,209.7,42.5z"/>
<path class="st0" d="M214,43v-5.9h4.1v0.8h-3.3V43H214z"/>
<path class="st0" d="M221.5,43.2c-0.6,0-1.1-0.1-1.5-0.4c-0.4-0.3-0.7-0.6-1-1.1c-0.2-0.5-0.3-1-0.3-1.6c0-0.6,0.1-1.2,0.3-1.6
	c0.2-0.5,0.6-0.8,1-1.1c0.4-0.3,0.9-0.4,1.5-0.4c0.6,0,1.1,0.1,1.5,0.4c0.4,0.3,0.7,0.6,1,1.1c0.2,0.5,0.3,1,0.3,1.6
	c0,0.6-0.1,1.2-0.3,1.6c-0.2,0.5-0.5,0.8-1,1.1C222.6,43,222.1,43.2,221.5,43.2z M221.5,42.4c0.7,0,1.2-0.2,1.5-0.7
	c0.3-0.4,0.5-1,0.5-1.7c0-0.7-0.2-1.3-0.5-1.7c-0.3-0.4-0.8-0.6-1.5-0.6c-0.4,0-0.8,0.1-1.1,0.3c-0.3,0.2-0.5,0.5-0.6,0.8
	c-0.1,0.4-0.2,0.8-0.2,1.2c0,0.7,0.2,1.3,0.5,1.7C220.3,42.2,220.8,42.4,221.5,42.4z"/>
<path class="st0" d="M230.6,44v-1h-5.1v-5.9h0.8v5.2h3.1v-5.2h0.8v5.2h1.2V44H230.6z"/>
<path class="st0" d="M234.8,43.2c-0.6,0-1.1-0.1-1.5-0.4c-0.4-0.3-0.8-0.6-1-1.1c-0.2-0.5-0.4-1-0.4-1.6c0-0.6,0.1-1.2,0.3-1.7
	s0.6-0.8,1-1.1c0.4-0.3,0.9-0.4,1.5-0.4c0.6,0,1.1,0.1,1.5,0.4c0.4,0.3,0.7,0.7,0.9,1.2c0.2,0.5,0.3,1.1,0.3,1.8h-0.8V40
	c0-0.8-0.2-1.4-0.5-1.7c-0.3-0.4-0.8-0.6-1.4-0.6c-0.6,0-1.1,0.2-1.5,0.6c-0.3,0.4-0.5,1-0.5,1.8c0,0.7,0.2,1.3,0.5,1.7
	c0.3,0.4,0.8,0.6,1.4,0.6c0.4,0,0.8-0.1,1.1-0.3c0.3-0.2,0.6-0.5,0.8-0.9l0.8,0.3c-0.2,0.5-0.6,0.9-1,1.2
	C235.9,43,235.4,43.2,234.8,43.2z M232.5,40.3v-0.7h4.5v0.7H232.5z"/>
<path class="st0" d="M238.7,43v-5.9h0.8v2.6h3.4v-2.6h0.8V43h-0.8v-2.6h-3.4V43H238.7z"/>
<path class="st0" d="M245.2,43v-5.9h0.8v2.6h3.3v-2.6h0.8V43h-0.8v-2.6H246V43H245.2z"/>
<path class="st0" d="M254.2,43.2c-0.6,0-1.1-0.1-1.5-0.4c-0.4-0.3-0.7-0.6-1-1.1c-0.2-0.5-0.3-1-0.3-1.6c0-0.6,0.1-1.2,0.3-1.6
	c0.2-0.5,0.5-0.8,1-1.1c0.4-0.3,0.9-0.4,1.5-0.4c0.6,0,1.1,0.1,1.5,0.4c0.4,0.3,0.7,0.6,1,1.1c0.2,0.5,0.3,1,0.3,1.6
	c0,0.6-0.1,1.2-0.3,1.6c-0.2,0.5-0.5,0.8-1,1.1C255.3,43,254.8,43.2,254.2,43.2z M254.2,42.4c0.7,0,1.2-0.2,1.5-0.7
	c0.3-0.4,0.5-1,0.5-1.7c0-0.7-0.2-1.3-0.5-1.7c-0.3-0.4-0.8-0.6-1.5-0.6c-0.4,0-0.8,0.1-1.1,0.3c-0.3,0.2-0.5,0.5-0.6,0.8
	c-0.1,0.4-0.2,0.8-0.2,1.2c0,0.7,0.2,1.3,0.5,1.7C253.1,42.2,253.6,42.4,254.2,42.4z"/>
<path class="st0" d="M258.2,43v-5.9h4.1v0.8H259V43H258.2z"/>
<path class="st0" d="M265.7,43.2c-0.6,0-1.1-0.1-1.5-0.4c-0.4-0.3-0.7-0.6-1-1.1c-0.2-0.5-0.3-1-0.3-1.6c0-0.6,0.1-1.2,0.3-1.6
	c0.2-0.5,0.5-0.8,1-1.1c0.4-0.3,0.9-0.4,1.5-0.4c0.6,0,1.1,0.1,1.5,0.4c0.4,0.3,0.7,0.6,1,1.1c0.2,0.5,0.3,1,0.3,1.6
	c0,0.6-0.1,1.2-0.3,1.6c-0.2,0.5-0.5,0.8-1,1.1S266.3,43.2,265.7,43.2z M265.7,42.4c0.7,0,1.2-0.2,1.5-0.7c0.3-0.4,0.5-1,0.5-1.7
	c0-0.7-0.2-1.3-0.5-1.7c-0.3-0.4-0.8-0.6-1.5-0.6c-0.4,0-0.8,0.1-1.1,0.3c-0.3,0.2-0.5,0.5-0.6,0.8c-0.1,0.4-0.2,0.8-0.2,1.2
	c0,0.7,0.2,1.3,0.5,1.7C264.6,42.2,265.1,42.4,265.7,42.4z"/>
<path class="st0" d="M271.9,43v-5.9h0.7l2.3,4.9l2.3-4.9h0.7V43h-0.8v-4.2l-2,4.2h-0.5l-2-4.2V43H271.9z"/>
<path class="st0" d="M282.1,43.2c-0.6,0-1.1-0.1-1.5-0.4c-0.4-0.3-0.8-0.6-1-1.1c-0.2-0.5-0.4-1-0.4-1.6c0-0.6,0.1-1.2,0.3-1.7
	c0.2-0.5,0.6-0.8,1-1.1c0.4-0.3,0.9-0.4,1.5-0.4c0.6,0,1.1,0.1,1.5,0.4c0.4,0.3,0.7,0.7,0.9,1.2c0.2,0.5,0.3,1.1,0.3,1.8h-0.8V40
	c0-0.8-0.2-1.4-0.5-1.7c-0.3-0.4-0.8-0.6-1.4-0.6c-0.6,0-1.1,0.2-1.5,0.6c-0.3,0.4-0.5,1-0.5,1.8c0,0.7,0.2,1.3,0.5,1.7
	c0.3,0.4,0.8,0.6,1.4,0.6c0.4,0,0.8-0.1,1.1-0.3c0.3-0.2,0.6-0.5,0.8-0.9l0.8,0.3c-0.2,0.5-0.6,0.9-1,1.2
	C283.2,43,282.6,43.2,282.1,43.2z M279.8,40.3v-0.7h4.5v0.7H279.8z"/>
<path class="st0" d="M287.5,43v-5.2h-2.1v-0.7h5v0.7h-2.1V43H287.5z"/>
<path class="st0" d="M293,43.2c-0.4,0-0.8-0.1-1.1-0.2c-0.3-0.2-0.5-0.4-0.7-0.6c-0.1-0.3-0.2-0.6-0.2-0.9c0-0.3,0.1-0.6,0.2-0.8
	c0.1-0.2,0.3-0.4,0.5-0.6c0.2-0.1,0.5-0.3,0.8-0.3c0.3-0.1,0.6-0.1,1-0.2c0.4-0.1,0.7-0.1,1.1-0.1c0.4,0,0.7-0.1,0.9-0.1l-0.3,0.2
	c0-0.6-0.1-1-0.3-1.3c-0.2-0.3-0.7-0.4-1.2-0.4c-0.4,0-0.8,0.1-1,0.3c-0.3,0.2-0.5,0.5-0.6,0.9l-0.8-0.2c0.1-0.5,0.4-0.9,0.8-1.2
	c0.4-0.3,0.9-0.4,1.6-0.4c0.5,0,1,0.1,1.4,0.3c0.4,0.2,0.7,0.5,0.8,0.9c0.1,0.2,0.1,0.4,0.1,0.6c0,0.2,0,0.4,0,0.6V43h-0.7v-1.5
	l0.2,0.1c-0.2,0.5-0.5,0.9-0.9,1.2C294.1,43,293.6,43.2,293,43.2z M293.1,42.5c0.4,0,0.7-0.1,1-0.2c0.3-0.1,0.5-0.3,0.7-0.6
	c0.2-0.2,0.3-0.5,0.3-0.8c0-0.2,0.1-0.4,0.1-0.6c0-0.2,0-0.4,0-0.5l0.3,0.2c-0.3,0-0.6,0.1-0.9,0.1c-0.3,0-0.6,0.1-0.9,0.1
	c-0.3,0-0.6,0.1-0.8,0.2c-0.2,0-0.3,0.1-0.5,0.2c-0.2,0.1-0.3,0.2-0.4,0.3c-0.1,0.1-0.1,0.3-0.1,0.5c0,0.2,0,0.3,0.1,0.5
	c0.1,0.2,0.2,0.3,0.4,0.4C292.5,42.4,292.7,42.5,293.1,42.5z"/>
<path class="st0" d="M296.8,43v-0.7c0.2,0,0.4,0,0.5,0c0.1-0.1,0.2-0.2,0.3-0.3c0.1-0.1,0.1-0.3,0.1-0.5c0.1-0.4,0.1-0.8,0.2-1.2
	c0-0.4,0.1-0.9,0.1-1.4c0-0.5,0.1-1.1,0.1-1.7h4V43h-0.8v-5.2h-2.5c0,0.4-0.1,0.8-0.1,1.2c0,0.4-0.1,0.8-0.1,1.1
	c0,0.4-0.1,0.7-0.1,1c0,0.3-0.1,0.6-0.1,0.8c-0.1,0.3-0.2,0.6-0.3,0.8c-0.1,0.2-0.3,0.3-0.5,0.4C297.5,43.1,297.2,43.1,296.8,43z"/>
<path class="st0" d="M303.2,43v-0.7c0.2,0,0.4,0,0.5,0c0.1-0.1,0.2-0.2,0.3-0.3c0.1-0.1,0.1-0.3,0.1-0.5c0.1-0.4,0.1-0.8,0.2-1.2
	c0-0.4,0.1-0.9,0.1-1.4c0-0.5,0.1-1.1,0.1-1.7h4V43h-0.8v-5.2h-2.5c0,0.4-0.1,0.8-0.1,1.2c0,0.4-0.1,0.8-0.1,1.1
	c0,0.4-0.1,0.7-0.1,1c0,0.3-0.1,0.6-0.1,0.8c-0.1,0.3-0.2,0.6-0.3,0.8c-0.1,0.2-0.3,0.3-0.5,0.4C303.8,43.1,303.5,43.1,303.2,43z"/>
<path class="st0" d="M311.7,43.2c-0.4,0-0.8-0.1-1.1-0.2c-0.3-0.2-0.5-0.4-0.7-0.6c-0.1-0.3-0.2-0.6-0.2-0.9c0-0.3,0.1-0.6,0.2-0.8
	c0.1-0.2,0.3-0.4,0.5-0.6c0.2-0.1,0.5-0.3,0.8-0.3c0.3-0.1,0.6-0.1,1-0.2c0.4-0.1,0.7-0.1,1.1-0.1c0.4,0,0.7-0.1,0.9-0.1l-0.3,0.2
	c0-0.6-0.1-1-0.3-1.3c-0.2-0.3-0.7-0.4-1.2-0.4c-0.4,0-0.8,0.1-1,0.3c-0.3,0.2-0.5,0.5-0.6,0.9l-0.8-0.2c0.1-0.5,0.4-0.9,0.8-1.2
	c0.4-0.3,0.9-0.4,1.6-0.4c0.5,0,1,0.1,1.4,0.3c0.4,0.2,0.6,0.5,0.8,0.9c0.1,0.2,0.1,0.4,0.1,0.6c0,0.2,0,0.4,0,0.6V43H314v-1.5
	l0.2,0.1c-0.2,0.5-0.5,0.9-0.9,1.2C312.8,43,312.3,43.2,311.7,43.2z M311.8,42.5c0.4,0,0.7-0.1,1-0.2c0.3-0.1,0.5-0.3,0.7-0.6
	c0.2-0.2,0.3-0.5,0.3-0.8c0-0.2,0.1-0.4,0.1-0.6c0-0.2,0-0.4,0-0.5l0.3,0.2c-0.3,0-0.6,0.1-0.9,0.1c-0.3,0-0.6,0.1-0.9,0.1
	c-0.3,0-0.6,0.1-0.8,0.2c-0.2,0-0.3,0.1-0.5,0.2c-0.2,0.1-0.3,0.2-0.4,0.3c-0.1,0.1-0.1,0.3-0.1,0.5c0,0.2,0,0.3,0.1,0.5
	c0.1,0.2,0.2,0.3,0.4,0.4C311.3,42.4,311.5,42.5,311.8,42.5z"/>
<path class="st0" d="M3.3,9.2c-0.5,0-1-0.1-1.4-0.2c-0.4-0.2-0.7-0.4-1-0.6C0.7,8,0.5,7.8,0.4,7.5L1.1,7c0.1,0.2,0.2,0.5,0.4,0.7
	C1.7,7.9,2,8.1,2.3,8.2c0.3,0.1,0.7,0.2,1.1,0.2c0.4,0,0.8-0.1,1.1-0.2C4.7,8,4.9,7.9,5.1,7.6c0.2-0.2,0.2-0.5,0.2-0.9
	c0-0.4-0.1-0.6-0.3-0.8C4.9,5.7,4.7,5.6,4.4,5.5c-0.3-0.1-0.6-0.1-1-0.1c-0.3,0-0.5,0-0.6,0c-0.1,0-0.2,0-0.2,0c0,0-0.1,0-0.1,0V4.5
	c0,0,0.1,0,0.2,0c0.1,0,0.2,0,0.4,0c0.1,0,0.2,0,0.3,0c0.5,0,0.9-0.2,1.2-0.4c0.3-0.2,0.5-0.6,0.5-1c0-0.5-0.2-0.8-0.5-1.1
	C4.3,1.8,3.9,1.7,3.3,1.7C2.9,1.7,2.5,1.8,2.2,2C1.8,2.3,1.6,2.6,1.4,2.9L0.7,2.4C0.9,2,1.3,1.6,1.8,1.3c0.5-0.3,1-0.4,1.6-0.4
	c0.3,0,0.7,0,1,0.1c0.3,0.1,0.6,0.2,0.8,0.4c0.2,0.2,0.4,0.4,0.6,0.7c0.1,0.3,0.2,0.6,0.2,1c0,0.4-0.1,0.8-0.3,1.1
	C5.4,4.5,5.2,4.8,4.9,4.9c0.4,0.1,0.7,0.3,0.9,0.6c0.2,0.3,0.3,0.7,0.3,1.2c0,0.5-0.1,0.9-0.4,1.3c-0.2,0.4-0.6,0.6-1,0.8
	C4.4,9.1,3.9,9.2,3.3,9.2z"/>
<path class="st0" d="M7.3,9V3.1h0.8v2.6h3.3V3.1h0.8V9h-0.8V6.4H8.1V9H7.3z"/>
<path class="st0" d="M15.5,9.2c-0.4,0-0.8-0.1-1.1-0.2c-0.3-0.2-0.5-0.4-0.7-0.6c-0.2-0.3-0.2-0.6-0.2-0.9c0-0.3,0.1-0.6,0.2-0.8
	C13.8,6.3,14,6.2,14.2,6c0.2-0.1,0.5-0.3,0.8-0.3c0.3-0.1,0.6-0.1,1-0.2c0.4-0.1,0.7-0.1,1.1-0.1c0.4,0,0.7-0.1,0.9-0.1l-0.3,0.2
	c0-0.6-0.1-1-0.3-1.3c-0.2-0.3-0.7-0.4-1.2-0.4c-0.4,0-0.8,0.1-1,0.3c-0.3,0.2-0.5,0.5-0.6,0.9l-0.8-0.2c0.1-0.5,0.4-0.9,0.8-1.2
	C15,3,15.5,2.9,16.1,2.9c0.5,0,1,0.1,1.4,0.3c0.4,0.2,0.7,0.5,0.8,0.9c0.1,0.2,0.1,0.4,0.1,0.6c0,0.2,0,0.4,0,0.6V9h-0.7V7.5L18,7.6
	c-0.2,0.5-0.5,0.9-0.9,1.2C16.6,9,16.1,9.2,15.5,9.2z M15.6,8.5c0.4,0,0.7-0.1,1-0.2c0.3-0.1,0.5-0.3,0.7-0.6
	c0.2-0.2,0.3-0.5,0.3-0.8c0-0.2,0.1-0.4,0.1-0.6c0-0.2,0-0.4,0-0.5L18,5.9C17.7,6,17.4,6,17.1,6c-0.3,0-0.6,0.1-0.9,0.1
	c-0.3,0-0.6,0.1-0.8,0.2c-0.2,0-0.3,0.1-0.5,0.2c-0.2,0.1-0.3,0.2-0.4,0.3c-0.1,0.1-0.1,0.3-0.1,0.5c0,0.2,0,0.3,0.1,0.5
	c0.1,0.2,0.2,0.3,0.4,0.4C15,8.4,15.3,8.5,15.6,8.5z"/>
<path class="st0" d="M19.9,9l0-5.9h0.8v2.9l2.7-2.9h1.1l-2.8,3l3.1,3h-1.2l-2.9-2.9V9H19.9z"/>
<path class="st0" d="M27.6,9V3.1h4.7V9h-0.8V3.8h-3.1V9H27.6z"/>
<path class="st0" d="M36.5,9.2c-0.5,0-1-0.1-1.4-0.4c-0.4-0.3-0.7-0.7-0.9-1.1C34.1,7.1,34,6.6,34,6c0-0.6,0.1-1.1,0.3-1.6
	c0.2-0.5,0.5-0.8,0.9-1.1C35.5,3,36,2.9,36.6,2.9c0.5,0,1,0.1,1.4,0.4c0.4,0.3,0.7,0.6,0.9,1.1c0.2,0.5,0.3,1,0.3,1.6
	c0,0.6-0.1,1.1-0.3,1.6S38.3,8.5,38,8.8C37.6,9,37.1,9.2,36.5,9.2z M33.9,11.6V3.1h0.7v4.5h0.1v4.1H33.9z M36.5,8.4
	c0.4,0,0.8-0.1,1-0.3c0.3-0.2,0.5-0.5,0.6-0.9c0.1-0.4,0.2-0.8,0.2-1.2c0-0.4-0.1-0.9-0.2-1.2C38,4.5,37.8,4.2,37.5,4
	c-0.3-0.2-0.6-0.3-1.1-0.3c-0.4,0-0.8,0.1-1,0.3c-0.3,0.2-0.5,0.5-0.6,0.8c-0.1,0.4-0.2,0.8-0.2,1.2c0,0.5,0.1,0.9,0.2,1.2
	c0.1,0.4,0.3,0.6,0.6,0.8C35.7,8.3,36,8.4,36.5,8.4z"/>
<path class="st0" d="M42.9,9.2c-0.6,0-1.1-0.1-1.5-0.4c-0.4-0.3-0.7-0.6-1-1.1C40.2,7.2,40,6.6,40,6c0-0.6,0.1-1.2,0.3-1.6
	c0.2-0.5,0.6-0.8,1-1.1c0.4-0.3,0.9-0.4,1.5-0.4c0.6,0,1.1,0.1,1.5,0.4c0.4,0.3,0.7,0.6,1,1.1c0.2,0.5,0.3,1,0.3,1.6
	c0,0.6-0.1,1.2-0.3,1.6c-0.2,0.5-0.5,0.8-1,1.1C43.9,9,43.4,9.2,42.9,9.2z M42.9,8.4c0.7,0,1.2-0.2,1.5-0.7c0.3-0.4,0.5-1,0.5-1.7
	c0-0.7-0.2-1.3-0.5-1.7c-0.3-0.4-0.8-0.6-1.5-0.6c-0.4,0-0.8,0.1-1.1,0.3c-0.3,0.2-0.5,0.5-0.6,0.8C41,5.2,40.9,5.6,40.9,6
	c0,0.7,0.2,1.3,0.5,1.7C41.7,8.2,42.2,8.4,42.9,8.4z"/>
<path class="st0" d="M49.3,9.2c-0.6,0-1-0.1-1.4-0.4c-0.4-0.2-0.7-0.6-0.9-1.1c-0.2-0.5-0.3-1.1-0.4-1.8c0-0.3,0-0.7,0-1
	c0-0.4,0.1-0.7,0.1-1.1c0.1-0.3,0.1-0.6,0.2-0.8c0.1-0.3,0.2-0.5,0.4-0.8c0.2-0.2,0.4-0.4,0.6-0.6c0.2-0.2,0.5-0.3,0.8-0.4
	c0.3-0.1,0.6-0.2,0.9-0.2c0.3,0,0.6-0.1,0.9-0.1c0.3,0,0.6-0.1,0.9-0.1l0.1,0.7c-0.2,0-0.4,0.1-0.7,0.1c-0.3,0-0.6,0.1-0.9,0.1
	c-0.3,0-0.6,0.1-0.9,0.2c-0.3,0.1-0.5,0.2-0.7,0.3c-0.3,0.2-0.5,0.5-0.7,0.8c-0.2,0.4-0.3,0.8-0.3,1.2c0.2-0.4,0.5-0.6,0.9-0.8
	c0.4-0.2,0.8-0.3,1.2-0.3c0.5,0,1,0.1,1.4,0.4c0.4,0.2,0.7,0.6,0.9,1c0.2,0.4,0.3,0.9,0.3,1.5c0,0.6-0.1,1.1-0.3,1.5
	c-0.2,0.4-0.6,0.8-1,1C50.3,9.1,49.8,9.2,49.3,9.2z M49.3,8.4c0.6,0,1.1-0.2,1.4-0.6c0.3-0.4,0.5-0.9,0.5-1.6c0-0.7-0.2-1.2-0.5-1.6
	c-0.3-0.4-0.8-0.6-1.4-0.6s-1.1,0.2-1.4,0.6c-0.3,0.4-0.5,0.9-0.5,1.6s0.2,1.2,0.5,1.6C48.2,8.2,48.7,8.4,49.3,8.4z"/>
<path class="st0" d="M58,3.1V9h-0.8V4.4L54,9h-0.7V3.1h0.8v4.6l3.3-4.6H58z"/>
<path class="st0" d="M62.2,9.2c-0.5,0-1-0.1-1.4-0.4c-0.4-0.3-0.7-0.7-0.9-1.1c-0.2-0.5-0.3-1-0.3-1.6c0-0.6,0.1-1.1,0.3-1.6
	c0.2-0.5,0.5-0.8,0.9-1.1c0.4-0.3,0.9-0.4,1.4-0.4c0.5,0,1,0.1,1.4,0.4s0.7,0.6,0.9,1.1c0.2,0.5,0.3,1,0.3,1.6
	c0,0.6-0.1,1.1-0.3,1.6S64,8.5,63.6,8.8C63.3,9,62.8,9.2,62.2,9.2z M59.6,11.6V3.1h0.7v4.5h0.1v4.1H59.6z M62.1,8.4
	c0.4,0,0.8-0.1,1-0.3c0.3-0.2,0.5-0.5,0.6-0.9C63.9,6.9,64,6.5,64,6c0-0.4-0.1-0.9-0.2-1.2c-0.1-0.4-0.3-0.6-0.6-0.9
	c-0.3-0.2-0.6-0.3-1.1-0.3c-0.4,0-0.8,0.1-1,0.3c-0.3,0.2-0.5,0.5-0.6,0.8c-0.1,0.4-0.2,0.8-0.2,1.2c0,0.5,0.1,0.9,0.2,1.2
	c0.1,0.4,0.3,0.6,0.6,0.8C61.4,8.3,61.7,8.4,62.1,8.4z"/>
<path class="st0" d="M66.1,9V3.1h0.8v2.6h3.3V3.1H71V9h-0.8V6.4h-3.3V9H66.1z"/>
<path class="st0" d="M75.1,9.2c-0.6,0-1.1-0.1-1.5-0.4c-0.4-0.3-0.7-0.6-1-1.1c-0.2-0.5-0.3-1-0.3-1.6c0-0.6,0.1-1.2,0.3-1.6
	c0.2-0.5,0.5-0.8,1-1.1C74,3,74.5,2.9,75.1,2.9c0.6,0,1.1,0.1,1.5,0.4c0.4,0.3,0.7,0.6,1,1.1c0.2,0.5,0.3,1,0.3,1.6
	c0,0.6-0.1,1.2-0.3,1.6c-0.2,0.5-0.5,0.8-1,1.1C76.1,9,75.6,9.2,75.1,9.2z M75.1,8.4c0.7,0,1.2-0.2,1.5-0.7C76.8,7.3,77,6.7,77,6
	c0-0.7-0.2-1.3-0.5-1.7c-0.3-0.4-0.8-0.6-1.5-0.6c-0.4,0-0.8,0.1-1.1,0.3c-0.3,0.2-0.5,0.5-0.6,0.8c-0.1,0.4-0.2,0.8-0.2,1.2
	c0,0.7,0.2,1.3,0.5,1.7C73.9,8.2,74.4,8.4,75.1,8.4z"/>
<path class="st0" d="M79.1,9V3.1h4.1v0.8h-3.3V9H79.1z"/>
<path class="st0" d="M86.6,9.2c-0.6,0-1.1-0.1-1.5-0.4c-0.4-0.3-0.7-0.6-1-1.1c-0.2-0.5-0.3-1-0.3-1.6c0-0.6,0.1-1.2,0.3-1.6
	c0.2-0.5,0.6-0.8,1-1.1C85.5,3,86,2.9,86.6,2.9c0.6,0,1.1,0.1,1.5,0.4c0.4,0.3,0.7,0.6,1,1.1c0.2,0.5,0.3,1,0.3,1.6
	c0,0.6-0.1,1.2-0.3,1.6c-0.2,0.5-0.5,0.8-1,1.1S87.2,9.2,86.6,9.2z M86.6,8.4c0.7,0,1.2-0.2,1.5-0.7c0.3-0.4,0.5-1,0.5-1.7
	c0-0.7-0.2-1.3-0.5-1.7c-0.3-0.4-0.8-0.6-1.5-0.6c-0.4,0-0.8,0.1-1.1,0.3c-0.3,0.2-0.5,0.5-0.6,0.8c-0.1,0.4-0.2,0.8-0.2,1.2
	c0,0.7,0.2,1.3,0.5,1.7C85.4,8.2,85.9,8.4,86.6,8.4z"/>
<path class="st0" d="M1.6,28.6l1.1-3.1l0,0.9l-2.6-6.4H1l2.1,5.3H2.8l2-5.3h0.8l-3.2,8.6H1.6z"/>
<path class="st0" d="M5.9,27.3v-2c0.3,0,0.6-0.1,0.7-0.3c0.1-0.2,0.3-0.6,0.4-1.1c0.1-0.3,0.1-0.6,0.2-1c0-0.4,0.1-0.8,0.1-1.2
	c0-0.5,0.1-1,0.1-1.6h3.9v5.2h0.6v2h-0.8V26H6.7v1.3H5.9z M7.3,25.3h3.2v-4.6H8.1c0,0.3,0,0.6,0,0.9c0,0.3,0,0.6-0.1,0.9
	c0,0.3-0.1,0.6-0.1,0.9c0,0.3-0.1,0.5-0.1,0.7c-0.1,0.3-0.1,0.5-0.2,0.7C7.5,25,7.4,25.2,7.3,25.3z"/>
<path class="st0" d="M15.2,26.2c-0.6,0-1.1-0.1-1.5-0.4c-0.4-0.3-0.7-0.6-1-1.1c-0.2-0.5-0.3-1-0.3-1.6c0-0.6,0.1-1.2,0.3-1.6
	c0.2-0.5,0.5-0.8,1-1.1c0.4-0.3,0.9-0.4,1.5-0.4c0.6,0,1.1,0.1,1.5,0.4c0.4,0.3,0.7,0.6,1,1.1c0.2,0.5,0.3,1,0.3,1.6
	c0,0.6-0.1,1.2-0.3,1.6c-0.2,0.5-0.5,0.8-1,1.1C16.3,26,15.8,26.2,15.2,26.2z M15.2,25.4c0.7,0,1.2-0.2,1.5-0.7
	c0.3-0.4,0.5-1,0.5-1.7c0-0.7-0.2-1.3-0.5-1.7c-0.3-0.4-0.8-0.6-1.5-0.6c-0.4,0-0.8,0.1-1.1,0.3c-0.3,0.2-0.5,0.5-0.6,0.8
	c-0.1,0.4-0.2,0.8-0.2,1.2c0,0.7,0.2,1.3,0.5,1.7C14.1,25.2,14.6,25.4,15.2,25.4z"/>
<path class="st0" d="M21.7,26.2c-0.6,0-1.1-0.1-1.5-0.4c-0.4-0.3-0.7-0.6-0.9-1.1c-0.2-0.5-0.3-1-0.3-1.6c0-0.6,0.1-1.2,0.3-1.6
	c0.2-0.5,0.5-0.8,1-1.1c0.4-0.3,0.9-0.4,1.5-0.4c0.6,0,1.1,0.1,1.6,0.4c0.4,0.3,0.8,0.7,0.9,1.2l-0.8,0.3c-0.1-0.4-0.4-0.6-0.7-0.8
	c-0.3-0.2-0.6-0.3-1-0.3c-0.4,0-0.8,0.1-1.1,0.3c-0.3,0.2-0.5,0.5-0.6,0.8c-0.1,0.4-0.2,0.8-0.2,1.2c0,0.7,0.2,1.3,0.5,1.7
	c0.3,0.4,0.8,0.6,1.4,0.6c0.4,0,0.7-0.1,1-0.3c0.3-0.2,0.5-0.5,0.6-0.8l0.8,0.2c-0.2,0.5-0.5,0.9-1,1.2C22.8,26,22.3,26.2,21.7,26.2
	z"/>
<path class="st0" d="M26.8,26v-5.2h-2.1v-0.7h5v0.7h-2.1V26H26.8z"/>
<path class="st0" d="M33.1,26.2c-0.6,0-1.1-0.1-1.5-0.4c-0.4-0.3-0.7-0.6-1-1.1c-0.2-0.5-0.3-1-0.3-1.6c0-0.6,0.1-1.2,0.3-1.6
	c0.2-0.5,0.6-0.8,1-1.1c0.4-0.3,0.9-0.4,1.5-0.4c0.6,0,1.1,0.1,1.5,0.4c0.4,0.3,0.7,0.6,1,1.1c0.2,0.5,0.3,1,0.3,1.6
	c0,0.6-0.1,1.2-0.3,1.6c-0.2,0.5-0.5,0.8-1,1.1C34.2,26,33.7,26.2,33.1,26.2z M33.1,25.4c0.7,0,1.2-0.2,1.5-0.7
	c0.3-0.4,0.5-1,0.5-1.7c0-0.7-0.2-1.3-0.5-1.7c-0.3-0.4-0.8-0.6-1.5-0.6c-0.4,0-0.8,0.1-1.1,0.3c-0.3,0.2-0.5,0.5-0.6,0.8
	c-0.1,0.4-0.2,0.8-0.2,1.2c0,0.7,0.2,1.3,0.5,1.7C32,25.2,32.5,25.4,33.1,25.4z"/>
<path class="st0" d="M37.1,26v-5.9h2.4c0.1,0,0.3,0,0.5,0c0.2,0,0.3,0,0.5,0.1c0.3,0.1,0.6,0.3,0.8,0.5c0.2,0.3,0.3,0.6,0.3,1
	c0,0.2,0,0.4-0.1,0.6c-0.1,0.2-0.2,0.3-0.3,0.4c-0.1,0.1-0.1,0.1-0.2,0.2c-0.1,0-0.1,0.1-0.2,0.1c0.1,0,0.2,0.1,0.4,0.2
	c0.2,0.1,0.4,0.3,0.5,0.5c0.1,0.2,0.2,0.5,0.2,0.8c0,0.4-0.1,0.7-0.3,1c-0.2,0.3-0.5,0.4-0.8,0.5c-0.1,0-0.3,0.1-0.5,0.1
	c-0.2,0-0.3,0-0.5,0H37.1z M38,25.3h1.9c0.1,0,0.2,0,0.3,0c0.1,0,0.2,0,0.3-0.1c0.2-0.1,0.4-0.2,0.5-0.3c0.1-0.2,0.2-0.4,0.2-0.6
	c0-0.3-0.1-0.5-0.2-0.6c-0.2-0.2-0.4-0.3-0.6-0.3c-0.1,0-0.2,0-0.3,0c-0.1,0-0.2,0-0.2,0H38V25.3z M38,22.7h1.7c0.1,0,0.2,0,0.3,0
	c0.1,0,0.2,0,0.3-0.1c0.2-0.1,0.3-0.2,0.4-0.3c0.1-0.2,0.1-0.3,0.1-0.5c0-0.2,0-0.4-0.1-0.5c-0.1-0.2-0.2-0.3-0.4-0.3
	c-0.1,0-0.3-0.1-0.4-0.1c-0.2,0-0.2,0-0.3,0H38V22.7z"/>
<path class="st0" d="M45.6,26.2c-0.6,0-1.1-0.1-1.5-0.4c-0.4-0.3-0.7-0.6-1-1.1c-0.2-0.5-0.4-1-0.4-1.6c0-0.6,0.1-1.2,0.3-1.7
	s0.6-0.8,1-1.1c0.4-0.3,0.9-0.4,1.5-0.4c0.6,0,1.1,0.1,1.5,0.4c0.4,0.3,0.7,0.7,0.9,1.2c0.2,0.5,0.3,1.1,0.3,1.8h-0.8V23
	c0-0.8-0.2-1.4-0.5-1.7c-0.3-0.4-0.8-0.6-1.4-0.6c-0.6,0-1.1,0.2-1.5,0.6c-0.3,0.4-0.5,1-0.5,1.8c0,0.7,0.2,1.3,0.5,1.7
	c0.3,0.4,0.8,0.6,1.4,0.6c0.4,0,0.8-0.1,1.1-0.3c0.3-0.2,0.6-0.5,0.8-0.9l0.8,0.3c-0.2,0.5-0.6,0.9-1,1.2
	C46.6,26,46.1,26.2,45.6,26.2z M43.3,23.3v-0.7h4.5v0.7H43.3z"/>
<path class="st0" d="M52.1,26.2c-0.5,0-1-0.1-1.4-0.4c-0.4-0.3-0.7-0.7-0.9-1.1c-0.2-0.5-0.3-1-0.3-1.6c0-0.6,0.1-1.1,0.3-1.6
	c0.2-0.5,0.5-0.8,0.9-1.1c0.4-0.3,0.9-0.4,1.4-0.4c0.5,0,1,0.1,1.4,0.4c0.4,0.3,0.7,0.6,0.9,1.1c0.2,0.5,0.3,1,0.3,1.6
	c0,0.6-0.1,1.1-0.3,1.6s-0.5,0.8-0.9,1.1C53.2,26,52.7,26.2,52.1,26.2z M49.5,28.6v-8.6h0.7v4.5h0.1v4.1H49.5z M52.1,25.4
	c0.4,0,0.8-0.1,1-0.3c0.3-0.2,0.5-0.5,0.6-0.9c0.1-0.4,0.2-0.8,0.2-1.2c0-0.4-0.1-0.9-0.2-1.2c-0.1-0.4-0.3-0.6-0.6-0.9
	c-0.3-0.2-0.6-0.3-1.1-0.3c-0.4,0-0.8,0.1-1,0.3c-0.3,0.2-0.5,0.5-0.6,0.8c-0.1,0.4-0.2,0.8-0.2,1.2c0,0.5,0.1,0.9,0.2,1.2
	c0.1,0.4,0.3,0.6,0.6,0.8C51.3,25.3,51.6,25.4,52.1,25.4z"/>
<path class="st0" d="M58.5,26.2c-0.6,0-1.1-0.1-1.5-0.4c-0.4-0.3-0.7-0.6-1-1.1c-0.2-0.5-0.4-1-0.4-1.6c0-0.6,0.1-1.2,0.3-1.7
	c0.2-0.5,0.6-0.8,1-1.1c0.4-0.3,0.9-0.4,1.5-0.4c0.6,0,1.1,0.1,1.5,0.4c0.4,0.3,0.7,0.7,0.9,1.2c0.2,0.5,0.3,1.1,0.3,1.8h-0.8V23
	c0-0.8-0.2-1.4-0.5-1.7c-0.3-0.4-0.8-0.6-1.4-0.6c-0.6,0-1.1,0.2-1.5,0.6c-0.3,0.4-0.5,1-0.5,1.8c0,0.7,0.2,1.3,0.5,1.7
	c0.3,0.4,0.8,0.6,1.4,0.6c0.4,0,0.8-0.1,1.1-0.3c0.3-0.2,0.6-0.5,0.8-0.9l0.8,0.3c-0.2,0.5-0.6,0.9-1,1.2
	C59.6,26,59.1,26.2,58.5,26.2z M56.2,23.3v-0.7h4.5v0.7H56.2z"/>
<path class="st0" d="M62.4,26v-5.9h0.8v2.6h3.3v-2.6h0.8V26h-0.8v-2.6h-3.3V26H62.4z"/>
<path class="st0" d="M73.6,20.1V26h-0.8v-4.6L69.6,26h-0.7v-5.9h0.8v4.6l3.3-4.6H73.6z"/>
<path class="st0" d="M78.9,26v-2.2h-1.4c-0.2,0-0.3,0-0.5,0c-0.2,0-0.3,0-0.5-0.1c-0.4-0.1-0.8-0.3-1.1-0.5
	c-0.3-0.3-0.4-0.7-0.4-1.2c0-0.5,0.1-0.9,0.4-1.2c0.3-0.3,0.6-0.5,1-0.6c0.2,0,0.4-0.1,0.5-0.1c0.2,0,0.3,0,0.5,0h2.3l0,5.9H78.9z
	 M74.9,26l1.7-2.5h0.9L75.7,26H74.9z M77.5,23.1h1.4v-2.3h-1.4c-0.1,0-0.2,0-0.4,0c-0.2,0-0.3,0-0.4,0.1c-0.1,0-0.2,0.1-0.4,0.2
	c-0.1,0.1-0.2,0.2-0.3,0.4c-0.1,0.1-0.1,0.3-0.1,0.5c0,0.3,0.1,0.5,0.2,0.7c0.2,0.2,0.4,0.3,0.6,0.4c0.1,0,0.3,0,0.4,0.1
	C77.3,23.1,77.4,23.1,77.5,23.1z"/>
<path class="st0" d="M184.7,109.9l2.6-0.2c0.2,1.3,0.6,2.2,1.3,2.8c0.7,0.6,1.5,0.9,2.5,0.9c1.2,0,2.2-0.4,3-1.3
	c0.8-0.9,1.2-2.1,1.2-3.6c0-1.4-0.4-2.5-1.2-3.3c-0.8-0.8-1.8-1.2-3.1-1.2c-0.8,0-1.5,0.2-2.1,0.5c-0.6,0.4-1.1,0.8-1.5,1.4
	l-2.3-0.3l1.9-10.3h10v2.4h-8l-1.1,5.4c1.2-0.8,2.5-1.3,3.8-1.3c1.8,0,3.2,0.6,4.4,1.8c1.2,1.2,1.8,2.8,1.8,4.7
	c0,1.8-0.5,3.4-1.6,4.7c-1.3,1.6-3,2.4-5.3,2.4c-1.8,0-3.3-0.5-4.5-1.5C185.6,112.9,184.9,111.6,184.7,109.9z"/>
<path class="st0" d="M204.1,104.3c-1-0.4-1.8-0.9-2.3-1.6c-0.5-0.7-0.7-1.5-0.7-2.5c0-1.5,0.5-2.7,1.6-3.7c1-1,2.4-1.5,4.2-1.5
	c1.8,0,3.2,0.5,4.2,1.5c1.1,1,1.6,2.2,1.6,3.7c0,0.9-0.2,1.7-0.7,2.4c-0.5,0.7-1.2,1.2-2.2,1.6c1.2,0.4,2.2,1,2.8,1.9
	c0.6,0.9,1,2,1,3.2c0,1.7-0.6,3.2-1.8,4.3c-1.2,1.2-2.8,1.8-4.8,1.8s-3.6-0.6-4.8-1.8c-1.2-1.2-1.8-2.6-1.8-4.4c0-1.3,0.3-2.4,1-3.3
	C202,105.2,202.9,104.6,204.1,104.3z M203.6,100.1c0,0.9,0.3,1.7,0.9,2.3c0.6,0.6,1.4,0.9,2.4,0.9c0.9,0,1.7-0.3,2.3-0.9
	c0.6-0.6,0.9-1.3,0.9-2.2c0-0.9-0.3-1.7-0.9-2.3c-0.6-0.6-1.4-0.9-2.3-0.9c-0.9,0-1.7,0.3-2.3,0.9
	C203.9,98.5,203.6,99.2,203.6,100.1z M202.8,109.3c0,0.7,0.2,1.4,0.5,2c0.3,0.7,0.8,1.2,1.5,1.5c0.7,0.4,1.4,0.5,2.1,0.5
	c1.2,0,2.1-0.4,2.9-1.1c0.8-0.8,1.1-1.7,1.1-2.9c0-1.2-0.4-2.2-1.2-2.9c-0.8-0.8-1.8-1.2-3-1.2c-1.2,0-2.1,0.4-2.9,1.1
	C203.2,107.2,202.8,108.2,202.8,109.3z"/>
<path class="st0" d="M215.9,109.9l2.6-0.2c0.2,1.3,0.6,2.2,1.3,2.8c0.7,0.6,1.5,0.9,2.5,0.9c1.2,0,2.2-0.4,3-1.3
	c0.8-0.9,1.2-2.1,1.2-3.6c0-1.4-0.4-2.5-1.2-3.3c-0.8-0.8-1.8-1.2-3.1-1.2c-0.8,0-1.5,0.2-2.1,0.5c-0.6,0.4-1.1,0.8-1.5,1.4
	l-2.3-0.3l1.9-10.3h10v2.4h-8l-1.1,5.4c1.2-0.8,2.5-1.3,3.8-1.3c1.8,0,3.2,0.6,4.4,1.8c1.2,1.2,1.8,2.8,1.8,4.7
	c0,1.8-0.5,3.4-1.6,4.7c-1.3,1.6-3,2.4-5.3,2.4c-1.8,0-3.3-0.5-4.5-1.5C216.7,112.9,216.1,111.6,215.9,109.9z"/>
<path class="st0" d="M83.1,140.2c-1.1,0-2.1-0.4-2.8-1.1c-0.2-0.2-0.4-0.5-0.5-0.7c-0.1-0.3-0.2-0.5-0.3-0.8c-0.1-0.3-0.1-0.6-0.1-1
	c0-0.3,0-0.7-0.1-1.1h-1.9v4.7h-1.6v-10.7h1.6v4.6h1.9c0-0.4,0-0.8,0.1-1.1c0-0.3,0.1-0.6,0.1-0.9c0.1-0.3,0.2-0.5,0.3-0.8
	c0.1-0.2,0.3-0.5,0.5-0.7c0.4-0.4,0.8-0.7,1.3-0.8c0.5-0.2,1-0.3,1.6-0.3c0.6,0,1.1,0.1,1.5,0.3c0.5,0.2,0.9,0.5,1.3,0.8
	c0.4,0.4,0.7,0.9,0.8,1.5c0.1,0.5,0.2,1.2,0.2,1.9v0.9c0,0.5,0,1,0,1.4c0,0.4-0.1,0.8-0.1,1.1s-0.2,0.7-0.3,0.9s-0.3,0.5-0.6,0.8
	C85.2,139.8,84.2,140.2,83.1,140.2z M83.1,138.5c0.3,0,0.6-0.1,0.9-0.2c0.3-0.1,0.5-0.3,0.7-0.5c0.2-0.2,0.3-0.3,0.3-0.5
	c0.1-0.2,0.1-0.4,0.2-0.6c0-0.2,0.1-0.5,0.1-0.8c0-0.3,0-0.6,0-1v-0.5c0-0.4,0-0.8,0-1.1c0-0.3-0.1-0.6-0.1-0.8
	c0-0.2-0.1-0.4-0.2-0.6c-0.1-0.2-0.2-0.3-0.3-0.4c-0.4-0.4-0.9-0.6-1.6-0.6c-0.3,0-0.6,0.1-0.9,0.2c-0.3,0.1-0.5,0.3-0.7,0.5
	c-0.3,0.3-0.4,0.6-0.5,1.1c-0.1,0.5-0.1,1.1-0.1,1.9v0.6c0,0.4,0,0.8,0,1.1c0,0.3,0.1,0.5,0.1,0.8c0,0.2,0.1,0.4,0.2,0.5
	c0.1,0.1,0.2,0.3,0.3,0.4c0.2,0.2,0.4,0.4,0.7,0.5C82.5,138.5,82.8,138.5,83.1,138.5z"/>
<path class="st0" d="M148.3,95.3c1.2-2.2,0-3.1-0.9-3.8c-0.6-0.5-1.1-1.2-1.6-1.8c-2-19.5-2.8-19.9-3.1-20.2
	c-0.4-0.2-1.1-0.7-7.6,4.3c-2.2,1.7-4.4,3.4-6.2,5c-3.1-1-6.3-1.4-9.5-1.1c-3.2,0.3-6.3,1.3-9.1,2.9c-7.5,4.2-13.2,11.3-14.5,18.2
	c-0.2,1.2-0.4,2.4-0.4,3.6c-0.9,0.1-1.7,0.5-2.4,1c-1.2,1-1.9,2.6-2.1,4.7c-0.3,4.4,3.4,8.5,4.7,9.8c-0.3,0.9-0.6,2.7,0.4,5.6
	c0.8,2.4,2.5,4.3,4.7,5.5c-0.3,1.6-0.2,3.3,0.4,4.8c0.6,1.5,1.6,2.9,2.8,3.9c2.8,2.2,6.7,2.8,9,2.8c0.6,0.1,1.2,0,1.8-0.3
	c0.5-0.5,0.7-1.7,0.5-3.1c-0.4-2.3-3.1-4.4-4.1-5.1c0-2-0.2-4.1-0.8-6c-0.3-1.1-0.7-2-1.4-2.9c-0.7-0.9-1.5-1.6-2.4-2.1
	c0.3-2.1,0.1-4.3-0.6-6.3c-0.7-1.8-2.3-2.9-3.8-4c-1-0.7-2-1.5-2.7-2.4c-0.2-0.3-0.5-0.6-0.7-1c-1-1-1.6-2.3-1.8-3.7
	c0.1-0.1,0.1-0.2,0.1-0.4c0-0.1-0.1-0.2-0.1-0.4c0-1.2,0.1-2.4,0.4-3.6c1.2-6.3,6.8-13.2,13.8-17.2c2.5-1.4,5.3-2.3,8.1-2.7
	c2.9-0.3,5.7-0.1,8.5,0.7c-1,0.9-1.8,1.7-2.5,2.4c-6.6,7-12.7,16.7-12.8,16.8c-0.1,0.2-0.1,0.4-0.1,0.5c0,0.2,0.2,0.3,0.3,0.4
	c0.2,0.1,0.3,0.1,0.5,0.1c0.2,0,0.3-0.1,0.5-0.3c0.1-0.1,6.2-9.7,12.6-16.6c4.5-4.8,13.5-11.4,15.7-12.4c0.6,2.1,1.6,10.7,2.5,18.6
	l-19.8,10.2c-0.1,0-0.2,0.1-0.3,0.2c-0.1,0.1-0.1,0.2-0.2,0.3c0,0.1-0.1,0.2-0.1,0.3c0,0.1,0,0.2,0.1,0.3c0.1,0.1,0.1,0.2,0.2,0.2
	c0.1,0.1,0.2,0.1,0.3,0.1c0.1,0,0.2,0,0.3,0c0.1,0,0.2-0.1,0.3-0.1l19.7-10.1c0.5,0.7,1,1.3,1.6,1.8c0.9,0.6,1.1,0.9,0.5,2
	c-0.5,0.8-1.2,1.4-2.1,1.8c-0.9,0.5-1.8,1.2-2.5,2c-1.5,1.8-2.9,3-3.9,3.4c-0.2,0.1-1.3,0.2-2.3,0.2c-5,0.4-14.3,1.2-15,5.3
	c-0.4,2.5,0.8,3.6,1.8,4.4c0.7,0.6,1.3,1.1,1.5,2.2c0,0.7,0,1.3-0.2,2c0,0.1,0,0.2,0,0.3c0,0.1,0.1,0.2,0.1,0.3
	c0.1,0.1,0.1,0.1,0.2,0.2c0.1,0.1,0.2,0.1,0.3,0.1h0.1c0.2,0,0.3-0.1,0.5-0.2c0.1-0.1,0.2-0.3,0.3-0.4c0.2-0.8,0.2-1.7,0.2-2.5
	c-0.1-0.6-0.3-1.2-0.7-1.7c-0.3-0.5-0.8-1-1.3-1.3c-0.9-0.8-1.6-1.4-1.3-3.1c0.5-3.1,10.1-3.8,13.7-4.1c0.9,0,1.8-0.1,2.6-0.3
	c1.7-0.6,3.6-2.7,4.6-3.8c0.4-0.4,0.8-0.8,1.3-1.2c0.1,2,0.1,4-0.1,5.9c-0.1,0.5-0.2,1.1-0.3,1.6c-0.6-0.4-1.3-0.7-2-0.9
	c-1.6-0.3-5,1-5.4,1.2c-0.1,0-0.2,0.1-0.3,0.1c-0.1,0.1-0.1,0.1-0.2,0.2c0,0.1-0.1,0.2-0.1,0.3s0,0.2,0.1,0.3c0,0.1,0.1,0.2,0.2,0.2
	c0.1,0.1,0.2,0.1,0.2,0.2c0.1,0,0.2,0.1,0.3,0.1c0.1,0,0.2,0,0.3-0.1c1.3-0.5,3.7-1.3,4.5-1.1c0.7,0.2,1.3,0.5,1.8,0.9l-0.2,0.8
	c-0.2,0.6-0.4,1.1-0.6,1.7l-7.9,3.3l0.6,0.8c0.5,0.5,1,0.9,1.7,1.2c0.5,0.2,1,0.4,1.6,0.5h0.1c0.2,0,0.4-0.1,0.5-0.2
	c0.1-0.1,0.2-0.3,0.2-0.5c0-0.2,0-0.4-0.1-0.5c-0.1-0.1-0.3-0.2-0.4-0.3c-0.4-0.1-0.8-0.2-1.2-0.4l-0.4-0.2l4.9-2.1
	c-0.1,0.5-0.1,1.1,0,1.7c0.3,2.7,1.2,5.2,2.8,7.4c0.2,0.3,0.4,0.6,0.6,1c-0.3,0.2-0.6,0.3-1,0.4c-0.9,0.3-2.1,0.6-2.6,2
	c-0.3,0.9-0.4,1.9-0.1,2.9c0,0.1,0.1,0.3,0.1,0.4c-0.5,0.1-1,0.1-1.5,0.2c-1.4,0.1-2.3,0.2-2.6,0.8c-0.4,0.7,0.3,1.4,1.1,2.1
	c0.4,0.3,0.7,0.7,1,1c-0.2,0.3-0.4,0.6-0.6,0.8c-0.4,0.4-0.8,0.9-1,1.4c-0.1,0.5-0.1,1,0.2,1.4c0.1,0.2,0.2,0.4,0.1,0.7
	c0,0.2-0.1,0.4-0.3,0.6c-0.6,0.6-5.7,0.2-8.6-1.2c-2.7-1.3-6.8-3.6-6.9-3.7c-0.2-0.1-0.4-0.1-0.6-0.1c-0.2,0-0.3,0.2-0.4,0.3
	c-0.1,0.2-0.1,0.4-0.1,0.6c0,0.2,0.2,0.3,0.3,0.4c0.1,0.1,2.4,1.4,4.8,2.6c-0.7,0.4-1.3,0.9-1.9,1.5c-0.6,0.8-1.2,1.7-1.6,2.6
	c-0.1,0.2-0.1,0.4,0,0.6c0.1,0.2,0.2,0.3,0.4,0.4c0.2,0.1,0.4,0.1,0.6,0c0.2-0.1,0.3-0.2,0.4-0.4c0.3-0.8,0.8-1.5,1.3-2.2
	c0.7-0.7,1.5-1.2,2.3-1.7l0.7,0.3c2.4,1,5,1.5,7.6,1.6c1.3,0,2.3-0.2,2.8-0.8c0.3-0.4,0.6-0.8,0.6-1.3c0.1-0.5,0-1-0.2-1.4
	c-0.1-0.1-0.1-0.2-0.1-0.4c0.2-0.3,0.4-0.6,0.7-0.9c0.4-0.4,0.8-0.9,1-1.4c0.3-0.9-0.6-1.7-1.4-2.4l-0.3-0.3c0.3,0,0.7-0.1,0.9-0.1
	c1.5-0.1,2.2-0.2,2.6-0.7c0.1-0.2,0.2-0.5,0.2-0.8c0-0.3,0-0.5-0.1-0.8c-0.2-0.7-0.2-1.4,0-2.1c0.2-0.6,0.8-0.8,1.7-1.1
	c0.7-0.1,1.4-0.5,1.8-1.1c0.5-0.8,0-1.5-0.6-2.5c-1.4-2-2.3-4.3-2.5-6.8c-0.1-1.5,0.1-3,0.8-4.4c0.1-0.3,0.2-0.6,0.3-0.9
	c0.1-0.1,0.2-0.3,0.2-0.5c0.3-0.9,0.5-1.7,0.6-2.6c0.2-2.3,0.2-4.7,0-7C147.1,96.8,147.8,96.1,148.3,95.3L148.3,95.3z M97.5,108
	c0.2,0.3,0.4,0.6,0.7,0.9c0.9,1.1,1.9,2,3.1,2.8c1.4,1,2.8,2,3.3,3.4c0.6,2,0.8,4.1,0.5,6.1l-0.1,0.6l0.5,0.2c0.9,0.4,1.6,1,2.2,1.8
	c0.6,0.7,1,1.6,1.3,2.5c0.5,2,0.8,4,0.7,6v0.4l0.3,0.2c1,0.6,3.5,2.7,3.8,4.4c0.1,0.5,0.1,1.1,0,1.6c-1.2,0.1-5.8,0-9-2.5
	c-1.1-0.9-2-2.1-2.5-3.5c-0.5-1.4-0.5-2.8-0.2-4.2l0.2-0.6l-0.6-0.3c-2.1-1-3.7-2.7-4.5-4.9c-1.1-3.3-0.3-4.9-0.3-4.9l0.3-0.5
	l-0.4-0.4c-0.1,0-4.9-4.5-4.6-8.9c0.1-1.7,0.6-2.9,1.5-3.7c0.5-0.4,1-0.6,1.6-0.7C95.8,105.3,96.4,106.8,97.5,108L97.5,108z"/>
<path class="st0" d="M119.3,118.7c-1.6-0.9-5.7-3.7-5.4-6c0.2-1.1,0.5-1.8,1.1-2.1c0.9-0.5,2.2,0,2.6,0.2c0.2,0.1,0.4,0.1,0.5,0
	c0.2-0.1,0.3-0.2,0.4-0.4c0.1-0.2,0.1-0.3,0-0.5c-0.1-0.2-0.2-0.3-0.3-0.4c-0.1,0-2.2-1.1-3.9-0.2c-1,0.5-1.6,1.6-1.9,3.1
	c-0.5,3.6,5.4,7.1,6.1,7.4c0.2,0.1,0.4,0.1,0.5,0c0.2-0.1,0.3-0.2,0.4-0.3c0.1-0.2,0.1-0.3,0.1-0.5
	C119.5,118.9,119.4,118.8,119.3,118.7L119.3,118.7z"/>
</svg>
