<?xml version="1.0" encoding="utf-8"?>
<!-- Generator: Adobe Illustrator 25.4.0, SVG Export Plug-In . SVG Version: 6.00 Build 0)  -->
<svg version="1.1" id="Слой_1" xmlns="http://www.w3.org/2000/svg" xmlns:xlink="http://www.w3.org/1999/xlink" x="0px" y="0px"
	 viewBox="0 0 480 148" style="enable-background:new 0 0 480 148;" xml:space="preserve">
<style type="text/css">
	.st0{fill:#071228;}
</style>
<path class="st0" d="M226.2,88.3c1.2-2.2,0-3.1-0.9-3.8c-0.6-0.5-1.1-1.2-1.6-1.8c-2-19.5-2.8-19.9-3.1-20.2s-1.1-0.7-7.6,4.3
	c-2.2,1.7-4.4,3.4-6.2,5c-3.1-1-6.3-1.4-9.5-1.1c-3.2,0.3-6.3,1.3-9.1,2.9c-7.5,4.2-13.2,11.3-14.5,18.2c-0.2,1.2-0.4,2.4-0.4,3.6
	c-0.9,0.1-1.7,0.5-2.4,1c-1.2,1-1.9,2.6-2.1,4.7c-0.3,4.4,3.4,8.5,4.7,9.8c-0.3,0.9-0.6,2.7,0.4,5.6c0.8,2.4,2.5,4.3,4.7,5.5
	c-0.3,1.6-0.2,3.3,0.4,4.8c0.6,1.5,1.6,2.9,2.8,3.9c2.8,2.2,6.7,2.8,9,2.8c0.6,0.1,1.2,0,1.8-0.3c0.5-0.5,0.7-1.7,0.5-3.1
	c-0.4-2.3-3.1-4.4-4.1-5.1c0-2-0.2-4.1-0.8-6c-0.3-1.1-0.7-2-1.4-2.9c-0.7-0.9-1.5-1.6-2.4-2.1c0.3-2.1,0.1-4.3-0.6-6.3
	c-0.7-1.8-2.3-2.9-3.8-4c-1-0.7-2-1.5-2.7-2.4c-0.2-0.3-0.5-0.6-0.7-1c-1-1-1.6-2.3-1.8-3.7c0.1-0.1,0.1-0.2,0.1-0.4
	c0-0.1-0.1-0.2-0.1-0.4c0-1.2,0.1-2.4,0.4-3.6c1.2-6.3,6.8-13.2,13.8-17.2c2.5-1.4,5.3-2.3,8.1-2.7c2.9-0.3,5.7-0.1,8.5,0.7
	c-1,0.9-1.8,1.7-2.5,2.4c-6.6,7-12.7,16.7-12.8,16.8c-0.1,0.2-0.1,0.4-0.1,0.5c0,0.2,0.2,0.3,0.3,0.4s0.3,0.1,0.5,0.1
	c0.2,0,0.3-0.1,0.5-0.3c0.1-0.1,6.2-9.7,12.6-16.6c4.5-4.8,13.5-11.4,15.7-12.4c0.6,2.1,1.6,10.7,2.5,18.6l-19.8,10.2
	c-0.1,0-0.2,0.1-0.3,0.2c-0.1,0.1-0.1,0.2-0.2,0.3c0,0.1-0.1,0.2-0.1,0.3c0,0.1,0,0.2,0.1,0.3c0,0.1,0.1,0.2,0.2,0.2
	c0.1,0.1,0.2,0.1,0.3,0.1c0.1,0,0.2,0,0.3,0c0.1,0,0.2-0.1,0.3-0.1l19.7-10.1c0.5,0.7,1,1.3,1.6,1.8c0.9,0.6,1.1,0.9,0.5,2
	c-0.5,0.8-1.2,1.4-2.1,1.8c-0.9,0.5-1.8,1.2-2.5,2c-1.5,1.8-2.9,3-3.9,3.4c-0.2,0.1-1.3,0.2-2.3,0.2c-5,0.4-14.3,1.2-15,5.3
	c-0.4,2.5,0.8,3.6,1.8,4.4c0.7,0.6,1.3,1.1,1.5,2.2c0,0.7,0,1.3-0.2,2c0,0.1,0,0.2,0,0.3s0.1,0.2,0.1,0.3c0.1,0.1,0.1,0.1,0.2,0.2
	c0.1,0.1,0.2,0.1,0.3,0.1h0.1c0.2,0,0.3-0.1,0.5-0.2c0.1-0.1,0.2-0.3,0.3-0.4c0.2-0.8,0.2-1.7,0.2-2.5c-0.1-0.6-0.3-1.2-0.7-1.7
	c-0.3-0.5-0.8-1-1.3-1.3c-0.9-0.8-1.6-1.4-1.3-3.1c0.5-3.1,10.1-3.8,13.7-4.1c0.9,0,1.8-0.1,2.6-0.3c1.7-0.6,3.6-2.7,4.6-3.8
	c0.4-0.4,0.8-0.8,1.3-1.2c0.1,2,0.1,4-0.1,5.9c-0.1,0.5-0.2,1.1-0.3,1.6c-0.6-0.4-1.3-0.7-2-0.9c-1.6-0.3-5,1-5.4,1.2
	c-0.1,0-0.2,0.1-0.3,0.1s-0.1,0.1-0.2,0.2c0,0.1-0.1,0.2-0.1,0.3c0,0.1,0,0.2,0.1,0.3c0,0.1,0.1,0.2,0.2,0.2
	c0.1,0.1,0.2,0.1,0.2,0.2c0.1,0,0.2,0.1,0.3,0.1c0.1,0,0.2,0,0.3-0.1c1.3-0.5,3.7-1.3,4.5-1.1c0.7,0.2,1.3,0.5,1.8,0.9l-0.2,0.8
	c-0.2,0.6-0.4,1.1-0.6,1.7l-7.9,3.3l0.6,0.8c0.5,0.5,1,0.9,1.7,1.2c0.5,0.2,1,0.4,1.6,0.5h0.1c0.2,0,0.4-0.1,0.5-0.2
	c0.1-0.1,0.2-0.3,0.2-0.5c0-0.2,0-0.4-0.1-0.5c-0.1-0.1-0.3-0.2-0.4-0.3c-0.4-0.1-0.8-0.2-1.2-0.4l-0.4-0.2l4.9-2.1
	c-0.1,0.5-0.1,1.1,0,1.7c0.3,2.7,1.2,5.2,2.8,7.4c0.2,0.3,0.4,0.6,0.6,1c-0.3,0.2-0.6,0.3-1,0.4c-0.9,0.3-2.1,0.6-2.6,2
	c-0.3,0.9-0.4,1.9-0.1,2.9c0,0.1,0.1,0.3,0.1,0.4c-0.5,0.1-1,0.1-1.5,0.2c-1.4,0.1-2.3,0.2-2.6,0.8c-0.4,0.7,0.3,1.4,1.1,2.1
	c0.4,0.3,0.7,0.7,1,1c-0.2,0.3-0.4,0.6-0.6,0.8c-0.4,0.4-0.8,0.9-1,1.4c-0.1,0.5-0.1,1,0.2,1.4c0.1,0.2,0.2,0.4,0.1,0.7
	c0,0.2-0.1,0.4-0.3,0.6c-0.6,0.6-5.7,0.2-8.6-1.2c-2.7-1.3-6.8-3.6-6.9-3.7c-0.2-0.1-0.4-0.1-0.6-0.1c-0.2,0-0.3,0.2-0.4,0.3
	c-0.1,0.2-0.1,0.4-0.1,0.6c0,0.2,0.2,0.3,0.3,0.4c0.1,0.1,2.4,1.4,4.8,2.6c-0.7,0.4-1.3,0.9-1.9,1.5c-0.6,0.8-1.2,1.7-1.6,2.6
	c-0.1,0.2-0.1,0.4,0,0.6c0.1,0.2,0.2,0.3,0.4,0.4c0.2,0.1,0.4,0.1,0.6,0c0.2-0.1,0.3-0.2,0.4-0.4c0.3-0.8,0.8-1.5,1.3-2.2
	c0.7-0.7,1.5-1.2,2.3-1.7l0.7,0.3c2.4,1,5,1.5,7.6,1.6c1.3,0,2.3-0.2,2.8-0.8c0.3-0.4,0.6-0.8,0.6-1.3c0.1-0.5,0-1-0.2-1.4
	c-0.1-0.1-0.1-0.2-0.1-0.4c0.2-0.3,0.4-0.6,0.7-0.9c0.4-0.4,0.8-0.9,1-1.4c0.3-0.9-0.6-1.7-1.4-2.4l-0.3-0.3c0.3,0,0.7-0.1,0.9-0.1
	c1.5-0.1,2.2-0.2,2.6-0.7c0.1-0.2,0.2-0.5,0.2-0.8c0-0.3,0-0.5-0.1-0.8c-0.2-0.7-0.2-1.4,0-2.1c0.2-0.6,0.8-0.8,1.7-1.1
	c0.7-0.1,1.4-0.5,1.8-1.1c0.5-0.8,0-1.5-0.6-2.5c-1.4-2-2.3-4.3-2.5-6.8c-0.1-1.5,0.1-3,0.8-4.4c0.1-0.3,0.2-0.6,0.3-0.9
	c0.1-0.1,0.2-0.3,0.2-0.5c0.3-0.9,0.5-1.7,0.6-2.6c0.2-2.3,0.2-4.7,0-7C225,89.8,225.7,89.1,226.2,88.3L226.2,88.3z M175.4,101
	c0.2,0.3,0.4,0.6,0.7,0.9c0.9,1.1,1.9,2,3.1,2.8c1.4,1,2.8,2,3.3,3.4c0.6,2,0.8,4.1,0.5,6.1l-0.1,0.6l0.5,0.2c0.9,0.4,1.6,1,2.2,1.8
	c0.6,0.7,1,1.6,1.3,2.5c0.5,2,0.8,4,0.7,6v0.4l0.3,0.2c1,0.6,3.5,2.7,3.8,4.4c0.1,0.5,0.1,1.1,0,1.6c-1.2,0.1-5.8,0-9-2.5
	c-1.1-0.9-2-2.1-2.5-3.5c-0.5-1.4-0.5-2.8-0.2-4.2l0.2-0.6l-0.6-0.3c-2.1-1-3.7-2.7-4.5-4.9c-1.1-3.3-0.3-4.9-0.3-4.9l0.3-0.5
	l-0.4-0.4c-0.1,0-4.9-4.5-4.6-8.9c0.1-1.7,0.6-2.9,1.5-3.7c0.5-0.4,1-0.6,1.6-0.7C173.6,98.3,174.3,99.8,175.4,101L175.4,101z"/>
<path class="st0" d="M197.2,111.7c-1.6-0.9-5.7-3.7-5.4-6c0.2-1.1,0.5-1.8,1.1-2.1c0.9-0.5,2.2,0,2.6,0.2c0.2,0.1,0.4,0.1,0.5,0
	c0.2-0.1,0.3-0.2,0.4-0.4c0.1-0.2,0.1-0.3,0-0.5c-0.1-0.2-0.2-0.3-0.3-0.4c-0.1,0-2.2-1.1-3.9-0.2c-1,0.5-1.7,1.6-1.9,3.1
	c-0.5,3.6,5.4,7.1,6.1,7.4c0.2,0.1,0.4,0.1,0.5,0c0.2-0.1,0.3-0.2,0.4-0.3c0.1-0.2,0.1-0.3,0.1-0.5
	C197.4,111.9,197.3,111.8,197.2,111.7L197.2,111.7z"/>
<g>
	<path class="st0" d="M330.2,77.2c-0.2-0.4-0.4-0.8-0.8-1.2c-0.3-0.3-0.7-0.6-1.2-0.8c-0.4-0.2-0.9-0.3-1.4-0.3l0,1v-1h-66.8
		c-1.3,0-2.5-0.3-3.6-1c-1.1-0.6-2-1.6-2.7-2.7l-10.3-17.8c-0.9-1.6-2.2-2.9-3.8-3.8c-1.6-0.9-3.3-1.4-5.2-1.4h-91.2
		c-0.6,0-1.2,0.1-1.7,0.3c-0.5,0.2-1,0.6-1.5,1c-0.4,0.4-0.7,0.9-1,1.5c-0.2,0.5-0.3,1.1-0.3,1.7v91.5c0,1.2,0.5,2.3,1.3,3.2
		c0.8,0.8,2,1.3,3.2,1.3h90.5c1.8,0,3.6-0.5,5.2-1.4c1.6-0.9,2.9-2.2,3.8-3.8l10.3-17.8l-0.9-0.5l0.9,0.5c0.6-1.1,1.6-2,2.7-2.7
		c1.1-0.6,2.4-1,3.6-1h67.5c1,0,1.8-0.4,2.5-1c0.7-0.7,1-1.6,1-2.5v-40C330.5,78.1,330.4,77.6,330.2,77.2z M327.5,118.5
		c0,0.2-0.1,0.3-0.2,0.4c-0.1,0.1-0.2,0.2-0.4,0.2h-66.7l0-0.1c-0.4,0.1-0.7,0.1-1.1,0.1c-0.3,0-0.6,0-0.9-0.1l0,0.2
		c-1.4,0.2-2.8,0.6-4,1.3c-1.3,0.7-2.4,1.7-3.2,2.9l0,0l-10.8,18.7c-0.6,1.1-1.6,2-2.7,2.7c-1.1,0.6-2.4,1-3.7,1h-90.5
		c-0.4,0-0.8-0.2-1-0.4c-0.3-0.3-0.4-0.7-0.4-1V52.8c0-0.2,0-0.4,0.1-0.6c0.1-0.2,0.2-0.3,0.3-0.5c0.1-0.1,0.3-0.2,0.5-0.3
		c0.2-0.1,0.4-0.1,0.6-0.1h91.2c1.3,0,2.5,0.3,3.7,1c1.1,0.6,2,1.6,2.7,2.7l10.2,17.7l0.1,0.4c0.2,0.1,0.3,0.3,0.5,0.4
		c0.1,0.1,0.2,0.1,0.2,0.2c0,0,0,0,0.1,0c0.4,0.4,0.8,0.9,1,1.4c0.6,0.3,1.1,0.6,1.5,1.1c0.2,0.1,0.3,0.2,0.5,0.3
		c1.3,0.7,2.7,1.2,4.1,1.3v0h67.8c0.1,0,0.1,0,0.2,0s0.1,0.1,0.2,0.1c0,0,0.1,0.1,0.1,0.2c0,0.1,0,0.1,0,0.2V118.5z"/>
	<path class="st0" d="M326.9,77L326.9,77L326.9,77z"/>
</g>
<path class="st0" d="M161,133.2c-1.1,0-2.1-0.4-2.8-1.1c-0.2-0.2-0.4-0.5-0.5-0.7c-0.1-0.3-0.2-0.5-0.3-0.8c-0.1-0.3-0.1-0.6-0.1-1
	c0-0.3,0-0.7-0.1-1.1h-1.9v4.7h-1.6v-10.7h1.6v4.6h1.9c0-0.4,0-0.8,0.1-1.1c0-0.3,0.1-0.6,0.1-0.9c0.1-0.3,0.2-0.5,0.3-0.8
	c0.1-0.2,0.3-0.5,0.5-0.7c0.4-0.4,0.8-0.7,1.3-0.9c0.5-0.2,1-0.3,1.6-0.3c0.6,0,1.1,0.1,1.5,0.3c0.5,0.2,0.9,0.5,1.3,0.9
	c0.4,0.4,0.7,0.9,0.8,1.5c0.1,0.5,0.2,1.2,0.2,1.9v0.9c0,0.5,0,1,0,1.4c0,0.4-0.1,0.8-0.1,1.1c-0.1,0.3-0.2,0.7-0.3,0.9
	c-0.1,0.3-0.3,0.5-0.6,0.8C163.1,132.8,162.1,133.2,161,133.2z M161,131.5c0.3,0,0.6-0.1,0.9-0.2c0.3-0.1,0.5-0.3,0.7-0.5
	c0.2-0.2,0.3-0.3,0.3-0.5c0.1-0.2,0.1-0.4,0.2-0.6c0-0.2,0.1-0.5,0.1-0.8c0-0.3,0-0.6,0-1v-0.5c0-0.4,0-0.8,0-1.1
	c0-0.3-0.1-0.6-0.1-0.8c0-0.2-0.1-0.4-0.2-0.6c-0.1-0.2-0.2-0.3-0.3-0.4c-0.4-0.4-0.9-0.6-1.6-0.6c-0.3,0-0.6,0.1-0.9,0.2
	c-0.3,0.1-0.5,0.3-0.7,0.5c-0.3,0.3-0.4,0.6-0.5,1.1c-0.1,0.5-0.1,1.1-0.1,1.9v0.6c0,0.4,0,0.8,0,1.1c0,0.3,0.1,0.5,0.1,0.8
	c0,0.2,0.1,0.4,0.2,0.5c0.1,0.1,0.2,0.3,0.3,0.4c0.2,0.2,0.4,0.4,0.7,0.5C160.4,131.5,160.7,131.5,161,131.5z"/>
<path class="st0" d="M262.7,103.5l2.8-0.2c0.2,1.3,0.7,2.4,1.4,3c0.8,0.7,1.7,1,2.7,1c1.3,0,2.3-0.5,3.2-1.4c0.9-1,1.3-2.2,1.3-3.8
	c0-1.5-0.4-2.7-1.3-3.6c-0.8-0.9-1.9-1.3-3.3-1.3c-0.9,0-1.6,0.2-2.3,0.6c-0.7,0.4-1.2,0.9-1.6,1.5l-2.5-0.3l2.1-11h10.7v2.5h-8.6
	l-1.2,5.8c1.3-0.9,2.6-1.3,4.1-1.3c1.9,0,3.5,0.6,4.7,1.9c1.3,1.3,1.9,3,1.9,5c0,1.9-0.6,3.6-1.7,5c-1.4,1.7-3.3,2.6-5.6,2.6
	c-2,0-3.6-0.5-4.8-1.6C263.6,106.8,262.9,105.3,262.7,103.5z"/>
<path class="st0" d="M283.5,97.5c-1.1-0.4-1.9-1-2.4-1.7c-0.5-0.7-0.8-1.6-0.8-2.7c0-1.6,0.6-2.9,1.7-3.9c1.1-1.1,2.6-1.6,4.5-1.6
	c1.9,0,3.4,0.5,4.5,1.6c1.1,1.1,1.7,2.4,1.7,4c0,1-0.3,1.9-0.8,2.6c-0.5,0.7-1.3,1.3-2.4,1.7c1.3,0.4,2.3,1.1,3,2.1
	c0.7,1,1,2.1,1,3.4c0,1.8-0.6,3.4-1.9,4.6c-1.3,1.2-3,1.9-5.1,1.9c-2.1,0-3.8-0.6-5.1-1.9c-1.3-1.3-1.9-2.8-1.9-4.7
	c0-1.4,0.4-2.6,1.1-3.5C281.2,98.5,282.2,97.8,283.5,97.5z M282.9,93c0,1,0.3,1.8,1,2.5c0.7,0.6,1.5,1,2.5,1c1,0,1.8-0.3,2.5-1
	c0.7-0.6,1-1.4,1-2.4c0-1-0.3-1.8-1-2.4c-0.7-0.7-1.5-1-2.5-1c-1,0-1.8,0.3-2.5,1C283.3,91.3,282.9,92.1,282.9,93z M282.1,102.9
	c0,0.8,0.2,1.5,0.5,2.2c0.4,0.7,0.9,1.2,1.6,1.6c0.7,0.4,1.5,0.6,2.3,0.6c1.3,0,2.3-0.4,3.1-1.2c0.8-0.8,1.2-1.8,1.2-3.1
	c0-1.3-0.4-2.3-1.3-3.1c-0.8-0.8-1.9-1.2-3.2-1.2c-1.2,0-2.3,0.4-3.1,1.2C282.5,100.7,282.1,101.7,282.1,102.9z"/>
<path class="st0" d="M296.1,103.5l2.8-0.2c0.2,1.3,0.7,2.4,1.4,3c0.8,0.7,1.7,1,2.7,1c1.3,0,2.3-0.5,3.2-1.4s1.3-2.2,1.3-3.8
	c0-1.5-0.4-2.7-1.3-3.6c-0.8-0.9-1.9-1.3-3.3-1.3c-0.8,0-1.6,0.2-2.3,0.6c-0.7,0.4-1.2,0.9-1.6,1.5l-2.5-0.3l2.1-11h10.7v2.5h-8.6
	l-1.2,5.8c1.3-0.9,2.6-1.3,4.1-1.3c1.9,0,3.5,0.6,4.7,1.9c1.3,1.3,1.9,3,1.9,5c0,1.9-0.6,3.6-1.7,5c-1.4,1.7-3.3,2.6-5.6,2.6
	c-2,0-3.5-0.5-4.8-1.6C297,106.8,296.3,105.3,296.1,103.5z"/>
<path class="st0" d="M0.8,98v-7.9h0.8v7.1h3v-7.1h0.8v7.1h3v-7.1h0.8V98H0.8z"/>
<path class="st0" d="M15.5,92.1V98h-0.8v-4.6L11.4,98h-0.7v-5.9h0.8v4.6l3.3-4.6H15.5z"/>
<path class="st0" d="M19.8,100.5v-2.4c-0.6,0.1-1.1,0-1.6-0.2c-0.5-0.2-0.9-0.6-1.1-1.1c-0.3-0.5-0.4-1.1-0.4-1.8s0.1-1.3,0.4-1.8
	c0.3-0.5,0.7-0.9,1.1-1.1c0.5-0.2,1-0.3,1.6-0.2v-1.8h0.7v1.8c0.6-0.1,1.1,0,1.6,0.2c0.5,0.2,0.9,0.6,1.1,1.1
	c0.3,0.5,0.4,1.1,0.4,1.8s-0.1,1.3-0.4,1.8c-0.3,0.5-0.7,0.8-1.1,1.1c-0.5,0.2-1,0.3-1.6,0.2v2.4H19.8z M19.8,97.4v-4.7
	c-0.3-0.1-0.6,0-0.9,0c-0.3,0.1-0.5,0.2-0.7,0.4c-0.2,0.2-0.4,0.4-0.5,0.8c-0.1,0.3-0.2,0.7-0.2,1.1c0,0.5,0.1,0.8,0.2,1.2
	c0.1,0.3,0.3,0.6,0.5,0.8c0.2,0.2,0.5,0.3,0.7,0.4C19.2,97.4,19.5,97.4,19.8,97.4z M20.6,97.4c0.3,0,0.6,0,0.9,0
	c0.3-0.1,0.5-0.2,0.7-0.4c0.2-0.2,0.4-0.4,0.5-0.8c0.1-0.3,0.2-0.7,0.2-1.2c0-0.5-0.1-0.8-0.2-1.2c-0.1-0.3-0.3-0.6-0.5-0.8
	c-0.2-0.2-0.5-0.3-0.7-0.4c-0.3-0.1-0.6-0.1-0.9,0V97.4z"/>
<path class="st0" d="M27.6,98.2c-0.5,0-1-0.1-1.4-0.4c-0.4-0.3-0.7-0.7-0.9-1.1c-0.2-0.5-0.3-1-0.3-1.6c0-0.6,0.1-1.1,0.3-1.6
	c0.2-0.5,0.5-0.8,0.9-1.1c0.4-0.3,0.9-0.4,1.4-0.4c0.5,0,1,0.1,1.4,0.4c0.4,0.3,0.7,0.6,0.9,1.1c0.2,0.5,0.3,1,0.3,1.6
	c0,0.6-0.1,1.1-0.3,1.6c-0.2,0.5-0.5,0.8-0.9,1.1C28.6,98,28.1,98.2,27.6,98.2z M24.9,100.6v-8.6h0.7v4.5h0.1v4.1H24.9z M27.5,97.4
	c0.4,0,0.8-0.1,1-0.3s0.5-0.5,0.6-0.9c0.1-0.4,0.2-0.8,0.2-1.2c0-0.4-0.1-0.9-0.2-1.2c-0.1-0.4-0.3-0.6-0.6-0.9
	c-0.3-0.2-0.6-0.3-1.1-0.3c-0.4,0-0.8,0.1-1,0.3c-0.3,0.2-0.5,0.5-0.6,0.8c-0.1,0.4-0.2,0.8-0.2,1.2c0,0.5,0.1,0.9,0.2,1.2
	c0.1,0.4,0.3,0.6,0.6,0.8C26.7,97.3,27.1,97.4,27.5,97.4z"/>
<path class="st0" d="M33.6,98v-7.9h5v0.8h-4.1V98H33.6z"/>
<path class="st0" d="M41.1,98.2c-0.6,0-1.1-0.1-1.5-0.4c-0.4-0.3-0.7-0.6-1-1.1c-0.2-0.5-0.3-1-0.3-1.6c0-0.6,0.1-1.2,0.3-1.6
	c0.2-0.5,0.5-0.8,1-1.1c0.4-0.3,0.9-0.4,1.5-0.4c0.6,0,1.1,0.1,1.5,0.4c0.4,0.3,0.7,0.6,1,1.1c0.2,0.5,0.3,1,0.3,1.6
	c0,0.6-0.1,1.2-0.3,1.6c-0.2,0.5-0.5,0.8-1,1.1S41.6,98.2,41.1,98.2z M41.1,97.4c0.7,0,1.2-0.2,1.5-0.7c0.3-0.4,0.5-1,0.5-1.7
	c0-0.7-0.2-1.3-0.5-1.7c-0.3-0.4-0.8-0.6-1.5-0.6c-0.4,0-0.8,0.1-1.1,0.3c-0.3,0.2-0.5,0.5-0.6,0.8c-0.1,0.4-0.2,0.8-0.2,1.2
	c0,0.7,0.2,1.3,0.5,1.7C39.9,97.2,40.4,97.4,41.1,97.4z"/>
<path class="st0" d="M47.6,98.2c-0.6,0-1.1-0.1-1.5-0.4c-0.4-0.3-0.7-0.6-0.9-1.1c-0.2-0.5-0.3-1-0.3-1.6c0-0.6,0.1-1.2,0.3-1.6
	c0.2-0.5,0.5-0.8,1-1.1c0.4-0.3,0.9-0.4,1.5-0.4c0.6,0,1.1,0.1,1.6,0.4c0.4,0.3,0.8,0.7,0.9,1.2l-0.8,0.3c-0.1-0.4-0.4-0.6-0.7-0.8
	c-0.3-0.2-0.6-0.3-1-0.3c-0.4,0-0.8,0.1-1.1,0.3c-0.3,0.2-0.5,0.5-0.6,0.8c-0.1,0.4-0.2,0.8-0.2,1.2c0,0.7,0.2,1.3,0.5,1.7
	c0.3,0.4,0.8,0.6,1.4,0.6c0.4,0,0.7-0.1,1-0.3c0.3-0.2,0.5-0.5,0.6-0.8l0.8,0.2c-0.2,0.5-0.5,0.9-1,1.2C48.7,98,48.1,98.2,47.6,98.2
	z"/>
<path class="st0" d="M51.8,100.6l1.1-3.1l0,0.9l-2.6-6.4h0.9l2.1,5.3H53l2-5.3h0.8l-3.2,8.6H51.8z"/>
<path class="st0" d="M56.1,99.3v-2c0.3,0,0.6-0.1,0.7-0.3c0.1-0.2,0.3-0.6,0.4-1.1c0.1-0.3,0.1-0.6,0.2-1c0-0.4,0.1-0.8,0.1-1.2
	c0-0.5,0.1-1,0.1-1.6h3.9v5.2H62v2h-0.8V98h-4.4v1.3H56.1z M57.5,97.3h3.2v-4.6h-2.4c0,0.3,0,0.6,0,0.9c0,0.3,0,0.6-0.1,0.9
	c0,0.3-0.1,0.6-0.1,0.9c0,0.3-0.1,0.5-0.1,0.7c-0.1,0.3-0.1,0.5-0.2,0.7C57.7,97,57.6,97.2,57.5,97.3z"/>
<path class="st0" d="M64.5,98.2c-0.4,0-0.8-0.1-1.1-0.2c-0.3-0.2-0.5-0.4-0.7-0.6c-0.2-0.3-0.2-0.6-0.2-0.9c0-0.3,0.1-0.6,0.2-0.8
	c0.1-0.2,0.3-0.4,0.5-0.6c0.2-0.1,0.5-0.3,0.8-0.3c0.3-0.1,0.6-0.1,1-0.2c0.4-0.1,0.7-0.1,1.1-0.1c0.4,0,0.7-0.1,0.9-0.1l-0.3,0.2
	c0-0.6-0.1-1-0.3-1.3c-0.2-0.3-0.7-0.4-1.2-0.4c-0.4,0-0.8,0.1-1,0.3c-0.3,0.2-0.5,0.5-0.6,0.9l-0.8-0.2c0.1-0.5,0.4-0.9,0.8-1.2
	c0.4-0.3,0.9-0.4,1.6-0.4c0.5,0,1,0.1,1.4,0.3c0.4,0.2,0.7,0.5,0.8,0.9c0.1,0.2,0.1,0.4,0.1,0.6c0,0.2,0,0.4,0,0.6V98h-0.7v-1.5
	l0.2,0.1c-0.2,0.5-0.5,0.9-0.9,1.2C65.6,98,65.1,98.2,64.5,98.2z M64.6,97.5c0.4,0,0.7-0.1,1-0.2c0.3-0.1,0.5-0.3,0.7-0.6
	c0.2-0.2,0.3-0.5,0.3-0.8c0-0.2,0.1-0.4,0.1-0.6c0-0.2,0-0.4,0-0.5l0.3,0.2c-0.3,0-0.6,0.1-0.9,0.1c-0.3,0-0.6,0.1-0.9,0.1
	c-0.3,0-0.6,0.1-0.8,0.2c-0.2,0-0.3,0.1-0.5,0.2c-0.2,0.1-0.3,0.2-0.4,0.3c-0.1,0.1-0.1,0.3-0.1,0.5c0,0.2,0,0.3,0.1,0.5
	c0.1,0.2,0.2,0.3,0.4,0.4C64,97.4,64.3,97.5,64.6,97.5z"/>
<path class="st0" d="M71.6,98.2c-0.5,0-1-0.1-1.4-0.4c-0.4-0.3-0.7-0.7-0.9-1.1c-0.2-0.5-0.3-1-0.3-1.6c0-0.6,0.1-1.1,0.3-1.6
	c0.2-0.5,0.5-0.8,0.9-1.1c0.4-0.3,0.9-0.4,1.4-0.4c0.5,0,1,0.1,1.4,0.4c0.4,0.3,0.7,0.6,0.9,1.1c0.2,0.5,0.3,1,0.3,1.6
	c0,0.6-0.1,1.1-0.3,1.6s-0.5,0.8-0.9,1.1C72.6,98,72.1,98.2,71.6,98.2z M68.9,100.6v-8.6h0.7v4.5h0.1v4.1H68.9z M71.5,97.4
	c0.4,0,0.8-0.1,1-0.3s0.5-0.5,0.6-0.9c0.1-0.4,0.2-0.8,0.2-1.2c0-0.4-0.1-0.9-0.2-1.2c-0.1-0.4-0.3-0.6-0.6-0.9
	c-0.3-0.2-0.6-0.3-1.1-0.3c-0.4,0-0.8,0.1-1,0.3c-0.3,0.2-0.5,0.5-0.6,0.8c-0.1,0.4-0.2,0.8-0.2,1.2c0,0.5,0.1,0.9,0.2,1.2
	c0.1,0.4,0.3,0.6,0.6,0.8C70.7,97.3,71.1,97.4,71.5,97.4z"/>
<path class="st0" d="M77.9,98.2c-0.6,0-1.1-0.1-1.5-0.4c-0.4-0.3-0.7-0.6-0.9-1.1c-0.2-0.5-0.3-1-0.3-1.6c0-0.6,0.1-1.2,0.3-1.6
	c0.2-0.5,0.5-0.8,1-1.1c0.4-0.3,0.9-0.4,1.5-0.4c0.6,0,1.1,0.1,1.6,0.4c0.4,0.3,0.8,0.7,0.9,1.2l-0.8,0.3c-0.1-0.4-0.4-0.6-0.7-0.8
	c-0.3-0.2-0.6-0.3-1-0.3c-0.4,0-0.8,0.1-1.1,0.3c-0.3,0.2-0.5,0.5-0.6,0.8C76,94.2,76,94.6,76,95c0,0.7,0.2,1.3,0.5,1.7
	c0.3,0.4,0.8,0.6,1.4,0.6c0.4,0,0.7-0.1,1-0.3c0.3-0.2,0.5-0.5,0.6-0.8l0.8,0.2c-0.2,0.5-0.5,0.9-1,1.2C79,98,78.5,98.2,77.9,98.2z"
	/>
<path class="st0" d="M83,98v-5.2h-2.1v-0.7h5v0.7h-2.1V98H83z"/>
<path class="st0" d="M86.9,98v-5.9h2.4c0.1,0,0.3,0,0.5,0c0.2,0,0.3,0,0.5,0.1c0.3,0.1,0.6,0.3,0.8,0.5c0.2,0.3,0.3,0.6,0.3,1
	c0,0.2,0,0.4-0.1,0.6c-0.1,0.2-0.2,0.3-0.3,0.4c-0.1,0.1-0.1,0.1-0.2,0.2c-0.1,0-0.1,0.1-0.2,0.1c0.1,0,0.2,0.1,0.4,0.2
	c0.2,0.1,0.4,0.3,0.5,0.5c0.1,0.2,0.2,0.5,0.2,0.8c0,0.4-0.1,0.7-0.3,1c-0.2,0.3-0.5,0.4-0.8,0.5c-0.1,0-0.3,0.1-0.5,0.1
	c-0.2,0-0.3,0-0.5,0H86.9z M87.8,97.3h1.9c0.1,0,0.2,0,0.3,0c0.1,0,0.2,0,0.3-0.1c0.2-0.1,0.4-0.2,0.5-0.3c0.1-0.2,0.2-0.4,0.2-0.6
	c0-0.3-0.1-0.5-0.2-0.6c-0.2-0.2-0.4-0.3-0.6-0.3c-0.1,0-0.2,0-0.3,0c-0.1,0-0.2,0-0.2,0h-1.8V97.3z M87.8,94.7h1.7
	c0.1,0,0.2,0,0.3,0c0.1,0,0.2,0,0.3-0.1c0.2-0.1,0.3-0.2,0.4-0.3c0.1-0.2,0.1-0.3,0.1-0.5c0-0.2,0-0.4-0.1-0.6
	c-0.1-0.2-0.2-0.3-0.4-0.3c-0.1,0-0.3-0.1-0.4-0.1c-0.2,0-0.2,0-0.3,0h-1.6V94.7z"/>
<path class="st0" d="M95.3,98.2c-0.6,0-1.1-0.1-1.5-0.4c-0.4-0.3-0.7-0.6-1-1.1c-0.2-0.5-0.4-1-0.4-1.6c0-0.6,0.1-1.2,0.3-1.7
	c0.2-0.5,0.6-0.8,1-1.1c0.4-0.3,0.9-0.4,1.5-0.4c0.6,0,1.1,0.1,1.5,0.4c0.4,0.3,0.7,0.7,0.9,1.2c0.2,0.5,0.3,1.1,0.3,1.8h-0.8V95
	c0-0.8-0.2-1.4-0.5-1.7c-0.3-0.4-0.8-0.6-1.4-0.6c-0.6,0-1.1,0.2-1.5,0.6c-0.3,0.4-0.5,1-0.5,1.8c0,0.7,0.2,1.3,0.5,1.7
	c0.3,0.4,0.8,0.6,1.4,0.6c0.4,0,0.8-0.1,1.1-0.3c0.3-0.2,0.6-0.5,0.8-0.9l0.8,0.3c-0.2,0.5-0.6,0.9-1,1.2
	C96.4,98,95.9,98.2,95.3,98.2z M93.1,95.3v-0.7h4.5v0.7H93.1z"/>
<path class="st0" d="M99.3,98v-5.9h0.8v2.6h3.3v-2.6h0.8V98h-0.8v-2.6h-3.3V98H99.3z"/>
<path class="st0" d="M105.8,98v-5.9h0.8v2.6h3.3v-2.6h0.8V98h-0.8v-2.6h-3.3V98H105.8z"/>
<path class="st0" d="M114.7,98.2c-0.6,0-1.1-0.1-1.5-0.4c-0.4-0.3-0.7-0.6-1-1.1c-0.2-0.5-0.3-1-0.3-1.6c0-0.6,0.1-1.2,0.3-1.6
	c0.2-0.5,0.5-0.8,1-1.1c0.4-0.3,0.9-0.4,1.5-0.4c0.6,0,1.1,0.1,1.5,0.4c0.4,0.3,0.7,0.6,1,1.1c0.2,0.5,0.3,1,0.3,1.6
	c0,0.6-0.1,1.2-0.3,1.6c-0.2,0.5-0.5,0.8-1,1.1C115.8,98,115.3,98.2,114.7,98.2z M114.7,97.4c0.7,0,1.2-0.2,1.5-0.7
	c0.3-0.4,0.5-1,0.5-1.7c0-0.7-0.2-1.3-0.5-1.7c-0.3-0.4-0.8-0.6-1.5-0.6c-0.4,0-0.8,0.1-1.1,0.3c-0.3,0.2-0.5,0.5-0.6,0.8
	c-0.1,0.4-0.2,0.8-0.2,1.2c0,0.7,0.2,1.3,0.5,1.7C113.6,97.2,114.1,97.4,114.7,97.4z"/>
<path class="st0" d="M121.2,91.4c-0.3,0-0.5-0.1-0.7-0.2c-0.2-0.1-0.4-0.3-0.5-0.5c-0.1-0.2-0.2-0.5-0.2-0.7h0.7
	c0,0.2,0.1,0.4,0.2,0.5c0.1,0.1,0.3,0.2,0.5,0.2c0.2,0,0.4-0.1,0.5-0.2c0.1-0.1,0.2-0.3,0.2-0.5h0.7c0,0.3-0.1,0.5-0.2,0.7
	c-0.1,0.2-0.3,0.4-0.5,0.5C121.7,91.3,121.5,91.4,121.2,91.4z M123.5,92.1V98h-0.8v-4.6l-3.3,4.6h-0.7v-5.9h0.8v4.6l3.3-4.6H123.5z"
	/>
<path class="st0" d="M5.5,109.1v5.9H4.7v-4.6L1.4,115H0.8v-5.9h0.8v4.6l3.3-4.6H5.5z"/>
<path class="st0" d="M7,115v-5.9h0.8v2.6h3.3v-2.6H12v5.9h-0.8v-2.6H7.8v2.6H7z"/>
<path class="st0" d="M16,115.2c-0.6,0-1.1-0.1-1.5-0.4c-0.4-0.3-0.7-0.6-0.9-1.1c-0.2-0.5-0.3-1-0.3-1.6c0-0.6,0.1-1.2,0.3-1.6
	c0.2-0.5,0.5-0.8,1-1.1c0.4-0.3,0.9-0.4,1.5-0.4c0.6,0,1.1,0.1,1.6,0.4c0.4,0.3,0.8,0.7,0.9,1.2l-0.8,0.3c-0.1-0.4-0.4-0.6-0.7-0.8
	c-0.3-0.2-0.6-0.3-1-0.3c-0.4,0-0.8,0.1-1.1,0.3c-0.3,0.2-0.5,0.5-0.6,0.8c-0.1,0.4-0.2,0.8-0.2,1.2c0,0.7,0.2,1.3,0.5,1.7
	c0.3,0.4,0.8,0.6,1.4,0.6c0.4,0,0.7-0.1,1-0.3c0.3-0.2,0.5-0.5,0.6-0.8l0.8,0.2c-0.2,0.5-0.5,0.9-1,1.2
	C17.1,115,16.6,115.2,16,115.2z"/>
<path class="st0" d="M19.6,115v-5.9h4.7v5.9h-0.8v-5.2h-3.1v5.2H19.6z"/>
<path class="st0" d="M28.4,115.2c-0.6,0-1.1-0.1-1.5-0.4c-0.4-0.3-0.7-0.6-1-1.1c-0.2-0.5-0.4-1-0.4-1.6c0-0.6,0.1-1.2,0.3-1.7
	c0.2-0.5,0.6-0.8,1-1.1c0.4-0.3,0.9-0.4,1.5-0.4c0.6,0,1.1,0.1,1.5,0.4c0.4,0.3,0.7,0.7,0.9,1.2c0.2,0.5,0.3,1.1,0.3,1.8h-0.8V112
	c0-0.8-0.2-1.4-0.5-1.7c-0.3-0.4-0.8-0.6-1.4-0.6c-0.6,0-1.1,0.2-1.5,0.6c-0.3,0.4-0.5,1-0.5,1.8c0,0.7,0.2,1.3,0.5,1.7
	c0.3,0.4,0.8,0.6,1.4,0.6c0.4,0,0.8-0.1,1.1-0.3c0.3-0.2,0.6-0.5,0.8-0.9l0.8,0.3c-0.2,0.5-0.6,0.9-1,1.2
	C29.5,115,29,115.2,28.4,115.2z M26.1,112.3v-0.7h4.5v0.7H26.1z"/>
<path class="st0" d="M32.3,115l0-5.9h0.8v2.9l2.7-2.9h1.1l-2.8,3l3.1,3H36l-2.9-2.9v2.9H32.3z"/>
<path class="st0" d="M42.9,116v-1h-5.1v-5.9h0.8v5.2h3.1v-5.2h0.8v5.2h1.2v1.8H42.9z"/>
<path class="st0" d="M49.3,109.1v5.9h-0.8v-4.6l-3.3,4.6h-0.7v-5.9h0.8v4.6l3.3-4.6H49.3z"/>
<path class="st0" d="M55.5,109.1v5.9h-0.8v-4.6l-3.3,4.6h-0.7v-5.9h0.8v4.6l3.3-4.6H55.5z"/>
<path class="st0" d="M59.3,115v-5.9H64v5.9h-0.8v-5.2h-3.1v5.2H59.3z"/>
<path class="st0" d="M68.2,115.2c-0.5,0-1-0.1-1.4-0.4c-0.4-0.3-0.7-0.7-0.9-1.1c-0.2-0.5-0.3-1-0.3-1.6c0-0.6,0.1-1.1,0.3-1.6
	c0.2-0.5,0.5-0.8,0.9-1.1c0.4-0.3,0.9-0.4,1.4-0.4c0.5,0,1,0.1,1.4,0.4c0.4,0.3,0.7,0.6,0.9,1.1c0.2,0.5,0.3,1,0.3,1.6
	c0,0.6-0.1,1.1-0.3,1.6s-0.5,0.8-0.9,1.1C69.3,115,68.8,115.2,68.2,115.2z M65.6,117.6v-8.6h0.7v4.5h0.1v4.1H65.6z M68.1,114.4
	c0.4,0,0.8-0.1,1-0.3c0.3-0.2,0.5-0.5,0.6-0.9c0.1-0.4,0.2-0.8,0.2-1.2c0-0.4-0.1-0.9-0.2-1.2c-0.1-0.4-0.3-0.6-0.6-0.9
	c-0.3-0.2-0.6-0.3-1.1-0.3c-0.4,0-0.8,0.1-1,0.3c-0.3,0.2-0.5,0.5-0.6,0.8c-0.1,0.4-0.2,0.8-0.2,1.2c0,0.5,0.1,0.9,0.2,1.2
	c0.1,0.4,0.3,0.6,0.6,0.8C67.4,114.3,67.7,114.4,68.1,114.4z"/>
<path class="st0" d="M74.5,115.2c-0.6,0-1.1-0.1-1.5-0.4c-0.4-0.3-0.7-0.6-1-1.1c-0.2-0.5-0.3-1-0.3-1.6c0-0.6,0.1-1.2,0.3-1.6
	c0.2-0.5,0.6-0.8,1-1.1c0.4-0.3,0.9-0.4,1.5-0.4c0.6,0,1.1,0.1,1.5,0.4c0.4,0.3,0.7,0.6,1,1.1c0.2,0.5,0.3,1,0.3,1.6
	c0,0.6-0.1,1.2-0.3,1.6c-0.2,0.5-0.5,0.8-1,1.1S75.1,115.2,74.5,115.2z M74.5,114.4c0.7,0,1.2-0.2,1.5-0.7c0.3-0.4,0.5-1,0.5-1.7
	c0-0.7-0.2-1.3-0.5-1.7c-0.3-0.4-0.8-0.6-1.5-0.6c-0.4,0-0.8,0.1-1.1,0.3c-0.3,0.2-0.5,0.5-0.6,0.8c-0.1,0.4-0.2,0.8-0.2,1.2
	c0,0.7,0.2,1.3,0.5,1.7C73.4,114.2,73.9,114.4,74.5,114.4z"/>
<path class="st0" d="M81,115.2c-0.6,0-1-0.1-1.4-0.4c-0.4-0.2-0.7-0.6-0.9-1.1c-0.2-0.5-0.3-1.1-0.4-1.8c0-0.3,0-0.7,0-1
	c0-0.4,0.1-0.7,0.1-1.1s0.1-0.6,0.2-0.8c0.1-0.3,0.2-0.5,0.4-0.8c0.2-0.2,0.4-0.4,0.6-0.6c0.2-0.2,0.5-0.3,0.8-0.4
	c0.3-0.1,0.6-0.2,0.9-0.2c0.3,0,0.6-0.1,0.9-0.1c0.3,0,0.6-0.1,0.9-0.1l0.1,0.7c-0.2,0-0.4,0.1-0.7,0.1c-0.3,0-0.6,0.1-0.9,0.1
	c-0.3,0-0.6,0.1-0.9,0.2c-0.3,0.1-0.5,0.2-0.7,0.3c-0.3,0.2-0.5,0.5-0.7,0.8c-0.2,0.4-0.3,0.8-0.3,1.2c0.2-0.4,0.5-0.6,0.9-0.8
	c0.4-0.2,0.8-0.3,1.2-0.3c0.5,0,1,0.1,1.4,0.4c0.4,0.2,0.7,0.6,0.9,1c0.2,0.4,0.3,0.9,0.3,1.5c0,0.6-0.1,1.1-0.3,1.5
	c-0.2,0.4-0.6,0.8-1,1C82,115.1,81.5,115.2,81,115.2z M81,114.4c0.6,0,1.1-0.2,1.4-0.6c0.3-0.4,0.5-0.9,0.5-1.6
	c0-0.7-0.2-1.2-0.5-1.6c-0.3-0.4-0.8-0.6-1.4-0.6c-0.6,0-1.1,0.2-1.4,0.6c-0.3,0.4-0.5,0.9-0.5,1.6c0,0.7,0.2,1.2,0.5,1.6
	C79.9,114.2,80.4,114.4,81,114.4z"/>
<path class="st0" d="M89.7,109.1v5.9h-0.8v-4.6l-3.3,4.6H85v-5.9h0.8v4.6l3.3-4.6H89.7z"/>
<path class="st0" d="M93.9,115.2c-0.5,0-1-0.1-1.4-0.4c-0.4-0.3-0.7-0.7-0.9-1.1c-0.2-0.5-0.3-1-0.3-1.6c0-0.6,0.1-1.1,0.3-1.6
	c0.2-0.5,0.5-0.8,0.9-1.1c0.4-0.3,0.9-0.4,1.4-0.4c0.5,0,1,0.1,1.4,0.4c0.4,0.3,0.7,0.6,0.9,1.1c0.2,0.5,0.3,1,0.3,1.6
	c0,0.6-0.1,1.1-0.3,1.6s-0.5,0.8-0.9,1.1C94.9,115,94.5,115.2,93.9,115.2z M91.2,117.6v-8.6H92v4.5h0.1v4.1H91.2z M93.8,114.4
	c0.4,0,0.8-0.1,1-0.3s0.5-0.5,0.6-0.9c0.1-0.4,0.2-0.8,0.2-1.2c0-0.4-0.1-0.9-0.2-1.2c-0.1-0.4-0.3-0.6-0.6-0.9
	c-0.3-0.2-0.6-0.3-1.1-0.3c-0.4,0-0.8,0.1-1,0.3c-0.3,0.2-0.5,0.5-0.6,0.8c-0.1,0.4-0.2,0.8-0.2,1.2c0,0.5,0.1,0.9,0.2,1.2
	c0.1,0.4,0.3,0.6,0.6,0.8C93.1,114.3,93.4,114.4,93.8,114.4z"/>
<path class="st0" d="M97.8,115v-5.9h0.8v2.6h3.3v-2.6h0.8v5.9h-0.8v-2.6h-3.3v2.6H97.8z"/>
<path class="st0" d="M106.7,115.2c-0.6,0-1.1-0.1-1.5-0.4c-0.4-0.3-0.7-0.6-1-1.1c-0.2-0.5-0.3-1-0.3-1.6c0-0.6,0.1-1.2,0.3-1.6
	c0.2-0.5,0.5-0.8,1-1.1c0.4-0.3,0.9-0.4,1.5-0.4c0.6,0,1.1,0.1,1.5,0.4c0.4,0.3,0.7,0.6,1,1.1c0.2,0.5,0.3,1,0.3,1.6
	c0,0.6-0.1,1.2-0.3,1.6c-0.2,0.5-0.5,0.8-1,1.1C107.8,115,107.3,115.2,106.7,115.2z M106.7,114.4c0.7,0,1.2-0.2,1.5-0.7
	c0.3-0.4,0.5-1,0.5-1.7c0-0.7-0.2-1.3-0.5-1.7c-0.3-0.4-0.8-0.6-1.5-0.6c-0.4,0-0.8,0.1-1.1,0.3c-0.3,0.2-0.5,0.5-0.6,0.8
	c-0.1,0.4-0.2,0.8-0.2,1.2c0,0.7,0.2,1.3,0.5,1.7C105.6,114.2,106.1,114.4,106.7,114.4z"/>
<path class="st0" d="M110.8,115v-5.9h4.1v0.8h-3.3v5.2H110.8z"/>
<path class="st0" d="M118.3,115.2c-0.6,0-1.1-0.1-1.5-0.4c-0.4-0.3-0.7-0.6-1-1.1c-0.2-0.5-0.3-1-0.3-1.6c0-0.6,0.1-1.2,0.3-1.6
	c0.2-0.5,0.5-0.8,1-1.1c0.4-0.3,0.9-0.4,1.5-0.4c0.6,0,1.1,0.1,1.5,0.4c0.4,0.3,0.7,0.6,1,1.1c0.2,0.5,0.3,1,0.3,1.6
	c0,0.6-0.1,1.2-0.3,1.6c-0.2,0.5-0.5,0.8-1,1.1C119.3,115,118.8,115.2,118.3,115.2z M118.3,114.4c0.7,0,1.2-0.2,1.5-0.7
	c0.3-0.4,0.5-1,0.5-1.7c0-0.7-0.2-1.3-0.5-1.7c-0.3-0.4-0.8-0.6-1.5-0.6c-0.4,0-0.8,0.1-1.1,0.3c-0.3,0.2-0.5,0.5-0.6,0.8
	c-0.1,0.4-0.2,0.8-0.2,1.2c0,0.7,0.2,1.3,0.5,1.7C117.1,114.2,117.6,114.4,118.3,114.4z"/>
<path class="st0" d="M0.8,132v-5.9h0.8v2.6h3.3v-2.6h0.8v5.9H4.9v-2.6H1.6v2.6H0.8z"/>
<path class="st0" d="M9,132.2c-0.4,0-0.8-0.1-1.1-0.2c-0.3-0.2-0.5-0.4-0.7-0.6c-0.2-0.3-0.2-0.6-0.2-0.9c0-0.3,0.1-0.6,0.2-0.8
	c0.1-0.2,0.3-0.4,0.5-0.6c0.2-0.1,0.5-0.3,0.8-0.3c0.3-0.1,0.6-0.1,1-0.2c0.4-0.1,0.7-0.1,1.1-0.1c0.4,0,0.7-0.1,0.9-0.1l-0.3,0.2
	c0-0.6-0.1-1-0.3-1.3c-0.2-0.3-0.7-0.4-1.2-0.4c-0.4,0-0.8,0.1-1,0.3c-0.3,0.2-0.5,0.5-0.6,0.9l-0.8-0.2c0.1-0.5,0.4-0.9,0.8-1.2
	c0.4-0.3,0.9-0.4,1.6-0.4c0.5,0,1,0.1,1.4,0.3c0.4,0.2,0.7,0.5,0.8,0.9c0.1,0.2,0.1,0.4,0.1,0.6c0,0.2,0,0.4,0,0.6v3.7h-0.7v-1.5
	l0.2,0.1c-0.2,0.5-0.5,0.9-0.9,1.2C10.1,132,9.6,132.2,9,132.2z M9.1,131.5c0.4,0,0.7-0.1,1-0.2c0.3-0.1,0.5-0.3,0.7-0.6
	c0.2-0.2,0.3-0.5,0.3-0.8c0-0.2,0.1-0.4,0.1-0.6c0-0.2,0-0.4,0-0.5l0.3,0.2c-0.3,0-0.6,0.1-0.9,0.1c-0.3,0-0.6,0.1-0.9,0.1
	c-0.3,0-0.6,0.1-0.8,0.2c-0.2,0-0.3,0.1-0.5,0.2c-0.2,0.1-0.3,0.2-0.4,0.3c-0.1,0.1-0.1,0.3-0.1,0.5c0,0.2,0,0.3,0.1,0.5
	c0.1,0.2,0.2,0.3,0.4,0.4C8.5,131.4,8.7,131.5,9.1,131.5z"/>
<path class="st0" d="M12.9,133.3v-2c0.3,0,0.6-0.1,0.7-0.3c0.1-0.2,0.3-0.6,0.4-1.1c0.1-0.3,0.1-0.6,0.2-1c0-0.4,0.1-0.8,0.1-1.2
	c0-0.5,0.1-1,0.1-1.6h3.9v5.2h0.6v2h-0.8V132h-4.4v1.3H12.9z M14.3,131.3h3.2v-4.6h-2.4c0,0.3,0,0.6,0,0.9c0,0.3,0,0.6-0.1,0.9
	c0,0.3-0.1,0.6-0.1,0.9c0,0.3-0.1,0.5-0.1,0.7c-0.1,0.3-0.1,0.5-0.2,0.7C14.5,131,14.4,131.2,14.3,131.3z"/>
<path class="st0" d="M22.1,132.2c-0.6,0-1.1-0.1-1.6-0.4c-0.4-0.3-0.8-0.6-1.1-1.1l0.6-0.4c0.2,0.4,0.5,0.6,0.8,0.8
	c0.3,0.2,0.7,0.3,1.1,0.3c0.4,0,0.8-0.1,1.1-0.3c0.3-0.2,0.4-0.5,0.4-0.8c0-0.2-0.1-0.4-0.2-0.6c-0.1-0.1-0.3-0.2-0.5-0.3
	c-0.2-0.1-0.5-0.1-0.8-0.1h-0.7v-0.7H22c0.4,0,0.7-0.1,1-0.2c0.3-0.2,0.4-0.4,0.4-0.7c0-0.3-0.1-0.6-0.4-0.7
	c-0.2-0.2-0.5-0.2-0.9-0.2c-0.4,0-0.7,0.1-1,0.2c-0.3,0.1-0.6,0.3-0.8,0.6l-0.5-0.5c0.3-0.3,0.6-0.6,1-0.7c0.4-0.2,0.8-0.3,1.3-0.3
	c0.4,0,0.7,0.1,1,0.2c0.3,0.1,0.6,0.3,0.7,0.6c0.2,0.3,0.3,0.6,0.3,0.9c0,0.3-0.1,0.6-0.2,0.9c-0.2,0.2-0.4,0.4-0.7,0.6l0-0.3
	c0.3,0,0.5,0.1,0.6,0.3c0.2,0.2,0.3,0.3,0.4,0.6s0.1,0.4,0.1,0.7c0,0.4-0.1,0.7-0.3,1c-0.2,0.3-0.5,0.5-0.8,0.6
	C22.9,132.1,22.5,132.2,22.1,132.2z"/>
<path class="st0" d="M28,132.2c-0.6,0-1.1-0.1-1.5-0.4c-0.4-0.3-0.7-0.6-1-1.1c-0.2-0.5-0.3-1-0.3-1.6c0-0.6,0.1-1.2,0.3-1.6
	c0.2-0.5,0.5-0.8,1-1.1c0.4-0.3,0.9-0.4,1.5-0.4c0.6,0,1.1,0.1,1.5,0.4c0.4,0.3,0.7,0.6,1,1.1c0.2,0.5,0.3,1,0.3,1.6
	c0,0.6-0.1,1.2-0.3,1.6c-0.2,0.5-0.5,0.8-1,1.1C29.1,132,28.6,132.2,28,132.2z M28,131.4c0.7,0,1.2-0.2,1.5-0.7
	c0.3-0.4,0.5-1,0.5-1.7c0-0.7-0.2-1.3-0.5-1.7c-0.3-0.4-0.8-0.6-1.5-0.6c-0.4,0-0.8,0.1-1.1,0.3c-0.3,0.2-0.5,0.5-0.6,0.8
	c-0.1,0.4-0.2,0.8-0.2,1.2c0,0.7,0.2,1.3,0.5,1.7C26.9,131.2,27.4,131.4,28,131.4z"/>
<path class="st0" d="M34.7,132.2c-0.5,0-1-0.1-1.4-0.4c-0.4-0.3-0.7-0.7-0.9-1.1c-0.2-0.5-0.3-1-0.3-1.6c0-0.6,0.1-1.1,0.3-1.6
	c0.2-0.5,0.5-0.8,0.9-1.1c0.4-0.3,0.9-0.4,1.4-0.4c0.5,0,1,0.1,1.4,0.4c0.4,0.3,0.7,0.6,0.9,1.1c0.2,0.5,0.3,1,0.3,1.6
	c0,0.6-0.1,1.1-0.3,1.6c-0.2,0.5-0.5,0.8-0.9,1.1C35.7,132,35.3,132.2,34.7,132.2z M32,134.6v-8.6h0.7v4.5h0.1v4.1H32z M34.6,131.4
	c0.4,0,0.8-0.1,1-0.3s0.5-0.5,0.6-0.9c0.1-0.4,0.2-0.8,0.2-1.2c0-0.4-0.1-0.9-0.2-1.2c-0.1-0.4-0.3-0.6-0.6-0.9
	c-0.3-0.2-0.6-0.3-1.1-0.3c-0.4,0-0.8,0.1-1,0.3c-0.3,0.2-0.5,0.5-0.6,0.8c-0.1,0.4-0.2,0.8-0.2,1.2c0,0.5,0.1,0.9,0.2,1.2
	c0.1,0.4,0.3,0.6,0.6,0.8C33.9,131.3,34.2,131.4,34.6,131.4z"/>
<path class="st0" d="M40.3,132.2c-0.4,0-0.8-0.1-1.1-0.2c-0.3-0.2-0.5-0.4-0.7-0.6c-0.2-0.3-0.2-0.6-0.2-0.9c0-0.3,0.1-0.6,0.2-0.8
	c0.1-0.2,0.3-0.4,0.5-0.6c0.2-0.1,0.5-0.3,0.8-0.3c0.3-0.1,0.6-0.1,1-0.2c0.4-0.1,0.7-0.1,1.1-0.1c0.4,0,0.7-0.1,0.9-0.1l-0.3,0.2
	c0-0.6-0.1-1-0.3-1.3c-0.2-0.3-0.7-0.4-1.2-0.4c-0.4,0-0.8,0.1-1,0.3c-0.3,0.2-0.5,0.5-0.6,0.9l-0.8-0.2c0.1-0.5,0.4-0.9,0.8-1.2
	c0.4-0.3,0.9-0.4,1.6-0.4c0.5,0,1,0.1,1.4,0.3c0.4,0.2,0.7,0.5,0.8,0.9c0.1,0.2,0.1,0.4,0.1,0.6c0,0.2,0,0.4,0,0.6v3.7h-0.7v-1.5
	l0.2,0.1c-0.2,0.5-0.5,0.9-0.9,1.2C41.4,132,40.9,132.2,40.3,132.2z M40.4,131.5c0.4,0,0.7-0.1,1-0.2c0.3-0.1,0.5-0.3,0.7-0.6
	c0.2-0.2,0.3-0.5,0.3-0.8c0-0.2,0.1-0.4,0.1-0.6c0-0.2,0-0.4,0-0.5l0.3,0.2c-0.3,0-0.6,0.1-0.9,0.1c-0.3,0-0.6,0.1-0.9,0.1
	c-0.3,0-0.6,0.1-0.8,0.2c-0.2,0-0.3,0.1-0.5,0.2c-0.2,0.1-0.3,0.2-0.4,0.3c-0.1,0.1-0.1,0.3-0.1,0.5c0,0.2,0,0.3,0.1,0.5
	c0.1,0.2,0.2,0.3,0.4,0.4C39.8,131.4,40,131.5,40.4,131.5z"/>
<path class="st0" d="M366,85v-1h-6.2v-7.9h0.8v7.2h4.5v-7.1h0.8v7.1h0.8V85H366z"/>
<path class="st0" d="M372.4,78.1V84h-0.8v-4.6l-3.3,4.6h-0.7v-5.9h0.8v4.6l3.3-4.6H372.4z"/>
<path class="st0" d="M376.7,86.5v-2.4c-0.6,0.1-1.1,0-1.6-0.2c-0.5-0.2-0.9-0.6-1.1-1.1c-0.3-0.5-0.4-1.1-0.4-1.8s0.1-1.3,0.4-1.8
	c0.3-0.5,0.7-0.9,1.1-1.1c0.5-0.2,1-0.3,1.6-0.2v-1.8h0.7v1.8c0.6-0.1,1.1,0,1.6,0.2c0.5,0.2,0.9,0.6,1.1,1.1
	c0.3,0.5,0.4,1.1,0.4,1.8s-0.1,1.3-0.4,1.8c-0.3,0.5-0.7,0.8-1.1,1.1c-0.5,0.2-1,0.3-1.6,0.2v2.4H376.7z M376.7,83.4v-4.7
	c-0.3-0.1-0.6,0-0.9,0c-0.3,0.1-0.5,0.2-0.7,0.4c-0.2,0.2-0.4,0.4-0.5,0.8c-0.1,0.3-0.2,0.7-0.2,1.1c0,0.5,0.1,0.8,0.2,1.2
	c0.1,0.3,0.3,0.6,0.5,0.8c0.2,0.2,0.5,0.3,0.7,0.4C376.2,83.4,376.4,83.4,376.7,83.4z M377.5,83.4c0.3,0,0.6,0,0.9,0
	c0.3-0.1,0.5-0.2,0.7-0.4c0.2-0.2,0.4-0.4,0.5-0.8c0.1-0.3,0.2-0.7,0.2-1.2c0-0.5-0.1-0.8-0.2-1.2c-0.1-0.3-0.3-0.6-0.5-0.8
	c-0.2-0.2-0.5-0.3-0.7-0.4c-0.3-0.1-0.6-0.1-0.9,0V83.4z"/>
<path class="st0" d="M384.5,84.2c-0.5,0-1-0.1-1.4-0.4c-0.4-0.3-0.7-0.7-0.9-1.1c-0.2-0.5-0.3-1-0.3-1.6c0-0.6,0.1-1.1,0.3-1.6
	c0.2-0.5,0.5-0.8,0.9-1.1c0.4-0.3,0.9-0.4,1.4-0.4c0.5,0,1,0.1,1.4,0.4c0.4,0.3,0.7,0.6,0.9,1.1c0.2,0.5,0.3,1,0.3,1.6
	c0,0.6-0.1,1.1-0.3,1.6c-0.2,0.5-0.5,0.8-0.9,1.1C385.5,84,385.1,84.2,384.5,84.2z M381.8,86.6v-8.6h0.7v4.5h0.1v4.1H381.8z
	 M384.4,83.4c0.4,0,0.8-0.1,1-0.3s0.5-0.5,0.6-0.9c0.1-0.4,0.2-0.8,0.2-1.2c0-0.4-0.1-0.9-0.2-1.2c-0.1-0.4-0.3-0.6-0.6-0.9
	c-0.3-0.2-0.6-0.3-1-0.3c-0.4,0-0.8,0.1-1,0.3c-0.3,0.2-0.5,0.5-0.6,0.8c-0.1,0.4-0.2,0.8-0.2,1.2c0,0.5,0.1,0.9,0.2,1.2
	c0.1,0.4,0.3,0.6,0.6,0.8C383.6,83.3,384,83.4,384.4,83.4z"/>
<path class="st0" d="M390.8,84.2c-0.6,0-1.1-0.1-1.5-0.4c-0.4-0.3-0.7-0.6-1-1.1c-0.2-0.5-0.3-1-0.3-1.6c0-0.6,0.1-1.2,0.3-1.6
	c0.2-0.5,0.5-0.8,1-1.1c0.4-0.3,0.9-0.4,1.5-0.4c0.6,0,1.1,0.1,1.5,0.4c0.4,0.3,0.7,0.6,1,1.1c0.2,0.5,0.3,1,0.3,1.6
	c0,0.6-0.1,1.2-0.3,1.6c-0.2,0.5-0.5,0.8-1,1.1S391.4,84.2,390.8,84.2z M390.8,83.4c0.7,0,1.2-0.2,1.5-0.7c0.3-0.4,0.5-1,0.5-1.7
	c0-0.7-0.2-1.3-0.5-1.7c-0.3-0.4-0.8-0.6-1.5-0.6c-0.4,0-0.8,0.1-1.1,0.3c-0.3,0.2-0.5,0.5-0.6,0.8c-0.1,0.4-0.2,0.8-0.2,1.2
	c0,0.7,0.2,1.3,0.5,1.7C389.7,83.2,390.2,83.4,390.8,83.4z"/>
<path class="st0" d="M394.8,84v-5.9h2.4c0.1,0,0.3,0,0.5,0c0.2,0,0.3,0,0.5,0.1c0.3,0.1,0.6,0.3,0.8,0.5c0.2,0.3,0.3,0.6,0.3,1
	c0,0.2,0,0.4-0.1,0.6c-0.1,0.2-0.2,0.3-0.3,0.4c-0.1,0.1-0.1,0.1-0.2,0.2c-0.1,0-0.1,0.1-0.2,0.1c0.1,0,0.2,0.1,0.4,0.2
	c0.2,0.1,0.4,0.3,0.5,0.5c0.1,0.2,0.2,0.5,0.2,0.8c0,0.4-0.1,0.7-0.3,1c-0.2,0.3-0.5,0.4-0.8,0.5c-0.1,0-0.3,0.1-0.5,0.1
	c-0.2,0-0.3,0-0.5,0H394.8z M395.7,83.3h1.9c0.1,0,0.2,0,0.3,0c0.1,0,0.2,0,0.3-0.1c0.2-0.1,0.4-0.2,0.5-0.3
	c0.1-0.2,0.2-0.4,0.2-0.6c0-0.3-0.1-0.5-0.2-0.6c-0.1-0.2-0.4-0.3-0.6-0.3c-0.1,0-0.2,0-0.3,0c-0.1,0-0.2,0-0.2,0h-1.8V83.3z
	 M395.7,80.7h1.7c0.1,0,0.2,0,0.3,0c0.1,0,0.2,0,0.3-0.1c0.2-0.1,0.3-0.2,0.4-0.3c0.1-0.2,0.1-0.3,0.1-0.5c0-0.2,0-0.4-0.1-0.6
	c-0.1-0.2-0.2-0.3-0.4-0.3c-0.1,0-0.3-0.1-0.4-0.1c-0.1,0-0.2,0-0.3,0h-1.6V80.7z"/>
<path class="st0" d="M403.2,84.2c-0.6,0-1.1-0.1-1.5-0.4c-0.4-0.3-0.7-0.6-1-1.1c-0.2-0.5-0.3-1-0.3-1.6c0-0.6,0.1-1.2,0.3-1.6
	c0.2-0.5,0.5-0.8,1-1.1c0.4-0.3,0.9-0.4,1.5-0.4c0.6,0,1.1,0.1,1.5,0.4c0.4,0.3,0.7,0.6,1,1.1c0.2,0.5,0.3,1,0.3,1.6
	c0,0.6-0.1,1.2-0.3,1.6c-0.2,0.5-0.5,0.8-1,1.1C404.3,84,403.8,84.2,403.2,84.2z M403.2,83.4c0.7,0,1.2-0.2,1.5-0.7
	c0.3-0.4,0.5-1,0.5-1.7c0-0.7-0.2-1.3-0.5-1.7c-0.3-0.4-0.8-0.6-1.5-0.6c-0.4,0-0.8,0.1-1.1,0.3c-0.3,0.2-0.5,0.5-0.6,0.8
	c-0.1,0.4-0.2,0.8-0.2,1.2c0,0.7,0.2,1.3,0.5,1.7C402.1,83.2,402.6,83.4,403.2,83.4z"/>
<path class="st0" d="M409.8,84.2c-0.6,0-1.1-0.1-1.5-0.4c-0.4-0.3-0.8-0.6-1-1.1c-0.2-0.5-0.4-1-0.4-1.6c0-0.6,0.1-1.2,0.3-1.7
	c0.2-0.5,0.6-0.8,1-1.1c0.4-0.3,0.9-0.4,1.5-0.4c0.6,0,1.1,0.1,1.5,0.4c0.4,0.3,0.7,0.7,0.9,1.2c0.2,0.5,0.3,1.1,0.3,1.8h-0.8V81
	c0-0.8-0.2-1.4-0.5-1.7c-0.3-0.4-0.8-0.6-1.4-0.6c-0.6,0-1.1,0.2-1.5,0.6c-0.3,0.4-0.5,1-0.5,1.8c0,0.7,0.2,1.3,0.5,1.7
	c0.3,0.4,0.8,0.6,1.4,0.6c0.4,0,0.8-0.1,1.1-0.3c0.3-0.2,0.6-0.5,0.8-0.9l0.8,0.3c-0.2,0.5-0.6,0.9-1,1.2
	C410.9,84,410.3,84.2,409.8,84.2z M407.5,81.3v-0.7h4.5v0.7H407.5z"/>
<path class="st0" d="M362.2,101.2c-0.6,0-1.1-0.1-1.5-0.4c-0.4-0.3-0.7-0.6-1-1.1c-0.2-0.5-0.3-1-0.3-1.6c0-0.6,0.1-1.2,0.3-1.6
	c0.2-0.5,0.5-0.8,1-1.1c0.4-0.3,0.9-0.4,1.5-0.4c0.6,0,1.1,0.1,1.5,0.4c0.4,0.3,0.7,0.6,1,1.1c0.2,0.5,0.3,1,0.3,1.6
	c0,0.6-0.1,1.2-0.3,1.6c-0.2,0.5-0.5,0.8-1,1.1S362.8,101.2,362.2,101.2z M362.2,100.4c0.7,0,1.2-0.2,1.5-0.7c0.3-0.4,0.5-1,0.5-1.7
	c0-0.7-0.2-1.3-0.5-1.7c-0.3-0.4-0.8-0.6-1.5-0.6c-0.4,0-0.8,0.1-1.1,0.3c-0.3,0.2-0.5,0.5-0.6,0.8c-0.1,0.4-0.2,0.8-0.2,1.2
	c0,0.7,0.2,1.3,0.5,1.7C361.1,100.2,361.6,100.4,362.2,100.4z"/>
<path class="st0" d="M368.7,101.2c-0.6,0-1-0.1-1.4-0.4c-0.4-0.2-0.7-0.6-0.9-1.1c-0.2-0.5-0.3-1.1-0.4-1.8c0-0.3,0-0.7,0-1
	c0-0.4,0.1-0.7,0.1-1.1c0.1-0.3,0.1-0.6,0.2-0.8c0.1-0.3,0.2-0.5,0.4-0.8c0.2-0.2,0.4-0.4,0.6-0.6c0.2-0.2,0.5-0.3,0.8-0.4
	c0.3-0.1,0.6-0.2,0.9-0.2c0.3,0,0.6-0.1,0.9-0.1c0.3,0,0.6-0.1,0.9-0.1l0.1,0.7c-0.2,0-0.4,0.1-0.7,0.1c-0.3,0-0.6,0.1-0.9,0.1
	c-0.3,0-0.6,0.1-0.9,0.2c-0.3,0.1-0.5,0.2-0.7,0.3c-0.3,0.2-0.5,0.5-0.7,0.8c-0.2,0.4-0.3,0.8-0.3,1.2c0.2-0.4,0.5-0.6,0.9-0.8
	c0.4-0.2,0.8-0.3,1.2-0.3c0.5,0,1,0.1,1.4,0.4c0.4,0.2,0.7,0.6,0.9,1c0.2,0.4,0.3,0.9,0.3,1.5c0,0.6-0.1,1.1-0.3,1.5
	c-0.2,0.4-0.6,0.8-1,1C369.7,101.1,369.2,101.2,368.7,101.2z M368.7,100.4c0.6,0,1.1-0.2,1.4-0.6c0.3-0.4,0.5-0.9,0.5-1.6
	c0-0.7-0.2-1.2-0.5-1.6c-0.3-0.4-0.8-0.6-1.4-0.6c-0.6,0-1.1,0.2-1.4,0.6c-0.3,0.4-0.5,0.9-0.5,1.6c0,0.7,0.2,1.2,0.5,1.6
	C367.6,100.2,368.1,100.4,368.7,100.4z"/>
<path class="st0" d="M375.2,101.2c-0.6,0-1.1-0.1-1.5-0.4c-0.4-0.3-0.7-0.6-1-1.1c-0.2-0.5-0.3-1-0.3-1.6c0-0.6,0.1-1.2,0.3-1.6
	c0.2-0.5,0.5-0.8,1-1.1c0.4-0.3,0.9-0.4,1.5-0.4c0.6,0,1.1,0.1,1.5,0.4c0.4,0.3,0.7,0.6,1,1.1c0.2,0.5,0.3,1,0.3,1.6
	c0,0.6-0.1,1.2-0.3,1.6c-0.2,0.5-0.5,0.8-1,1.1C376.3,101,375.8,101.2,375.2,101.2z M375.2,100.4c0.7,0,1.2-0.2,1.5-0.7
	c0.3-0.4,0.5-1,0.5-1.7c0-0.7-0.2-1.3-0.5-1.7c-0.3-0.4-0.8-0.6-1.5-0.6c-0.4,0-0.8,0.1-1.1,0.3c-0.3,0.2-0.5,0.5-0.6,0.8
	c-0.1,0.4-0.2,0.8-0.2,1.2c0,0.7,0.2,1.3,0.5,1.7C374,100.2,374.5,100.4,375.2,100.4z"/>
<path class="st0" d="M381.2,101.2c-0.6,0-1.1-0.1-1.6-0.4c-0.4-0.3-0.8-0.6-1-1.1l0.6-0.4c0.2,0.4,0.5,0.6,0.8,0.8
	c0.3,0.2,0.7,0.3,1.1,0.3c0.4,0,0.8-0.1,1.1-0.3c0.3-0.2,0.4-0.5,0.4-0.8c0-0.2-0.1-0.4-0.2-0.6c-0.1-0.1-0.3-0.2-0.5-0.3
	c-0.2-0.1-0.5-0.1-0.8-0.1h-0.7v-0.7h0.7c0.4,0,0.7-0.1,1-0.2c0.3-0.2,0.4-0.4,0.4-0.7c0-0.3-0.1-0.6-0.4-0.7
	c-0.2-0.2-0.5-0.2-0.9-0.2c-0.4,0-0.7,0.1-1,0.2c-0.3,0.1-0.6,0.3-0.8,0.6l-0.5-0.5c0.3-0.3,0.6-0.6,1-0.7c0.4-0.2,0.8-0.3,1.3-0.3
	c0.4,0,0.7,0.1,1,0.2c0.3,0.1,0.6,0.3,0.7,0.6c0.2,0.3,0.3,0.6,0.3,0.9c0,0.3-0.1,0.6-0.2,0.9c-0.2,0.2-0.4,0.4-0.7,0.6l0-0.3
	c0.3,0,0.5,0.2,0.6,0.3c0.2,0.2,0.3,0.3,0.4,0.6c0.1,0.2,0.1,0.4,0.1,0.7c0,0.4-0.1,0.7-0.3,1c-0.2,0.3-0.5,0.5-0.8,0.6
	C382,101.1,381.7,101.2,381.2,101.2z"/>
<path class="st0" d="M384.7,101v-5.9h0.8v2.6h3.4v-2.6h0.8v5.9h-0.8v-2.6h-3.4v2.6H384.7z"/>
<path class="st0" d="M392.9,101.2c-0.4,0-0.8-0.1-1.1-0.2c-0.3-0.2-0.5-0.4-0.7-0.6c-0.2-0.3-0.2-0.6-0.2-0.9c0-0.3,0.1-0.6,0.2-0.8
	c0.1-0.2,0.3-0.4,0.5-0.6c0.2-0.1,0.5-0.3,0.8-0.3c0.3-0.1,0.6-0.1,1-0.2c0.4-0.1,0.7-0.1,1.1-0.1c0.4,0,0.7-0.1,0.9-0.1l-0.3,0.2
	c0-0.6-0.1-1-0.3-1.3c-0.2-0.3-0.7-0.4-1.2-0.4c-0.4,0-0.8,0.1-1,0.3c-0.3,0.2-0.5,0.5-0.6,0.9l-0.8-0.2c0.1-0.5,0.4-0.9,0.8-1.2
	c0.4-0.3,0.9-0.4,1.6-0.4c0.5,0,1,0.1,1.4,0.3c0.4,0.2,0.7,0.5,0.8,0.9c0.1,0.2,0.1,0.4,0.1,0.6c0,0.2,0,0.4,0,0.6v3.7h-0.7v-1.5
	l0.2,0.1c-0.2,0.5-0.5,0.9-0.9,1.2C394,101,393.5,101.2,392.9,101.2z M393,100.5c0.4,0,0.7-0.1,1-0.2c0.3-0.1,0.5-0.3,0.7-0.6
	c0.2-0.2,0.3-0.5,0.3-0.8c0-0.2,0.1-0.4,0.1-0.6c0-0.2,0-0.4,0-0.5l0.3,0.2c-0.3,0-0.6,0.1-0.9,0.1c-0.3,0-0.6,0.1-0.9,0.1
	c-0.3,0-0.6,0.1-0.8,0.2c-0.2,0-0.3,0.1-0.5,0.2c-0.2,0.1-0.3,0.2-0.4,0.3c-0.1,0.1-0.1,0.3-0.1,0.5c0,0.2,0,0.3,0.1,0.5
	c0.1,0.2,0.2,0.3,0.4,0.4C392.4,100.4,392.6,100.5,393,100.5z"/>
<path class="st0" d="M400.9,101v-2.2c-0.2,0.1-0.4,0.2-0.7,0.3c-0.3,0.1-0.6,0.1-0.9,0.1c-0.6,0-1.1-0.1-1.5-0.4
	c-0.4-0.3-0.6-0.7-0.7-1.2c0-0.2-0.1-0.3-0.1-0.5c0-0.2,0-0.3,0-0.5c0-0.1,0-0.2,0-0.3v-1.3h0.8v1.3c0,0.1,0,0.3,0,0.4
	c0,0.2,0,0.3,0,0.5c0.1,0.4,0.2,0.7,0.5,0.9c0.3,0.2,0.6,0.3,1.1,0.3c0.3,0,0.6,0,0.8-0.1c0.3-0.1,0.5-0.2,0.7-0.3v-3h0.8v5.9H400.9
	z"/>
<path class="st0" d="M405.8,101.2c-0.6,0-1.1-0.1-1.5-0.4c-0.4-0.3-0.8-0.6-1-1.1c-0.2-0.5-0.4-1-0.4-1.6c0-0.6,0.1-1.2,0.3-1.7
	c0.2-0.5,0.6-0.8,1-1.1c0.4-0.3,0.9-0.4,1.5-0.4c0.6,0,1.1,0.1,1.5,0.4c0.4,0.3,0.7,0.7,0.9,1.2c0.2,0.5,0.3,1.1,0.3,1.8h-0.8V98
	c0-0.8-0.2-1.4-0.5-1.7c-0.3-0.4-0.8-0.6-1.4-0.6c-0.6,0-1.1,0.2-1.5,0.6c-0.3,0.4-0.5,1-0.5,1.8c0,0.7,0.2,1.3,0.5,1.7
	c0.3,0.4,0.8,0.6,1.4,0.6c0.4,0,0.8-0.1,1.1-0.3c0.3-0.2,0.6-0.5,0.8-0.9l0.8,0.3c-0.2,0.5-0.6,0.9-1,1.2
	C406.9,101,406.4,101.2,405.8,101.2z M403.5,98.3v-0.7h4.5v0.7H403.5z"/>
<path class="st0" d="M409.7,101v-5.9h0.8v2.6h3.3v-2.6h0.8v5.9h-0.8v-2.6h-3.3v2.6H409.7z"/>
<path class="st0" d="M420.9,95.1v5.9h-0.8v-4.6l-3.3,4.6h-0.7v-5.9h0.8v4.6l3.3-4.6H420.9z"/>
<path class="st0" d="M425,101.2c-0.6,0-1.1-0.1-1.5-0.4c-0.4-0.3-0.8-0.6-1-1.1c-0.2-0.5-0.4-1-0.4-1.6c0-0.6,0.1-1.2,0.3-1.7
	c0.2-0.5,0.6-0.8,1-1.1c0.4-0.3,0.9-0.4,1.5-0.4c0.6,0,1.1,0.1,1.5,0.4c0.4,0.3,0.7,0.7,0.9,1.2c0.2,0.5,0.3,1.1,0.3,1.8h-0.8V98
	c0-0.8-0.2-1.4-0.5-1.7c-0.3-0.4-0.8-0.6-1.4-0.6c-0.6,0-1.1,0.2-1.5,0.6c-0.3,0.4-0.5,1-0.5,1.8c0,0.7,0.2,1.3,0.5,1.7
	c0.3,0.4,0.8,0.6,1.4,0.6c0.4,0,0.8-0.1,1.1-0.3c0.3-0.2,0.6-0.5,0.8-0.9l0.8,0.3c-0.2,0.5-0.6,0.9-1,1.2
	C426.1,101,425.5,101.2,425,101.2z M422.7,98.3v-0.7h4.5v0.7H422.7z"/>
<path class="st0" d="M431.1,101v-5.9h4.7v5.9H435v-5.2h-3.1v5.2H431.1z"/>
<path class="st0" d="M440,101.2c-0.5,0-1-0.1-1.4-0.4c-0.4-0.3-0.7-0.7-0.9-1.1c-0.2-0.5-0.3-1-0.3-1.6c0-0.6,0.1-1.1,0.3-1.6
	c0.2-0.5,0.5-0.8,0.9-1.1c0.4-0.3,0.9-0.4,1.4-0.4c0.5,0,1,0.1,1.4,0.4c0.4,0.3,0.7,0.6,0.9,1.1c0.2,0.5,0.3,1,0.3,1.6
	c0,0.6-0.1,1.1-0.3,1.6c-0.2,0.5-0.5,0.8-0.9,1.1C441.1,101,440.6,101.2,440,101.2z M437.4,103.6v-8.6h0.7v4.5h0.1v4.1H437.4z
	 M439.9,100.4c0.4,0,0.8-0.1,1-0.3c0.3-0.2,0.5-0.5,0.6-0.9c0.1-0.4,0.2-0.8,0.2-1.2c0-0.4-0.1-0.9-0.2-1.2
	c-0.1-0.4-0.3-0.6-0.6-0.9c-0.3-0.2-0.6-0.3-1.1-0.3c-0.4,0-0.8,0.1-1,0.3c-0.3,0.2-0.5,0.5-0.6,0.8c-0.1,0.4-0.2,0.8-0.2,1.2
	c0,0.5,0.1,0.9,0.2,1.2c0.1,0.4,0.3,0.6,0.6,0.8C439.2,100.3,439.5,100.4,439.9,100.4z"/>
<path class="st0" d="M446.4,101.2c-0.6,0-1.1-0.1-1.5-0.4c-0.4-0.3-0.7-0.6-1-1.1c-0.2-0.5-0.3-1-0.3-1.6c0-0.6,0.1-1.2,0.3-1.6
	c0.2-0.5,0.5-0.8,1-1.1c0.4-0.3,0.9-0.4,1.5-0.4c0.6,0,1.1,0.1,1.5,0.4c0.4,0.3,0.7,0.6,1,1.1c0.2,0.5,0.3,1,0.3,1.6
	c0,0.6-0.1,1.2-0.3,1.6c-0.2,0.5-0.5,0.8-1,1.1C447.4,101,446.9,101.2,446.4,101.2z M446.4,100.4c0.7,0,1.2-0.2,1.5-0.7
	c0.3-0.4,0.5-1,0.5-1.7c0-0.7-0.2-1.3-0.5-1.7c-0.3-0.4-0.8-0.6-1.5-0.6c-0.4,0-0.8,0.1-1.1,0.3c-0.3,0.2-0.5,0.5-0.6,0.8
	c-0.1,0.4-0.2,0.8-0.2,1.2c0,0.7,0.2,1.3,0.5,1.7C445.2,100.2,445.7,100.4,446.4,100.4z"/>
<path class="st0" d="M452.8,101.2c-0.6,0-1-0.1-1.4-0.4c-0.4-0.2-0.7-0.6-0.9-1.1c-0.2-0.5-0.3-1.1-0.4-1.8c0-0.3,0-0.7,0-1
	c0-0.4,0.1-0.7,0.1-1.1c0.1-0.3,0.1-0.6,0.2-0.8c0.1-0.3,0.2-0.5,0.4-0.8c0.2-0.2,0.4-0.4,0.6-0.6c0.2-0.2,0.5-0.3,0.8-0.4
	c0.3-0.1,0.6-0.2,0.9-0.2c0.3,0,0.6-0.1,0.9-0.1c0.3,0,0.6-0.1,0.9-0.1l0.1,0.7c-0.2,0-0.4,0.1-0.7,0.1c-0.3,0-0.6,0.1-0.9,0.1
	c-0.3,0-0.6,0.1-0.9,0.2c-0.3,0.1-0.5,0.2-0.7,0.3c-0.3,0.2-0.5,0.5-0.7,0.8c-0.2,0.4-0.3,0.8-0.3,1.2c0.2-0.4,0.5-0.6,0.9-0.8
	c0.4-0.2,0.8-0.3,1.2-0.3c0.5,0,1,0.1,1.4,0.4c0.4,0.2,0.7,0.6,0.9,1c0.2,0.4,0.3,0.9,0.3,1.5c0,0.6-0.1,1.1-0.3,1.5
	c-0.2,0.4-0.6,0.8-1,1C453.8,101.1,453.3,101.2,452.8,101.2z M452.8,100.4c0.6,0,1.1-0.2,1.4-0.6c0.3-0.4,0.5-0.9,0.5-1.6
	c0-0.7-0.2-1.2-0.5-1.6c-0.3-0.4-0.8-0.6-1.4-0.6c-0.6,0-1.1,0.2-1.4,0.6c-0.3,0.4-0.5,0.9-0.5,1.6c0,0.7,0.2,1.2,0.5,1.6
	C451.7,100.2,452.2,100.4,452.8,100.4z"/>
<path class="st0" d="M456.8,101l0-5.9h0.8v2.2h1c0.2,0,0.3,0,0.5,0c0.2,0,0.3,0,0.4,0c0.3,0.1,0.6,0.2,0.8,0.3
	c0.2,0.1,0.4,0.3,0.5,0.6c0.1,0.2,0.2,0.5,0.2,0.9c0,0.5-0.1,0.9-0.4,1.2c-0.3,0.3-0.6,0.5-1,0.6c-0.1,0-0.3,0.1-0.5,0.1
	c-0.2,0-0.3,0-0.5,0H456.8z M457.6,100.3h1.1c0.1,0,0.3,0,0.4,0c0.2,0,0.3,0,0.4-0.1c0.2-0.1,0.4-0.2,0.5-0.3
	c0.2-0.2,0.2-0.4,0.2-0.8c0-0.3-0.1-0.6-0.2-0.8c-0.2-0.2-0.4-0.3-0.6-0.3c-0.1,0-0.2,0-0.4,0c-0.1,0-0.3,0-0.4,0h-1.1V100.3z
	 M461.8,101v-5.9h0.8v5.9H461.8z"/>
<path class="st0" d="M359.3,119.3v-2c0.3,0,0.6-0.1,0.7-0.3c0.1-0.2,0.3-0.6,0.4-1.1c0.1-0.3,0.1-0.6,0.2-1c0-0.4,0.1-0.8,0.1-1.2
	c0-0.5,0.1-1,0.1-1.6h3.9v5.2h0.6v2h-0.8V118h-4.4v1.3H359.3z M360.7,117.3h3.2v-4.6h-2.4c0,0.3,0,0.6,0,0.9c0,0.3,0,0.6-0.1,0.9
	c0,0.3-0.1,0.6-0.1,0.9c0,0.3-0.1,0.5-0.1,0.7c-0.1,0.3-0.1,0.5-0.2,0.7C360.9,117,360.8,117.2,360.7,117.3z"/>
<path class="st0" d="M369,118.2c-0.5,0-1-0.1-1.4-0.4c-0.4-0.3-0.7-0.7-0.9-1.1c-0.2-0.5-0.3-1-0.3-1.6c0-0.6,0.1-1.1,0.3-1.6
	c0.2-0.5,0.5-0.8,0.9-1.1c0.4-0.3,0.9-0.4,1.4-0.4c0.5,0,1,0.1,1.4,0.4c0.4,0.3,0.7,0.6,0.9,1.1c0.2,0.5,0.3,1,0.3,1.6
	c0,0.6-0.1,1.1-0.3,1.6c-0.2,0.5-0.5,0.8-0.9,1.1C370,118,369.6,118.2,369,118.2z M366.3,120.6v-8.6h0.7v4.5h0.1v4.1H366.3z
	 M368.9,117.4c0.4,0,0.8-0.1,1-0.3s0.5-0.5,0.6-0.9c0.1-0.4,0.2-0.8,0.2-1.2c0-0.4-0.1-0.9-0.2-1.2c-0.1-0.4-0.3-0.6-0.6-0.9
	c-0.3-0.2-0.6-0.3-1.1-0.3c-0.4,0-0.8,0.1-1,0.3c-0.3,0.2-0.5,0.5-0.6,0.8c-0.1,0.4-0.2,0.8-0.2,1.2c0,0.5,0.1,0.9,0.2,1.2
	c0.1,0.4,0.3,0.6,0.6,0.8C368.2,117.3,368.5,117.4,368.9,117.4z"/>
<path class="st0" d="M374.6,118.2c-0.4,0-0.8-0.1-1.1-0.2c-0.3-0.2-0.5-0.4-0.7-0.6c-0.2-0.3-0.2-0.6-0.2-0.9c0-0.3,0.1-0.6,0.2-0.8
	c0.1-0.2,0.3-0.4,0.5-0.6c0.2-0.1,0.5-0.3,0.8-0.3c0.3-0.1,0.6-0.1,1-0.2c0.4-0.1,0.7-0.1,1.1-0.1c0.4,0,0.7-0.1,0.9-0.1l-0.3,0.2
	c0-0.6-0.1-1-0.3-1.3c-0.2-0.3-0.7-0.4-1.2-0.4c-0.4,0-0.8,0.1-1,0.3c-0.3,0.2-0.5,0.5-0.6,0.9l-0.8-0.2c0.1-0.5,0.4-0.9,0.8-1.2
	c0.4-0.3,0.9-0.4,1.6-0.4c0.5,0,1,0.1,1.4,0.3c0.4,0.2,0.6,0.5,0.8,0.9c0.1,0.2,0.1,0.4,0.1,0.6c0,0.2,0,0.4,0,0.6v3.7h-0.7v-1.5
	l0.2,0.1c-0.2,0.5-0.5,0.9-0.9,1.2C375.7,118,375.2,118.2,374.6,118.2z M374.7,117.5c0.4,0,0.7-0.1,1-0.2c0.3-0.1,0.5-0.3,0.7-0.6
	c0.2-0.2,0.3-0.5,0.3-0.8c0-0.2,0.1-0.4,0.1-0.6c0-0.2,0-0.4,0-0.5l0.3,0.2c-0.3,0-0.6,0.1-0.9,0.1c-0.3,0-0.6,0.1-0.9,0.1
	c-0.3,0-0.6,0.1-0.8,0.2c-0.2,0-0.3,0.1-0.5,0.2c-0.2,0.1-0.3,0.2-0.4,0.3c-0.1,0.1-0.1,0.3-0.1,0.5c0,0.2,0,0.3,0.1,0.5
	c0.1,0.2,0.2,0.3,0.4,0.4C374.1,117.4,374.3,117.5,374.7,117.5z"/>
<path class="st0" d="M379,118v-5.9h4.1v0.8h-3.3v5.2H379z"/>
<path class="st0" d="M386.5,118.2c-0.6,0-1.1-0.1-1.5-0.4c-0.4-0.3-0.7-0.6-1-1.1c-0.2-0.5-0.3-1-0.3-1.6c0-0.6,0.1-1.2,0.3-1.6
	c0.2-0.5,0.6-0.8,1-1.1c0.4-0.3,0.9-0.4,1.5-0.4c0.6,0,1.1,0.1,1.5,0.4c0.4,0.3,0.7,0.6,1,1.1c0.2,0.5,0.3,1,0.3,1.6
	c0,0.6-0.1,1.2-0.3,1.6c-0.2,0.5-0.5,0.8-1,1.1C387.6,118,387,118.2,386.5,118.2z M386.5,117.4c0.7,0,1.2-0.2,1.5-0.7
	c0.3-0.4,0.5-1,0.5-1.7c0-0.7-0.2-1.3-0.5-1.7c-0.3-0.4-0.8-0.6-1.5-0.6c-0.4,0-0.8,0.1-1.1,0.3c-0.3,0.2-0.5,0.5-0.6,0.8
	c-0.1,0.4-0.2,0.8-0.2,1.2c0,0.7,0.2,1.3,0.5,1.7C385.3,117.2,385.8,117.4,386.5,117.4z"/>
<path class="st0" d="M395.6,119v-1h-5.1v-5.9h0.8v5.2h3.1v-5.2h0.8v5.2h1.2v1.8H395.6z"/>
<path class="st0" d="M399.8,118.2c-0.6,0-1.1-0.1-1.5-0.4c-0.4-0.3-0.8-0.6-1-1.1c-0.2-0.5-0.4-1-0.4-1.6c0-0.6,0.1-1.2,0.3-1.7
	c0.2-0.5,0.6-0.8,1-1.1c0.4-0.3,0.9-0.4,1.5-0.4c0.6,0,1.1,0.1,1.5,0.4c0.4,0.3,0.7,0.7,0.9,1.2c0.2,0.5,0.3,1.1,0.3,1.8h-0.8V115
	c0-0.8-0.2-1.4-0.5-1.7c-0.3-0.4-0.8-0.6-1.4-0.6c-0.6,0-1.1,0.2-1.5,0.6c-0.3,0.4-0.5,1-0.5,1.8c0,0.7,0.2,1.3,0.5,1.7
	c0.3,0.4,0.8,0.6,1.4,0.6c0.4,0,0.8-0.1,1.1-0.3c0.3-0.2,0.6-0.5,0.8-0.9l0.8,0.3c-0.2,0.5-0.6,0.9-1,1.2
	C400.9,118,400.4,118.2,399.8,118.2z M397.5,115.3v-0.7h4.5v0.7H397.5z"/>
<path class="st0" d="M403.7,118v-5.9h0.8v2.6h3.3v-2.6h0.8v5.9h-0.8v-2.6h-3.3v2.6H403.7z"/>
<path class="st0" d="M410.2,118v-5.9h0.8v2.6h3.4v-2.6h0.8v5.9h-0.8v-2.6H411v2.6H410.2z"/>
<path class="st0" d="M419.2,118.2c-0.6,0-1.1-0.1-1.5-0.4c-0.4-0.3-0.7-0.6-1-1.1c-0.2-0.5-0.3-1-0.3-1.6c0-0.6,0.1-1.2,0.3-1.6
	c0.2-0.5,0.5-0.8,1-1.1c0.4-0.3,0.9-0.4,1.5-0.4c0.6,0,1.1,0.1,1.5,0.4c0.4,0.3,0.7,0.6,1,1.1c0.2,0.5,0.3,1,0.3,1.6
	c0,0.6-0.1,1.2-0.3,1.6c-0.2,0.5-0.5,0.8-1,1.1C420.3,118,419.8,118.2,419.2,118.2z M419.2,117.4c0.7,0,1.2-0.2,1.5-0.7
	c0.3-0.4,0.5-1,0.5-1.7c0-0.7-0.2-1.3-0.5-1.7c-0.3-0.4-0.8-0.6-1.5-0.6c-0.4,0-0.8,0.1-1.1,0.3c-0.3,0.2-0.5,0.5-0.6,0.8
	c-0.1,0.4-0.2,0.8-0.2,1.2c0,0.7,0.2,1.3,0.5,1.7C418.1,117.2,418.6,117.4,419.2,117.4z"/>
<path class="st0" d="M423.2,118v-5.9h4.1v0.8H424v5.2H423.2z"/>
<path class="st0" d="M430.7,118.2c-0.6,0-1.1-0.1-1.5-0.4c-0.4-0.3-0.7-0.6-1-1.1c-0.2-0.5-0.3-1-0.3-1.6c0-0.6,0.1-1.2,0.3-1.6
	c0.2-0.5,0.5-0.8,1-1.1c0.4-0.3,0.9-0.4,1.5-0.4c0.6,0,1.1,0.1,1.5,0.4c0.4,0.3,0.7,0.6,1,1.1c0.2,0.5,0.3,1,0.3,1.6
	c0,0.6-0.1,1.2-0.3,1.6c-0.2,0.5-0.5,0.8-1,1.1S431.3,118.2,430.7,118.2z M430.7,117.4c0.7,0,1.2-0.2,1.5-0.7c0.3-0.4,0.5-1,0.5-1.7
	c0-0.7-0.2-1.3-0.5-1.7c-0.3-0.4-0.8-0.6-1.5-0.6c-0.4,0-0.8,0.1-1.1,0.3c-0.3,0.2-0.5,0.5-0.6,0.8c-0.1,0.4-0.2,0.8-0.2,1.2
	c0,0.7,0.2,1.3,0.5,1.7C429.6,117.2,430.1,117.4,430.7,117.4z"/>
<path class="st0" d="M436.9,118v-5.9h0.7l2.3,4.9l2.3-4.9h0.7v5.9h-0.8v-4.2l-2,4.2h-0.5l-2-4.2v4.2H436.9z"/>
<path class="st0" d="M447.1,118.2c-0.6,0-1.1-0.1-1.5-0.4c-0.4-0.3-0.8-0.6-1-1.1c-0.2-0.5-0.4-1-0.4-1.6c0-0.6,0.1-1.2,0.3-1.7
	c0.2-0.5,0.6-0.8,1-1.1c0.4-0.3,0.9-0.4,1.5-0.4c0.6,0,1.1,0.1,1.5,0.4c0.4,0.3,0.7,0.7,0.9,1.2c0.2,0.5,0.3,1.1,0.3,1.8h-0.8V115
	c0-0.8-0.2-1.4-0.5-1.7c-0.3-0.4-0.8-0.6-1.4-0.6c-0.6,0-1.1,0.2-1.5,0.6c-0.3,0.4-0.5,1-0.5,1.8c0,0.7,0.2,1.3,0.5,1.7
	c0.3,0.4,0.8,0.6,1.4,0.6c0.4,0,0.8-0.1,1.1-0.3c0.3-0.2,0.6-0.5,0.8-0.9l0.8,0.3c-0.2,0.5-0.6,0.9-1,1.2
	C448.2,118,447.6,118.2,447.1,118.2z M444.8,115.3v-0.7h4.5v0.7H444.8z"/>
<path class="st0" d="M452.5,118v-5.2h-2.1v-0.7h5v0.7h-2.1v5.2H452.5z"/>
<path class="st0" d="M458,118.2c-0.4,0-0.8-0.1-1.1-0.2c-0.3-0.2-0.5-0.4-0.7-0.6c-0.1-0.3-0.2-0.6-0.2-0.9c0-0.3,0.1-0.6,0.2-0.8
	c0.1-0.2,0.3-0.4,0.5-0.6c0.2-0.1,0.5-0.3,0.8-0.3c0.3-0.1,0.6-0.1,1-0.2c0.4-0.1,0.7-0.1,1.1-0.1c0.4,0,0.7-0.1,0.9-0.1l-0.3,0.2
	c0-0.6-0.1-1-0.3-1.3c-0.2-0.3-0.7-0.4-1.2-0.4c-0.4,0-0.8,0.1-1,0.3c-0.3,0.2-0.5,0.5-0.6,0.9l-0.8-0.2c0.1-0.5,0.4-0.9,0.8-1.2
	c0.4-0.3,0.9-0.4,1.6-0.4c0.5,0,1,0.1,1.4,0.3c0.4,0.2,0.7,0.5,0.8,0.9c0.1,0.2,0.1,0.4,0.1,0.6c0,0.2,0,0.4,0,0.6v3.7h-0.7v-1.5
	l0.2,0.1c-0.2,0.5-0.5,0.9-0.9,1.2C459.1,118,458.6,118.2,458,118.2z M458.1,117.5c0.4,0,0.7-0.1,1-0.2c0.3-0.1,0.5-0.3,0.7-0.6
	c0.2-0.2,0.3-0.5,0.3-0.8c0-0.2,0.1-0.4,0.1-0.6c0-0.2,0-0.4,0-0.5l0.3,0.2c-0.3,0-0.6,0.1-0.9,0.1c-0.3,0-0.6,0.1-0.9,0.1
	c-0.3,0-0.6,0.1-0.8,0.2c-0.2,0-0.3,0.1-0.5,0.2c-0.2,0.1-0.3,0.2-0.4,0.3c-0.1,0.1-0.1,0.3-0.1,0.5c0,0.2,0,0.3,0.1,0.5
	c0.1,0.2,0.2,0.3,0.4,0.4C457.5,117.4,457.7,117.5,458.1,117.5z"/>
<path class="st0" d="M461.8,118v-0.7c0.2,0,0.4,0,0.5,0c0.1-0.1,0.2-0.2,0.3-0.3c0.1-0.1,0.1-0.3,0.1-0.5c0.1-0.4,0.1-0.8,0.2-1.2
	c0-0.4,0.1-0.9,0.1-1.4c0-0.5,0.1-1.1,0.1-1.7h4v5.9h-0.8v-5.2h-2.5c0,0.4-0.1,0.8-0.1,1.2c0,0.4-0.1,0.8-0.1,1.1
	c0,0.4-0.1,0.7-0.1,1c0,0.3-0.1,0.6-0.1,0.8c-0.1,0.3-0.2,0.6-0.3,0.8c-0.1,0.2-0.3,0.3-0.5,0.4C462.5,118.1,462.2,118.1,461.8,118z
	"/>
<path class="st0" d="M468.2,118v-0.7c0.2,0,0.4,0,0.5,0c0.1-0.1,0.2-0.2,0.3-0.3c0.1-0.1,0.1-0.3,0.1-0.5c0.1-0.4,0.1-0.8,0.2-1.2
	c0-0.4,0.1-0.9,0.1-1.4c0-0.5,0.1-1.1,0.1-1.7h4v5.9h-0.8v-5.2h-2.5c0,0.4-0.1,0.8-0.1,1.2c0,0.4-0.1,0.8-0.1,1.1
	c0,0.4-0.1,0.7-0.1,1c0,0.3-0.1,0.6-0.1,0.8c-0.1,0.3-0.2,0.6-0.3,0.8c-0.1,0.2-0.3,0.3-0.5,0.4C468.8,118.1,468.5,118.1,468.2,118z
	"/>
<path class="st0" d="M476.7,118.2c-0.4,0-0.8-0.1-1.1-0.2c-0.3-0.2-0.5-0.4-0.7-0.6c-0.1-0.3-0.2-0.6-0.2-0.9c0-0.3,0.1-0.6,0.2-0.8
	c0.1-0.2,0.3-0.4,0.5-0.6c0.2-0.1,0.5-0.3,0.8-0.3c0.3-0.1,0.6-0.1,1-0.2c0.4-0.1,0.7-0.1,1.1-0.1c0.4,0,0.7-0.1,0.9-0.1l-0.3,0.2
	c0-0.6-0.1-1-0.3-1.3s-0.7-0.4-1.2-0.4c-0.4,0-0.8,0.1-1,0.3c-0.3,0.2-0.5,0.5-0.6,0.9l-0.8-0.2c0.1-0.5,0.4-0.9,0.8-1.2
	c0.4-0.3,0.9-0.4,1.6-0.4c0.5,0,1,0.1,1.4,0.3c0.4,0.2,0.6,0.5,0.8,0.9c0.1,0.2,0.1,0.4,0.1,0.6c0,0.2,0,0.4,0,0.6v3.7H479v-1.5
	l0.2,0.1c-0.2,0.5-0.5,0.9-0.9,1.2C477.8,118,477.3,118.2,476.7,118.2z M476.8,117.5c0.4,0,0.7-0.1,1-0.2c0.3-0.1,0.5-0.3,0.7-0.6
	c0.2-0.2,0.3-0.5,0.3-0.8c0-0.2,0.1-0.4,0.1-0.6c0-0.2,0-0.4,0-0.5l0.3,0.2c-0.3,0-0.6,0.1-0.9,0.1c-0.3,0-0.6,0.1-0.9,0.1
	c-0.3,0-0.6,0.1-0.8,0.2c-0.2,0-0.3,0.1-0.5,0.2c-0.2,0.1-0.3,0.2-0.4,0.3c-0.1,0.1-0.1,0.3-0.1,0.5c0,0.2,0,0.3,0.1,0.5
	c0.1,0.2,0.2,0.3,0.4,0.4C476.3,117.4,476.5,117.5,476.8,117.5z"/>
<path class="st0" d="M161.3,9.2c-0.5,0-1-0.1-1.4-0.2c-0.4-0.2-0.7-0.4-1-0.6c-0.3-0.3-0.4-0.5-0.6-0.8l0.7-0.4
	c0.1,0.2,0.2,0.5,0.4,0.7c0.2,0.2,0.4,0.4,0.7,0.5s0.7,0.2,1.1,0.2c0.4,0,0.8-0.1,1.1-0.2c0.3-0.1,0.5-0.3,0.7-0.6
	c0.2-0.2,0.2-0.5,0.2-0.9c0-0.4-0.1-0.6-0.3-0.8c-0.2-0.2-0.4-0.3-0.7-0.4c-0.3-0.1-0.6-0.1-1-0.1c-0.3,0-0.5,0-0.6,0
	c-0.1,0-0.2,0-0.2,0c0,0-0.1,0-0.1,0V4.5c0,0,0.1,0,0.2,0c0.1,0,0.2,0,0.4,0c0.1,0,0.2,0,0.3,0c0.5,0,0.9-0.2,1.2-0.4
	c0.3-0.2,0.5-0.6,0.5-1c0-0.5-0.2-0.8-0.5-1.1c-0.3-0.2-0.7-0.4-1.2-0.4c-0.5,0-0.9,0.1-1.2,0.3c-0.3,0.2-0.6,0.5-0.8,0.9l-0.7-0.5
	c0.2-0.4,0.6-0.8,1.1-1.1s1-0.4,1.6-0.4c0.3,0,0.7,0,1,0.1c0.3,0.1,0.6,0.2,0.8,0.4c0.2,0.2,0.4,0.4,0.6,0.7c0.1,0.3,0.2,0.6,0.2,1
	c0,0.4-0.1,0.8-0.3,1.1c-0.2,0.3-0.4,0.6-0.7,0.7c0.4,0.1,0.7,0.3,0.9,0.6c0.2,0.3,0.3,0.7,0.3,1.2c0,0.5-0.1,0.9-0.4,1.3
	c-0.2,0.4-0.6,0.6-1,0.8C162.4,9.1,161.9,9.2,161.3,9.2z"/>
<path class="st0" d="M165.3,9V3.1h0.8v2.6h3.3V3.1h0.8V9h-0.8V6.4h-3.3V9H165.3z"/>
<path class="st0" d="M173.5,9.2c-0.4,0-0.8-0.1-1.1-0.2c-0.3-0.2-0.5-0.4-0.7-0.6c-0.1-0.3-0.2-0.6-0.2-0.9c0-0.3,0.1-0.6,0.2-0.8
	c0.1-0.2,0.3-0.4,0.5-0.6c0.2-0.1,0.5-0.3,0.8-0.3c0.3-0.1,0.6-0.1,1-0.2c0.4-0.1,0.7-0.1,1.1-0.1c0.4,0,0.7-0.1,0.9-0.1l-0.3,0.2
	c0-0.6-0.1-1-0.3-1.3c-0.2-0.3-0.7-0.4-1.2-0.4c-0.4,0-0.8,0.1-1,0.3c-0.3,0.2-0.5,0.5-0.6,0.9l-0.8-0.2c0.1-0.5,0.4-0.9,0.8-1.2
	c0.4-0.3,0.9-0.4,1.6-0.4c0.5,0,1,0.1,1.4,0.3c0.4,0.2,0.7,0.5,0.8,0.9c0.1,0.2,0.1,0.4,0.1,0.6c0,0.2,0,0.4,0,0.6V9h-0.7V7.5
	l0.2,0.1c-0.2,0.5-0.5,0.9-0.9,1.2C174.6,9,174.1,9.2,173.5,9.2z M173.6,8.5c0.4,0,0.7-0.1,1-0.2c0.3-0.1,0.5-0.3,0.7-0.6
	c0.2-0.2,0.3-0.5,0.3-0.8c0-0.2,0.1-0.4,0.1-0.6c0-0.2,0-0.4,0-0.5l0.3,0.2c-0.3,0-0.6,0.1-0.9,0.1c-0.3,0-0.6,0.1-0.9,0.1
	c-0.3,0-0.6,0.1-0.8,0.2c-0.2,0-0.3,0.1-0.5,0.2c-0.2,0.1-0.3,0.2-0.4,0.3c-0.1,0.1-0.1,0.3-0.1,0.5c0,0.2,0,0.3,0.1,0.5
	c0.1,0.2,0.2,0.3,0.4,0.4C173,8.4,173.3,8.5,173.6,8.5z"/>
<path class="st0" d="M177.9,9l0-5.9h0.8v2.9l2.7-2.9h1.1l-2.8,3l3.1,3h-1.2l-2.9-2.9V9H177.9z"/>
<path class="st0" d="M185.6,9V3.1h4.7V9h-0.8V3.8h-3.1V9H185.6z"/>
<path class="st0" d="M194.5,9.2c-0.5,0-1-0.1-1.4-0.4c-0.4-0.3-0.7-0.7-0.9-1.1c-0.2-0.5-0.3-1-0.3-1.6c0-0.6,0.1-1.1,0.3-1.6
	c0.2-0.5,0.5-0.8,0.9-1.1c0.4-0.3,0.9-0.4,1.4-0.4c0.5,0,1,0.1,1.4,0.4c0.4,0.3,0.7,0.6,0.9,1.1c0.2,0.5,0.3,1,0.3,1.6
	c0,0.6-0.1,1.1-0.3,1.6s-0.5,0.8-0.9,1.1C195.5,9,195.1,9.2,194.5,9.2z M191.8,11.6V3.1h0.7v4.5h0.1v4.1H191.8z M194.4,8.4
	c0.4,0,0.8-0.1,1-0.3c0.3-0.2,0.5-0.5,0.6-0.9c0.1-0.4,0.2-0.8,0.2-1.2c0-0.4-0.1-0.9-0.2-1.2c-0.1-0.4-0.3-0.6-0.6-0.9
	c-0.3-0.2-0.6-0.3-1.1-0.3c-0.4,0-0.8,0.1-1,0.3c-0.3,0.2-0.5,0.5-0.6,0.8c-0.1,0.4-0.2,0.8-0.2,1.2c0,0.5,0.1,0.9,0.2,1.2
	c0.1,0.4,0.3,0.6,0.6,0.8C193.7,8.3,194,8.4,194.4,8.4z"/>
<path class="st0" d="M200.8,9.2c-0.6,0-1.1-0.1-1.5-0.4c-0.4-0.3-0.7-0.6-1-1.1c-0.2-0.5-0.3-1-0.3-1.6c0-0.6,0.1-1.2,0.3-1.6
	c0.2-0.5,0.6-0.8,1-1.1c0.4-0.3,0.9-0.4,1.5-0.4c0.6,0,1.1,0.1,1.5,0.4c0.4,0.3,0.7,0.6,1,1.1c0.2,0.5,0.3,1,0.3,1.6
	c0,0.6-0.1,1.2-0.3,1.6c-0.2,0.5-0.5,0.8-1,1.1C201.9,9,201.4,9.2,200.8,9.2z M200.8,8.4c0.7,0,1.2-0.2,1.5-0.7
	c0.3-0.4,0.5-1,0.5-1.7c0-0.7-0.2-1.3-0.5-1.7c-0.3-0.4-0.8-0.6-1.5-0.6c-0.4,0-0.8,0.1-1.1,0.3c-0.3,0.2-0.5,0.5-0.6,0.8
	c-0.1,0.4-0.2,0.8-0.2,1.2c0,0.7,0.2,1.3,0.5,1.7C199.7,8.2,200.2,8.4,200.8,8.4z"/>
<path class="st0" d="M207.2,9.2c-0.6,0-1-0.1-1.4-0.4c-0.4-0.2-0.7-0.6-0.9-1.1c-0.2-0.5-0.3-1.1-0.4-1.8c0-0.3,0-0.7,0-1
	c0-0.4,0.1-0.7,0.1-1.1c0.1-0.3,0.1-0.6,0.2-0.8c0.1-0.3,0.2-0.5,0.4-0.8c0.2-0.2,0.4-0.4,0.6-0.6c0.2-0.2,0.5-0.3,0.8-0.4
	c0.3-0.1,0.6-0.2,0.9-0.2c0.3,0,0.6-0.1,0.9-0.1c0.3,0,0.6-0.1,0.9-0.1l0.1,0.7c-0.2,0-0.4,0.1-0.7,0.1c-0.3,0-0.6,0.1-0.9,0.1
	c-0.3,0-0.6,0.1-0.9,0.2c-0.3,0.1-0.5,0.2-0.7,0.3c-0.3,0.2-0.5,0.5-0.7,0.8c-0.2,0.4-0.3,0.8-0.3,1.2c0.2-0.4,0.5-0.6,0.9-0.8
	c0.4-0.2,0.8-0.3,1.2-0.3c0.5,0,1,0.1,1.4,0.4c0.4,0.2,0.7,0.6,0.9,1c0.2,0.4,0.3,0.9,0.3,1.5c0,0.6-0.1,1.1-0.3,1.5
	c-0.2,0.4-0.6,0.8-1,1C208.3,9.1,207.8,9.2,207.2,9.2z M207.3,8.4c0.6,0,1.1-0.2,1.4-0.6c0.3-0.4,0.5-0.9,0.5-1.6
	c0-0.7-0.2-1.2-0.5-1.6c-0.3-0.4-0.8-0.6-1.4-0.6c-0.6,0-1.1,0.2-1.4,0.6c-0.3,0.4-0.5,0.9-0.5,1.6s0.2,1.2,0.5,1.6
	C206.2,8.2,206.7,8.4,207.3,8.4z"/>
<path class="st0" d="M216,3.1V9h-0.8V4.4L212,9h-0.7V3.1h0.8v4.6l3.3-4.6H216z"/>
<path class="st0" d="M220.2,9.2c-0.5,0-1-0.1-1.4-0.4c-0.4-0.3-0.7-0.7-0.9-1.1c-0.2-0.5-0.3-1-0.3-1.6c0-0.6,0.1-1.1,0.3-1.6
	c0.2-0.5,0.5-0.8,0.9-1.1c0.4-0.3,0.9-0.4,1.4-0.4c0.5,0,1,0.1,1.4,0.4c0.4,0.3,0.7,0.6,0.9,1.1c0.2,0.5,0.3,1,0.3,1.6
	c0,0.6-0.1,1.1-0.3,1.6s-0.5,0.8-0.9,1.1C221.2,9,220.8,9.2,220.2,9.2z M217.5,11.6V3.1h0.7v4.5h0.1v4.1H217.5z M220.1,8.4
	c0.4,0,0.8-0.1,1-0.3c0.3-0.2,0.5-0.5,0.6-0.9c0.1-0.4,0.2-0.8,0.2-1.2c0-0.4-0.1-0.9-0.2-1.2c-0.1-0.4-0.3-0.6-0.6-0.9
	c-0.3-0.2-0.6-0.3-1.1-0.3c-0.4,0-0.8,0.1-1,0.3c-0.3,0.2-0.5,0.5-0.6,0.8c-0.1,0.4-0.2,0.8-0.2,1.2c0,0.5,0.1,0.9,0.2,1.2
	c0.1,0.4,0.3,0.6,0.6,0.8C219.4,8.3,219.7,8.4,220.1,8.4z"/>
<path class="st0" d="M224,9V3.1h0.8v2.6h3.4V3.1h0.8V9h-0.8V6.4h-3.4V9H224z"/>
<path class="st0" d="M233,9.2c-0.6,0-1.1-0.1-1.5-0.4c-0.4-0.3-0.7-0.6-1-1.1c-0.2-0.5-0.3-1-0.3-1.6c0-0.6,0.1-1.2,0.3-1.6
	c0.2-0.5,0.6-0.8,1-1.1c0.4-0.3,0.9-0.4,1.5-0.4c0.6,0,1.1,0.1,1.5,0.4c0.4,0.3,0.7,0.6,1,1.1c0.2,0.5,0.3,1,0.3,1.6
	c0,0.6-0.1,1.2-0.3,1.6c-0.2,0.5-0.5,0.8-1,1.1C234.1,9,233.6,9.2,233,9.2z M233,8.4c0.7,0,1.2-0.2,1.5-0.7c0.3-0.4,0.5-1,0.5-1.7
	c0-0.7-0.2-1.3-0.5-1.7c-0.3-0.4-0.8-0.6-1.5-0.6c-0.4,0-0.8,0.1-1.1,0.3c-0.3,0.2-0.5,0.5-0.6,0.8c-0.1,0.4-0.2,0.8-0.2,1.2
	c0,0.7,0.2,1.3,0.5,1.7C231.9,8.2,232.4,8.4,233,8.4z"/>
<path class="st0" d="M237.1,9V3.1h4.1v0.8h-3.3V9H237.1z"/>
<path class="st0" d="M244.5,9.2c-0.6,0-1.1-0.1-1.5-0.4c-0.4-0.3-0.7-0.6-1-1.1c-0.2-0.5-0.3-1-0.3-1.6c0-0.6,0.1-1.2,0.3-1.6
	c0.2-0.5,0.6-0.8,1-1.1c0.4-0.3,0.9-0.4,1.5-0.4c0.6,0,1.1,0.1,1.5,0.4c0.4,0.3,0.7,0.6,1,1.1c0.2,0.5,0.3,1,0.3,1.6
	c0,0.6-0.1,1.2-0.3,1.6c-0.2,0.5-0.5,0.8-1,1.1C245.6,9,245.1,9.2,244.5,9.2z M244.5,8.4c0.7,0,1.2-0.2,1.5-0.7
	c0.3-0.4,0.5-1,0.5-1.7c0-0.7-0.2-1.3-0.5-1.7c-0.3-0.4-0.8-0.6-1.5-0.6c-0.4,0-0.8,0.1-1.1,0.3c-0.3,0.2-0.5,0.5-0.6,0.8
	c-0.1,0.4-0.2,0.8-0.2,1.2c0,0.7,0.2,1.3,0.5,1.7C243.4,8.2,243.9,8.4,244.5,8.4z"/>
<path class="st0" d="M159.6,28.6l1.1-3.1l0,0.9l-2.6-6.4h0.9l2.1,5.3h-0.4l2-5.3h0.8l-3.2,8.6H159.6z"/>
<path class="st0" d="M163.9,27.3v-2c0.3,0,0.6-0.1,0.7-0.3c0.1-0.2,0.3-0.6,0.4-1.1c0.1-0.3,0.1-0.6,0.2-1c0-0.4,0.1-0.8,0.1-1.2
	c0-0.5,0.1-1,0.1-1.6h3.9v5.2h0.6v2H169V26h-4.4v1.3H163.9z M165.3,25.3h3.2v-4.6h-2.4c0,0.3,0,0.6-0.1,0.9c0,0.3,0,0.6-0.1,0.9
	c0,0.3-0.1,0.6-0.1,0.9c0,0.3-0.1,0.5-0.1,0.7c-0.1,0.3-0.1,0.5-0.2,0.7C165.5,25,165.4,25.2,165.3,25.3z"/>
<path class="st0" d="M173.2,26.2c-0.6,0-1.1-0.1-1.5-0.4c-0.4-0.3-0.7-0.6-1-1.1c-0.2-0.5-0.3-1-0.3-1.6c0-0.6,0.1-1.2,0.3-1.6
	c0.2-0.5,0.6-0.8,1-1.1c0.4-0.3,0.9-0.4,1.5-0.4c0.6,0,1.1,0.1,1.5,0.4c0.4,0.3,0.7,0.6,1,1.1c0.2,0.5,0.3,1,0.3,1.6
	c0,0.6-0.1,1.2-0.3,1.6c-0.2,0.5-0.5,0.8-1,1.1C174.3,26,173.8,26.2,173.2,26.2z M173.2,25.4c0.7,0,1.2-0.2,1.5-0.7
	c0.3-0.4,0.5-1,0.5-1.7c0-0.7-0.2-1.3-0.5-1.7c-0.3-0.4-0.8-0.6-1.5-0.6c-0.4,0-0.8,0.1-1.1,0.3c-0.3,0.2-0.5,0.5-0.6,0.8
	c-0.1,0.4-0.2,0.8-0.2,1.2c0,0.7,0.2,1.3,0.5,1.7C172.1,25.2,172.5,25.4,173.2,25.4z"/>
<path class="st0" d="M179.7,26.2c-0.6,0-1.1-0.1-1.5-0.4c-0.4-0.3-0.7-0.6-0.9-1.1c-0.2-0.5-0.3-1-0.3-1.6c0-0.6,0.1-1.2,0.3-1.6
	c0.2-0.5,0.5-0.8,1-1.1c0.4-0.3,0.9-0.4,1.5-0.4c0.6,0,1.1,0.1,1.6,0.4c0.4,0.3,0.8,0.7,0.9,1.2l-0.8,0.3c-0.1-0.4-0.4-0.6-0.7-0.8
	c-0.3-0.2-0.6-0.3-1-0.3c-0.4,0-0.8,0.1-1.1,0.3c-0.3,0.2-0.5,0.5-0.6,0.8c-0.1,0.4-0.2,0.8-0.2,1.2c0,0.7,0.2,1.3,0.5,1.7
	c0.3,0.4,0.8,0.6,1.4,0.6c0.4,0,0.7-0.1,1-0.3c0.3-0.2,0.5-0.5,0.6-0.8l0.8,0.2c-0.2,0.5-0.5,0.9-1,1.2
	C180.8,26,180.3,26.2,179.7,26.2z"/>
<path class="st0" d="M184.8,26v-5.2h-2.1v-0.7h5v0.7h-2.1V26H184.8z"/>
<path class="st0" d="M191.1,26.2c-0.6,0-1.1-0.1-1.5-0.4c-0.4-0.3-0.7-0.6-1-1.1s-0.3-1-0.3-1.6c0-0.6,0.1-1.2,0.3-1.6
	c0.2-0.5,0.6-0.8,1-1.1c0.4-0.3,0.9-0.4,1.5-0.4c0.6,0,1.1,0.1,1.5,0.4c0.4,0.3,0.7,0.6,1,1.1c0.2,0.5,0.3,1,0.3,1.6
	c0,0.6-0.1,1.2-0.3,1.6c-0.2,0.5-0.5,0.8-1,1.1C192.2,26,191.7,26.2,191.1,26.2z M191.1,25.4c0.7,0,1.2-0.2,1.5-0.7
	c0.3-0.4,0.5-1,0.5-1.7c0-0.7-0.2-1.3-0.5-1.7c-0.3-0.4-0.8-0.6-1.5-0.6c-0.4,0-0.8,0.1-1.1,0.3c-0.3,0.2-0.5,0.5-0.6,0.8
	c-0.1,0.4-0.2,0.8-0.2,1.2c0,0.7,0.2,1.3,0.5,1.7C190,25.2,190.5,25.4,191.1,25.4z"/>
<path class="st0" d="M195.1,26v-5.9h2.4c0.1,0,0.3,0,0.5,0c0.2,0,0.3,0,0.5,0.1c0.3,0.1,0.6,0.3,0.8,0.5c0.2,0.3,0.3,0.6,0.3,1
	c0,0.2,0,0.4-0.1,0.6c-0.1,0.2-0.2,0.3-0.3,0.4c-0.1,0.1-0.1,0.1-0.2,0.2c-0.1,0-0.1,0.1-0.2,0.1c0.1,0,0.2,0.1,0.4,0.2
	c0.2,0.1,0.4,0.3,0.5,0.5c0.1,0.2,0.2,0.5,0.2,0.8c0,0.4-0.1,0.7-0.3,1c-0.2,0.3-0.5,0.4-0.8,0.5c-0.1,0-0.3,0.1-0.5,0.1
	c-0.2,0-0.3,0-0.5,0H195.1z M195.9,25.3h1.9c0.1,0,0.2,0,0.3,0c0.1,0,0.2,0,0.3-0.1c0.2-0.1,0.4-0.2,0.5-0.3
	c0.1-0.2,0.2-0.4,0.2-0.6c0-0.3-0.1-0.5-0.2-0.6c-0.2-0.2-0.4-0.3-0.6-0.3c-0.1,0-0.2,0-0.3,0c-0.1,0-0.2,0-0.2,0h-1.8V25.3z
	 M195.9,22.7h1.7c0.1,0,0.2,0,0.3,0c0.1,0,0.2,0,0.3-0.1c0.2-0.1,0.3-0.2,0.4-0.3c0.1-0.2,0.1-0.3,0.1-0.5c0-0.2,0-0.4-0.1-0.5
	c-0.1-0.2-0.2-0.3-0.4-0.3c-0.1,0-0.3-0.1-0.4-0.1c-0.2,0-0.2,0-0.3,0h-1.6V22.7z"/>
<path class="st0" d="M203.5,26.2c-0.6,0-1.1-0.1-1.5-0.4c-0.4-0.3-0.7-0.6-1-1.1c-0.2-0.5-0.4-1-0.4-1.6c0-0.6,0.1-1.2,0.3-1.7
	s0.6-0.8,1-1.1c0.4-0.3,0.9-0.4,1.5-0.4c0.6,0,1.1,0.1,1.5,0.4c0.4,0.3,0.7,0.7,0.9,1.2c0.2,0.5,0.3,1.1,0.3,1.8h-0.8V23
	c0-0.8-0.2-1.4-0.5-1.7c-0.3-0.4-0.8-0.6-1.4-0.6c-0.6,0-1.1,0.2-1.5,0.6c-0.3,0.4-0.5,1-0.5,1.8c0,0.7,0.2,1.3,0.5,1.7
	c0.3,0.4,0.8,0.6,1.4,0.6c0.4,0,0.8-0.1,1.1-0.3c0.3-0.2,0.6-0.5,0.8-0.9l0.8,0.3c-0.2,0.5-0.6,0.9-1,1.2
	C204.6,26,204.1,26.2,203.5,26.2z M201.3,23.3v-0.7h4.5v0.7H201.3z"/>
<path class="st0" d="M210.1,26.2c-0.5,0-1-0.1-1.4-0.4c-0.4-0.3-0.7-0.7-0.9-1.1c-0.2-0.5-0.3-1-0.3-1.6c0-0.6,0.1-1.1,0.3-1.6
	c0.2-0.5,0.5-0.8,0.9-1.1c0.4-0.3,0.9-0.4,1.4-0.4c0.5,0,1,0.1,1.4,0.4c0.4,0.3,0.7,0.6,0.9,1.1c0.2,0.5,0.3,1,0.3,1.6
	c0,0.6-0.1,1.1-0.3,1.6s-0.5,0.8-0.9,1.1C211.1,26,210.7,26.2,210.1,26.2z M207.4,28.6v-8.6h0.7v4.5h0.1v4.1H207.4z M210,25.4
	c0.4,0,0.8-0.1,1-0.3c0.3-0.2,0.5-0.5,0.6-0.9c0.1-0.4,0.2-0.8,0.2-1.2c0-0.4-0.1-0.9-0.2-1.2c-0.1-0.4-0.3-0.6-0.6-0.9
	c-0.3-0.2-0.6-0.3-1.1-0.3c-0.4,0-0.8,0.1-1,0.3c-0.3,0.2-0.5,0.5-0.6,0.8c-0.1,0.4-0.2,0.8-0.2,1.2c0,0.5,0.1,0.9,0.2,1.2
	c0.1,0.4,0.3,0.6,0.6,0.8C209.3,25.3,209.6,25.4,210,25.4z"/>
<path class="st0" d="M216.5,26.2c-0.6,0-1.1-0.1-1.5-0.4c-0.4-0.3-0.8-0.6-1-1.1c-0.2-0.5-0.4-1-0.4-1.6c0-0.6,0.1-1.2,0.3-1.7
	s0.6-0.8,1-1.1c0.4-0.3,0.9-0.4,1.5-0.4c0.6,0,1.1,0.1,1.5,0.4c0.4,0.3,0.7,0.7,0.9,1.2c0.2,0.5,0.3,1.1,0.3,1.8h-0.8V23
	c0-0.8-0.2-1.4-0.5-1.7c-0.3-0.4-0.8-0.6-1.4-0.6c-0.6,0-1.1,0.2-1.5,0.6c-0.3,0.4-0.5,1-0.5,1.8c0,0.7,0.2,1.3,0.5,1.7
	c0.3,0.4,0.8,0.6,1.4,0.6c0.4,0,0.8-0.1,1.1-0.3c0.3-0.2,0.6-0.5,0.8-0.9l0.8,0.3c-0.2,0.5-0.6,0.9-1,1.2
	C217.6,26,217.1,26.2,216.5,26.2z M214.2,23.3v-0.7h4.5v0.7H214.2z"/>
<path class="st0" d="M220.4,26v-5.9h0.8v2.6h3.3v-2.6h0.8V26h-0.8v-2.6h-3.3V26H220.4z"/>
<path class="st0" d="M231.6,20.1V26h-0.8v-4.6l-3.3,4.6h-0.7v-5.9h0.8v4.6l3.3-4.6H231.6z"/>
<path class="st0" d="M236.9,26v-2.2h-1.4c-0.2,0-0.3,0-0.5,0c-0.2,0-0.3,0-0.5-0.1c-0.4-0.1-0.8-0.3-1.1-0.5
	c-0.3-0.3-0.4-0.7-0.4-1.2c0-0.5,0.1-0.9,0.4-1.2c0.3-0.3,0.6-0.5,1-0.6c0.2,0,0.4-0.1,0.5-0.1c0.2,0,0.3,0,0.5,0h2.3l0,5.9H236.9z
	 M232.8,26l1.7-2.5h0.9l-1.7,2.5H232.8z M235.5,23.1h1.4v-2.3h-1.4c-0.1,0-0.2,0-0.4,0c-0.2,0-0.3,0-0.4,0.1c-0.1,0-0.2,0.1-0.4,0.2
	c-0.1,0.1-0.2,0.2-0.3,0.4c-0.1,0.1-0.1,0.3-0.1,0.5c0,0.3,0.1,0.5,0.2,0.7c0.2,0.2,0.4,0.3,0.6,0.4c0.1,0,0.3,0,0.4,0.1
	C235.2,23.1,235.4,23.1,235.5,23.1z"/>
<path class="st0" d="M151,128l-5-2.9v5.8L151,128z M146.5,127.5H58v1h88.5V127.5z"/>
<path class="st0" d="M316,97.8l5,2.9v-5.8L316,97.8z M320.5,98.3h32.4v-1h-32.4V98.3z"/>
<path class="st0" d="M192,59.4l2.9-5h-5.8L192,59.4z M192.5,54.9V34.8h-1v20.1H192.5z"/>
</svg>
