<?xml version="1.0" encoding="utf-8"?>
<!-- Generator: Adobe Illustrator 15.0.2, SVG Export Plug-In  -->
<!DOCTYPE svg PUBLIC "-//W3C//DTD SVG 1.1//EN" "http://www.w3.org/Graphics/SVG/1.1/DTD/svg11.dtd" [
	<!ENTITY ns_flows "http://ns.adobe.com/Flows/1.0/">
]>
<svg version="1.1"
	 xmlns="http://www.w3.org/2000/svg" xmlns:xlink="http://www.w3.org/1999/xlink" xmlns:a="http://ns.adobe.com/AdobeSVGViewerExtensions/3.0/"
	 x="0px" y="0px" width="650px" height="715px" viewBox="-27.1206055 -23.5019531 650 715"
	 enable-background="new -27.1206055 -23.5019531 650 715" xml:space="preserve">
<defs>
</defs>
<path d="M14.5400391,573.5805664c4.5297852,8.1894531,10.1098633,15.6699219,16.6899414,22.3398438
	c2.6601563,2.7001953,5.4501953,5.2294922,8.3701172,7.5996094C59.3999023,619.5805664,85.0600586,628.0004883,114.5,628.0004883
	h135c32.1098633,0,47.9301758,43.1201172,48.0898438,43.5595703l1.3300781,3.7099609l1.4702148-3.6601563
	c0.1796875-0.4394531,17.9296875-43.609375,49.1098633-43.609375h134c22.8198242,0,43.3198242-4.6103516,60.4301758-13.4707031
	c0.5400391-0.2792969,1.0800781-0.5693359,1.6196289-0.859375v-0.0097656
	c6.2202148-3.3505859,11.9804688-7.2900391,17.2202148-11.7802734C586.1499023,581.8198242,598,552.090332,598,513.5004883V0H0
	v513.5004883C0,536.0102539,4.9599609,556.3500977,14.5400391,573.5805664"/>
<path fill="#597DBE" d="M301.75,554.7202148c0,9.4296875,7.6401367,17.0800781,17.0800781,17.0800781
	c9.4301758,0,17.0800781-7.6503906,17.0800781-17.0800781c0-9.4404297-7.6499023-17.0898438-17.0800781-17.0898438
	C309.3901367,537.6303711,301.75,545.2797852,301.75,554.7202148z M299.0698242,667.1801758
	c-4.5297852-10.5996094-20.4599609-42.1796875-49.5698242-42.1796875h-135
	c-29.1801758,0-54.1699219-8.5800781-73.0498047-23.8105469c-9.8603516-7.9599609-18.050293-17.7294922-24.3100586-29.0498047
	C8,555.6000977,3,535.7700195,3,513.5004883V3h592v510.5004883c0,46.1796875-18.2397461,80.0498047-50.7797852,97.6894531
	c-0.5200195,0.2802734-1.0400391,0.5605469-1.5600586,0.8300781c-16.3798828,8.4902344-36.25,12.9804688-59.1601563,12.9804688h-134
	C321.2402344,625.0004883,304.0200195,656.6499023,299.0698242,667.1801758z M277.3300781,571.800293
	c9.4301758,0,17.0800781-7.6503906,17.0800781-17.0800781c0-9.4404297-7.6499023-17.0898438-17.0800781-17.0898438
	c-9.4399414,0-17.0800781,7.6494141-17.0800781,17.0898438C260.25,564.1499023,267.8901367,571.800293,277.3300781,571.800293z
	 M235.0400391,560.4702148c8.3500977,0,15.1201172-6.7802734,15.1201172-15.1298828
	c0-8.3505859-6.7700195-15.1201172-15.1201172-15.1201172c-8.3598633,0-15.1298828,6.7695313-15.1298828,15.1201172
	C219.9101563,553.6899414,226.6801758,560.4702148,235.0400391,560.4702148z M181.5800781,537.6303711
	c0,8.0097656,6.4897461,14.5,14.5,14.5c8.0097656,0,14.5-6.4902344,14.5-14.5c0-8-6.4902344-14.5-14.5-14.5
	C188.0698242,523.1303711,181.5800781,529.6303711,181.5800781,537.6303711z M142.6601563,530.2202148
	c0,6.8095703,5.5200195,12.3300781,12.3398438,12.3300781c6.8100586,0,12.3300781-5.5205078,12.3300781-12.3300781
	c0-6.8203125-5.5200195-12.3398438-12.3300781-12.3398438C148.1801758,517.8803711,142.6601563,523.3999023,142.6601563,530.2202148
	z M113.75,545.340332c5.7001953,0,10.3300781-4.6201172,10.3300781-10.3300781S119.4501953,524.6704102,113.75,524.6704102
	c-5.7099609,0-10.3398438,4.6298828-10.3398438,10.3398438S108.0400391,545.340332,113.75,545.340332z M82.5,561.4702148
	c4.8701172,0,8.8300781-3.9599609,8.8300781-8.8398438S87.3701172,543.800293,82.5,543.800293
	c-4.8798828,0-8.8398438,3.9501953-8.8398438,8.8300781S77.6201172,561.4702148,82.5,561.4702148z M514.3300781,578.1303711
	c4.8701172,0,8.8300781-3.9501953,8.8300781-8.8300781s-3.9599609-8.8300781-8.8300781-8.8300781
	c-4.8901367,0-8.8300781,3.9501953-8.8300781,8.8300781S509.4399414,578.1303711,514.3300781,578.1303711z M482.75,562.4702148
	c5.6899414,0,10.3300781-4.6298828,10.3300781-10.3398438c0-5.7001953-4.6401367-10.3300781-10.3300781-10.3300781
	c-5.7197266,0-10.3398438,4.6298828-10.3398438,10.3300781C472.4101563,557.840332,477.0302734,562.4702148,482.75,562.4702148z
	 M442,554.8803711c6.8100586,0,12.3300781-5.5205078,12.3300781-12.3300781c0-6.8105469-5.5200195-12.3300781-12.3300781-12.3300781
	c-6.8198242,0-12.3398438,5.5195313-12.3398438,12.3300781C429.6601563,549.3598633,435.1801758,554.8803711,442,554.8803711z
	 M415.3701172,517.6801758c4.7397461,0,19.9697266,1.3496094,20.1201172,1.3701172l1,0.0800781l4.25-49.2001953
	l-0.9599609-0.1201172c-0.5-0.0595703-12.0800781-1.6396484-12.0800781-10.8896484
	c0-3.8105469,1.8896484-7.3701172,5.6098633-10.6005859c1.7797852-1.5498047,3.7099609-2.7695313,5.2001953-3.6591797
	c7.4199219-4.4404297,30.3896484-16.8603516,30.6196289-16.9804688l0.5302734-0.2802734v-39.0297852l-40.7602539,3.8100586
	l-0.699707-1.7998047c-11.0302734-28.8603516-31.6000977-82.6000977-30.8701172-123.2299805
	c1.0297852-57.840332,28.2197266-101.6704102,90.9101563-146.5400391c0.7998047-0.5703125,2.9599609-3.8901367,2.3496094-5.8203125
	c-0.3896484-1.1796875-1.5297852-1.6499023-3.2597656-1.2099609c-54.25,13.9799805-172.2099609,40.050293-185.5,42.9799805
	V78.3203125c1.1601563-1.1098633,1.8798828-2.6699219,1.8798828-4.3999023c0-3.3701172-2.75-6.1201172-6.1298828-6.1201172
	s-6.1298828,2.75-6.1298828,6.1201172c0,1.7299805,0.7197266,3.2900391,1.8798828,4.3999023v3.8500977
	c-1.3901367-0.7001953-3.6899414-1.840332-6.6098633-3.2099609c-10.6401367-5.0302734-30.5400391-13.6704102-44.2802734-15.1503906
	l-1.199707-0.1396484c-1.8603516-0.2001953-4.1704102-0.4599609-6.5400391-0.5800781
	c-1.9003906-0.1000977-3.5200195-0.090332-4.8901367,0.0297852C228.3500977,63.25,227.1801758,63.5,226.2802734,63.8803711
	c-0.4804688,0.1899414-0.9101563,0.4697266-1.2602539,0.7998047c-2.4501953,2.0898438-3.3901367,6.9799805-2.3398438,12.1499023
	c0.4697266,2.300293-0.2001953,4.8300781-1.7900391,6.7802734c-1.4599609,1.7900391-3.4902344,2.8100586-5.5600586,2.8100586
	c-4.75,0.0200195-8.1601563-3.6103516-11.1801758-6.800293c-2.5498047-2.699707-4.9399414-5.25-7.8500977-5.1499023
	c-3.5297852,0.1098633-8.1396484,1.2402344-13.0195313,2.4399414c-6.050293,1.4902344-12.300293,3.0200195-16.0400391,2.3999023
	l-0.9404297-0.1499023c-6.6298828-1.0800781-13.4799805-2.1899414-22.1899414-12.9897461
	c-0.5795898-0.7202148-1.2700195-0.6704102-1.6899414-0.4101563c-1.8701172,1.1801758,0.7402344,11.75,1.6801758,13.7197266
	c2.8500977,6.0102539,9.4399414,13.9702148,17.1699219,17.2402344C166.9399414,99.1303711,176.9501953,98.5302734,185.7802734,98
	c3.1499023-0.1899414,6.1298828-0.3696289,8.4697266-0.3696289c3.9799805,0,5.7202148,1.5400391,8.1298828,3.6796875
	c1.4003906,1.2402344,3,2.6503906,5.3100586,3.9599609c-1.9697266-0.9897461-3.4799805-2.0698242-4.8300781-3.0498047
	c-2.4799805-1.7797852-4.6196289-3.3100586-7.949707-3.3598633c-4.090332-0.050293-7.4599609,1.5898438-11.3603516,3.5097656
	c-5.4897461,2.7001953-12.3198242,6.050293-24.199707,5.7602539c-1.4301758-0.0302734-3.8999023-0.4003906-6.5102539-0.800293
	c-7.2099609-1.0800781-11.6899414-1.6298828-13.1098633-0.1899414c-0.3901367,0.3901367-0.5600586,0.9199219-0.4697266,1.4902344
	c1.2597656,7.8896484,17.1098633,19.4296875,27.3496094,19.9199219c7.3603516,0.3500977,12.9399414-1.0302734,17.8603516-2.25
	c3.4296875-0.8500977,6.3999023-1.5800781,9.3598633-1.5800781c2.8598633,0,6.5097656,2.9301758,9.7397461,5.5097656
	c2.4301758,1.9501953,4.7299805,3.800293,6.7602539,4.5102539c3.5,1.2397461,9.3300781,1.4702148,14.5097656,1.4702148
	c1.7602539,0,3.4404297-0.0200195,4.9301758-0.050293c0.8100586-0.0097656,1.5600586-0.0200195,2.2402344-0.0297852
	c8.6396484-0.0600586,17.0898438-0.5800781,20.2895508-3.9003906c0.9404297-0.9697266,1.4003906-2.1396484,1.3603516-3.4599609
	c-0.090332-3.4399414-3.1699219-9.25-5.8798828-14.3798828c-1.3803711-2.6000977-3.050293-5.7597656-3.3500977-7.0097656
	c3.8696289-0.5400391,14.7299805,3.3999023,19.3798828,6.2700195c4.7001953,2.8896484,13.6000977,9.6298828,20.2397461,14.7700195
	c4.4501953,3.449707,8.1303711,6.3598633,9.2802734,7.2700195v22.4199219
	c-18.2202148,6.949707-41.2202148,12.2797852-63.4799805,17.4399414
	c-26.2202148,6.0800781-50.9902344,11.8198242-67.4599609,19.8500977
	c-31.9301758,15.5698242-49.3300781,43.0600586-47.7299805,75.449707
	c1.159668,23.2402344,13.949707,43.7802734,20.8198242,54.8100586
	c12.7001953,20.3901367,46.8901367,49.550293,65.8198242,61.4902344c2.1000977,1.3198242,6.050293,3.2900391,10.0703125,5.199707
	l-19-5.4799805l-93.3300781-38l-0.25-0.1000977l-0.2700195,0.0400391c-1.1401367,0.1601563-1.5498047,1.800293-1.6499023,2.300293
	c-0.2202148,1.1196289-0.5703125,5.0200195,4.2797852,7.8798828c14.7900391,8.7202148,59.5600586,34.7397461,59.9702148,34.9799805
	c4.8598633,3.1000977,9.449707,9.0800781,10.2299805,13.3398438c0.5400391,3.0097656,0.5200195,8.140625,0.5,12.6601563
	c-0.0200195,3.2695313-0.0302734,6.3701172,0.1499023,8.5800781c1.1601563,14.1396484,6.4199219,37.0898438,12.1201172,47.4003906
	c14.6201172,26.4492188,33.75,35.9892578,50.5400391,42.859375c14.6499023,6,39.5898438,12.4101563,65.6699219,12.4101563
	c17.6601563,0,52.5097656-4.4804688,69.5898438-8.1904297c11.1103516-2.4296875,33.8500977-5.3496094,45.4101563-5.3496094
	H415.3701172z M400.8300781,557.050293c8.0097656,0,14.5-6.4902344,14.5-14.5s-6.4902344-14.5-14.5-14.5
	c-8.0102539,0-14.5,6.4902344-14.5,14.5S392.8198242,557.050293,400.8300781,557.050293z M344.9101563,549.340332
	c0,8.3496094,6.7700195,15.1298828,15.1298828,15.1298828c8.3500977,0,15.1201172-6.7802734,15.1201172-15.1298828
	c0-8.3505859-6.7700195-15.1201172-15.1201172-15.1201172C351.6801758,534.2202148,344.9101563,540.9897461,344.9101563,549.340332z
	"/>
<linearGradient id="SVGID_1_" gradientUnits="userSpaceOnUse" x1="340.2661133" y1="443.8295898" x2="284.8448181" y2="75.8136902">
	<stop  offset="0.133333" style="stop-color:#BCBEC0"/>
	<stop  offset="0.2105985" style="stop-color:#C1C2C4"/>
	<stop  offset="0.3088825" style="stop-color:#CECFD1"/>
	<stop  offset="0.4180166" style="stop-color:#E3E4E5"/>
	<stop  offset="0.515152" style="stop-color:#FFFFFF"/>
	<stop  offset="0.5539709" style="stop-color:#EAEBEC"/>
	<stop  offset="0.6126263" style="stop-color:#D6D7D9"/>
	<stop  offset="0.6742686" style="stop-color:#C7C9CB"/>
	<stop  offset="0.7402589" style="stop-color:#BFC1C3"/>
	<stop  offset="0.818182" style="stop-color:#BCBEC0"/>
</linearGradient>
<path fill="url(#SVGID_1_)" d="M223.4599609,244.4604492c-7,56.7695313,71.8701172,38.3398438,71.8701172,38.3398438
	s-74.6201172,6.6098633-66.1201172-39.5600586c9.3701172-50.8798828,77.1000977-80.7099609,79.3901367-81.7099609
	C306.2299805,162.3300781,230.3901367,188.3300781,223.4599609,244.4604492z M160.8300781,249.3500977
	c-6.8999023,55.9301758,63.3701172,91.1699219,65.4599609,92.2001953
	c-2.1000977-1.4702148-68.0800781-47.9799805-59.7099609-93.4199219c9.3701172-50.8803711,64.8500977-68.5102539,66.75-69.1103516
	C231.3500977,179.4404297,167.7602539,193.2104492,160.8300781,249.3500977z M426.8398438,392.3803711l-11.5297852,1.0800781
	c-0.0698242-0.0600586-0.1499023-0.1201172-0.2202148-0.1801758c-16.1699219-13.3500977-33.6396484-36.9501953-49.0698242-57.800293
	c-6.8798828-9.2998047-13.3701172-18.0698242-18.75-24.4897461c-16.7900391-20.0200195-27.6401367-26.2099609-46.3999023-26.5
	c-2.1601563-0.0898438-4.4799805,0.0297852-6.6801758,0.3500977c-0.3300781,0.0498047-0.659668,0.1000977-0.9897461,0.159668
	c-14.3803711,2.340332-27.4003906,12.300293-32.9101563,17.9301758
	c-13.8300781,14.1201172-21.5698242,27.2402344-26.7099609,45.2802734
	c-2.1201172,7.409668-3.6601563,16.2695313-5.1499023,24.8295898c-1.4799805,8.4799805-2.8701172,16.5102539-4.7299805,22.7202148
	c-3.7001953-1.6298828-16.8901367-7.5-21.340332-10.3100586c-18.7597656-11.8300781-52.6298828-40.7001953-65.1796875-60.8500977
	c-6.7802734-10.8798828-19.3901367-31.1298828-20.5200195-53.8500977
	c-1.5600586-31.5498047,15.4296875-58.3496094,46.6098633-73.5498047
	c16.2602539-7.9301758,40.9199219-13.6499023,67.0400391-19.7001953
	c22.5800781-5.2397461,45.9301758-10.6499023,64.3798828-17.7700195l0.6401367-0.2397461v-25.0600586V80.050293h2.1499023h0.1000977
	h2.25v78.9897461l1.2099609-0.2597656c1.2900391-0.2900391,129.5097656-28.5102539,186.7900391-43.2602539
	c0.3398438-0.0898438,0.5498047-0.1098633,0.6899414-0.1098633c0.0898438,0,0.1601563,0.0102539,0.1699219,0.0102539
	c0.2402344,0.6499023-1.0097656,3.0898438-1.6098633,3.5698242c-63.2700195,45.2797852-90.7099609,89.5800781-91.75,148.1201172
	c-0.7299805,41.0200195,19.9199219,94.9897461,31.0200195,123.9897461L426.8398438,392.3803711z M303.2402344,233.2402344
	c9.2998047-50.5102539,78.6196289-86.6601563,81.9697266-88.3798828
	c-3.6098633,1.4697266-80.8398438,33.909668-87.7099609,89.6000977
	c-7.0097656,56.7695313,49.3798828,51.199707,49.3798828,51.199707S294.7402344,279.4101563,303.2402344,233.2402344z"/>
<path fill="#A6A5A6" d="M346.8798828,285.6601563c0,0-56.3896484,5.5698242-49.3798828-51.199707
	c6.8701172-55.6904297,84.1000977-88.1303711,87.7099609-89.6000977
	c-3.3500977,1.7197266-72.6699219,37.8696289-81.9697266,88.3798828
	C294.7402344,279.4101563,346.8798828,285.6601563,346.8798828,285.6601563z"/>
<path fill="#A6A5A6" d="M295.3300781,282.800293c0,0-78.8701172,18.4296875-71.8701172-38.3398438
	c6.9301758-56.1303711,82.7700195-82.1303711,85.1401367-82.9301758c-2.2900391,1-70.0200195,30.8300781-79.3901367,81.7099609
	C220.7099609,289.4101563,295.3300781,282.800293,295.3300781,282.800293z"/>
<path fill="#A6A5A6" d="M226.2900391,341.550293c-2.0898438-1.0302734-72.3598633-36.2700195-65.4599609-92.2001953
	c6.9301758-56.1396484,70.5200195-69.909668,72.5-70.3300781c-1.8999023,0.6000977-57.3798828,18.2299805-66.75,69.1103516
	C158.2099609,293.5703125,224.1899414,340.0800781,226.2900391,341.550293z"/>
<path fill="#B2B2B3" d="M295.3300781,286.7104492c1.3198242-0.1601563,2.6601563-0.2402344,4-0.2402344
	c0.1699219,0,0.3398438,0,0.5,0.0097656v9.0400391C299.5302734,295.5102539,299.2099609,295.5,298.8798828,295.5h-0.0097656
	c-1.1699219,0-2.3500977,0.0800781-3.5400391,0.2202148V286.7104492z"/>
<path fill="#B2B2B3" d="M299.5,444.1401367c-1.0800781,0-2.5097656-0.0498047-4.1699219-0.1503906v-5.9697266
	c1.2099609,0.0703125,2.3999023,0.1103516,3.5498047,0.1103516c0.3203125,0,0.6503906,0,0.9501953-0.0097656v6.0195313H299.5z"/>
<path fill="#BCBEC0" d="M297.6000977,76.9204102c-1.7299805,0-3.1298828-1.4003906-3.1298828-3.1201172
	c0-1.7299805,1.3999023-3.1298828,3.1298828-3.1298828c1.7197266,0,3.1201172,1.3999023,3.1201172,3.1298828
	C300.7202148,75.5200195,299.3198242,76.9204102,297.6000977,76.9204102z"/>
<path fill="#D1D3D4" d="M293.3300781,92.1201172v30.5703125c-4.0600586-3.8803711-19.4902344-18.590332-26.8300781-25.7202148
	c-0.4399414-0.4301758-0.6098633-2.3598633,0-2.4399414C274.5302734,93.5400391,289.3598633,92.4204102,293.3300781,92.1201172z"/>
<path fill="#D1D3D4" d="M230.8598633,106.8500977c2.8901367-3.8701172,9.8500977-11.159668,20.2202148-9.4697266
	c11,1.7797852,25.8999023,20.0800781,31.4101563,27.3198242c-6.2099609-4.7700195-13.5-10.2001953-17.6401367-12.75
	c-4.7900391-2.9599609-17.1601563-7.6801758-21.4902344-6.3798828c-0.3896484,0.1201172-0.699707,0.3999023-0.8598633,0.7797852
	C242.5,106.3500977,234.0400391,104.2001953,230.8598633,106.8500977z"/>
<linearGradient id="SVGID_2_" gradientUnits="userSpaceOnUse" x1="229.668457" y1="117.9985352" x2="251.6616211" y2="117.9985352">
	<stop  offset="0.010846" style="stop-color:#A7A9AC"/>
	<stop  offset="0.0960597" style="stop-color:#AFB1B4"/>
	<stop  offset="0.4989216" style="stop-color:#D3D4D6"/>
	<stop  offset="0.8138289" style="stop-color:#E9EAEA"/>
	<stop  offset="1" style="stop-color:#F1F2F2"/>
</linearGradient>
<path fill="url(#SVGID_2_)" d="M251.1699219,130.4702148c4.090332-7.3398438-20.4799805-12.0600586-21.4599609-20.4101563
	c-0.0761719-0.3867188-0.0297852-0.7792969,0-1.0371094c0.0249023-0.2182617,0.1064453-0.5454102,0.2202148-0.8525391
	c0.1362305-0.3344727,0.2504883-0.6845703,0.9199219-1.3100586l0.0097656-0.0102539
	c3.1801758-2.6499023,11.6401367-0.5,11.6401367-0.5c-0.5,1.2099609,0.5102539,3.300293,3.5102539,8.9799805
	c2.4799805,4.6899414,5.5698242,10.5302734,5.6499023,13.5
	C251.6801758,129.4404297,251.5200195,129.9799805,251.1699219,130.4702148z"/>
<path fill="#D1D3D4" d="M235.8100586,65.1601563c1.8901367,0.1298828,3.7001953,0.3398438,5.2099609,0.5l1.2001953,0.1298828
	c12.7998047,1.3901367,31.2299805,9.2001953,42.0498047,14.2202148c-5.6098633,0.4399414-21.25,1.9101563-24.8300781,4.6899414
	C258.6401367,85.3300781,254.2900391,86,253.9101563,85.050293
	C252.1699219,80.6503906,239.7802734,68.8701172,235.8100586,65.1601563z"/>
<linearGradient id="SVGID_3_" gradientUnits="userSpaceOnUse" x1="143.7700195" y1="86.9350586" x2="244.8183594" y2="86.9350586">
	<stop  offset="0" style="stop-color:#BCBEC0"/>
	<stop  offset="0.0425931" style="stop-color:#BFC1C3"/>
	<stop  offset="0.0817458" style="stop-color:#C8CACC"/>
	<stop  offset="0.1195607" style="stop-color:#D8D9DA"/>
	<stop  offset="0.1563131" style="stop-color:#EDEEEF"/>
	<stop  offset="0.175758" style="stop-color:#FFFFFF"/>
	<stop  offset="0.312283" style="stop-color:#A7A9AC"/>
	<stop  offset="0.3719064" style="stop-color:#A9ABAE"/>
	<stop  offset="0.4038467" style="stop-color:#AFB1B4"/>
	<stop  offset="0.4292284" style="stop-color:#BBBCBF"/>
	<stop  offset="0.4511574" style="stop-color:#CBCCCE"/>
	<stop  offset="0.4706621" style="stop-color:#DFE0E1"/>
	<stop  offset="0.4838201" style="stop-color:#F1F2F2"/>
	<stop  offset="0.4937548" style="stop-color:#EAEBEB"/>
	<stop  offset="0.5323874" style="stop-color:#D1D3D5"/>
	<stop  offset="0.5735779" style="stop-color:#BFC0C3"/>
	<stop  offset="0.6179603" style="stop-color:#B1B3B6"/>
	<stop  offset="0.6678128" style="stop-color:#A9ACAE"/>
	<stop  offset="0.734526" style="stop-color:#A7A9AC"/>
	<stop  offset="0.8070959" style="stop-color:#FFFFFF"/>
	<stop  offset="0.816765" style="stop-color:#F2F3F3"/>
	<stop  offset="0.8421366" style="stop-color:#D7D8D9"/>
	<stop  offset="0.869711" style="stop-color:#C2C3C5"/>
	<stop  offset="0.9001888" style="stop-color:#B3B4B7"/>
	<stop  offset="0.9358341" style="stop-color:#AAACAF"/>
	<stop  offset="0.989154" style="stop-color:#A7A9AC"/>
</linearGradient>
<path fill="url(#SVGID_3_)" d="M143.7700195,68.8803711c8.6401367,10.0498047,15.8300781,11.2197266,22.2099609,12.25
	l0.9399414,0.159668c4.1298828,0.6801758,10.590332-0.8999023,16.8300781-2.4399414
	c4.7802734-1.1699219,9.2900391-2.2797852,12.6098633-2.3798828c2.0102539-0.0600586,4.0102539,2.0600586,6.340332,4.5297852
	c3.1298828,3.300293,7.0200195,7.4204102,12.6196289,7.4204102h0.0102539c2.6801758,0,5.2700195-1.2900391,7.1098633-3.5400391
	c1.9599609-2.4101563,2.7900391-5.5703125,2.2001953-8.4501953c-0.8798828-4.3300781-0.1801758-8.6201172,1.699707-10.2597656
	C229.2202148,69.3100586,240.4902344,81.6801758,244.75,87.800293c0.8798828,1.2700195-7,3.1899414-9.4199219,4.1699219
	c-4.7299805,1.9101563-6.3100586,5.8999023-6.6699219,9.5600586c-0.2402344,2.449707,0.0698242,4.7597656,0.3398438,6.1699219
	c-0.1699219-0.0400391-0.3398438-0.0698242-0.5097656-0.0698242c-16.3203125-0.3203125-21.0102539-4.4799805-24.7802734-7.8203125
	c-2.5400391-2.2397461-4.7299805-4.1796875-9.4599609-4.1796875c-2.3999023,0-5.4101563,0.1796875-8.5898438,0.3696289
	c-8.1801758,0.4902344-18.3701172,1.1000977-23.6103516-1.1196289c-7.25-3.0703125-13.449707-10.5800781-16.1499023-16.2602539
	C144.8398438,76.3901367,143.9799805,71.550293,143.7700195,68.8803711z"/>
<path fill="#4658A2" d="M226.3500977,66.1704102c0.2099609-0.1904297,0.4399414-0.340332,0.699707-0.4501953
	c1.4404297-0.6000977,3.9804688-0.8198242,7.550293-0.6298828c0.4101563,0.0200195,0.8100586,0.0400391,1.2099609,0.0698242
	c3.9702148,3.7099609,16.3598633,15.4902344,18.1000977,19.8901367c0.3798828,0.949707,4.7299805,0.2797852,5.5297852-0.3500977
	c3.5800781-2.7797852,19.2202148-4.25,24.8300781-4.6899414c0.5498047,0.2597656,1.0800781,0.5097656,1.5898438,0.75
	c3.6801758,1.7299805,6.3803711,3.0898438,7.4702148,3.6601563v7.699707
	c-3.9702148,0.300293-18.7998047,1.4199219-26.8300781,2.4101563c-0.6098633,0.0800781-0.4399414,2.0097656,0,2.4399414
	c7.3398438,7.1298828,22.7700195,21.8398438,26.8300781,25.7202148v10.449707
	c-1.7202148-1.3598633-4.6601563-3.6699219-8.0600586-6.2998047c-0.8901367-0.6899414-1.8198242-1.3999023-2.7797852-2.1401367
	c-5.5102539-7.2397461-20.4101563-25.5400391-31.4101563-27.3198242
	c-10.3701172-1.6899414-17.3300781,5.5996094-20.2202148,9.4697266l-0.0097656,0.0102539
	c-0.4101563,0.3500977-0.7299805,0.7797852-0.9301758,1.2998047c-0.0097656-0.0097656-0.0200195-0.0200195-0.0400391-0.0297852
	c-0.199707-0.1601563-0.4399414-0.300293-0.7099609-0.3803711c-0.0498047-0.0200195-0.1098633-0.0395508-0.1699219-0.0498047
	c-0.2700195-1.4101563-0.5800781-3.7202148-0.3398438-6.1699219c0.3598633-3.6601563,1.9399414-7.6499023,6.6699219-9.5600586
	C237.75,90.9902344,245.6298828,89.0703125,244.75,87.800293c-4.2597656-6.1201172-15.5297852-18.4902344-18.4101563-21.6298828
	H226.3500977z"/>
<linearGradient id="SVGID_4_" gradientUnits="userSpaceOnUse" x1="141.2700195" y1="117.534668" x2="251.6289063" y2="117.534668">
	<stop  offset="0" style="stop-color:#BCBEC0"/>
	<stop  offset="0.0425931" style="stop-color:#BFC1C3"/>
	<stop  offset="0.0817458" style="stop-color:#C8CACC"/>
	<stop  offset="0.1195607" style="stop-color:#D8D9DA"/>
	<stop  offset="0.1563131" style="stop-color:#EDEEEF"/>
	<stop  offset="0.175758" style="stop-color:#FFFFFF"/>
	<stop  offset="0.312283" style="stop-color:#A7A9AC"/>
	<stop  offset="0.3719064" style="stop-color:#A9ABAE"/>
	<stop  offset="0.4038467" style="stop-color:#AFB1B4"/>
	<stop  offset="0.4292284" style="stop-color:#BBBCBF"/>
	<stop  offset="0.4511574" style="stop-color:#CBCCCE"/>
	<stop  offset="0.4706621" style="stop-color:#DFE0E1"/>
	<stop  offset="0.4838201" style="stop-color:#F1F2F2"/>
	<stop  offset="0.4937548" style="stop-color:#EAEBEB"/>
	<stop  offset="0.5323874" style="stop-color:#D1D3D5"/>
	<stop  offset="0.5735779" style="stop-color:#BFC0C3"/>
	<stop  offset="0.6179603" style="stop-color:#B1B3B6"/>
	<stop  offset="0.6678128" style="stop-color:#A9ACAE"/>
	<stop  offset="0.734526" style="stop-color:#A7A9AC"/>
	<stop  offset="0.8070959" style="stop-color:#FFFFFF"/>
	<stop  offset="0.816765" style="stop-color:#F2F3F3"/>
	<stop  offset="0.8421366" style="stop-color:#D7D8D9"/>
	<stop  offset="0.869711" style="stop-color:#C2C3C5"/>
	<stop  offset="0.9001888" style="stop-color:#B3B4B7"/>
	<stop  offset="0.9358341" style="stop-color:#AAACAF"/>
	<stop  offset="0.989154" style="stop-color:#A7A9AC"/>
</linearGradient>
<path fill="url(#SVGID_4_)" d="M152.5400391,109.3100586c2.6801758,0.4003906,5.2099609,0.7802734,6.7700195,0.8203125
	c12.3398438,0.2998047,19.4399414-3.1699219,25.1201172-5.9702148c3.8198242-1.8701172,6.8696289-3.3398438,10.4599609-3.2998047
	c2.699707,0.0400391,4.4199219,1.2797852,6.7998047,2.9897461c4.4902344,3.2202148,10.6298828,7.6401367,27.8100586,6.2700195
	c0.0698242-0.0097656,0.1401367-0.0297852,0.2099609-0.0600586c0.9799805,8.3500977,25.550293,13.0703125,21.4599609,20.4101563
	c-0.0898438,0.1201172-0.1899414,0.25-0.3100586,0.3701172c-2.7099609,2.8100586-11.5097656,3.2299805-18.8696289,3.2900391
	c-0.6801758,0.0097656-1.4404297,0.0200195-2.25,0.0297852c-5.7299805,0.0898438-14.3901367,0.2299805-18.75-1.2998047
	c-1.7001953-0.6103516-3.8701172-2.3500977-6.1704102-4.1899414c-3.6499023-2.9301758-7.4296875-5.9501953-10.9897461-5.9501953
	c-3.2001953,0-6.4301758,0.7998047-9.8398438,1.6401367c-4.7900391,1.1796875-10.2099609,2.5200195-17.2802734,2.1899414
	c-9.0698242-0.4301758-24.1298828-11.1699219-25.4399414-18.0800781
	C142.5698242,107.8203125,149.0200195,108.7802734,152.5400391,109.3100586z"/>
<polygon fill="#B2B2B3" points="454.5,400.9702148 456,416.300293 437.1601563,418.4702148 436.1601563,403.9702148 "/>
<polygon fill="#B2B2B3" points="431.6601563,403.9702148 432.6601563,418.1303711 415.1699219,419.8500977 414,405.9702148 "/>
<polygon fill="#B2B2B3" points="409.3300781,405.9702148 410.8300781,420.300293 393.1601563,421.800293 391.5800781,407.300293 "/>
<linearGradient id="SVGID_5_" gradientUnits="userSpaceOnUse" x1="398.1899414" y1="370.8271484" x2="365.9717407" y2="588.024353">
	<stop  offset="0" style="stop-color:#FFFFFF"/>
	<stop  offset="0.155889" style="stop-color:#E5E5E6"/>
	<stop  offset="0.3577929" style="stop-color:#CACBCD"/>
	<stop  offset="0.5630633" style="stop-color:#B6B8BB"/>
	<stop  offset="0.7717953" style="stop-color:#ABADB0"/>
	<stop  offset="0.989154" style="stop-color:#A7A9AC"/>
</linearGradient>
<path fill="url(#SVGID_5_)" d="M384.3300781,494.550293c-11.3500977,7.6396484-31.3100586,13.9599609-51.6601563,17.0996094
	c-0.3701172-2.8398438-1.0297852-6.3095703-1.2197266-8.0996094c-0.1601563-1.6201172-0.2202148-5.1904297-1.1699219-7.2197266
	l-7.090332-36.1699219c15.9599609-0.6103516,33.8500977-2.2304688,44.6401367-3.8603516
	c28-4.25,70.0898438-25.2802734,70.0898438-25.2802734l13.6401367-3.7099609
	c-0.5,0.4404297-12.4702148,10.7197266-21.5600586,18.9902344c-0.4199219,0.3798828-0.8300781,0.7597656-1.2397461,1.1298828
	c-2.840332,2.6103516-5.3203125,4.9501953-6.9301758,6.6201172
	C412.0800781,464.1098633,397.3300781,485.800293,384.3300781,494.550293z"/>
<linearGradient id="SVGID_6_" gradientUnits="userSpaceOnUse" x1="334.222168" y1="361.3383789" x2="302.0039673" y2="578.5355835">
	<stop  offset="0" style="stop-color:#FFFFFF"/>
	<stop  offset="0.155889" style="stop-color:#E5E5E6"/>
	<stop  offset="0.3577929" style="stop-color:#CACBCD"/>
	<stop  offset="0.5630633" style="stop-color:#B6B8BB"/>
	<stop  offset="0.7717953" style="stop-color:#ABADB0"/>
	<stop  offset="0.989154" style="stop-color:#A7A9AC"/>
</linearGradient>
<path fill="url(#SVGID_6_)" d="M300.3598633,501.0297852h0.0200195l1.2900391-40.8398438
	c4.8999023,0.2705078,10.9399414,0.2802734,17.4599609,0.1005859l7.2402344,36.8896484
	c-0.3901367,2.9599609,1.1796875,7.9003906,1.5297852,9.7099609c0.2402344,1.25,1,3.3203125,1.8500977,5.1904297
	c-7.9697266,1.109375-15.9399414,1.7197266-23.4199219,1.7197266c-1.7402344,0-3.5498047-0.0498047-5.4199219-0.1396484
	c0-2.1308594-0.050293-4.1601563-0.0200195-5.3603516C300.9301758,506.6899414,301.0800781,503.2104492,300.3598633,501.0297852z"/>
<linearGradient id="SVGID_7_" gradientUnits="userSpaceOnUse" x1="307.0571289" y1="357.3076172" x2="274.8389587" y2="574.5048218">
	<stop  offset="0" style="stop-color:#FFFFFF"/>
	<stop  offset="0.155889" style="stop-color:#E5E5E6"/>
	<stop  offset="0.3577929" style="stop-color:#CACBCD"/>
	<stop  offset="0.5630633" style="stop-color:#B6B8BB"/>
	<stop  offset="0.7717953" style="stop-color:#ABADB0"/>
	<stop  offset="0.989154" style="stop-color:#A7A9AC"/>
</linearGradient>
<path fill="url(#SVGID_7_)" d="M297.6801758,459.8706055l-1.300293,41.0292969h0.0102539
	c-0.7099609,2.2001953-0.2202148,5.9199219-0.0800781,8.0205078c0.0800781,1.2001953,0.3198242,2.7998047,0.6601563,4.4697266
	c-7.8203125-0.6298828-16.4702148-2-25.1601563-3.9199219c0.1298828-1.9804688,0.2202148-3.8603516,0.3500977-4.9804688
	c0.2597656-2.0791016,1.909668-6.6191406,1.9399414-9.6298828h0.0200195l7.5600586-37.7792969
	C286.7998047,458.3803711,292.1401367,459.3500977,297.6801758,459.8706055z"/>
<linearGradient id="SVGID_8_" gradientUnits="userSpaceOnUse" x1="244.2416992" y1="347.9897461" x2="212.0235138" y2="565.1870117">
	<stop  offset="0" style="stop-color:#FFFFFF"/>
	<stop  offset="0.155889" style="stop-color:#E5E5E6"/>
	<stop  offset="0.3577929" style="stop-color:#CACBCD"/>
	<stop  offset="0.5630633" style="stop-color:#B6B8BB"/>
	<stop  offset="0.7717953" style="stop-color:#ABADB0"/>
	<stop  offset="0.989154" style="stop-color:#A7A9AC"/>
</linearGradient>
<path fill="url(#SVGID_8_)" d="M191.7202148,388.7602539l8.5097656,2.4501953l21.3500977,8.8398438c0,0-1.6699219,24.75,10.25,33
	c11.0400391,7.6503906,26.8398438,17.4599609,45.9897461,22.9794922l-7.5898438,37.890625
	c-1.4799805,2.2001953-2.949707,5.8701172-3.3198242,9.0498047c-0.1298828,1.1601563-0.050293,3.2099609,0.199707,5.4101563
	c-18.0297852-4.4003906-35.5996094-11.0898438-45.5297852-18.5800781c-15.9199219-12-37.2202148-33.4804688-37.25-69.5
	c-0.0102539-9.9101563,5.4599609-27.5,6.8300781-31.7602539L191.7202148,388.7602539z"/>
<path fill="#FFFFFF" d="M431.6699219,447.1000977c0.1000977-0.0996094,0.2001953-0.1894531,0.3203125-0.2900391
	c1.909668-1.6494141,3.9399414-2.9394531,5.5-3.8701172c6.8198242-4.0800781,26.6796875-14.8496094,30.1699219-16.7392578
	v-35.6303711L428.3300781,394.25v-0.0097656l-13.2402344,1.2397461v0.0102539l-34.5,3.2397461
	c-0.3896484,2.0400391-1.9599609,6.800293-6.3598633,18.5605469c-5,13.3193359-15.5800781,21.4394531-32.3701172,24.8193359
	c-13.9199219,2.8105469-32.909668,3.8603516-41.0097656,4.0205078c-0.550293,0.0097656-1.0102539,0.0097656-1.3500977,0.0097656
	c-1.3198242,0-3.1298828-0.0703125-5.2397461-0.2099609c-8.2802734-0.5498047-20.9702148-2.0400391-30.6401367-4.1503906
	c-17.7602539-3.8691406-36.2700195-9.9394531-38.9501953-25.6396484
	c-1.2797852-7.5498047-1.3500977-15.7797852-1.3500977-18.2700195l-23.0898438-6.659668l21.3500977,8.8398438
	c0,0-1.6699219,24.75,10.25,33c11.0400391,7.6503906,26.8398438,17.4599609,45.9897461,22.9794922l0.3901367-1.9697266
	c-0.5400391-0.5996094-0.8798828-1.3896484-0.8798828-2.2597656c0-1.8603516,1.5097656-3.3798828,3.3798828-3.3798828
	c1.8598633,0,3.3701172,1.5195313,3.3701172,3.3798828c0,1.3496094-0.7998047,2.5097656-1.9501953,3.0498047l-0.449707,2.2304688
	c5.1196289,1.2998047,10.4599609,2.2695313,16,2.7900391L297.75,457.8100586
	c-0.7797852-0.6201172-1.2998047-1.5595703-1.2998047-2.6298828c0-1.8701172,1.5200195-3.3798828,3.3798828-3.3798828
	s3.3798828,1.5097656,3.3798828,3.3798828c0,1.1503906-0.5898438,2.1601563-1.4697266,2.7705078l-0.0703125,2.2392578
	c4.8999023,0.2705078,10.9399414,0.2802734,17.4599609,0.1005859l-0.6196289-3.1806641
	c-1.1401367-0.5400391-1.9301758-1.6992188-1.9301758-3.0400391c0-1.8691406,1.5097656-3.3798828,3.3701172-3.3798828
	c1.8696289,0,3.3798828,1.5107422,3.3798828,3.3798828c0,0.8808594-0.3398438,1.6699219-0.8901367,2.2705078l0.75,3.8203125
	c15.9599609-0.6103516,33.8500977-2.2304688,44.6401367-3.8603516c28-4.25,70.0898438-25.2802734,70.0898438-25.2802734
	l13.6401367-3.7099609c-0.5,0.4404297-12.4702148,10.7197266-21.5600586,18.9902344
	c-0.4199219,0.3798828-0.8300781,0.7597656-1.2397461,1.1298828c-2.840332,2.6103516-5.3203125,4.9501953-6.9301758,6.6201172
	c-9.75,10.0595703-24.5,31.75-37.5,40.5c-11.3500977,7.6396484-31.3100586,13.9599609-51.6601563,17.0996094
	c0.3100586,2.4003906,0.4101563,4.3398438-0.1699219,4.4804688c-0.5698242,0.1396484-1.7299805-1.8105469-2.75-4.0498047
	c-7.9697266,1.109375-15.9399414,1.7197266-23.4199219,1.7197266c-1.7402344,0-3.5498047-0.0498047-5.4199219-0.1396484
	c0.0200195,3.9794922-0.1000977,8.3095703-1.0800781,8.3095703c-0.7099609,0-2.0498047-4.4902344-2.8598633-8.5800781
	c-7.8203125-0.6298828-16.4702148-2-25.1601563-3.9199219c-0.25,3.8095703-0.6298828,8-1.7299805,8
	c-1.3701172,0-2.4799805-4.8300781-2.9702148-9.0898438c-18.0297852-4.4003906-35.5996094-11.0898438-45.5297852-18.5800781
	c-15.9199219-12-37.2202148-33.4804688-37.25-69.5c-0.0102539-9.9101563,5.4599609-27.5,6.8300781-31.7602539l-0.0600586-0.0200195
	l-92.1298828-37.5097656c-0.1503906,0.4101563-0.2900391,1.1000977-0.1601563,1.9599609
	c0.1801758,1.1601563,0.9101563,2.8500977,3.3598633,4.2998047c14.7802734,8.7202148,59.5400391,34.7299805,59.9902344,35
	c4.7299805,3.0102539,10.1796875,9.3100586,11.1499023,14.6801758c0.5800781,3.199707,0.5600586,8.199707,0.5400391,13.0297852
	c-0.0200195,3.2304688-0.0302734,6.2802734,0.1499023,8.4101563c1.1401367,13.9404297,6.2900391,36.5,11.8701172,46.5996094
	c14.3100586,25.8701172,33.0800781,35.2304688,49.5498047,41.9609375
	c14.4702148,5.9296875,39.1201172,12.2695313,64.9101563,12.2695313c17.5400391,0,52.1801758-4.4599609,69.1699219-8.1503906
	c11.2001953-2.4394531,34.1499023-5.3896484,45.8300781-5.3896484h0.0400391c4.1601563,0,15.7900391,0.9804688,19.2998047,1.2900391
	l3.9199219-45.3496094c-3.1396484-0.640625-12.8896484-3.4003906-12.8896484-12.7001953
	c0-3.75,1.5400391-7.2802734,4.5698242-10.4697266C430.7001953,447.9897461,431.1699219,447.5405273,431.6699219,447.1000977z
	 M393.1601563,421.800293l-1.5800781-14.5l17.75-1.3300781l1.5,14.3300781L393.1601563,421.800293z M415.1699219,419.8500977
	L414,405.9702148l17.6601563-2l1,14.1601563L415.1699219,419.8500977z M437.1601563,418.4702148l-1-14.5l18.3398438-3
	l1.5,15.3300781L437.1601563,418.4702148z"/>
<path fill="#FFF200" d="M505.5,569.300293c0-4.8798828,3.9399414-8.8300781,8.8300781-8.8300781
	c4.8701172,0,8.8300781,3.9501953,8.8300781,8.8300781s-3.9599609,8.8300781-8.8300781,8.8300781
	C509.4399414,578.1303711,505.5,574.1801758,505.5,569.300293z"/>
<path fill="#FFF200" d="M482.75,562.4702148c-5.7197266,0-10.3398438-4.6298828-10.3398438-10.3398438
	c0-5.7001953,4.6201172-10.3300781,10.3398438-10.3300781c5.6899414,0,10.3300781,4.6298828,10.3300781,10.3300781
	C493.0800781,557.840332,488.4399414,562.4702148,482.75,562.4702148z"/>
<path fill="#FFF200" d="M442,554.8803711c-6.8198242,0-12.3398438-5.5205078-12.3398438-12.3300781
	c0-6.8105469,5.5200195-12.3300781,12.3398438-12.3300781c6.8100586,0,12.3300781,5.5195313,12.3300781,12.3300781
	C454.3300781,549.3598633,448.8100586,554.8803711,442,554.8803711z"/>
<circle fill="#FFF200" cx="400.8300781" cy="542.550293" r="14.5"/>
<path fill="#FFF200" d="M360.0400391,564.4702148c-8.3598633,0-15.1298828-6.7802734-15.1298828-15.1298828
	c0-8.3505859,6.7700195-15.1201172,15.1298828-15.1201172c8.3500977,0,15.1201172,6.7695313,15.1201172,15.1201172
	C375.1601563,557.6899414,368.3901367,564.4702148,360.0400391,564.4702148z"/>
<path fill="#FFF200" d="M318.8300781,537.6303711c9.4301758,0,17.0800781,7.6494141,17.0800781,17.0898438
	c0,9.4296875-7.6499023,17.0800781-17.0800781,17.0800781c-9.4399414,0-17.0800781-7.6503906-17.0800781-17.0800781
	C301.75,545.2797852,309.3901367,537.6303711,318.8300781,537.6303711z"/>
<path fill="#FFF200" d="M277.3300781,571.800293c-9.4399414,0-17.0800781-7.6503906-17.0800781-17.0800781
	c0-9.4404297,7.6401367-17.0898438,17.0800781-17.0898438c9.4301758,0,17.0800781,7.6494141,17.0800781,17.0898438
	C294.4101563,564.1499023,286.7602539,571.800293,277.3300781,571.800293z"/>
<path fill="#FFF200" d="M235.0400391,560.4702148c-8.3598633,0-15.1298828-6.7802734-15.1298828-15.1298828
	c0-8.3505859,6.7700195-15.1201172,15.1298828-15.1201172c8.3500977,0,15.1201172,6.7695313,15.1201172,15.1201172
	C250.1601563,553.6899414,243.3901367,560.4702148,235.0400391,560.4702148z"/>
<path fill="#FFF200" d="M196.0800781,552.1303711c-8.0102539,0-14.5-6.4902344-14.5-14.5c0-8,6.4897461-14.5,14.5-14.5
	c8.0097656,0,14.5,6.5,14.5,14.5C210.5800781,545.6401367,204.0898438,552.1303711,196.0800781,552.1303711z"/>
<path fill="#FFF200" d="M155,542.550293c-6.8198242,0-12.3398438-5.5205078-12.3398438-12.3300781
	c0-6.8203125,5.5200195-12.3398438,12.3398438-12.3398438c6.8100586,0,12.3300781,5.5195313,12.3300781,12.3398438
	C167.3300781,537.0297852,161.8100586,542.550293,155,542.550293z"/>
<path fill="#FFF200" d="M113.75,524.6704102c5.7001953,0,10.3300781,4.6298828,10.3300781,10.3398438
	S119.4501953,545.340332,113.75,545.340332c-5.7099609,0-10.3398438-4.6201172-10.3398438-10.3300781
	S108.0400391,524.6704102,113.75,524.6704102z"/>
<path fill="#FFF200" d="M82.5,543.800293c4.8701172,0,8.8300781,3.9501953,8.8300781,8.8300781
	S87.3701172,561.4702148,82.5,561.4702148c-4.8798828,0-8.8398438-3.9599609-8.8398438-8.8398438
	S77.6201172,543.800293,82.5,543.800293z"/>
<path fill="#6C9B56" d="M314.1298828,321.8901367c0.4702148,1.5102539,0.7001953,3.0302734,0.7001953,4.6098633
	c0,0.7602539-0.0302734,1.5-0.1000977,2.2299805c3.6098633,2.800293,7.0200195,6.1503906,10.1298828,9.9404297
	c4.5703125,5.5498047,8.1801758,11.6298828,10.7402344,18.0698242c0.1000977,0.25,0.199707,0.5097656,0.2998047,0.7597656
	c2.6401367,6.8803711,3.9799805,13.9404297,3.9799805,21c0.0102539,7.3803711-1.3896484,14.3100586-4.1396484,20.590332
	c-0.1303711,0.2900391-0.2602539,0.5698242-0.3901367,0.8598633c-3.0898438,6.6499023-7.7700195,12.4897461-13.5400391,16.8999023
	C316.5,420.9106445,310.5200195,423.6401367,304.5,424.7504883c-0.0097656,0.0097656-0.0097656,0.0097656-0.0200195,0.0195313
	c0,0,0,0-0.0097656,0c-0.0703125,0-0.1201172,0.0205078-0.1704102,0.0302734l-0.0195313-0.0097656
	c-0.050293,0.0097656-0.1103516,0.0195313-0.1601563,0.0292969c-1.7802734,0.3007813-3.5400391,0.4599609-5.2402344,0.4599609
	h-0.4296875c-0.1503906,0-0.300293,0-0.4501953-0.0097656c-2.0698242-0.0693359-4.2597656-0.3798828-6.5-0.9199219
	c-0.2099609-0.0498047-0.4101563-0.0996094-0.6201172-0.1601563c-5.9697266-1.5400391-11.949707-4.6894531-16.909668-8.9101563
	c-4.9799805-4.2294922-8.8901367-9.3793945-11.6201172-15.3295898c-0.1298828-0.2797852-0.25-0.5600586-0.3701172-0.8398438
	C259.25,392.8901367,257.8798828,385.9702148,257.8798828,378.5c0-7.0200195,1.4003906-14.0898438,4.1601563-21.0297852
	c0.1000977-0.25,0.2001953-0.5,0.2998047-0.75c2.6103516-6.3901367,6.2802734-12.4599609,10.9204102-18.0600586
	c2.75-3.3300781,5.7197266-6.3300781,8.8398438-8.9101563c-0.1499023-1.0698242-0.2202148-2.1396484-0.2202148-3.25
	c0-1.0795898,0.1303711-2.1396484,0.3901367-3.199707C268.5800781,335.1601563,254.8798828,356.5,254.8798828,378.5
	c0,32.5200195,25.3203125,47.9897461,43.0400391,48.5297852h0.0400391c0.1601563,0.0107422,0.3203125,0.0107422,0.4702148,0.0107422
	c0.1499023,0.0097656,0.3100586,0.0097656,0.4599609,0.0097656c9.8100586,0,20.5800781-4.5703125,28.8100586-12.2197266
	c6.9296875-6.4501953,15.1899414-17.9804688,15.1796875-36.3305664
	C342.8701172,354.9003906,328.4902344,333.300293,314.1298828,321.8901367z"/>
<path fill="#6C9B56" d="M308.1298828,312.4604492c15.5102539,8.4697266,38.7299805,34.5297852,38.75,66.0395508
	c0.0102539,19.9604492-8.9897461,32.2397461-16.5498047,39.0405273
	c-8.8798828,7.9892578-20.6401367,12.7597656-31.4501953,12.7597656c-8.1196289,0-20.4897461-3.1904297-30.8896484-12.1601563
	c-7.8100586-6.7197266-17.1103516-19.0600586-17.1103516-39.6401367c0-30.0498047,22.1801758-55.8896484,37.5800781-65.2099609
	c-1.7597656,1.8603516-3.4799805,3.9101563-4.7197266,6.2202148C268.8398438,331.0600586,252.8798828,354.3803711,252.8798828,378.5
	c0,34.4799805,27.4501953,50.550293,46.0102539,50.550293c10.2998047,0,21.5800781-4.7705078,30.1699219-12.7597656
	c7.2299805-6.7104492,15.8300781-18.7202148,15.8198242-37.7905273
	c-0.0097656-25.8598633-16.7700195-49.3696289-32.409668-60.3496094
	C311.25,316.0400391,309.6899414,314.1801758,308.1298828,312.4604492z"/>
<path fill="#6C9B56" d="M299.5302734,435.6704102c-0.2900391,0.0097656-0.5600586,0.0097656-0.6503906,0.0097656
	c-11.9897461,0-25-4.9003906-34.7900391-13.1201172c-8.7700195-7.3496094-19.2099609-20.9599609-19.2099609-44.0600586
	c0-39.1298828,28.25-74.6298828,51.6899414-76.8798828c0.4301758-1.5097656,0.8100586-3.0498047,1.050293-4.0800781
	c-0.8300781,0.0302734-1.6899414,0.1103516-2.5302734,0.2299805l-0.5498047,0.090332
	c-12.1499023,1.8896484-25.4501953,11.7299805-35.5698242,26.3198242
	c-11.0200195,15.8901367-17.090332,35.1801758-17.090332,54.3198242c0,39.4604492,28.3100586,55.6098633,52.550293,57.4506836
	c1.5200195,0.1191406,3.0200195,0.1894531,4.4799805,0.1796875c0.199707,0,0.409668,0,0.6201172-0.0097656
	c0.1196289,0.0097656,0.25,0,0.3798828,0c0.2900391,0,0.5498047-0.0107422,0.8100586-0.0205078
	c20.5498047-0.6796875,55.1899414-13.5703125,55.159668-57.6000977c-0.0097656-20.2099609-6.5297852-40.1796875-18.3496094-56.25
	c-10.7304688-14.5898438-24.4804688-23.8095703-36.7802734-24.6699219
	c-0.1899414-0.0200195-0.3901367-0.0297852-0.6000977-0.0400391c0.2602539,1.0302734,0.6499023,2.5703125,1.090332,4.090332
	C312.4501953,302.7299805,325.1201172,311.5,335.25,325.25c11.3598633,15.4204102,17.6201172,34.3300781,17.6298828,53.25
	c0.0200195,40.4204102-32.0200195,56.4399414-52.5200195,57.1499023
	C300.1601563,435.6606445,299.8300781,435.6606445,299.5302734,435.6704102z"/>
<path fill="#6C9B56" d="M301.8701172,303.7299805c0.4199219,1.3100586,0.7197266,1.9604492,0.8901367,2.2900391
	c0.4199219,0.7700195,1.0395508,1.6303711,1.9296875,2.6801758C320.25,314.4101563,348.8598633,343.1401367,348.8798828,378.5
	c0.0102539,20.6904297-9.3496094,33.4604492-17.2099609,40.5297852
	c-8.3701172,7.5302734-19.2197266,12.3105469-29.5898438,13.140625c-0.5400391,0.0498047-1.0698242,0.0800781-1.6000977,0.0996094
	c-0.5400391,0.0205078-1.0698242,0.0302734-1.6000977,0.0302734c-8.4799805,0-21.3798828-3.3203125-32.199707-12.6396484
	c-8.1201172-7-17.800293-19.8203125-17.800293-41.1606445c0-34.409668,28.4199219-63.4697266,43.8603516-69.6098633
	c1.0698242-1.1499023,1.7998047-2.0698242,2.2797852-2.8901367c0.2602539-0.4599609,0.5600586-1.2197266,0.9101563-2.2895508
	c-22.4599609,2.909668-49.050293,37.1098633-49.050293,74.7895508c0,40.2006836,31.9003906,55.1801758,52,55.1801758
	c0.3203125-0.0097656,0.6699219,0,1.0102539-0.0097656c0.2099609-0.0097656,0.4296875-0.0097656,0.6499023-0.0302734
	c0.5400391-0.0195313,1.0898438-0.0498047,1.6499023-0.0996094c19.7700195-1.5605469,48.7099609-17.2607422,48.6899414-55.0405273
	C350.8598633,338.0600586,322.1401367,306.5302734,301.8701172,303.7299805z"/>
<path fill="#597DBE" d="M301.8300781,286.5102539c17.4697266,0.4897461,27.8798828,6.6499023,43.8999023,25.7597656
	c5.3398438,6.3803711,11.8198242,15.1303711,18.6801758,24.4003906
	C379.5,357.050293,396.5200195,380.050293,412.5102539,393.7104492l-32.8100586,3.0898438h-0.090332v0.0200195
	c-0.0097656,0-0.0097656,0-0.0097656,0c-0.0102539,0-0.0102539,0-0.0200195,0c-0.0800781,0-0.1401367,0.0200195-0.1899414,0.0498047
	c-0.1000977,0.0302734-0.1801758,0.0800781-0.25,0.1401367c-0.0200195,0.0097656-0.0302734,0.0200195-0.050293,0.0297852
	c-0.0595703,0.0600586-0.1098633,0.1201172-0.159668,0.1801758c-0.0200195,0.0297852-0.0302734,0.0600586-0.050293,0.0898438
	c-0.0297852,0.0600586-0.0600586,0.1303711-0.0800781,0.2001953c-0.0097656,0.0400391-0.0097656,0.0800781-0.0195313,0.1201172
	c-0.0102539,0.0698242-0.0200195,0.1396484-0.0200195,0.2099609c-0.0102539,0.0097656-0.0200195,0.0297852-0.0200195,0.0498047
	c-0.0102539,0.0102539-0.0102539,0.0200195-0.0102539,0.0302734c0,0.0097656,0,0.0200195,0,0.0297852
	c-0.0297852,0.4101563-0.5400391,3.0297852-6.3798828,18.6401367c-3.0102539,8.0498047-9.5,19.25-30.8901367,23.5595703
	c-13.2299805,2.6699219-31.1098633,3.7304688-39.6298828,3.9501953v-6.0498047
	c27.2001953-1.3105469,56.0800781-20.3701172,56.0498047-59.550293
	c-0.0297852-43.9399414-29.949707-80.2299805-56.0498047-82.8398438V286.5102539z"/>
<path fill="#597DBE" d="M334.1601563,397.6904297c-1.75-2.2602539-5.2802734-7.9702148-5.2802734-17.1904297
	c0-9.4897461,3.7299805-17.6098633,5.6000977-21.0698242c2.2602539,6.2700195,3.3999023,12.6801758,3.3999023,19.0698242
	C337.8901367,385.3701172,336.6401367,391.8203125,334.1601563,397.6904297z"/>
<path fill="#ED1C24" d="M326.8798828,380.5c0,11.1503906,4.7602539,17.4301758,6.3603516,19.2202148
	c-2.800293,5.7998047-6.8901367,10.9404297-11.8803711,14.9404297c-1.5297852-1.3105469-4.3398438-3.4306641-5.9897461-2.9003906
	c-3.6699219,1.1396484-9.3999023,7.9296875-11.9501953,11.1298828c-1.5498047,0.2597656-3.0698242,0.3896484-4.5400391,0.3896484
	c-2.0698242,0-4.2900391-0.2597656-6.5898438-0.7998047c-1.4799805-1.9296875-8.1899414-10.3398438-12.3300781-11.6298828
	c-1.4296875-0.4599609-3.7397461,1.0898438-5.3198242,2.3603516c-4.3100586-3.800293-7.7299805-8.3500977-10.2099609-13.5400391
	c1.4897461-1.9301758,6.449707-9.1303711,6.449707-19.1704102H326.8798828z"/>
<path fill="#597DBE" d="M322.7202148,339.2202148c-2.1899414,2.0097656-9.9204102,8.2900391-21.4799805,9.0698242
	c1.159668-0.3100586,2.3398438-0.8598633,3.5097656-1.6098633c4.8398438-3.1000977,8.5200195-9.1201172,9.6601563-15.6499023
	C317.3198242,333.3901367,320.1601563,336.1904297,322.7202148,339.2202148z"/>
<path fill="#334E3A" d="M298.8798828,346.6303711c-0.7900391,0-1.6298828-0.1503906-2.5097656-0.4301758
	c0.7397461-2.0400391,2.3398438-6.6699219,2.8398438-9.6699219c0.6499023,2.8901367,2.7202148,7.0898438,3.6699219,8.9399414
	C301.4902344,346.2299805,300.1201172,346.6303711,298.8798828,346.6303711z"/>
<path fill="#334E3A" d="M296.75,307c0.4101563-0.7099609,0.8398438-1.8198242,1.3398438-3.4799805
	c0.0703125-0.2099609,0.1401367-0.4399414,0.2099609-0.6796875c0.1303711-0.4399414,0.25-0.8901367,0.3803711-1.3300781
	c0.0698242-0.2802734,0.1499023-0.5600586,0.2197266-0.8300781c0.0703125,0.2700195,0.1499023,0.5498047,0.2202148,0.8300781
	c0.1298828,0.4501953,0.25,0.8999023,0.3798828,1.3398438c0.0698242,0.2299805,0.1401367,0.4501953,0.2001953,0.6699219
	c0.5097656,1.6503906,0.9399414,2.7900391,1.2998047,3.4599609c0.1401367,0.2602539,0.3100586,0.5200195,0.4799805,0.800293
	c0.4799805,0.7197266,1.0800781,1.5097656,1.8701172,2.4199219c0.0600586,0.0698242,0.1098633,0.1298828,0.1699219,0.2001953
	c0.6201172,0.699707,1.2900391,1.4199219,1.9799805,2.159668c-0.0400391,0.3500977-0.0898438,0.8701172-0.1499023,1.5102539
	c-0.0400391,0.4199219-0.0898438,0.8901367-0.1401367,1.3901367c-0.0200195,0.2299805-0.0498047,0.4697266-0.0698242,0.7099609
	c-0.2001953,2.0595703-0.4599609,4.5498047-0.6899414,6.5c-0.050293,0.4697266-0.1000977,0.909668-0.1503906,1.3095703
	c-0.0297852,0.25-0.0595703,0.4804688-0.0898438,0.6904297c0,0.0200195-0.0097656,0.0400391-0.0097656,0.0595703
	c-0.2402344,1.6601563-1.4702148,3.3803711-2.6699219,5.0400391c-1.0102539,1.4003906-1.9702148,2.7299805-2.3500977,4.0703125
	c-0.3803711-1.3300781-1.340332-2.6699219-2.3500977-4.0703125c-1.2099609-1.6796875-2.4599609-3.4199219-2.6801758-5.0898438
	l-0.0200195-0.1298828l-0.0898438-0.75c-0.0400391-0.3798828-0.0898438-0.8203125-0.1401367-1.2900391
	c-0.1899414-1.8398438-0.4296875-4.2802734-0.6396484-6.5498047c-0.0200195-0.25-0.0400391-0.4804688-0.0600586-0.7202148
	c-0.050293-0.4902344-0.090332-0.9501953-0.1303711-1.3701172c-0.0898438-0.9697266-0.1699219-1.75-0.2099609-2.2099609
	l0.2900391-0.2998047c0.2602539-0.2700195,0.5102539-0.5302734,0.7602539-0.7900391
	c0.0498047-0.0600586,0.1098633-0.1098633,0.159668-0.1699219c0.9301758-0.9902344,1.6303711-1.8300781,2.1704102-2.6103516
	C296.4301758,307.5200195,296.6000977,307.2602539,296.75,307z"/>
<path fill="#D1DB3F" d="M295.9599609,348.1601563c0.9599609,0.1401367,1.9199219,0.2202148,2.8701172,0.2202148
	c0.8198242,0,1.6298828-0.0302734,2.4101563-0.090332c-0.800293,0.2299805-1.6000977,0.340332-2.3603516,0.340332
	C297.9501953,348.6303711,296.9702148,348.4702148,295.9599609,348.1601563z"/>
<path fill="#597DBE" d="M239.8798828,378.5c0,40.3198242,28.5800781,57.1206055,53.4501953,59.3706055v5.9892578
	c-8.2099609-0.5996094-20.1298828-2.0400391-29.2900391-4.0400391
	c-17.9599609-3.9091797-34.9199219-9.5292969-37.3901367-24.0195313c-1.409668-8.2602539-1.3398438-17.3798828-1.3198242-18.5302734
	c2.0297852-6.449707,3.5097656-14.9199219,5.0698242-23.8896484C231.8798828,364.8701172,233.4101563,356.0703125,235.5,348.75
	c5.0498047-17.6899414,12.6401367-30.5595703,26.2099609-44.4199219
	c5.3203125-5.4296875,17.8300781-15.0097656,31.6201172-17.3300781v9.0302734
	C267.9101563,300.7202148,239.8798828,336.550293,239.8798828,378.5z"/>
<path fill="#334E3A" d="M288.5302734,316.2104492c0.7998047-0.9404297,1.6499023-1.8300781,2.4897461-2.6801758
	c0.0297852,0.3798828,0.0698242,0.7900391,0.1201172,1.2197266c0.0200195,0.2202148,0.0400391,0.4501953,0.0600586,0.6801758
	c0.0400391,0.4599609,0.0898438,0.9501953,0.1298828,1.4702148c0.2001953,2.0795898,0.4399414,4.5200195,0.6499023,6.3896484
	c0.0302734,0.2602539,0.050293,0.5102539,0.0800781,0.7402344l0.1098633,0.8999023
	c0.0200195,0.1499023,0.050293,0.2998047,0.0800781,0.4501953c0.4101563,2.0097656,1.7602539,3.8798828,2.9599609,5.5498047
	c1.0898438,1.5302734,2.1298828,2.9702148,2.1499023,4.0498047c0.0302734,2.0400391-1.7797852,7.5200195-2.8295898,10.4404297
	c-4.2402344-2.2202148-8.9501953-7.5400391-10.2700195-14.8603516c-0.0400391-0.1899414-0.0703125-0.3798828-0.1000977-0.5698242
	c-0.090332-0.5800781-0.1601563-1.1499023-0.2099609-1.7202148c0-0.0097656,0-0.0097656,0-0.0097656
	c-0.050293-0.5800781-0.0703125-1.1601563-0.0703125-1.7602539c0-1.9199219,0.4702148-3.7797852,1.4501953-5.6899414
	c0.0200195-0.0600586,0.0600586-0.1298828,0.0898438-0.1899414
	C286.2402344,319.050293,287.3300781,317.5800781,288.5302734,316.2104492z"/>
<path fill="#597DBE" d="M282.5,332.0102539c1.8300781,8.0498047,7.3100586,13.6401367,12.2001953,15.7001953
	c0.4199219,0.1796875,0.8398438,0.3295898,1.2597656,0.449707c-8.6401367-1.1801758-17.6899414-7.0898438-20.4697266-9.0400391
	C277.7001953,336.5102539,280.0498047,334.1303711,282.5,332.0102539z"/>
<path fill="#D1DB3F" d="M303.1499023,330.9301758c-1.0898438,1.5302734-2.1298828,2.9702148-2.1499023,4.0600586
	c-0.0297852,1.9501953,2.2299805,6.7797852,3.5698242,9.3798828c3.3500977-2.5498047,7.1401367-7.659668,8.050293-14.7397461
	c0.0297852-0.1801758,0.0498047-0.3701172,0.0698242-0.5600586c0.0600586-0.590332,0.1098633-1.1899414,0.1201172-1.7900391
	c0.0200195-0.2602539,0.0200195-0.5200195,0.0200195-0.7802734c0-2.3896484-0.6098633-4.6796875-1.8798828-6.9697266
	c-0.0200195-0.0698242-0.0600586-0.1298828-0.1000977-0.2001953c-0.800293-1.409668-1.7802734-2.7197266-2.8300781-3.9599609
	c-0.2299805-0.2797852-0.4702148-0.5498047-0.7099609-0.8300781c-0.0200195,0.1401367-0.0297852,0.2802734-0.0498047,0.4204102
	c0,0.0097656,0,0.0097656,0,0.0097656c-0.0200195,0.2202148-0.050293,0.4501953-0.0703125,0.6899414
	c-0.0400391,0.4599609-0.0898438,0.9501953-0.1401367,1.4599609c-0.2099609,2.1201172-0.4697266,4.5600586-0.6899414,6.3598633
	c-0.0200195,0.2602539-0.0498047,0.5-0.0795898,0.7304688c-0.0302734,0.2597656-0.0600586,0.5097656-0.090332,0.7299805
	c-0.0297852,0.199707-0.0600586,0.409668-0.1201172,0.6098633
	C305.6298828,327.4902344,304.3198242,329.3100586,303.1499023,330.9301758z M299.2099609,336.5302734
	c-0.5,3-2.1000977,7.6298828-2.8398438,9.6699219c0.8798828,0.2797852,1.7197266,0.4301758,2.5097656,0.4301758
	c1.2402344,0,2.6103516-0.4003906,4-1.1601563C301.9301758,343.6201172,299.8598633,339.4204102,299.2099609,336.5302734z
	 M293.9101563,310.5703125c-0.25,0.2597656-0.5,0.5200195-0.7602539,0.7900391l-0.2900391,0.2998047
	c0.0400391,0.4599609,0.1201172,1.2402344,0.2099609,2.2099609c0.0400391,0.4199219,0.0800781,0.8798828,0.1303711,1.3701172
	c0.0200195,0.2397461,0.0400391,0.4702148,0.0600586,0.7202148c0.2099609,2.2695313,0.449707,4.7099609,0.6396484,6.5498047
	c0.050293,0.4697266,0.1000977,0.9101563,0.1401367,1.2900391l0.0898438,0.75l0.0200195,0.1298828
	c0.2202148,1.6699219,1.4702148,3.4101563,2.6801758,5.0898438c1.0097656,1.4003906,1.9697266,2.7402344,2.3500977,4.0703125
	c0.3798828-1.340332,1.3398438-2.6699219,2.3500977-4.0703125c1.199707-1.659668,2.4296875-3.3798828,2.6699219-5.0400391
	c0-0.0195313,0.0097656-0.0395508,0.0097656-0.0595703c0.0302734-0.2099609,0.0600586-0.4404297,0.0898438-0.6904297
	c0.050293-0.3999023,0.1000977-0.8398438,0.1503906-1.3095703c0.2299805-1.9501953,0.4897461-4.4404297,0.6899414-6.5
	c0.0200195-0.2402344,0.0498047-0.4799805,0.0698242-0.7099609c0.050293-0.5,0.1000977-0.9702148,0.1401367-1.3901367
	c0.0600586-0.6401367,0.1098633-1.1601563,0.1499023-1.5102539c-0.6899414-0.7397461-1.3598633-1.4599609-1.9799805-2.159668
	c-0.0600586-0.0703125-0.1098633-0.1303711-0.1699219-0.2001953c-0.7900391-0.9101563-1.3901367-1.7001953-1.8701172-2.4199219
	C301.3100586,307.5,301.1401367,307.2402344,301,306.9799805c-0.3598633-0.6699219-0.7900391-1.8095703-1.2998047-3.4599609
	c-0.0600586-0.2197266-0.1303711-0.4399414-0.2001953-0.6699219c-0.1298828-0.4399414-0.25-0.8896484-0.3798828-1.3398438
	c-0.0703125-0.2802734-0.1499023-0.5600586-0.2202148-0.8300781c-0.0698242,0.2700195-0.1499023,0.5498047-0.2197266,0.8300781
	c-0.1303711,0.4399414-0.25,0.8901367-0.3803711,1.3300781c-0.0698242,0.2397461-0.1396484,0.4697266-0.2099609,0.6796875
	c-0.5,1.6601563-0.9296875,2.7700195-1.3398438,3.4799805c-0.1499023,0.2602539-0.3198242,0.5200195-0.5097656,0.7900391
	c-0.5400391,0.7802734-1.2402344,1.6201172-2.1704102,2.6103516
	C294.0200195,310.4604492,293.9599609,310.5102539,293.9101563,310.5703125z M285.3300781,320.8100586
	c-0.9799805,1.9101563-1.4501953,3.7700195-1.4501953,5.6899414c0,0.6000977,0.0200195,1.1801758,0.0703125,1.7602539
	c0,0,0,0,0,0.0097656c0.0498047,0.5703125,0.1196289,1.1401367,0.2099609,1.7202148
	c0.0297852,0.1899414,0.0600586,0.3798828,0.1000977,0.5698242c1.3198242,7.3203125,6.0297852,12.6401367,10.2700195,14.8603516
	c1.0498047-2.9204102,2.8598633-8.4003906,2.8295898-10.4404297c-0.0200195-1.0795898-1.0600586-2.5195313-2.1499023-4.0498047
	c-1.199707-1.6699219-2.5498047-3.5400391-2.9599609-5.5498047c-0.0297852-0.1503906-0.0600586-0.300293-0.0800781-0.4501953
	l-0.1098633-0.8999023c-0.0297852-0.2299805-0.0498047-0.4799805-0.0800781-0.7402344
	c-0.2099609-1.8696289-0.449707-4.3100586-0.6499023-6.3896484c-0.0400391-0.5200195-0.0898438-1.0102539-0.1298828-1.4702148
	c-0.0200195-0.2299805-0.0400391-0.4599609-0.0600586-0.6801758c-0.050293-0.4296875-0.090332-0.8398438-0.1201172-1.2197266
	c-0.8398438,0.8500977-1.6899414,1.7397461-2.4897461,2.6801758c-1.2001953,1.3696289-2.2900391,2.8398438-3.1103516,4.409668
	C285.3901367,320.6801758,285.3500977,320.75,285.3300781,320.8100586z M282.2700195,323.300293
	c0.2797852-1.2001953,0.7402344-2.3999023,1.3701172-3.6000977c0.0297852-0.0600586,0.0698242-0.1298828,0.1000977-0.1899414
	c1.2397461-2.3100586,2.9599609-4.3598633,4.7197266-6.2202148c0.7402344-0.7900391,1.5-1.5400391,2.2202148-2.2700195
	l1.0400391-1.0595703c0.3100586-0.3100586,0.6098633-0.6201172,0.8896484-0.9301758
	c0.050293-0.050293,0.090332-0.1000977,0.1303711-0.1401367c1.0698242-1.1499023,1.7998047-2.0698242,2.2797852-2.8901367
	c0.2602539-0.4599609,0.5600586-1.2197266,0.9101563-2.2895508c0.1499023-0.4301758,0.2998047-0.9101563,0.449707-1.4301758
	c0.0600586-0.2202148,0.1303711-0.4399414,0.1899414-0.6601563c0.4301758-1.5097656,0.8100586-3.0498047,1.050293-4.0800781
	c0.1796875-0.75,0.2797852-1.2397461,0.2797852-1.25C298,295.8300781,298.3999023,295.5,298.8701172,295.5h0.0097656
	c0.4399414,0,0.8300781,0.2900391,0.9501953,0.7104492c0.0097656,0.0195313,0.0200195,0.0395508,0.0200195,0.0595703
	c0,0.0102539,0.0200195,0.090332,0.0498047,0.2299805c0.0600586,0.2202148,0.1401367,0.5800781,0.25,1.0400391
	c0.2602539,1.0302734,0.6499023,2.5703125,1.090332,4.090332c0.0498047,0.2197266,0.1196289,0.4399414,0.1796875,0.659668
	c0.1601563,0.550293,0.3100586,1.0302734,0.4501953,1.4399414c0.4199219,1.3100586,0.7197266,1.9604492,0.8901367,2.2900391
	c0.4199219,0.7700195,1.0395508,1.6303711,1.9296875,2.6801758c0.0600586,0.0600586,0.1098633,0.1201172,0.1699219,0.1899414
	c0.7402344,0.8398438,1.5600586,1.7299805,2.4101563,2.6401367c0.2797852,0.3100586,0.5698242,0.6098633,0.8598633,0.9301758
	c1.5600586,1.7197266,3.1201172,3.5795898,4.340332,5.6899414c0.0400391,0.0600586,0.0795898,0.1298828,0.1196289,0.199707
	c0.6704102,1.1801758,1.1801758,2.3500977,1.5400391,3.5400391c0.4702148,1.5102539,0.7001953,3.0302734,0.7001953,4.6098633
	c0,0.7602539-0.0302734,1.5-0.1000977,2.2299805c-0.0200195,0.1801758-0.0400391,0.3701172-0.0600586,0.550293
	c-0.0600586,0.5898438-0.1499023,1.1699219-0.2597656,1.75c-1.1401367,6.5297852-4.8203125,12.5498047-9.6601563,15.6499023
	c-1.1699219,0.75-2.3500977,1.2998047-3.5097656,1.6098633c-0.7802734,0.0600586-1.590332,0.090332-2.4101563,0.090332
	c-0.9501953,0-1.9101563-0.0800781-2.8701172-0.2202148c-0.4199219-0.1201172-0.8398438-0.2700195-1.2597656-0.449707
	c-4.8901367-2.0600586-10.3701172-7.6503906-12.2001953-15.7001953c-0.1201172-0.5600586-0.2299805-1.1298828-0.3198242-1.7099609
	c-0.0302734-0.1801758-0.0600586-0.3701172-0.0800781-0.550293c-0.1499023-1.0698242-0.2202148-2.1396484-0.2202148-3.25
	C281.8798828,325.4204102,282.0102539,324.3603516,282.2700195,323.300293z"/>
<path fill="#597DBE" d="M276.2001953,414.5297852c1.3598633-1.0400391,2.7397461-1.8291016,3.159668-1.7792969
	c2.5102539,0.7900391,6.8203125,5.4501953,9.6103516,8.7900391
	C284.4702148,420.0405273,280.0498047,417.6206055,276.2001953,414.5297852z"/>
<path fill="#FFFFFF" d="M333.5498047,357.0200195c-1.3095703,2.1801758-6.6699219,11.840332-6.6699219,23.4799805h-56
	c0-11.4599609-5.2099609-21.2397461-6.5-23.4599609c2.4003906-5.7700195,5.7001953-11.2700195,9.8300781-16.3696289
	c3.050293,2.1699219,14.3598633,9.6796875,24.6699219,9.7099609c13.5102539,0,22.4599609-7.1601563,25.1201172-9.6000977
	C328.0102539,345.8100586,331.2202148,351.2602539,333.5498047,357.0200195z"/>
<path fill="#597DBE" d="M263.4902344,397.5400391c-2.4003906-5.7597656-3.6103516-12.1499023-3.6103516-19.0400391
	c0-6.3398438,1.1899414-12.7397461,3.5400391-19.0395508c1.8100586,3.5498047,5.4599609,11.8295898,5.4599609,21.0395508
	C268.8798828,388.6503906,265.2802734,394.9301758,263.4902344,397.5400391z"/>
<path fill="#FFFFFF" d="M309.46875,391.0249023v12.0498047c-4.4389648-2.671875-7.6679688-2.3354492-7.6679688-2.3354492
	s0.6679688,4.6914063,2.6713867,7.3549805h-12.0488281c1.762207-2.6635742,2.5400391-7.3549805,2.5400391-7.3549805
	s-4.0996094-0.1054688-7.5834961,2.3354492v-12.0498047c2.5976563,1.8833008,7.5834961,2.8774414,7.5834961,2.8774414
	s-0.0893555-4.2495117-2.5400391-7.8310547h12.0488281c-2.300293,2.6953125-2.6713867,7.8310547-2.6713867,7.8310547
	S306.9047852,392.8427734,309.46875,391.0249023z"/>
<path fill="#ED1C24" d="M319.4667969,359.09375c-0.0893555-0.418457-0.9545898-0.7788086-1.3808594-0.7890625
	c-0.4707031-0.0102539-1.2490234,0.6884766-1.7089844,0.7890625c-0.3681641,0.081543-1.1860352-0.1948242-1.512207,0
	c-0.296875,0.1787109-0.3574219,1.0483398-0.6572266,1.2280273c-0.2919922,0.1728516-1.1020508-0.2270508-1.3574219,0
	c-0.1625977,0.1416016,0.0268555,0.6879883-0.1098633,0.8544922c-0.2973633,0.3574219-1.6230469,0.128418-1.7753906,0.5678711
	c-0.1132813,0.3256836,0.7387695,0.7963867,0.7680664,1.1416016c0.015625,0.2207031-0.4052734,0.5854492-0.4052734,0.8198242
	c0,0.0185547,0.0029297,0.0371094,0.0107422,0.0556641c0.1186523,0.3232422,0.9042969,0.5517578,1.2490234,0.5913086
	c0.3447266,0.0371094,1.0102539-0.2758789,1.3569336-0.3081055c0.2133789-0.0175781,0.6625977,0.137207,0.8544922,0.0454102
	c0.3129883-0.1499023,0.0551758-0.7890625,0.8125-1.1176758c1.0258789-0.4472656,0.8310547,0.762207,0.7548828,1.0307617
	c-0.2285156,0.8100586-1.3120117-0.0053711-1.4487305,0.4204102c-0.1391602,0.434082-0.4995117,1.03125-0.8413086,1.1020508
	c-0.2314453,0.0478516-0.7602539-0.4077148-0.9970703-0.4179688c-0.2919922-0.0136719-0.8652344,0.1103516-0.9882813,0.5708008
	c-0.0605469,0.2285156-0.0185547,0.515625,0.1445313,0.6674805c0.1181641,0.1108398,0.5258789,0.1420898,0.5048828,0.3945313
	c-0.0634766,0.7099609-1.5410156,0.6943359-2.059082,0.5712891c-0.25-0.0610352-0.5600586-0.1108398-0.8891602-0.2084961
	c-0.4228516-0.1235352-0.8779297-0.3178711-1.2749023-0.6889648c-0.5761719-0.5332031-1.262207-1.5009766-1.0205078-1.7094727
	c0.2524414-0.2177734,0.5283203,0.234375,1.1518555,0.4501953c0.8310547,0.2890625,0.8886719-0.5185547,1.0200195-0.5576172
	c0.1948242-0.0629883,0.9916992,0.2314453,1.2573242-0.5361328c0.0444336-0.1269531,0.0600586-0.2368164,0.0527344-0.3286133
	c-0.0322266-0.5556641-0.8076172-0.5791016-0.7631836-0.7075195c0.4707031-1.3574219-0.9204102-1.2675781-0.909668-1.4492188
	c0.0107422-0.1948242,0.3681641-0.1186523,0.5288086-0.5786133c0.2363281-0.6811523-0.7524414-0.9594727-0.7524414-0.9594727
	s0.1577148-1.1577148-0.578125-1.4125977c-0.7392578-0.2573242-1.3334961,0.7495117-1.3334961,0.7495117
	s-0.9467773-0.3945313-1.1831055,0.2866211c-0.1606445,0.4575195,0.1655273,0.6206055,0.0551758,0.7807617
	c-0.1025391,0.1503906-1.1391602-0.7832031-1.6123047,0.5712891c-0.0498047,0.1494141-0.894043-0.5053711-1.2016602,0.3735352
	c-0.265625,0.7675781,0.5415039,1.027832,0.6572266,1.1987305c0.0766602,0.1162109-0.4414063,0.8886719,0.3891602,1.1782227
	c0.6235352,0.215332,1.4912109,0.097168,1.512207,0.25c0.0263672,0.1762695-1.1279297,1.6879883-2.2143555,1.6879883
	c-0.1000977,0-0.2050781-0.0078125-0.3100586-0.0263672c-0.0473633-0.0078125-0.0947266-0.015625-0.1416016-0.0288086
	c-0.7207031-0.168457-1.5522461-0.7285156-2.1987305-1.7641602c-0.2207031-0.3530273-0.7338867-1.4995117-0.7338867-1.4995117
	s0.597168-0.0444336,0.8862305-0.1210938c0.2949219-0.0786133,0.7470703-0.1103516,0.7470703-0.8334961
	c0-0.9204102-1.3701172-0.7436523-1.3701172-0.7436523s-0.0996094-1.2387695,0.0761719-1.2387695
	c0.1523438,0,0.7680664,0.9858398,1.644043,0.9858398c1.1723633,0,0.9379883-0.8833008,1.0854492-0.9858398
	c0.2182617-0.152832,1.3461914-0.1318359,1.3461914-1.1411133c0-1.159668-1.3461914-0.7338867-1.3461914-0.9287109
	c0-1.7875977-1.7114258-1.1123047-1.7773438-1.3334961c-0.0712891-0.230957,0.4125977-0.2890625,0.4125977-0.8911133
	c0-0.8989258-1.3647461-0.8232422-1.3647461-0.8232422s-0.3071289-1.4223633-1.3461914-1.4223633
	c-1.0415039,0-1.3491211,1.4223633-1.3491211,1.4223633s-1.3647461-0.0756836-1.3647461,0.8232422
	c0,0.6020508,0.4838867,0.6601563,0.4125977,0.8911133c-0.065918,0.2211914-1.7749023-0.4541016-1.7749023,1.3334961
	c0,0.1948242-1.3486328-0.230957-1.3486328,0.9287109c0,1.0092773,1.1279297,0.9882813,1.3486328,1.1411133
	c0.1445313,0.1025391-0.0893555,0.9858398,1.0834961,0.9858398c0.8754883,0,1.4907227-0.9858398,1.6435547-0.9858398
	c0.1762695,0,0.0766602,1.2387695,0.0766602,1.2387695s-1.3706055-0.1767578-1.3706055,0.7436523
	c0,0.7231445,0.4526367,0.7548828,0.746582,0.8334961c0.2895508,0.0766602,0.8867188,0.1210938,0.8867188,0.1210938
	s-0.5126953,1.1464844-0.7338867,1.4995117c-0.6914063,1.1040039-1.5883789,1.6694336-2.3374023,1.7929688
	c-0.0527344,0.0083008-0.1083984,0.015625-0.1606445,0.0209961c-0.0498047,0.0029297-0.1025391,0.0053711-0.152832,0.0053711
	c-1.0859375,0-2.2402344-1.5117188-2.2138672-1.6879883c0.0209961-0.152832,0.8886719-0.034668,1.512207-0.25
	c0.8305664-0.2895508,0.3129883-1.0620117,0.3891602-1.1782227c0.1152344-0.1708984,0.9228516-0.4311523,0.6572266-1.1987305
	c-0.3076172-0.8789063-1.1518555-0.2241211-1.2021484-0.3735352c-0.4731445-1.3544922-1.5092773-0.4208984-1.6118164-0.5712891
	c-0.1103516-0.1601563,0.2158203-0.3232422,0.0551758-0.7807617c-0.2363281-0.6811523-1.1831055-0.2866211-1.1831055-0.2866211
	s-0.5942383-1.0068359-1.3334961-0.7495117c-0.7363281,0.2548828-0.578125,1.4125977-0.578125,1.4125977
	s-0.9892578,0.2783203-0.7519531,0.9594727c0.1601563,0.4599609,0.5175781,0.3837891,0.5283203,0.5786133
	c0.0107422,0.1816406-1.3803711,0.0917969-0.9101563,1.4492188c0.0449219,0.128418-0.730957,0.1518555-0.762207,0.7075195
	c-0.0083008,0.0917969,0.0078125,0.2016602,0.0522461,0.3286133c0.265625,0.7675781,1.0625,0.4731445,1.2573242,0.5361328
	c0.1313477,0.0390625,0.1889648,0.8466797,1.0229492,0.5576172c0.6206055-0.2158203,0.8969727-0.6679688,1.1489258-0.4501953
	c0.2421875,0.2084961-0.4443359,1.1762695-1.0175781,1.7094727c-0.3969727,0.3710938-0.8520508,0.5654297-1.277832,0.6889648
	c-0.3291016,0.0976563-0.6416016,0.1474609-0.8886719,0.2084961c-0.5185547,0.1230469-1.9960938,0.1386719-2.0595703-0.5712891
	c-0.0209961-0.2524414,0.3867188-0.2836914,0.5048828-0.3945313c0.1630859-0.1518555,0.2050781-0.4389648,0.1445313-0.6674805
	c-0.1230469-0.4604492-0.6962891-0.5844727-0.9882813-0.5708008c-0.2368164,0.0102539-0.765625,0.4658203-0.9970703,0.4179688
	c-0.3413086-0.0708008-0.7021484-0.6679688-0.8408203-1.1020508c-0.1318359-0.4077148-1.1235352,0.315918-1.4125977-0.3178711
	c-0.0131836-0.0317383-0.0263672-0.065918-0.0366211-0.1025391c-0.0761719-0.2685547-0.2705078-1.4780273,0.7543945-1.0307617
	c0.7573242,0.3286133,0.5,0.9677734,0.8129883,1.1176758c0.1918945,0.0917969,0.6416016-0.0629883,0.8544922-0.0454102
	c0.3466797,0.0322266,1.0126953,0.3452148,1.3569336,0.3081055c0.3447266-0.0395508,1.1308594-0.2680664,1.2490234-0.5913086
	c0.0053711-0.0083008,0.0053711-0.0185547,0.0078125-0.0288086c0.0024414-0.0083008,0.0024414-0.0166016,0.0024414-0.0268555
	c0-0.234375-0.4204102-0.5991211-0.4042969-0.8198242c0.0283203-0.3452148,0.8808594-0.815918,0.7675781-1.1416016
	c-0.152832-0.4394531-1.4780273-0.2104492-1.7753906-0.5678711c-0.1367188-0.1665039,0.0527344-0.7128906-0.1103516-0.8544922
	c-0.2548828-0.2270508-1.0649414,0.1728516-1.3569336,0c-0.2993164-0.1796875-0.3603516-1.0493164-0.6572266-1.2280273
	c-0.3261719-0.1948242-1.144043,0.081543-1.512207,0c-0.4599609-0.1005859-1.2387695-0.7993164-1.7089844-0.7890625
	c-0.4262695,0.0102539-1.2910156,0.3706055-1.3808594,0.7890625c-0.065918,0.3071289,0.0263672,0.5600586,0.1313477,0.7231445
	c0.2529297,0.3945313,1.0048828,0.0942383,1.215332,0.3286133c1.4042969,1.5429688,0.8388672,2.9838867,1.2172852,3.9443359
	c0.0161133,0.0390625,0.0317383,0.0786133,0.050293,0.1181641c0.5332031,1.1914063,1.8457031,1.9013672,2.4189453,5.1015625
	c-0.378418,0.0234375-0.6782227,0.3291016-0.6782227,0.699707c0,0.046875,0.0048828,0.0917969,0.015625,0.1362305
	c0.065918,0.3212891,0.362793,0.5629883,0.715332,0.5629883l0.0498047-0.0078125
	c0.0102539-0.0053711,0.1289063-0.0527344,0.3447266-0.1367188l0.465332,0.9936523l-1.2832031,1.7148438l2.4165039,0.4892578
	l0.4155273,0.8886719l-0.0917969,0.5649414c-0.362793,0.0556641-0.6420898,0.3710938-0.6420898,0.7475586
	c0,0.4174805,0.3393555,0.7568359,0.7548828,0.7568359h0.0395508l0.0317383-0.0209961
	c0.0576172-0.0366211,5.9609375-3.7446289,12.4541016-3.7446289c6.6660156,0,12.8535156,3.7080078,12.9140625,3.7446289
	l0.03125,0.0209961h0.0371094c0.4179688,0,0.7573242-0.3393555,0.7573242-0.7568359
	c0-0.3632813-0.2602539-0.6708984-0.6049805-0.7392578l-0.0893555-0.5493164l0.4155273-0.8896484l2.4169922-0.4882813
	l-1.2807617-1.7119141l0.4628906-0.996582c0.1889648,0.0683594,0.296875,0.1103516,0.3046875,0.112793l0.0473633,0.0078125
	c0.3154297,0,0.5864258-0.1918945,0.6835938-0.4628906c0.0136719-0.0317383,0.0239258-0.065918,0.0317383-0.1000977
	c0.0107422-0.0444336,0.0161133-0.0893555,0.0161133-0.1362305c0-0.3789063-0.3129883-0.6889648-0.7050781-0.7021484h-0.0024414
	c0.5942383-3.3032227,2.0351563-3.9501953,2.5317383-5.2172852c0.3789063-0.9604492-0.1860352-2.4013672,1.2177734-3.9443359
	c0.2104492-0.234375,0.9628906,0.065918,1.2148438-0.3286133
	C319.4404297,359.6538086,319.5322266,359.4008789,319.4667969,359.09375z M307.1992188,361.4887695
	c0.4501953,0,0.8125,0.362793,0.8125,0.8100586s-0.3623047,0.8100586-0.8125,0.8100586
	c-0.4472656,0-0.8095703-0.362793-0.8095703-0.8100586S306.7519531,361.4887695,307.1992188,361.4887695z M306.2578125,365.7592773
	l0.4179688,1.159668c-0.4707031-0.1176758-0.9462891-0.230957-1.4277344-0.3364258L306.2578125,365.7592773z
	 M299.0288086,357.3999023c0.4472656,0,0.8100586,0.362793,0.8100586,0.8095703c0,0.4472656-0.362793,0.8100586-0.8100586,0.8100586
	c-0.4492188,0-0.8120117-0.362793-0.8120117-0.8100586C298.2167969,357.7626953,298.5795898,357.3999023,299.0288086,357.3999023z
	 M298.8500977,364.1630859l1.1020508,1.6489258c-0.2685547-0.015625-0.53125-0.0209961-0.7890625-0.0209961
	c-0.4077148,0-0.8232422,0.0131836-1.2436523,0.0395508L298.8500977,364.1630859z M293.2070313,366.4589844l0.0107422,0.0449219
	c-0.5317383,0.1074219-1.0546875,0.2285156-1.5673828,0.3549805l-0.0107422-0.0395508l0.5258789-1.1831055L293.2070313,366.4589844z
	 M290.1855469,362.2988281c0-0.4472656,0.3623047-0.8100586,0.8095703-0.8100586s0.8105469,0.362793,0.8105469,0.8100586
	s-0.3632813,0.8100586-0.8105469,0.8100586S290.1855469,362.7460938,290.1855469,362.2988281z M286.1357422,373.5253906
	l-2.1191406-0.4262695l1.1220703-1.4990234l1.9331055,0.3154297L286.1357422,373.5253906z M312.4111328,375.9628906
	c0,0.2602539-0.2021484,0.4755859-0.4599609,0.4916992c-0.5078125-0.2973633-6.534668-3.7636719-13.0166016-3.7636719
	c-6.3085938,0-12.0576172,3.4560547-12.5595703,3.7636719c-0.2548828-0.0185547-0.4575195-0.2314453-0.4575195-0.4916992
	c0-0.2714844,0.2207031-0.4916992,0.4916992-0.4916992h0.0395508l0.0317383-0.0214844
	c0.0048828-0.0029297,0.0444336-0.0288086,0.1181641-0.0732422c0.8701172-0.5209961,6.3793945-3.6689453,12.3359375-3.6689453
	c7.5205078,0,12.2382813,3.2504883,12.8349609,3.6870117c0.0424805,0.0292969,0.0634766,0.0449219,0.0654297,0.0473633
	l0.0371094,0.0292969h0.0449219C312.1904297,375.4711914,312.4111328,375.6914063,312.4111328,375.9628906z M291.5844727,368.78125
	c1.3515625-0.4316406,2.6083984-0.2871094,2.8056641,0.3256836c0.1948242,0.6123047-0.7441406,1.4624023-2.0957031,1.8930664
	c-1.3544922,0.434082-2.6113281,0.2871094-2.8061523-0.3256836
	C289.2910156,370.0620117,290.2304688,369.2148438,291.5844727,368.78125z M296.8466797,370.206543v-1.9570313h4.2519531v1.9570313
	H296.8466797z M304.1015625,368.7124023c0.2944336-0.5703125,1.5595703-0.5073242,2.8217773,0.1445313
	c1.262207,0.6499023,2.0483398,1.6411133,1.7539063,2.2143555c-0.2944336,0.5708008-1.5595703,0.5073242-2.8217773-0.1445313
	C304.5932617,370.2768555,303.8071289,369.2856445,304.1015625,368.7124023z M314.3520508,373.1225586l-2.1196289,0.4287109
	l-0.9521484-1.6357422l1.9541016-0.3183594l-0.0078125,0.0185547L314.3520508,373.1225586z M314.8149414,370.0092773
	c0,0.0288086-0.0024414,0.0576172-0.0083008,0.0869141c-0.0053711,0.0234375-0.0126953,0.046875-0.0205078,0.0703125
	c-0.065918,0.1557617-0.2265625,0.2714844-0.4155273,0.2788086c-0.5317383-0.1972656-9.4956055-3.515625-15.2075195-3.515625
	c-5.6196289,0-12.5986328,2.5087891-14.6445313,3.2944336c-0.2998047,0.1162109-0.4941406,0.1953125-0.5625,0.2211914
	c-0.2158203-0.0073242-0.3945313-0.1577148-0.4370117-0.3491211c-0.0053711-0.0292969-0.0078125-0.0581055-0.0078125-0.0869141
	c0-0.2421875,0.2104492-0.4394531,0.4682617-0.4394531l0.0498047-0.0107422
	c0.0712891-0.0258789,5.5302734-2.2426758,11.03125-3.1337891c0.0527344-0.0112305,0.1054688-0.0185547,0.1582031-0.0268555
	c0.8569336-0.1362305,1.7119141-0.2397461,2.5478516-0.2944336c0.4731445-0.0317383,0.9414063-0.0498047,1.3964844-0.0498047
	c1.1835938,0,2.4902344,0.1367188,3.831543,0.3598633c0.0473633,0.0078125,0.0922852,0.0161133,0.1391602,0.0239258
	c0.6152344,0.1025391,1.2358398,0.2236328,1.8515625,0.3574219c0.6074219,0.1289063,1.2089844,0.2709961,1.7988281,0.4208984
	c4.0205078,1.012207,7.4599609,2.3222656,7.5151367,2.3457031l0.0473633,0.0078125
	C314.6044922,369.5698242,314.8149414,369.7670898,314.8149414,370.0092773z"/>
<path fill="#334E3A" d="M304.5698242,344.3701172c-1.3398438-2.6000977-3.5996094-7.4296875-3.5698242-9.3798828
	c0.0200195-1.0898438,1.0600586-2.5297852,2.1499023-4.0600586c1.1699219-1.6201172,2.4799805-3.4399414,2.9199219-5.3798828
	c0.0600586-0.2001953,0.090332-0.4101563,0.1201172-0.6098633c0.0302734-0.2202148,0.0600586-0.4702148,0.090332-0.7299805
	c0.0297852-0.2304688,0.0595703-0.4702148,0.0795898-0.7304688c0.2202148-1.7998047,0.4799805-4.2397461,0.6899414-6.3598633
	c0.050293-0.5097656,0.1000977-1,0.1401367-1.4599609c0.0200195-0.2397461,0.050293-0.4697266,0.0703125-0.6899414
	c0,0,0,0,0-0.0097656c0.0200195-0.1401367,0.0297852-0.2802734,0.0498047-0.4204102
	c0.2397461,0.2802734,0.4799805,0.550293,0.7099609,0.8300781c1.0498047,1.2402344,2.0297852,2.550293,2.8300781,3.9599609
	c0.0400391,0.0703125,0.0800781,0.1303711,0.1000977,0.2001953c1.2700195,2.2900391,1.8798828,4.5800781,1.8798828,6.9697266
	c0,0.2602539,0,0.5200195-0.0200195,0.7802734c-0.0102539,0.6000977-0.0600586,1.199707-0.1201172,1.7900391
	c-0.0200195,0.1899414-0.0400391,0.3798828-0.0698242,0.5600586
	C311.7099609,336.7104492,307.9199219,341.8203125,304.5698242,344.3701172z"/>
<path fill="#597DBE" d="M319.7299805,415.9106445c-4.1201172,3-8.6201172,5.1494141-13.1899414,6.3291016
	c3.3500977-4,7.1699219-7.8691406,9.3999023-8.5693359C316.4501953,413.6303711,318.1801758,414.6499023,319.7299805,415.9106445z"
	/>
</svg>
