<?xml version="1.0" encoding="utf-8"?>
<!-- Generator: Adobe Illustrator 15.1.0, SVG Export Plug-In  -->
<!DOCTYPE svg PUBLIC "-//W3C//DTD SVG 1.1//EN" "http://www.w3.org/Graphics/SVG/1.1/DTD/svg11.dtd" [
	<!ENTITY ns_flows "http://ns.adobe.com/Flows/1.0/">
]>
<svg version="1.1"
	 xmlns="http://www.w3.org/2000/svg" xmlns:xlink="http://www.w3.org/1999/xlink" xmlns:a="http://ns.adobe.com/AdobeSVGViewerExtensions/3.0/"
	 x="0px" y="0px" width="550px" height="650px" viewBox="-35 -25 550 650" enable-background="new -35 -25 550 650"
	 xml:space="preserve">
<defs>
</defs>
<path d="M480,0v483.5546875c0,18.1464844-6.4326172,35.3603516-18.1181641,48.4707031
	C449.8300781,545.5546875,433.5361328,553.0009766,416,553.0009766H300.1601563
	c-17.203125,0-31.6865234,6.7324219-43.0595703,20.0175781c-8.5820313,10.0380859-12.0830078,20.2490234-12.1152344,20.3525391
	L242.7509766,600l-2.5722656-6.5009766c-0.0703125-0.1796875-4.1982422-10.390625-13.0810547-20.4287109
	c-11.7890625-13.3173828-25.9716797-20.0693359-42.1376953-20.0693359H69.1201172
	C32.3007813,553.0009766,0,520.5478516,0,483.5546875V0H480z"/>
<path fill="#FDDA17" d="M349.2675781,136.7456055c-1.8505859,3.6074219-3.6162109,8.3334961-2.9511719,16.2172852
	c-1.7470703-1.5366211-4.5048828-3.6845703-5.9394531-3.453125c-0.1660156,0.0253906-0.3125,0.1157227-0.4091797,0.2504883
	c-0.2558594,0.3413086-5.6064453,7.581543-8.1845703,14.6357422c-0.7314453-5.0546875-1.6972656-16.3911133,2.8339844-23.5478516
	c0.2246094-0.3535156,0.1474609-0.6943359-0.0058594-0.894043c-0.2119141-0.2827148-0.5185547-0.7006836-4.0449219,0.2060547
	c0.5117188-1.9160156,1.6894531-5.9609375,3.0146484-7.9736328c0.8769531-1.324707,2.4697266-3.3500977,4.1669922-5.4916992
	c4.453125-5.6455078,7.3720703-9.4780273,7.3720703-11.2719727c0-2.4243164-0.6464844-4.0830078-1.8632813-4.8032227
	c-1.0878906-0.6430664-2.5019531-0.4887695-4.2041016,0.4628906c-6.40625,3.5751953-16.7871094,27.3222656-18.3808594,41.25
	c-0.9150391-3.015625-2.2080078-8.4750977-2.3486328-12.7382813c-0.0898438-2.5981445,0.4736328-5.1831055,1.0751953-7.9155273
	c0.4863281-2.2250977,0.9853516-4.5268555,1.1650391-6.9638672c0.1083984-1.5175781-0.640625-1.7880859-1.3066406-1.8457031
	c-0.0625-0.0063477-0.1533203-0.0195313-0.1533203,0c-0.0576172-0.0961914-0.2304688-0.675293,0.5058594-3.472168
	c0.8515625-3.2280273,6.8867188-11.6386719,10.3300781-16.1142578c0,0,0.1601563-0.4116211,0.1728516-0.6108398
	c0.0058594-0.21875-0.3642578-0.5209961-0.5693359-0.4887695c-0.1542969,0.019043-0.4736328,0.1801758-0.4736328,0.1801758
	c-0.1162109,0.0834961-11.8017578,8.3334961-14.7011719,12.1914063c-3.9296875,5.234375-6.2207031,13.2592773-8.5888672,25.1166992
	c-0.8642578-2.9194336-2.5859375-7.0605469-5.5175781-7.5234375c-0.1728516-0.0253906-0.3388672,0.0126953-0.4726563,0.1157227
	c-0.390625,0.2768555-9.03125,6.7583008-15.2958984,29.2832031c-0.2822266-9.3686523,0.4355469-32.5302734,13.4335938-43.050293
	c0.4990234-0.4052734,0.390625-0.784668,0.2744141-0.9707031c-0.3066406-0.5400391-0.6533203-0.4052734-2.1171875,0.1733398
	c-0.8896484,0.3535156-3.3798828,1.3374023-4.3916016,1.3759766c0.6337891-1.7617188,2.7080078-7.1181641,5.2734375-10.1469727
	c1.9208984-2.2631836,7.3857422-7.5942383,16.6728516-8.1342773c0.7871094-0.0449219,1.0107422-0.4692383,1.0742188-0.7202148
	c0.1738281-0.6943359-0.1269531-1.5043945-5.3300781-4.796875c2.7714844-1.1572266,10.1240234-4.0380859,15.7949219-4.5332031
	c1.484375-0.1347656,3.4560547-0.128418,5.5419922-0.1220703c6.1767578,0.0126953,10.3037109-0.0966797,11.4941406-1.8325195
	c0.2568359-0.3793945,0.4863281-1.0097656,0.1416016-1.8974609c-1.9980469-5.1118164-9.9130859-4.2568359-15.1552734-3.6904297
	c-0.953125,0.1025391-1.7724609,0.1928711-2.4384766,0.2314453c-6.4902344,0.3857422-17.4980469,3.8261719-25.1904297,8.8735352
	c1.6767578-3.4140625,6.0039063-10.3525391,14.8798828-14.8154297c0.6337891-0.3149414,0.640625-0.7006836,0.5371094-0.9707031
	c-0.2431641-0.6171875-0.3066406-0.7783203-7.3398438,1.2988281c1.1894531-1.7680664,3.2890625-4.6875,5.0683594-6.1025391
	c5.8173828-4.6103516,19.0400391-4.0444336,19.1679688-4.0380859c0.2880859,0.0063477,0.5507813-0.1669922,0.6396484-0.4433594
	c0.4160156-1.2797852-1.2802734-2.5336914-3.2441406-3.9931641c-0.7939453-0.5854492-2.1318359-1.5756836-2.6240234-2.1992188
	c2.2207031-0.347168,9.1318359-1.3569336,13.1386719-1.0805664c6.1572266,0.4179688,10.8798828,1.2988281,19.9873047,9.2919922
	l0.0058594,0.0063477c0,0,0.3652344,0.2700195,0.5126953,0.2636719c0.1279297,0,0.4794922-0.2573242,0.5507813-0.3666992
	c0.1015625-0.1669922-0.0517578-0.6621094-0.0517578-0.6621094c-0.0517578-0.0966797-5.1455078-9.246582-10.5283203-16.4038086
	c2.2275391,1.0356445,5.1845703,2.1796875,6.4648438,1.6459961c0.3837891-0.1606445,0.6396484-0.4433594,0.7548828-0.8295898
	c0.03125-0.1088867,0.03125-0.2246094,0.0058594-0.3339844c-0.0761719-0.3022461-1.9072266-7.0283203-17.7021484-11.2724609
	c4.5830078-0.6040039,12.8710938-1.3564453,16.8203125,0.4375c3.9160156,1.7749023,10.3476563,9.4716797,10.4121094,9.5488281
	c0.1601563,0.1928711,0.4160156,0.2763672,0.6591797,0.2060547c0.2431641-0.0644531,0.421875-0.2641602,0.4677734-0.5146484
	c0.4853516-3.0219727-1.6708984-7.8642578-2.9257813-10.3461914c5.2861328,2.796875,10.7460938,12.2944336,10.4511719,21.9658203
	c-0.0888672,2.9770508,1.2548828,3.4013672,1.8427734,3.453125c1.1142578,0.0898438,2.4140625-0.9970703,2.5546875-2.1542969
	c0.8828125-7.3115234,0.5625-18.1655273,0.3964844-23.9912109c-0.0126953-0.3344727-0.0195313-0.65625-0.0322266-0.9516602
	c1.3642578,2.6875,3.890625,8.6679688,6.0869141,14.2558594c0.0888672,0.2314453,0.3134766,0.3920898,0.5625,0.4047852
	c0.2441406,0.0131836,0.4804688-0.1220703,0.5957031-0.3408203c0.0703125-0.1347656,6.7197266-12.6416016,13.7783203-14.6479492
	c-0.7158203,2.4628906-1.8427734,7.0859375-0.5566406,8.3720703c0.140625,0.1416016,0.3398438,0.2060547,0.5371094,0.1801758
	c0.2001953-0.0258789,0.3720703-0.1479492,0.4677734-0.3212891c0.1416016-0.2509766,3.3867188-5.8388672,12.3515625-4.0126953
	C411.1933594,45.3974609,404,51.7954102,404.9023438,54.9916992c0.0888672,0.3339844,0.4287109,0.5336914,0.7617188,0.4501953
	c1.9267578-0.4570313,4.9404297-0.8618164,6.0351563-0.4248047c-2.375,1.7236328-11.1816406,8.5009766-13.1201172,15.7094727
	c-0.5820313,2.1860352-0.3271484,4.7387695,0.6523438,6.3461914c0.4609375,0.7524414,1.0371094,1.2285156,1.6708984,1.3632813
	c3.0019531,0.6430664,5.9453125-4.706543,8.0957031-8.6162109c0.5058594-0.9262695,0.9472656-1.7236328,1.2998047-2.2763672
	c0.3134766-0.4887695,0.6464844-1.0546875,0.9980469-1.652832c2.0869141-3.5302734,4.8955078-8.2949219,9.453125-8.3657227
	l-0.7363281,3.7617188c-0.0507813,0.2636719,0.0634766,0.5336914,0.2949219,0.675293
	c0.2294922,0.1347656,0.5244141,0.1157227,0.7353516-0.0517578c0.0703125-0.0576172,6.7001953-5.3300781,16.6914063-3.4013672
	c-1.9658203,2.2055664-4.3515625,5.3432617-3.3662109,6.6616211c0.6142578,0.8295898,2.4052734,0.8813477,6.0673828,0.9130859
	c3.328125,0.0322266,7.4755859,0.0776367,10.3984375,1.0805664c6.234375,2.1411133,13.2041016,5.5810547,18.1582031,14.6865234
	c-2.5410156-1.125-7.6230469-3.2988281-13.1328125-5.1889648c-5.5107422-1.890625-11.4501953-3.5112305-15.6992188-3.5175781
	c-0.2441406,0-0.4677734,0.1416016-0.5761719,0.3603516c-0.109375,0.2182617-0.0771484,0.4819336,0.0703125,0.6816406
	l5.0488281,6.487793c-3.7558594-0.456543-13.2666016-1.5371094-16.8173828-1.3374023
	C423.0400391,79.6064453,416.1396484,82.5,412.421875,88.2231445c-0.2744141,0.4243164-0.2939453,0.887207-0.0566406,1.2792969
	c0.7744141,1.2797852,4.1972656,1.2797852,6.1054688,1.0805664c3.0517578-0.3212891,6.9375-1.1767578,10.6933594-2.0063477
	c3.9560547-0.8681641,7.6865234-1.690918,9.8945313-1.7680664c4.3583984-0.1479492,14.65625-0.0258789,20.0839844,3.9868164
	l-8.2822266,2.46875c-0.2617188,0.0776367-0.4482422,0.3149414-0.4599609,0.5917969
	c-0.0126953,0.2700195,0.1533203,0.5209961,0.4033203,0.6235352c0.1015625,0.0390625,9.7275391,3.8457031,12.7421875,5.4404297
	c2.8535156,1.5043945,6.6494141,4.1923828,7.5263672,10.3457031l-4.3710938-2.3208008
	c-0.2626953-0.1416016-0.5898438-0.0834961-0.78125,0.1411133c-0.1982422,0.2250977-0.2119141,0.5595703-0.0380859,0.8037109
	c0.0498047,0.0708008,5.1650391,7.2084961,8.4160156,14.5581055c0.2050781,0.4697266,0.4023438,0.9262695,0.5820313,1.3696289
	v3.1572266c-2.9511719-3.7675781-7.2060547-8.5844727-11.6552734-11.484375
	c-0.1972656-0.128418-0.4589844-0.1347656-0.6708984-0.0126953c-0.2050781,0.1220703-0.3271484,0.3535156-0.3144531,0.5976563
	l0.4873047,7.1376953c-2.7841797-6.8349609-7.4179688-14.5258789-12.7490234-18.4672852
	c-0.3261719-0.2509766-0.7099609-0.2895508-1.0429688-0.1225586c-0.9287109,0.4760742-1.2421875,3.1445313-1.3125,5.800293
	c-3.1943359-3.4785156-12.6845703-12.8735352-22.3935547-13.284668c-1.3828125-0.0581055-5.5996094,0.796875-6.7265625,3.0541992
	c-0.3642578,0.7202148-0.5498047,1.8710938,0.5957031,3.3051758c0.5761719,0.7070313,2.0478516,1.2602539,5.0625,2.3535156
	c5.9580078,2.1538086,15.8017578,5.7163086,20.9082031,13.3232422l-3.5576172,0.9838867
	c-0.2431641,0.0644531-0.421875,0.2636719-0.4609375,0.5078125c-0.0449219,0.2446289,0.0576172,0.4892578,0.2558594,0.6367188
	c0.1855469,0.128418,17.5429688,12.5522461,22.4765625,22.0107422l-4.4482422-2.2954102
	c-0.2744141-0.1416016-0.6083984-0.0708008-0.7939453,0.1733398c-0.1914063,0.2382813-0.1855469,0.5854492,0.0136719,0.8168945
	c0.0898438,0.1030273,8.3642578,10.0053711,5.0048828,19.8310547c-1.7978516-2.9902344-6.8037109-11.0024414-10.2724609-13.9091797
	c-0.1972656-0.1669922-0.4541016-0.230957-0.7099609-0.1796875c-0.6787109,0.1411133-1.1845703,1.0224609-2.2597656,3.1445313
	c-0.2363281,0.4692383-0.5566406,1.0927734-0.8125,1.5366211c-2.3496094-5.34375-10.2519531-15.3037109-10.6044922-15.7412109
	c-0.1669922-0.2124023-0.4423828-0.2958984-0.6972656-0.2124023c-0.2568359,0.0839844-0.4296875,0.3154297-0.4423828,0.5854492
	c-0.0830078,1.9482422-0.3330078,4.2182617-0.6074219,5.1635742c-0.9091797-0.9453125-1.9267578-2.0834961-2.9892578-3.2734375
	c-4.5507813-5.0732422-9.703125-10.8217773-13.8554688-10.9697266c-1.1455078-0.0449219-2.1572266,0.3535156-2.9892578,1.1635742
	c-0.1611328,0.1547852-0.2431641,0.3603516-0.2431641,0.5854492c-0.0068359,0.9321289,1.6572266,2.6494141,6.8027344,7.7290039
	c5.1523438,5.0864258,12.0898438,11.9345703,15.5009766,17.2397461l-4.140625-0.2509766
	c-0.2695313-0.019043-0.4990234,0.1289063-0.6142578,0.3603516c-0.1162109,0.2314453-0.0771484,0.5141602,0.0957031,0.7070313
	c0.0634766,0.0771484,6.375,7.3950195,7.3349609,14.5131836c-3.1171875-1.8842773-5.0761719-2.6425781-5.8183594-2.237793
	c-0.2929688,0.1542969-0.4677734,0.4438477-0.4736328,0.7910156c-0.2880859,11.7416992,0.5322266,35.2631836,1.0244141,47.6674805
	c-3.8652344-20.0625-6.6816406-41.3852539-6.7138672-41.6293945c-0.0380859-0.2958984-0.2753906-0.5273438-0.5693359-0.5595703
	c-0.2880859-0.0258789-0.5761719,0.1542969-0.671875,0.4375c-0.0126953,0.0385742-1.2285156,3.5493164-3.6484375,3.7163086
	c-0.5957031-3.5107422-4.1210938-22.5058594-11.5517578-27.6049805c-1.6767578-1.1572266-3.4628906-1.5302734-5.2861328-1.1318359
	c-0.2246094,0.0517578-0.4033203,0.2124023-0.4746094,0.4311523c-0.0693359,0.2119141-0.0195313,0.4501953,0.1289063,0.6235352
	c0.0703125,0.0834961,6.7646484,7.921875,5.8115234,21.3486328c-2.4267578-4.4882813-8.3720703-14.8666992-11.9375-15.5869141
	c-0.6201172-0.1220703-1.1894531,0.0126953-1.6435547,0.3920898c-0.6142578,0.5141602-0.3710938,1.3505859,1.6191406,6.90625
	c2.5595703,7.137207,6.8408203,19.0913086,5.3701172,25.1035156c-0.0576172,0.2250977,0.0126953,0.4628906,0.1855469,0.6235352
	c0.1660156,0.1611328,0.4091797,0.2124023,0.6328125,0.1416016l4.9794922-1.6137695
	c-0.6337891,4.9511719-2.9375,13.3618164-3.6669922,15.953125l-0.0458984,0.1547852c0,0,0.0126953,0.3725586,0.0839844,0.4755859
	c0.0576172,0.0898438,0.2568359,0.2055664,0.3583984,0.2250977c0.1416016,0.0322266,0.5703125-0.0195313,0.5703125-0.0195313
	c2.1816406-1.6713867,4.6904297-3.690918,6.3681641-5.0541992c-2.8798828,8.1601563-5.2109375,21.8374023-5.3203125,22.4672852
	c-0.0302734,0.2192383,0.0458984,0.4438477,0.2128906,0.5917969c0.1591797,0.1479492,0.3964844,0.1992188,0.6015625,0.1347656
	c2.828125-0.8354492,5.1201172-2.0766602,6.4306641-2.8867188c-1.5732422,9.0664063-8.8574219,17.605957-8.9335938,17.6958008
	c-0.1669922,0.1928711-0.2050781,0.4755859-0.0830078,0.7075195c0.1152344,0.2314453,0.3515625,0.3730469,0.6201172,0.3535156
	c2.8291016-0.237793,6.8544922-2.1411133,9.0107422-3.2602539c-0.9853516,2.4047852-2.4501953,4.6811523-3.7685547,6.7324219
	c-1.3125,2.0385742-2.4384766,3.7939453-2.9443359,5.3691406c-0.3574219,1.1064453-0.1914063,4.1025391-0.0830078,5.5043945
	h-33.2480469c0.9736328-2.6489258,3.5195313-10.7446289,2.2333984-19.8500977
	c1.1074219,0.7973633,3.3339844,3.0029297,5.1523438,5.0092773c0.1796875,0.1992188,0.4541016,0.2636719,0.6972656,0.1733398
	c0.2441406-0.0961914,0.4101563-0.3276367,0.4160156-0.5913086c0.1220703-5.2148438-0.1083984-13.065918-3.2832031-22.2163086
	c1.4658203,1.453125,3.8154297,4.0317383,5.9199219,6.4682617c0.1796875,0.2060547,0.4804688,0.2768555,0.7294922,0.1674805
	c0.2568359-0.109375,0.4169922-0.3730469,0.390625-0.6494141c-0.0830078-0.9130859-1.9902344-21.6313477-7.0078125-33.8486328
	c1.4140625,1.1699219,3.6669922,3.234375,5.6894531,5.1958008c0.1982422,0.1923828,0.5058594,0.2373047,0.7490234,0.1025391
	c0.2441406-0.1352539,0.3779297-0.4179688,0.3203125-0.6948242c-0.8964844-4.46875-3.5654297-9.484375-6.1503906-14.3452148
	c-1.3515625-2.546875-2.6435547-4.9770508-3.6542969-7.2666016l6.4375,2.8745117
	c0.2246094,0.1025391,0.4873047,0.0639648,0.671875-0.0898438c0.1855469-0.1611328,0.2695313-0.4052734,0.2109375-0.6430664
	c-0.0380859-0.1674805-3.9550781-16.5063477-6.1748047-23.5927734c-0.0771484-0.2573242-0.3134766-0.4375-0.5830078-0.4501953
	c-0.2753906-0.0126953-0.5185547,0.1542969-0.6201172,0.4047852l-4.1474609,10.5654297l-4.1152344-3.5883789
	c-0.1855469-0.1606445-0.4482422-0.1992188-0.671875-0.1025391c-0.2246094,0.0961914-0.3779297,0.3085938-0.390625,0.5527344
	l-1.2285156,21.9013672c-1.6455078-3.6137695-4.6083984-11.6835938-4.2119141-22.3964844
	c0.0058594-0.2700195-0.1474609-0.5141602-0.390625-0.6171875s-0.5234375-0.0454102-0.7089844,0.1411133l-4.5771484,4.7265625
	c0.4550781-5.7358398,2.5917969-13.6645508,2.6113281-13.7543945c0.0839844-0.2958984-0.0566406-0.6108398-0.3320313-0.7456055
	c-0.2763672-0.1352539-0.6083984-0.0517578-0.7939453,0.1923828l-5.3056641,7.1318359
	c-0.3134766-2.3217773,0.2109375-4.347168,0.6464844-6.0253906c0.4599609-1.7749023,0.8574219-3.3051758,0.1279297-4.5786133
	c-0.140625-0.2441406-0.3720703-0.4116211-0.6396484-0.4760742c-0.6982422-0.1538086-1.4980469,0.4248047-2.4267578,1.0874023
	c-0.2548828,0.1796875-0.5947266,0.4238281-0.8564453,0.5844727c-0.25-2.6166992,1.5029297-7.4394531,2.9238281-11.3618164
	c1.6835938-4.6298828,2.6054688-7.3178711,2.0166016-8.578125c-0.1542969-0.328125-0.4033203-0.5595703-0.7236328-0.668457
	c-3.2568359-1.1577148-5.6064453,4.7001953-7.4941406,9.4135742
	C350.1123047,134.8613281,349.6572266,135.9936523,349.2675781,136.7456055z"/>
<path fill="#FDDA17" d="M211.7119141,420.2744141l-0.1601563,0.0263672l0.1474609,0.03125l-37.1835938,6.2958984
	c-0.2246094,0.0380859-0.4042969,0.1865234-0.4873047,0.3984375v0.0058594
	c-0.0830078,0.2128906-0.0449219,0.4570313,0.0966797,0.6240234c0.0058594,0.0126953,0.0253906,0.0322266,0.0380859,0.0585938
	c0.0126953,0.0058594,0.0195313,0.0195313,0.0322266,0.0380859c0.0126953,0.0068359,0.0253906,0.0253906,0.0449219,0.0449219
	c0.4414063,0.5537109,2.0224609,2.5205078,3.8007813,4.5205078c0.1220703,0.1357422,0.2441406,0.2636719,0.3583984,0.3925781
	c0.6025391,0.6679688,1.2226563,1.3242188,1.8183594,1.9287109c0.2363281,0.2382813,0.4736328,0.4697266,0.7041016,0.6884766
	c0.2294922,0.2119141,0.4541016,0.4179688,0.671875,0.6103516c0.2167969,0.1865234,0.4287109,0.3603516,0.6269531,0.5205078
	c0.1533203,0.1162109,0.2949219,0.21875,0.4345703,0.3154297c0.1416016,0.0898438,0.2695313,0.1738281,0.3974609,0.2382813
	c0.3642578,0.1992188,0.7939453,0.328125,1.2802734,0.4052734c0.0957031,0.0195313,0.1914063,0.03125,0.2939453,0.0449219
	c0.8447266,0.109375,1.8173828,0.1025391,2.8291016,0.0898438c1.3505859-0.0126953,2.7519531-0.0322266,3.4882813,0.2958984
	c1.5097656,0.6621094,3.359375,2.8613281,4.9912109,4.8027344c1.2929688,1.5371094,2.5087891,2.984375,3.6035156,3.8007813
	c1.453125,1.0869141,5.2158203,3.015625,7.5966797,4.1992188c-2.9375,0.2373047-7.1044922,0.4365234-8.6269531-0.0263672
	c-1.2675781-0.3789063-2.6621094-1.7998047-4-3.1826172c-1.7285156-1.7617188-3.5078125-3.5947266-5.4726563-3.7548828
	c-0.8759766-0.0644531-2.2587891,0.4179688-3.7177734,0.9384766c-1.1074219,0.3925781-2.3427734,0.8173828-2.9375,0.8291016
	c-2.5029297-0.0449219-8.7998047-3.34375-12.1728516-5.3173828c-0.0195313-0.0126953-0.0380859-0.0195313-0.0576172-0.0322266
	l-0.4414063-0.2636719l-0.3847656,0.4121094l-0.2490234,0.2636719l0.3076172,0.6298828l24.6845703,34.7685547
	l-34.3427734-24.5449219c-0.2050781-0.1474609-0.4667969-0.1601563-0.6845703-0.0390625
	c-0.2109375,0.1230469-0.3388672,0.3544922-0.3261719,0.6054688c0.03125,0.4501953,0.7802734,11.1816406,4.1210938,15.9150391
	c1.2607422,1.7802734,0.8066406,4.9316406,0.4482422,7.4716797c-0.2177734,1.4980469-0.3964844,2.7910156-0.2304688,3.6845703
	c0.4355469,2.3271484,2.2529297,6.5263672,3.3535156,8.9375c-2.5146484-1.4853516-6.125-3.8457031-6.9697266-5.3496094
	c-0.4794922-0.8554688-0.4160156-2.4306641-0.3642578-3.9541016c0.0634766-1.6660156,0.1210938-3.2412109-0.4160156-4.3662109
	c-0.4423828-0.9326172-1.6445313-1.7109375-2.8105469-2.4697266c-0.7353516-0.4697266-1.4902344-0.9638672-1.8359375-1.3701172
	c-2.3623047-2.7900391-7.3154297-12.9365234-7.3662109-13.0400391c-0.1220703-0.2509766-0.390625-0.3925781-0.6728516-0.3535156
	c-0.2753906,0.0449219-0.4921875,0.2568359-0.5371094,0.5332031l-6.4833984,41.2568359l-6.5595703-41.0761719
	c-0.0390625-0.2324219-0.1992188-0.4248047-0.4228516-0.5019531s-0.4667969-0.0322266-0.6396484,0.1289063
	c-0.3203125,0.2890625-7.8466797,7.1894531-9.1708984,9.6259766c-0.5253906,0.9638672-0.8583984,2.0966797-1.2099609,3.2988281
	c-0.8320313,2.8486328-1.7792969,6.0761719-5.6259766,8.6933594c-1.5166016,1.0351563-2.0546875,2.578125-2.5791016,4.0771484
	c-0.3330078,0.9580078-0.671875,1.9423828-1.2734375,2.8544922c-0.8134766,1.2285156-1.5107422,2.5917969-2.0742188,3.8330078
	c0.2626953-3.4150391,0.7109375-7.9804688,1.2939453-9.703125c0.3066406-0.9199219,0.9970703-2.1806641,1.7333984-3.5107422
	c1.1015625-1.9882813,2.234375-4.0517578,2.4511719-5.6083984c0.1279297-0.8867188-0.1787109-2.0566406-0.4990234-3.2919922
	c-0.2753906-1.0742188-0.5947266-2.2890625-0.4667969-2.9443359c0.5888672-3.0097656,6.4511719-10.8349609,6.5087891-10.9130859
	c0.1083984-0.140625,0.1464844-0.3212891,0.1152344-0.4941406c-0.0253906-0.1806641-0.1279297-0.3349609-0.2822266-0.4306641
	l-2.3544922-1.5244141c-0.2304688-0.1484375-0.5253906-0.1347656-0.7363281,0.0322266l-32.0439453,24.8916016l23.5-33.6689453
	c0.1279297-0.1796875,0.1542969-0.4238281,0.0576172-0.6298828c-0.0898438-0.2060547-0.2880859-0.3476563-0.5117188-0.3730469
	c-0.2431641-0.0263672-5.9199219-0.6435547-8.7998047,0.1025391c-1.4921875,0.3857422-3.4892578,1.1953125-5.6064453,2.0507813
	c-1.8623047,0.7460938-3.7890625,1.5244141-5.4658203,2.0517578c-0.4423828,0.1416016-2.0351563,0.1220703-3.4433594,0.109375
	c-2.0927734-0.0253906-4.4677734-0.0576172-5.7275391,0.2890625c-3.3027344,0.9003906-6.8867188,2.3339844-9.0947266,3.2734375
	c1.4716797-1.9033203,4.0449219-4.7910156,7.1298828-6.25c1.4775391-0.7011719,3.5136719-1.0224609,5.3046875-1.3056641
	c1.4335938-0.2314453,2.6757813-0.4248047,3.4248047-0.7910156c0.9794922-0.4755859,1.8945313-1.3828125,2.9501953-2.4365234
	c1.2988281-1.2998047,2.7773438-2.765625,4.7363281-3.7558594c4.0634766-2.0449219,9.6630859-2.5908203,9.7216797-2.5908203
	c0.1855469-0.0195313,0.3515625-0.1162109,0.4599609-0.2705078c0.109375-0.1484375,0.1474609-0.3408203,0.1025391-0.5273438
	l-0.6337891-2.6171875c-0.0576172-0.2509766-0.2685547-0.4375-0.5185547-0.4824219l-42.2333984-6.7001953l42.0869141-6.0253906
	c0.2685547-0.0380859,0.4794922-0.2373047,0.5380859-0.5078125l0.4091797-1.9609375
	c0.0576172-0.2705078-0.0644531-0.546875-0.3017578-0.6884766c-0.0761719-0.0449219-7.640625-4.5332031-15.4296875-7.8896484
	c-1.1064453-0.4755859-2.4707031-2.0126953-3.7949219-3.4912109c-1.8369141-2.0712891-3.7441406-4.2050781-5.6582031-4.4306641
	c-6.3544922-0.7460938-8.6845703-3.2021484-9.5166016-4.6298828c2.0419922,0.4560547,6.2724609,1.1767578,10.4960938,0.5146484
	c1.1650391-0.1738281,2.9501953,1.2724609,4.5380859,2.5527344c1.4648438,1.1894531,2.8535156,2.3144531,4.1083984,2.5849609
	c1.0429688,0.2246094,2.265625-0.1992188,3.4492188-0.6113281c0.9023438-0.3144531,1.8310547-0.6298828,2.4775391-0.578125
	c5.4462891,0.4560547,12.1210938,7.5429688,12.1855469,7.6132813c0.1337891,0.1474609,0.3330078,0.2177734,0.53125,0.2060547
	c0.1982422-0.0263672,0.3769531-0.1357422,0.4794922-0.3095703l1.5556641-2.5390625
	c0.140625-0.2197266,0.1279297-0.5019531-0.0263672-0.7138672l-23.6152344-32.3955078l32.4414063,23.4511719
	c0.2236328,0.1660156,0.53125,0.1601563,0.7548828-0.0068359c0.2236328-0.1738281,0.3134766-0.4697266,0.2177734-0.7333984
	c-0.0185547-0.0449219-1.7148438-4.8417969-1.1328125-7.1953125c0.7490234-2.9960938-0.6914063-5.671875-2.0800781-8.2626953
	c-0.9853516-1.8330078-2.0029297-3.7294922-2.2265625-5.7099609c-0.1162109-1.0742188-0.0068359-2.4121094,0.1015625-3.7099609
	c0.0830078-1.0039063,0.1669922-1.9550781,0.1474609-2.8232422c-0.0449219-2.25-1.6064453-8.0761719-2.8417969-12.3330078
	c2.5664063,2.3271484,6.4648438,6.1142578,7.2958984,7.9472656c0.3525391,0.7910156,0.3779297,2.2763672,0.4033203,3.7099609
	c0.0253906,1.6914063,0.0507813,3.2929688,0.5566406,4.3408203c0.6464844,1.3632813,2.3300781,2.8232422,3.9619141,4.2314453
	c1.2480469,1.0800781,2.5341797,2.1923828,3.1103516,3.0800781c0.640625,0.9902344,1.1005859,3.6005859,1.5039063,5.9033203
	c0.6210938,3.5166016,1.0175781,5.5361328,1.9453125,6.1269531c0.1865234,0.1162109,0.3847656,0.1806641,0.5898438,0.1806641
	c0.0888672,0,0.1855469-0.0136719,0.28125-0.0380859c0.2363281-0.0654297,0.4160156-0.2636719,0.4599609-0.5019531
	l7.5078125-39.8808594l6.0673828,39.359375c0.0449219,0.2705078,0.2431641,0.4824219,0.5117188,0.5341797
	c0.2050781,0.0390625,0.4160156-0.0195313,0.5634766-0.1669922c0.0439453-0.0380859,0.0771484-0.0839844,0.1083984-0.1289063
	l0.9160156-1.5244141l2.9755859-4.9833984v33.5087891h25.0244141L211.7119141,420.2744141z"/>
<path fill="#EE1D24" d="M329.8496094,141.684082c1.1074219-0.3085938,2.4003906-0.6108398,3.21875-0.7397461
	c-5.5742188,9.9091797-2.2460938,25.6181641-2.0986328,26.2998047c0.0634766,0.2958984,0.3193359,0.5019531,0.6142578,0.5083008
	c0.2685547,0.0126953,0.5566406-0.1928711,0.6337891-0.4824219c1.7597656-6.796875,7.4814453-14.9438477,8.5888672-16.480957
	c1.0751953,0.1801758,3.7822266,2.2509766,5.8759766,4.2441406c0.1972656,0.1928711,0.4853516,0.2314453,0.7285156,0.109375
	s0.3769531-0.3793945,0.3457031-0.6494141c-1.03125-8.5395508,0.6650391-13.2915039,2.6494141-17.1557617
	c0.4169922-0.8105469,0.8759766-1.9614258,1.4150391-3.3051758c1.4140625-3.5239258,3.78125-9.4272461,5.8613281-8.6938477
	c0.4863281,0.6240234-1.0371094,4.8291016-2.0478516,7.6132813c-1.6445313,4.5336914-3.5068359,9.6708984-2.90625,12.5136719
	c0.0712891,0.3149414,0.2695313,0.559082,0.5458984,0.668457c0.6201172,0.237793,1.2978516-0.2504883,2.2392578-0.9194336
	c0.3583984-0.2573242,0.9726563-0.6943359,1.2988281-0.8295898c0.3330078,0.8100586,0.0322266,1.9804688-0.3457031,3.4272461
	c-0.5556641,2.1479492-1.2480469,4.8227539-0.3583984,8.0507813c0.0644531,0.2314453,0.2568359,0.4116211,0.4941406,0.456543
	c0.2421875,0.0449219,0.4853516-0.0512695,0.6318359-0.2441406l4.2509766-5.7104492
	c-0.7939453,3.3759766-1.9082031,8.777832-1.9658203,12.6357422c-0.0058594,0.2636719,0.1542969,0.5014648,0.3974609,0.5976563
	c0.2421875,0.1030273,0.5175781,0.0454102,0.703125-0.1411133l4.6220703-4.777832
	c-0.1035156,14.1079102,5.2539063,23.1616211,5.4833984,23.5541992c0.1474609,0.237793,0.4365234,0.3598633,0.7050781,0.2890625
	c0.2744141-0.0703125,0.4667969-0.3085938,0.4853516-0.5849609l1.2871094-22.9755859l3.8144531,3.324707
	c0.1601563,0.1347656,0.3710938,0.1865234,0.5761719,0.1347656c0.1982422-0.0512695,0.3642578-0.1928711,0.4414063-0.3852539
	l3.8076172-9.690918c1.8496094,6.3149414,4.4355469,16.8476563,5.3125,20.4741211l-6.7333984-3.0029297
	c-0.2363281-0.109375-0.5175781-0.0576172-0.703125,0.1220703c-0.1923828,0.1801758-0.25,0.4570313-0.1542969,0.7011719
	c1.1005859,2.7841797,2.6757813,5.7485352,4.3457031,8.8862305c2.1181641,3.9868164,4.3017578,8.0957031,5.4658203,11.8383789
	c-5.7148438-5.4272461-6.1630859-5.1054688-6.5986328-4.796875c-0.1914063,0.1411133-0.4667969,0.4692383-0.1591797,1.1445313
	c4.4726563,9.6904297,6.6875,27.0390625,7.3330078,32.9033203c-6.1494141-7.0024414-6.6367188-6.706543-7.109375-6.4238281
	c-0.2050781,0.1225586-0.5058594,0.4311523-0.2363281,1.1318359c3.3212891,8.7387695,3.8388672,16.390625,3.8203125,21.7792969
	c-4.7167969-5.0351563-5.5361328-4.6362305-5.9003906-4.4624023c-0.1796875,0.0898438-0.5830078,0.3662109-0.4619141,1.125
	c1.7089844,10.7578125-2.3681641,20.5253906-2.4121094,20.6220703c-0.0830078,0.1992188-0.0634766,0.4243164,0.0566406,0.6040039
	c0.1162109,0.1801758,0.3144531,0.2895508,0.5322266,0.2895508h34.8798828c0.1787109,0,0.3515625-0.0771484,0.4736328-0.2119141
	c0.1210938-0.128418,0.1787109-0.309082,0.1660156-0.4887695c-0.1591797-1.7490234-0.3076172-4.8354492-0.0322266-5.690918
	c0.4550781-1.4145508,1.5429688-3.105957,2.8037109-5.0668945c1.6455078-2.559082,3.5058594-5.4526367,4.4804688-8.6040039
	c0.0820313-0.2504883,0-0.5268555-0.2050781-0.6938477c-0.2050781-0.1674805-0.4931641-0.1865234-0.7236328-0.0585938
	c-0.0507813,0.0327148-4.7167969,2.6879883-8.3515625,3.6079102c2.3105469-3.003418,7.5126953-10.5458984,8.3447266-18.4291992
	c0.0322266-0.2573242-0.0957031-0.5019531-0.3125-0.6303711c-0.2246094-0.1220703-0.5-0.1088867-0.6982422,0.0449219
	c-0.0322266,0.0195313-2.5917969,1.9033203-6.2529297,3.1635742c0.6845703-3.8125,3.1875-17.0913086,5.9394531-23.4189453
	c0.1152344-0.2695313,0.0322266-0.5913086-0.2041016-0.7709961c-0.2373047-0.1806641-0.5644531-0.1738281-0.7939453,0.019043
	c-0.0390625,0.0317383-3.4375,2.8417969-6.6943359,5.3818359c1.0625-3.8901367,2.9824219-11.3364258,3.3408203-15.4453125
	c0.0195313-0.21875-0.0771484-0.4243164-0.2431641-0.5595703c-0.1669922-0.1347656-0.390625-0.1733398-0.5957031-0.1088867
	l-4.8955078,1.5878906c0.8886719-6.6103516-3.1494141-17.8696289-5.6132813-24.75
	c-0.8447266-2.3598633-1.7216797-4.8032227-1.8232422-5.5878906c0.0957031-0.0322266,0.2158203-0.0449219,0.3896484-0.0126953
	c2.8027344,0.565918,8.7421875,10.3588867,12.0507813,16.8022461c0.1279297,0.2509766,0.4091797,0.3857422,0.6787109,0.3344727
	c0.2822266-0.0449219,0.4931641-0.2700195,0.5244141-0.546875c1.6074219-12.6801758-3.2832031-20.8852539-5.1962891-23.534668
	c1.09375-0.0253906,2.1757813,0.3344727,3.2382813,1.0610352c7.5644531,5.1894531,11.0585938,27.0522461,11.0908203,27.2773438
	c0.0449219,0.2827148,0.2763672,0.5014648,0.5634766,0.5336914c2.1757813,0.2441406,3.6484375-1.2734375,4.5185547-2.6235352
	c0.9345703,6.8095703,4.1152344,29.1225586,8.0449219,47.5771484c0.0634766,0.3022461,0.3261719,0.5078125,0.6269531,0.5078125
	c0.0263672,0,0.0507813,0,0.0830078-0.0058594c0.3271484-0.0390625,0.5703125-0.3344727,0.5576172-0.6689453
	c-0.0195313-0.3857422-1.7285156-38.8066406-1.3642578-55.2871094c0.9355469,0.2119141,3.40625,1.5302734,5.4277344,2.815918
	c0.1982422,0.1225586,0.4541016,0.1289063,0.6591797,0.0131836c0.2050781-0.1220703,0.3261719-0.347168,0.3193359-0.5854492
	c-0.2558594-6.3012695-4.8056641-12.8149414-6.8222656-15.4067383l3.9042969,0.237793
	c0.2304688,0.0195313,0.4609375-0.1025391,0.5830078-0.3022461c0.1210938-0.2055664,0.1279297-0.456543,0.0117188-0.6621094
	c-3.1992188-5.574707-10.7958984-13.0727539-16.3447266-18.5512695c-2.8427734-2.8037109-5.7792969-5.6972656-6.3427734-6.6748047
	c0.53125-0.4243164,1.1396484-0.6235352,1.8300781-0.5976563c3.6103516,0.128418,8.7880859,5.902832,12.9482422,10.5458984
	c1.2158203,1.3564453,2.3613281,2.6425781,3.3779297,3.6713867c0.2753906,0.2827148,0.640625,0.3793945,0.9746094,0.2504883
	c0.2998047-0.1152344,1.0429688-0.4047852,1.3808594-4.9125977c2.4072266,3.1186523,8.2441406,10.9121094,9.6582031,14.7958984
	c0.1855469,0.5146484,0.5947266,0.5786133,0.7167969,0.5854492c0.6855469,0.0385742,1.09375-0.6689453,2.1376953-2.7329102
	c0.3652344-0.7138672,0.9404297-1.8457031,1.2919922-2.3085938c4.0585938,3.6459961,10.3173828,14.3393555,10.3808594,14.4550781
	c0.1220703,0.2060547,0.3457031,0.328125,0.5888672,0.3154297c0.2373047-0.0131836,0.4482422-0.1611328,0.5439453-0.3793945
	c3.6035156-8.1469727-0.5693359-16.3134766-3.0976563-20.1459961l3.6621094,1.8837891
	c0.2363281,0.1225586,0.5244141,0.0839844,0.7226563-0.0898438c0.1914063-0.1801758,0.2626953-0.456543,0.1728516-0.7075195
	c-3.2451172-8.7192383-18.3427734-20.3193359-22.5849609-23.4575195l3.109375-0.8549805
	c0.1992188-0.0517578,0.3515625-0.1928711,0.4296875-0.3793945c0.0761719-0.1865234,0.0566406-0.3989258-0.0517578-0.5722656
	c-5.1904297-8.5009766-15.7314453-12.3139648-22.0292969-14.590332c-2.1240234-0.7719727-4.1279297-1.4985352-4.4990234-1.9550781
	c-0.8710938-1.0800781-0.5566406-1.7104492-0.4541016-1.9160156c0.7744141-1.5429688,4.28125-2.3920898,5.5361328-2.3466797
	C436.2753906,99.894043,447.6416016,113.371582,447.75,113.5068359c0.1738281,0.2119141,0.4609375,0.2827148,0.7109375,0.1928711
	c0.2558594-0.0966797,0.421875-0.3344727,0.421875-0.6044922c-0.0126953-2.4370117,0.2119141-5.2729492,0.5634766-6.1474609
	c5.3056641,4.0639648,10.8798828,13.0537109,13.6191406,22.0043945c0.0966797,0.3149414,0.4091797,0.5083008,0.7294922,0.4438477
	c0.3193359-0.0581055,0.5439453-0.347168,0.5244141-0.675293l-0.7099609-10.4042969
	c4.1660156,3.0288086,8.1015625,7.6328125,10.765625,11.0986328c0.1787109,0.2314453,0.3447266,0.4570313,0.5048828,0.6689453
	v163.1352539h-144V177.4746094h-86.4003906V5.144043h230.4003906v116.503418
	c-2.1376953-4.5463867-4.8447266-8.8671875-6.4833984-11.3496094l3.1425781,1.671875
	c0.2041016,0.109375,0.4541016,0.1030273,0.6523438-0.0253906c0.1923828-0.1289063,0.3017578-0.3540039,0.2890625-0.5917969
	c-0.5839844-7.6328125-5.0439453-10.8349609-8.3398438-12.5776367c-2.3173828-1.2216797-8.1982422-3.6201172-11.1484375-4.8032227
	l7.6669922-2.2890625c0.2236328-0.0644531,0.3896484-0.2441406,0.4414063-0.4697266
	c0.0576172-0.2250977-0.0185547-0.4628906-0.1855469-0.6171875c-5.2607422-4.8867188-15.9804688-5.2729492-21.8945313-5.0732422
	c-2.3291016,0.0771484-6.1181641,0.9130859-10.1308594,1.800293c-3.7177734,0.8164063-7.5722656,1.6655273-10.5537109,1.9868164
	c-2.5927734,0.2700195-4.4101563-0.1088867-4.8193359-0.4174805c3.4814453-5.324707,9.9199219-8.019043,14.4384766-8.2695313
	c4.2626953-0.2446289,17.984375,1.4980469,18.1191406,1.5175781c0.2548828,0.0322266,0.5117188-0.090332,0.6386719-0.3212891
	c0.1289063-0.2250977,0.109375-0.5083008-0.0498047-0.7143555l-5.1455078-6.6166992
	c10.1679688,0.7651367,28.421875,9.2016602,28.6132813,9.2919922c0.2431641,0.109375,0.5371094,0.0576172,0.7236328-0.1352539
	c0.1923828-0.1928711,0.2363281-0.4887695,0.1220703-0.7329102c-5.1914063-10.7514648-12.8847656-14.609375-19.7324219-16.9697266
	c-3.1162109-1.0668945-7.3789063-1.1054688-10.7958984-1.144043c-2.0800781-0.0195313-4.6660156-0.0449219-5.0439453-0.3793945
	c-0.2041016-0.6171875,1.6777344-3.3569336,4.0263672-5.8583984c0.1533203-0.1669922,0.2119141-0.4047852,0.1464844-0.6298828
	c-0.0634766-0.21875-0.2431641-0.3857422-0.4667969-0.4370117c-8.5888672-2.0708008-14.9130859,0.887207-17.5361328,2.4946289
	l0.5761719-2.9511719c0.0380859-0.1738281-0.0068359-0.3603516-0.1152344-0.5083008
	c-0.109375-0.1479492-0.2753906-0.237793-0.4550781-0.2573242c-5.7978516-0.5205078-9.1513672,5.1826172-11.3857422,8.9638672
	c-0.3447266,0.5849609-0.671875,1.1381836-0.9716797,1.6137695c-0.3779297,0.5854492-0.8261719,1.4023438-1.3447266,2.347168
	c-1.6259766,2.9453125-4.6328125,8.4238281-6.7070313,7.9799805c-0.2822266-0.0576172-0.5820313-0.3344727-0.8447266-0.7714844
	c-0.6523438-1.0673828-1.0878906-3.1958008-0.5058594-5.34375c2.0673828-7.7099609,13.0693359-15.3168945,13.1777344-15.387207
	c0.2119141-0.1479492,0.3203125-0.3989258,0.2685547-0.65625c-0.0761719-0.3984375-0.3125-0.7392578-0.6835938-0.9838867
	c-1.3955078-0.90625-4.8203125-0.3466797-6.4648438-0.0063477c0.4355469-2.559082,6.1308594-7.9477539,9.9589844-11.0087891
	c0.1914063-0.1474609,0.2802734-0.3920898,0.2304688-0.6298828c-0.0507813-0.2441406-0.2304688-0.4306641-0.4609375-0.4951172
	c-8.2753906-2.1992188-12.6337891,1.3891602-14.2724609,3.2856445c-0.0517578-1.5366211,0.5888672-4.5717773,1.4335938-7.2016602
	c0.0703125-0.2124023,0.0263672-0.4438477-0.1152344-0.6108398c-0.140625-0.1669922-0.3583984-0.2573242-0.5761719-0.2250977
	c-6.7841797,0.9067383-13.0742188,10.8349609-15.0976563,14.3393555
	c-6.0986328-15.4130859-6.8925781-15.2397461-7.4746094-15.1240234c-0.2431641,0.0517578-0.6396484,0.2446289-0.6210938,1.0292969
	c0.0136719,0.6362305,0.0380859,1.5107422,0.0703125,2.559082c0.1660156,5.793457,0.4863281,16.6733398-0.3837891,23.8881836
	c-0.0576172,0.4248047-0.6660156,1.1123047-1.1455078,1.1123047h-0.0449219c-0.4414063,0-0.6972656-0.9580078-0.6591797-2.2182617
	c0.3134766-10.1918945-6.1054688-22.0620117-12.953125-23.9204102c-0.25-0.0644531-0.5126953,0-0.6728516,0.2124023
	c-0.1591797,0.2055664-0.1787109,0.4755859-0.0507813,0.7006836c0.0380859,0.0644531,3.1875,5.6005859,3.6162109,9.4589844
	c-2.0673828-2.3408203-6.5664063-7.1635742-9.7597656-8.6103516c-5.9521484-2.7006836-20.1728516-0.1542969-20.7744141-0.0449219
	c-0.3017578,0.0512695-0.5195313,0.3085938-0.5253906,0.6171875s0.2050781,0.5722656,0.5058594,0.6430664
	c15.7685547,3.4853516,19.2060547,9.4458008,19.8017578,10.809082c-0.8642578,0.2446289-4.4355469-1.0737305-7.8398438-2.925293
	c-0.2753906-0.1484375-0.6083984-0.0771484-0.7998047,0.1538086c-0.1982422,0.2382813-0.1982422,0.5854492,0,0.8232422
	c3.9794922,4.8549805,8.0888672,11.4907227,10.3662109,15.3359375c-7.7041016-6.121582-12.4091797-6.925293-17.9892578-7.3046875
	c-4.953125-0.3339844-13.7792969,1.1513672-14.1572266,1.2089844c-0.2626953,0.0454102-0.4667969,0.2509766-0.5175781,0.5078125
	c-0.25,1.2475586,1.4013672,2.4692383,3.3085938,3.8842773c0.7490234,0.5527344,1.984375,1.472168,2.5273438,2.0898438
	c-3.1865234-0.0581055-13.7783203,0.1030273-19.1230469,4.3466797c-2.8095703,2.2250977-6.1630859,7.6523438-6.3037109,7.8774414
	c-0.1416016,0.2314453-0.1279297,0.5205078,0.0380859,0.7324219c0.1601563,0.2124023,0.4355469,0.3027344,0.6914063,0.2250977
	c1.3310547-0.3984375,2.7333984-0.8037109,3.9746094-1.1572266c-9.4082031,6.1923828-12.5947266,14.8344727-12.8251953,15.484375
	l-0.1162109,0.3466797c0,0-0.0253906,0.2573242,0.0390625,0.3603516c0.1162109,0.1801758,0.6074219,0.1928711,0.8193359,0.1865234
	c0.0898438,0,0.2109375-0.0581055,0.3261719-0.1479492c7.4873047-5.5942383,19.46875-9.4975586,26.3105469-9.9023438
	c0.6972656-0.0449219,1.5107422-0.1352539,2.4765625-0.2382813c4.8583984-0.5209961,12.1855469-1.3178711,13.8232422,2.8808594
	c0.1484375,0.3857422,0.0712891,0.5786133-0.0117188,0.7011719c-0.8964844,1.3051758-6.4140625,1.2861328-10.4384766,1.2729492
	c-2.1181641-0.0063477-4.1210938-0.0126953-5.6640625,0.1220703c-7.3017578,0.6494141-16.9150391,4.9384766-17.3251953,5.125
	c-0.2177734,0.0966797-0.3574219,0.3022461-0.3769531,0.5400391c-0.0126953,0.237793,0.1015625,0.4697266,0.2998047,0.5917969
	c3.5517578,2.1992188,4.9355469,3.2924805,5.4794922,3.8256836c-9.5175781,0.7011719-15.1494141,6.1987305-17.1455078,8.5527344
	c-3.2451172,3.8256836-5.6201172,10.8476563-5.7216797,11.1435547c-0.0644531,0.1928711-0.0322266,0.4111328,0.0820313,0.5786133
	c0.6337891,0.894043,2.3046875,0.5336914,4.5185547-0.2700195c-14.4189453,14.7055664-11.5644531,44.9599609-11.4296875,46.2978516
	c0.0322266,0.3149414,0.2871094,0.7006836,0.5947266,0.7006836h0.0449219c0.2939453,0,0.5507813-0.3217773,0.6210938-0.6108398
	c5.6572266-23.1103516,14.1757813-31.1674805,15.6162109-32.3955078c2.8154297,0.7973633,4.4794922,6.90625,4.8886719,9.2788086
	c0.0585938,0.3085938,0.3203125,0.5141602,0.6279297,0.5141602c0.2939453,0,0.5761719-0.2250977,0.6337891-0.5268555
	c2.546875-13.2724609,4.8251953-22.0175781,8.9208984-27.4702148c1.7285156-2.3085938,7.1621094-6.5717773,10.9765625-9.4204102
	c-2.9316406,4.0126953-7.2128906,10.1855469-8,13.1499023c-0.7939453,3.015625-0.6972656,3.9995117-0.3144531,4.5527344
	c0.3212891,0.4628906,0.8007813,0.5078125,1.0888672,0.5332031c0.0380859,0.0068359,0.0898438,0.0068359,0.1279297,0.0131836
	c0.0185547,0.0708008,0.0322266,0.2060547,0.0126953,0.4628906c-0.1660156,2.3408203-0.6601563,4.5976563-1.1328125,6.777832
	c-0.6210938,2.8164063-1.2021484,5.4785156-1.1074219,8.2304688c0.1210938,3.7617188,1.0625,8.0185547,1.6132813,10.2241211
	c0.7236328,2.887207,1.2216797,4.3276367,1.59375,5.0541992c0.3642578,0.7202148,0.6074219,0.7202148,0.8066406,0.7202148
	c0.2480469,0,0.6777344-0.1674805,0.703125-0.7973633c0.4677734-12.7641602,11.5136719-39.0576172,17.9140625-42.6323242
	c0.8828125-0.4887695,2.0986328-0.9648438,2.9306641-0.4760742c0.7880859,0.4628906,1.2353516,1.8129883,1.2353516,3.6972656
	c0,1.4790039-4.1025391,6.6811523-7.0966797,10.4750977c-1.7099609,2.1601563-3.3222656,4.2055664-4.2255859,5.581543
	c-1.8945313,2.8613281-3.3974609,9.1694336-3.4609375,9.4394531c-0.0517578,0.21875,0.0126953,0.4501953,0.1787109,0.6108398
	C329.3945313,141.6904297,329.6318359,141.7485352,329.8496094,141.684082z"/>
<path fill="#EE1D24" d="M240.6396484,412.8222656v170.2861328c-2.2460938-3.8398438-5.4140625-8.5654297-9.6064453-13.3242188
	c-12.6396484-14.3457031-28.5693359-21.9267578-46.0732422-21.9267578H69.1201172c-34.0927734,0-64-30.0488281-64-64.3027344
	V299.0063477h144v77.831543l-4.0703125,6.7978516l-6.3681641-41.3017578
	c-0.0576172-0.3085938-0.3203125-0.5410156-0.6269531-0.546875c-0.3271484-0.0126953-0.5830078,0.21875-0.640625,0.5205078
	l-7.9746094,42.3496094c-0.3710938-1.0800781-0.7285156-3.0927734-0.9853516-4.5458984
	c-0.4667969-2.6621094-0.9082031-5.1699219-1.6894531-6.3730469c-0.671875-1.0478516-1.9775391-2.1728516-3.3535156-3.3623047
	c-1.5292969-1.3183594-3.1044922-2.6884766-3.6416016-3.8066406c-0.3779297-0.7978516-0.4033203-2.328125-0.4287109-3.8134766
	c-0.0322266-1.6337891-0.0576172-3.1826172-0.5185547-4.2119141c-1.2861328-2.8417969-8.1533203-8.8867188-9.1328125-9.7353516
	c-0.2177734-0.1992188-0.421875-0.2832031-0.5888672-0.2832031c-0.4609375,0-0.7041016,0.5917969-0.5253906,1.0488281
	c1.0439453,3.5234375,1.8759766,6.5458984,2.4453125,8.9179688c0.5693359,2.3730469,0.8837891,4.0898438,0.9023438,4.9902344
	c0.0126953,0.7978516-0.0634766,1.7177734-0.140625,2.6943359c-0.1152344,1.3574219-0.2304688,2.7587891-0.0966797,3.9550781
	c0.2441406,2.2314453,1.3251953,4.2373047,2.3681641,6.1787109c1.3320313,2.4824219,2.5927734,4.8232422,1.9648438,7.34375
	c-0.4277344,1.7099609,0.1152344,4.3212891,0.5957031,6.0761719l-34.1630859-24.6914063
	c-0.2558594-0.1865234-0.6015625-0.1542969-0.8261719,0.0703125c-0.2236328,0.2255859-0.2490234,0.5722656-0.0634766,0.8291016
	l25.7470703,35.3154297l-0.9023438,1.4726563c-1.8046875-1.8007813-7.4238281-7.0029297-12.4345703-7.4267578
	c-0.9160156-0.0771484-1.9716797,0.2958984-2.9960938,0.6494141c-1.0166016,0.3535156-2.0664063,0.7138672-2.7646484,0.5654297
	c-0.9599609-0.2050781-2.2910156-1.2792969-3.5771484-2.3212891c-1.8759766-1.5234375-3.8085938-3.0927734-5.5292969-2.8291016
	c-5.4658203,0.8554688-11.1357422-0.7714844-11.1943359-0.7841797c-0.2109375-0.0644531-0.4414063-0.0068359-0.6074219,0.140625
	c-0.1669922,0.1484375-0.2441406,0.3730469-0.1982422,0.5917969c0.0380859,0.2255859,1.1064453,5.5498047,11.0585938,6.7138672
	c1.4404297,0.1669922,3.2578125,2.2119141,4.8574219,4.0126953c1.4785156,1.6582031,2.8808594,3.2275391,4.25,3.8193359
	c6.7011719,2.8867188,13.2353516,6.6230469,14.8798828,7.5810547l-0.2246094,1.0732422l-45.8554688,6.5654297
	c-0.3134766,0.0449219-0.5507813,0.3154297-0.5507813,0.6308594c0,0.3212891,0.2246094,0.5917969,0.5380859,0.6425781
	l46.0224609,7.2988281l0.3583984,1.4980469c-1.703125,0.21875-6.015625,0.9130859-9.4472656,2.6425781
	c-2.1367188,1.0742188-3.6923828,2.6240234-5.0615234,3.9863281c-0.9726563,0.9716797-1.8173828,1.8076172-2.6113281,2.1933594
	c-0.5693359,0.2832031-1.7792969,0.4755859-3.0595703,0.6748047c-1.8818359,0.3027344-4.0126953,0.6367188-5.6572266,1.421875
	c-5.1582031,2.4433594-8.8320313,8.3457031-8.9853516,8.5966797c-0.1474609,0.2441406-0.1220703,0.5527344,0.0634766,0.765625
	c0.1923828,0.2177734,0.4931641,0.2753906,0.7490234,0.1601563c0.0576172-0.0322266,5.8945313-2.7519531,11.0205078-4.1474609
	c1.0947266-0.2958984,3.46875-0.2705078,5.3759766-0.2441406c1.9902344,0.0195313,3.2382813,0.0253906,3.8466797-0.1669922
	c1.7275391-0.5400391,3.6738281-1.3310547,5.5546875-2.0898438c2.0800781-0.8359375,4.0449219-1.6337891,5.453125-1.9941406
	c1.9394531-0.5078125,5.4726563-0.3144531,7.2509766-0.1728516l-25.2919922,36.234375
	c-0.1796875,0.2568359-0.1474609,0.6103516,0.0830078,0.8291016c0.2304688,0.2255859,0.5820313,0.2382813,0.8320313,0.0449219
	l35.0273438-27.2128906l1.4013672,0.9072266c-1.3886719,1.8964844-5.7792969,8.0566406-6.3300781,10.8857422
	c-0.1855469,0.9462891,0.1416016,2.1933594,0.4863281,3.5107422c0.2753906,1.0615234,0.5576172,2.1552734,0.4677734,2.7919922
	c-0.1855469,1.3242188-1.3125,3.3623047-2.3037109,5.1621094c-0.7617188,1.3896484-1.4785156,2.6953125-1.8310547,3.7236328
	c-1.0234375,3.0478516-1.6064453,13.703125-1.6318359,14.1601563c-0.0185547,0.3212891,0.2050781,0.6035156,0.5244141,0.6621094
	c0.3134766,0.0576172,0.6269531-0.1220703,0.7236328-0.4316406c0.0126953-0.0439453,1.3818359-4.2695313,3.4433594-7.4013672
	c0.6914063-1.0410156,1.0625-2.1083984,1.4199219-3.1376953c0.4931641-1.4140625,0.921875-2.6425781,2.0869141-3.4335938
	c4.2246094-2.8808594,5.2861328-6.4941406,6.1376953-9.4013672c0.3330078-1.1308594,0.6464844-2.1982422,1.1074219-3.0410156
	c0.8955078-1.6523438,5.5039063-6.1210938,8.0322266-8.4814453l7.0078125,43.8798828
	c0.0507813,0.3085938,0.3193359,0.5400391,0.6337891,0.5400391c0.3134766,0,0.5820313-0.2314453,0.6328125-0.5400391
	l6.796875-43.2626953c1.5615234,3.1064453,4.7871094,9.3115234,6.6503906,11.5107422
	c0.4609375,0.5458984,1.2666016,1.0664063,2.1113281,1.6201172c0.9726563,0.6230469,2.0673828,1.3369141,2.3554688,1.9355469
	c0.3964844,0.8427734,0.3457031,2.3271484,0.2949219,3.7617188c-0.0644531,1.703125-0.1347656,3.4658203,0.5244141,4.6357422
	c1.453125,2.5917969,8.421875,6.4169922,9.2158203,6.8417969c0.2431641,0.1347656,0.5439453,0.0898438,0.7421875-0.1025391
	c0.2050781-0.1933594,0.2558594-0.4951172,0.1347656-0.7460938c-0.0380859-0.0703125-3.5136719-7.2919922-4.109375-10.4423828
	c-0.1279297-0.6884766,0.0517578-1.9423828,0.2441406-3.2734375c0.3896484-2.7578125,0.8828125-6.1992188-0.6660156-8.3974609
	c-2.4638672-3.4794922-3.4501953-10.8222656-3.7695313-13.8828125l36.3134766,25.9521484
	c0.2558594,0.1865234,0.6015625,0.1542969,0.8251953-0.0644531c0.2177734-0.2246094,0.25-0.5722656,0.0644531-0.8291016
	L172,442.6259766c3.0722656,1.6591797,7.9228516,4.0703125,10.3554688,4.1152344
	c0.7998047,0,2.0605469-0.4306641,3.3916016-0.9003906c1.2099609-0.4306641,2.5791016-0.9189453,3.1865234-0.8671875
	c1.4853516,0.1220703,3.0976563,1.7744141,4.6601563,3.3691406c1.4521484,1.4980469,2.9628906,3.0410156,4.5429688,3.5175781
	c0.8134766,0.2441406,2.1640625,0.3271484,3.6552734,0.3271484c3.3847656,0,7.5068359-0.4365234,7.7568359-0.46875
	c0.28125-0.0253906,0.5117188-0.2441406,0.5625-0.5273438c0.0449219-0.2832031-0.1015625-0.5664063-0.3574219-0.6884766
	c-0.0771484-0.0380859-7.3984375-3.5488281-9.4472656-5.0791016c-0.9853516-0.7333984-2.1503906-2.1220703-3.3916016-3.6015625
	c-1.8105469-2.1474609-3.6796875-4.3730469-5.4589844-5.1572266c-0.9921875-0.4306641-2.4580078-0.4179688-4.0126953-0.3984375
	c-1.4853516,0.0195313-3.0214844,0.0322266-3.7763672-0.3789063c-1.7919922-0.9707031-5.7919922-5.6396484-7.8583984-8.1728516
	l39.5830078-6.7001953c0.3007813-0.0517578,0.5253906-0.3417969,0.53125-0.65625
	c0.0068359-0.3085938-0.2109375-0.6044922-0.5185547-0.6689453l-34.6171875-6.8671875H240.6396484z"/>
<path fill="#FFFFFF" d="M474.8798828,475.671875v7.8828125c0,35.4560547-26.4121094,64.3027344-58.8798828,64.3027344H300.1601563
	c-23.4570313,0-38.5410156,11.9414063-47.0654297,21.9589844c-3.7509766,4.4111328-6.5791016,8.8027344-8.6152344,12.4804688
	V479.2529297c2.6123047-0.2255859,6.5097656-4.4882813,13.2294922-4.4882813c9.2480469,0,13.5039063,6.2558594,18.3417969,6.2177734
	c4.640625-0.0322266,12.8574219-6.1982422,17.4980469-6.2177734c4.7363281-0.0195313,13.1777344,6.2441406,17.9199219,6.2177734
	c4.5888672-0.0253906,12.6914063-6.1660156,17.2792969-6.2177734c4.890625-0.0517578,13.6708984,6.2626953,18.5615234,6.2177734
	c4.6386719-0.0449219,12.8496094-6.2373047,17.4902344-6.2177734c4.5380859,0.0195313,12.53125,6.2441406,17.0683594,6.2177734
	c4.3837891-0.0253906,12.0390625-6.1083984,16.4228516-6.2177734c5.0429688-0.1220703,14.1630859,6.3408203,19.2001953,6.2177734
	c4.390625-0.109375,12.0380859-6.1083984,16.4287109-6.2177734c5.0429688-0.1220703,14.1572266,6.3076172,19.1992188,6.2177734
	c4.5380859-0.0830078,12.5322266-6.1025391,17.0693359-6.2177734
	C471.2451172,474.7392578,473.2480469,475.0605469,474.8798828,475.671875z"/>
<path fill="#FFFFFF" d="M474.8798828,297.0776367V467.3125c-1.6318359-0.6113281-3.6347656-0.9326172-4.6914063-0.9072266
	c-4.5371094,0.1152344-12.53125,6.1347656-17.0693359,6.2177734c-5.0419922,0.0898438-14.15625-6.3398438-19.1992188-6.2177734
	c-4.390625,0.109375-12.0380859,6.1083984-16.4287109,6.2177734c-5.0371094,0.1230469-14.1572266-6.3398438-19.2001953-6.2177734
	c-4.3837891,0.109375-12.0390625,6.1923828-16.4228516,6.2177734c-4.5371094,0.0263672-12.5302734-6.1982422-17.0683594-6.2177734
	c-4.640625-0.0195313-12.8515625,6.1728516-17.4902344,6.2177734c-4.890625,0.0458984-13.6708984-6.2695313-18.5615234-6.2177734
	c-4.5878906,0.0517578-12.6904297,6.1923828-17.2792969,6.2177734c-4.7421875,0.0263672-13.1835938-6.2373047-17.9199219-6.2177734
	c-4.640625,0.0195313-12.8574219,6.1855469-17.4980469,6.2177734c-4.8378906,0.0390625-9.09375-6.2177734-18.3417969-6.2177734
	c-6.7197266,0-10.6171875,4.2626953-13.2294922,4.4882813v-58.0712891h86.4003906V297.0776367H474.8798828z"/>
<path fill="#FFFFFF" d="M240.6396484,92.1582031v85.3164063h-91.5195313v117.6738281h-144V5.144043h235.5195313v76.25
	c-4.9277344-5.8901367-23.2636719-26.550293-38.3486328-27.3798828
	c-8.2109375-0.4501953-27.4628906,15.6445313-27.4628906,15.6445313s-26.5595703-25.9331055-39.1484375-24.9682617
	c-21.8681641,1.6782227-46.546875,29.6879883-46.546875,29.6879883
	c-5.7216797,0.5341797-15.4111328-14.9692383-32.7353516-12.8920898
	C34.0800781,64.1674805,9.3886719,89.1679688,9.4394531,98.8134766c0,0,27.0400391-28.5117188,45.8115234-29.1547852
	c22.9121094-0.7841797,51.6230469,31.0839844,51.6230469,31.0839844
	c2.3486328-5.144043-13.8183594-18.7250977-12.0576172-21.3164063c7.5703125-11.15625,29.5800781-25.6118164,41.484375-24.9814453
	c22.3427734,1.1831055,48.1025391,41.7578125,49.2607422,39.4370117c1.9199219-3.8583984-8.7041016-14.6289063-6.8671875-19.0786133
	c2.4570313-5.9545898,17.4082031-11.7226563,23.8144531-11.355957
	C217.0625,64.2768555,235.6542969,86.0043945,240.6396484,92.1582031z"/>
<path fill="#007DC6" d="M474.8798828,467.3125v8.359375c-1.6318359-0.6113281-3.6347656-0.9326172-4.6914063-0.9072266
	c-4.5371094,0.1152344-12.53125,6.1347656-17.0693359,6.2177734c-5.0419922,0.0898438-14.15625-6.3398438-19.1992188-6.2177734
	c-4.390625,0.109375-12.0380859,6.1083984-16.4287109,6.2177734c-5.0371094,0.1230469-14.1572266-6.3398438-19.2001953-6.2177734
	c-4.3837891,0.109375-12.0390625,6.1923828-16.4228516,6.2177734c-4.5371094,0.0263672-12.5302734-6.1982422-17.0683594-6.2177734
	c-4.640625-0.0195313-12.8515625,6.1728516-17.4902344,6.2177734c-4.890625,0.0449219-13.6708984-6.2695313-18.5615234-6.2177734
	c-4.5878906,0.0517578-12.6904297,6.1923828-17.2792969,6.2177734c-4.7421875,0.0263672-13.1835938-6.2373047-17.9199219-6.2177734
	c-4.640625,0.0195313-12.8574219,6.1855469-17.4980469,6.2177734c-4.8378906,0.0380859-9.09375-6.2177734-18.3417969-6.2177734
	c-6.7197266,0-10.6171875,4.2626953-13.2294922,4.4882813v-8.359375c2.6123047-0.2255859,6.5097656-4.4882813,13.2294922-4.4882813
	c9.2480469,0,13.5039063,6.2568359,18.3417969,6.2177734c4.640625-0.0322266,12.8574219-6.1982422,17.4980469-6.2177734
	c4.7363281-0.0195313,13.1777344,6.2441406,17.9199219,6.2177734c4.5888672-0.0253906,12.6914063-6.1660156,17.2792969-6.2177734
	c4.890625-0.0517578,13.6708984,6.2636719,18.5615234,6.2177734c4.6386719-0.0449219,12.8496094-6.2373047,17.4902344-6.2177734
	c4.5380859,0.0195313,12.53125,6.2441406,17.0683594,6.2177734c4.3837891-0.0253906,12.0390625-6.1083984,16.4228516-6.2177734
	c5.0429688-0.1220703,14.1630859,6.3408203,19.2001953,6.2177734c4.390625-0.109375,12.0380859-6.1083984,16.4287109-6.2177734
	c5.0429688-0.1220703,14.1572266,6.3076172,19.1992188,6.2177734c4.5380859-0.0830078,12.5322266-6.1025391,17.0693359-6.2177734
	C471.2451172,466.3798828,473.2480469,466.7011719,474.8798828,467.3125z"/>
<path fill="#007DC6" d="M240.6396484,81.394043v10.7641602c-4.9853516-6.1538086-23.5771484-27.8813477-38.1308594-28.7109375
	c-6.40625-0.3666992-21.3574219,5.4013672-23.8144531,11.355957c-1.8369141,4.449707,8.7871094,15.2202148,6.8671875,19.0786133
	c-1.1582031,2.3208008-26.9179688-38.2539063-49.2607422-39.4370117
	c-11.9042969-0.6303711-33.9140625,13.8251953-41.484375,24.9814453
	c-1.7607422,2.5913086,14.40625,16.1723633,12.0576172,21.3164063c0,0-28.7109375-31.8681641-51.6230469-31.0839844
	C36.4794922,70.3017578,9.4394531,98.8134766,9.4394531,98.8134766
	c-0.0507813-9.6455078,24.640625-34.6459961,46.9580078-37.3271484
	c17.3242188-2.0771484,27.0136719,13.4262695,32.7353516,12.8920898c0,0,24.6787109-28.0097656,46.546875-29.6879883
	c12.5888672-0.9648438,39.1484375,24.9682617,39.1484375,24.9682617s19.2519531-16.0947266,27.4628906-15.6445313
	C217.3759766,54.84375,235.7119141,75.5039063,240.6396484,81.394043z"/>
<path fill="#FFFFFF" d="M285.6318359,307.4755859c-2.2011719-0.0390625-4.9277344-4.7714844-4.9277344-6.996582
	c0-2.0063477,1.4589844-4.0444336,2.40625-7.1503906c1.4150391-4.7260742,2.5214844-10.0761719,2.5214844-10.0761719
	s1.6513672,5.4399414,3.3085938,10.0825195c1.1083984,3.0737305,2.4511719,5.3691406,2.4511719,7.0668945
	C291.3916016,302.6845703,287.9169922,307.5205078,285.6318359,307.4755859z"/>
<path fill="#FFFFFF" d="M285.6318359,385.9238281c-2.2011719-0.0380859-4.9277344-4.7705078-4.9277344-6.9960938
	c0-2.0058594,1.4589844-4.0439453,2.40625-7.1503906c1.4150391-4.7255859,2.5214844-10.0761719,2.5214844-10.0761719
	s1.6513672,5.4404297,3.3085938,10.0830078c1.1083984,3.0732422,2.4511719,5.3691406,2.4511719,7.0664063
	C291.3916016,381.1269531,287.9169922,385.9697266,285.6318359,385.9238281z"/>
<path fill="#FFFFFF" d="M268.7744141,349.2714844c-4.1533203,0-5.3505859-7.2080078-5.3505859-11.1494141
	c0-3.5761719,1.4599609-3.9931641,2.4072266-9.5107422c1.4140625-8.4111328,2.5214844-21.1357422,2.5214844-21.1357422
	s1.6503906,12.8857422,3.3085938,21.1357422c1.1064453,5.4716797,2.4511719,6.3466797,2.4511719,9.3623047
	C274.1123047,342.0380859,272.6201172,349.2714844,268.7744141,349.2714844z"/>
<path fill="#FFFFFF" d="M250.2148438,391.0683594c-4.1474609,0-5.3515625-6.359375-5.3515625-9.8378906
	c0-3.1572266,1.4658203-3.5175781,2.4003906-8.3916016c1.421875-7.4208984,2.5283203-18.6611328,2.5283203-18.6611328
	s1.6513672,11.3759766,3.3085938,18.6669922c1.1074219,4.8291016,2.4511719,5.5947266,2.4511719,8.2568359
	C255.5517578,384.6894531,254.0605469,391.0683594,250.2148438,391.0683594z"/>
<path fill="#FFFFFF" d="M230.6240234,311.9765625c1.4267578-4.7265625,2.5341797-10.0761719,2.5341797-10.0761719
	s1.6445313,5.4394531,3.3085938,10.0820313c1.1015625,3.0742188,2.4511719,5.3701172,2.4511719,7.0673828
	c0,2.2763672-3.4814453,7.1181641-5.7597656,7.0732422c-2.2138672-0.0380859-4.9345703-4.7714844-4.9345703-6.9960938
	C228.2236328,317.1201172,229.6894531,315.0820313,230.6240234,311.9765625z"/>
<path fill="#FFFFFF" d="M216.5439453,376.921875c1.4267578-4.7255859,2.5341797-10.0761719,2.5341797-10.0761719
	s1.6445313,5.4394531,3.3085938,10.0820313c1.1015625,3.0742188,2.4511719,5.3701172,2.4511719,7.0673828
	c0,2.2763672-3.4814453,7.1181641-5.7597656,7.0732422c-2.2138672-0.0380859-4.9345703-4.7714844-4.9345703-6.9960938
	C214.1435547,382.0664063,215.609375,380.0273438,216.5439453,376.921875z"/>
<path fill="#FFFFFF" d="M200.5439453,335.3115234c1.4267578-10.6416016,2.5341797-26.7626953,2.5341797-26.7626953
	s1.6455078,16.3134766,3.3095703,26.7822266c1.1005859,6.9248047,2.4511719,8.0185547,2.4511719,11.8505859
	c0,5.1445313-1.4921875,14.3076172-5.3447266,14.3076172c-4.1464844,0-5.3505859-9.1376953-5.3505859-14.1269531
	C198.1435547,342.8349609,199.609375,342.3144531,200.5439453,335.3115234z"/>
<path fill="#FFFFFF" d="M180.0634766,298.4726563c1.4277344-4.7260742,2.5351563-10.0761719,2.5351563-10.0761719
	s1.6445313,5.4399414,3.3085938,10.0830078c1.1005859,3.0732422,2.4511719,5.3691406,2.4511719,7.0664063
	c0,2.2763672-3.4814453,7.1181641-5.7597656,7.0732422c-2.2148438-0.0380859-4.9345703-4.7714844-4.9345703-6.9960938
	C177.6640625,303.6171875,179.1289063,301.578125,180.0634766,298.4726563z"/>
<path fill="#FFFFFF" d="M181.3183594,389.7822266c-2.2138672-0.0380859-4.9345703-4.7714844-4.9345703-6.9960938
	c0-2.0058594,1.4658203-4.0449219,2.4003906-7.1503906c1.4267578-4.7255859,2.5341797-10.0761719,2.5341797-10.0761719
	S182.9628906,371,184.6269531,375.6425781c1.1015625,3.0732422,2.4511719,5.3691406,2.4511719,7.0664063
	C187.078125,384.9853516,183.5966797,389.8271484,181.3183594,389.7822266z"/>
<path fill="#FFFFFF" d="M308.4609375,240.4912109c0,0-8.640625,30.222168-75.5136719,30.222168
	c-66.5605469,0-75.5195313-30.222168-75.5195313-30.222168H308.4609375z"/>
<path fill="#007DC6" d="M250.2148438,391.0683594c3.8457031,0,5.3369141-6.3789063,5.3369141-9.9667969
	c0-2.6621094-1.34375-3.4277344-2.4511719-8.2568359c-1.6572266-7.2910156-3.3085938-18.6669922-3.3085938-18.6669922
	s-1.1064453,11.2402344-2.5283203,18.6611328c-0.9345703,4.8740234-2.4003906,5.234375-2.4003906,8.3916016
	C244.8632813,384.7089844,246.0673828,391.0683594,250.2148438,391.0683594z M233.1582031,326.1230469
	c2.2783203,0.0449219,5.7597656-4.796875,5.7597656-7.0732422c0-1.6972656-1.3496094-3.9931641-2.4511719-7.0673828
	c-1.6640625-4.6425781-3.3085938-10.0820313-3.3085938-10.0820313s-1.1074219,5.3496094-2.5341797,10.0761719
	c-0.9345703,3.1054688-2.4003906,5.1435547-2.4003906,7.1503906
	C228.2236328,321.3515625,230.9443359,326.0849609,233.1582031,326.1230469z M219.078125,391.0683594
	c2.2783203,0.0449219,5.7597656-4.796875,5.7597656-7.0732422c0-1.6972656-1.3496094-3.9931641-2.4511719-7.0673828
	c-1.6640625-4.6425781-3.3085938-10.0820313-3.3085938-10.0820313s-1.1074219,5.3505859-2.5341797,10.0761719
	c-0.9345703,3.1054688-2.4003906,5.1445313-2.4003906,7.1503906
	C214.1435547,386.296875,216.8642578,391.0302734,219.078125,391.0683594z M203.4941406,361.4892578
	c3.8525391,0,5.3447266-9.1630859,5.3447266-14.3076172c0-3.8320313-1.3505859-4.9257813-2.4511719-11.8505859
	c-1.6640625-10.46875-3.3095703-26.7822266-3.3095703-26.7822266s-1.1074219,16.1210938-2.5341797,26.7626953
	c-0.9345703,7.0029297-2.4003906,7.5234375-2.4003906,12.0507813
	C198.1435547,352.3515625,199.3476563,361.4892578,203.4941406,361.4892578z M182.5986328,312.6191406
	c2.2783203,0.0449219,5.7597656-4.796875,5.7597656-7.0732422c0-1.6972656-1.3505859-3.9931641-2.4511719-7.0664063
	c-1.6640625-4.6430664-3.3085938-10.0830078-3.3085938-10.0830078s-1.1074219,5.3500977-2.5351563,10.0761719
	c-0.9345703,3.1054688-2.3994141,5.1445313-2.3994141,7.1503906
	C177.6640625,307.8476563,180.3837891,312.5810547,182.5986328,312.6191406z M181.3183594,389.7822266
	c2.2783203,0.0449219,5.7597656-4.796875,5.7597656-7.0732422c0-1.6972656-1.3496094-3.9931641-2.4511719-7.0664063
	c-1.6640625-4.6425781-3.3085938-10.0830078-3.3085938-10.0830078s-1.1074219,5.3505859-2.5341797,10.0761719
	c-0.9345703,3.1054688-2.4003906,5.1445313-2.4003906,7.1503906
	C176.3837891,385.0107422,179.1044922,389.7441406,181.3183594,389.7822266z M157.4277344,240.4912109
	c0,0,8.9589844,30.222168,75.5195313,30.222168c66.8730469,0,75.5136719-30.222168,75.5136719-30.222168H157.4277344z
	 M280.7041016,378.9277344c0,2.2255859,2.7265625,6.9580078,4.9277344,6.9960938
	c2.2851563,0.0458984,5.7597656-4.796875,5.7597656-7.0732422c0-1.6972656-1.3427734-3.9931641-2.4511719-7.0664063
	c-1.6572266-4.6425781-3.3085938-10.0830078-3.3085938-10.0830078s-1.1064453,5.3505859-2.5214844,10.0761719
	C282.1630859,374.8837891,280.7041016,376.921875,280.7041016,378.9277344z M280.7041016,300.4790039
	c0,2.2250977,2.7265625,6.9575195,4.9277344,6.996582c2.2851563,0.0449219,5.7597656-4.7910156,5.7597656-7.0737305
	c0-1.6977539-1.3427734-3.9931641-2.4511719-7.0668945c-1.6572266-4.6425781-3.3085938-10.0825195-3.3085938-10.0825195
	s-1.1064453,5.3500977-2.5214844,10.0761719C282.1630859,296.4345703,280.7041016,298.4726563,280.7041016,300.4790039z
	 M268.7744141,349.2714844c3.8457031,0,5.3378906-7.2333984,5.3378906-11.2978516
	c0-3.015625-1.3447266-3.890625-2.4511719-9.3623047c-1.6582031-8.25-3.3085938-21.1357422-3.3085938-21.1357422
	s-1.1074219,12.7246094-2.5214844,21.1357422c-0.9472656,5.5175781-2.4072266,5.9345703-2.4072266,9.5107422
	C263.4238281,342.0634766,264.6210938,349.2714844,268.7744141,349.2714844z M276.25,194.5151367
	c-2.265625-0.1669922-14.7460938,13.6899414-15.7890625,12.2172852
	c-4.9287109-6.9829102-23.4111328-26.2480469-25.0371094-23.3544922
	c-3.3730469,5.9990234-33.1074219,26.0488281-33.1074219,26.0488281s-6.2080078-7.1953125-8.6210938-11.0537109
	c0,0-21.9775391,19.4516602-21.9775391,27.8686523c0,2.675293,1.3632813,9.7802734,2.9892578,10.2885742
	c0,0,4.4931641-4.2954102,9.5742188-7.4912109c5.1201172-3.215332,8.4355469-9.5878906,11.0654297-9.6582031
	c2.8808594-0.0771484,14.7333984,12.4296875,14.7333984,12.4296875s15.5576172-26.8076172,23.3603516-24.6791992
	c15.1992188,4.1538086,21.5869141,25.4379883,22.7519531,23.6118164c3.328125-5.2021484,8.9462891-5.0541992,12.03125-7.1054688
	c1.4462891-0.9584961,4.3779297-4.9189453,6.1054688-4.8999023c7.5712891,0.0771484,12.5830078,17.7924805,12.5830078,17.7924805
	s6.3994141-5.9736328,6.3994141-14.1464844C293.3115234,213.6708984,279.8203125,194.7851563,276.25,194.5151367z
	 M330.8798828,412.8222656H149.1201172V177.4746094h181.7597656V412.8222656z"/>
<path fill="#EE1C24" d="M260.4609375,206.7324219c1.0429688,1.4726563,13.5234375-12.3842773,15.7890625-12.2172852
	c3.5703125,0.2700195,17.0615234,19.1557617,17.0615234,27.8686523c0,8.1728516-6.3994141,14.1464844-6.3994141,14.1464844
	s-5.0117188-17.715332-12.5830078-17.7924805c-1.7275391-0.019043-4.6591797,3.9414063-6.1054688,4.8999023
	c-3.0849609,2.0512695-8.703125,1.9033203-12.03125,7.1054688c-1.1650391,1.8261719-7.5527344-19.4580078-22.7519531-23.6118164
	c-7.8027344-2.128418-23.3603516,24.6791992-23.3603516,24.6791992s-11.8525391-12.5068359-14.7333984-12.4296875
	c-2.6298828,0.0703125-5.9453125,6.4428711-11.0654297,9.6582031c-5.0810547,3.1958008-9.5742188,7.4912109-9.5742188,7.4912109
	c-1.6259766-0.5083008-2.9892578-7.6132813-2.9892578-10.2885742c0-8.4169922,21.9775391-27.8686523,21.9775391-27.8686523
	c2.4130859,3.8583984,8.6210938,11.0537109,8.6210938,11.0537109s29.734375-20.0498047,33.1074219-26.0488281
	C237.0498047,180.484375,255.5322266,199.7495117,260.4609375,206.7324219z"/>
</svg>
